<svg width="274" height="26" viewBox="0 0 274 26" fill="none" xmlns="http://www.w3.org/2000/svg">
<path d="M4.17946 0.669765C4.87957 0.443503 5.77063 0.280875 6.86676 0.181885L17.3614 0.181885C19.7022 0.259663 21.6964 0.888957 23.3371 2.08391C24.3059 3.15158 24.8434 4.43845 24.9424 5.93037V10.1869C24.8929 11.9051 24.0584 13.3334 22.439 14.4789C20.0487 15.5253 16.8734 16.0344 12.9132 16.0132L9.9218 16.197C8.62765 16.2748 7.63052 16.5082 6.93748 16.9041C6.28687 17.5263 6.004 18.4102 6.08179 19.5556C6.08179 20.1779 6.39295 20.489 7.01527 20.489H23.9736C24.7232 20.489 25.0909 20.8637 25.0909 21.6061V24.5193C25.0909 25.2688 24.7161 25.6364 23.9736 25.6364H1.11735C0.367736 25.6364 0 25.2617 0 24.5193L0 19.7748C0.0212155 17.3849 0.700112 15.391 2.01548 13.8001C2.71559 13.0294 3.70565 12.4708 5.00687 12.1172C8.24577 11.5728 11.2301 11.2193 13.9669 11.0708C14.964 11.0213 15.9612 10.9082 16.9512 10.7314C18.5424 10.4556 19.2425 9.45158 19.0445 7.70512C19.292 6.2132 18.7475 5.26573 17.4038 4.86977L7.95583 4.86977C6.26566 5.24451 5.57969 6.27684 5.90499 7.96674C5.90499 8.71624 5.53018 9.08391 4.78764 9.08391H1.12442C0.374808 9.08391 0.00707201 8.70916 0.00707201 7.96674L0.00707201 5.42836C0.0565749 3.23644 1.44973 1.64552 4.19361 0.648554L4.17946 0.669765Z" fill="white"/>
<path d="M67.2703 0.669765C67.9705 0.443503 68.8615 0.280875 69.9576 0.181885L80.4523 0.181885C82.793 0.259663 84.7873 0.888957 86.428 2.08391C87.3968 3.15158 87.9343 4.43845 88.0333 5.93037V10.1869C87.9838 11.9051 87.1493 13.3334 85.5298 14.4789C83.1396 15.5253 79.9643 16.0344 76.0041 16.0132L73.0127 16.197C71.7185 16.2748 70.7214 16.5082 70.0284 16.9041C69.3778 17.5263 69.0949 18.4102 69.1727 19.5556C69.1727 20.1779 69.4838 20.489 70.1062 20.489H87.0644C87.8141 20.489 88.1818 20.8637 88.1818 21.6061V24.5193C88.1818 25.2688 87.807 25.6364 87.0644 25.6364H64.2082C63.4586 25.6364 63.0909 25.2617 63.0909 24.5193V19.7748C63.1121 17.3849 63.791 15.391 65.1064 13.8001C65.8065 13.0294 66.7965 12.4708 68.0978 12.1172C71.3367 11.5728 74.321 11.2193 77.0578 11.0708C78.0549 11.0213 79.052 10.9082 80.0421 10.7314C81.6333 10.4556 82.3334 9.45158 82.1354 7.70512C82.3829 6.2132 81.8383 5.26573 80.4947 4.86977L71.0467 4.86977C69.3565 5.24451 68.6706 6.27684 68.9959 7.96674C68.9959 8.71624 68.6211 9.08391 67.8785 9.08391H64.2153C63.4657 9.08391 63.098 8.70916 63.098 7.96674V5.42836C63.1475 3.23644 64.5406 1.64552 67.2845 0.648554L67.2703 0.669765Z" fill="white"/>
<path d="M119.528 16.0407L117.373 12.2772C116.605 10.9427 115.189 10.1166 113.654 10.1166H111.759L103.441 10.0954C102.3 10.1236 101.504 10.3425 101.061 10.7662C100.863 10.9639 100.673 10.9498 100.504 10.7309C100.427 9.63643 100.406 8.58436 100.427 7.56053C100.279 6.21896 100.934 5.37165 102.399 5.02566L110.956 5.02566C112.689 4.87738 113.548 5.67527 113.52 7.41225C113.52 7.88533 113.893 8.11834 114.633 8.11834H118.429C119.176 8.11834 119.542 7.74411 119.542 7.00272C119.62 4.76441 119 3.02743 117.683 1.78471C116.542 0.887978 115.056 0.358407 113.217 0.181885L101.687 0.181885C100.251 0.308981 98.9687 0.591422 97.8558 1.03626C96.8909 1.36106 96.0316 2.18013 95.2921 3.50052C94.8483 4.4961 94.5948 5.49169 94.5455 6.48727V19.3522C94.6229 20.6726 94.9399 21.8518 95.5104 22.8968C96.1795 23.9418 97.0952 24.6338 98.2643 24.9868C99.0602 25.2834 100.046 25.4952 101.237 25.6223H111.745V25.6364H113.64C115.175 25.6364 116.591 24.8103 117.359 23.4758L119.514 19.7123C120.162 18.5755 120.162 17.1845 119.514 16.0477L119.528 16.0407ZM113.499 18.8368L112.569 20.4467C112.231 21.0257 111.618 21.3858 110.942 21.3858H103.012C102.342 21.3858 101.723 21.0257 101.385 20.4467L100.455 18.8368C100.117 18.2578 100.117 17.5376 100.455 16.9586L101.385 15.3487C101.723 14.7697 102.335 14.4096 103.012 14.4096H110.942C111.611 14.4096 112.231 14.7697 112.569 15.3487L113.499 16.9586C113.837 17.5376 113.837 18.2578 113.499 18.8368Z" fill="white"/>
<path d="M57.8235 11.6542L51.8873 1.3458C51.4096 0.514366 50.5244 0 49.569 0L37.7036 0C36.7482 0 35.8631 0.514366 35.3854 1.3458L29.4492 11.6542C28.9715 12.4856 28.9715 13.5073 29.4492 14.3458L35.3854 24.6542C35.8631 25.4856 36.7482 26 37.7036 26H49.569C50.5244 26 51.4096 25.4856 51.8873 24.6542L57.8235 14.3458C58.3012 13.5144 58.3012 12.4927 57.8235 11.6542ZM49.4004 13C49.4004 16.1919 46.8222 18.7848 43.6328 18.7848C40.4434 18.7848 37.8652 16.1989 37.8652 13C37.8652 9.80108 40.4434 7.21517 43.6328 7.21517C46.8222 7.21517 49.4004 9.80108 49.4004 13Z" fill="white"/>
<path d="M128.985 16.6421C130.747 16.3478 132.178 16.851 133.267 18.1326C134.091 19.6801 134.196 21.1421 133.589 22.4902C132.642 24.332 130.833 24.9301 128.152 24.275C127.062 23.8383 126.371 23.0124 126.087 21.8067C125.897 20.9807 125.944 20.0124 126.229 18.9016C126.806 17.62 127.725 16.87 128.985 16.6516V16.6421Z" fill="white"/>
<path d="M142.039 7.4524C142.399 2.75303 144.938 0.284677 149.656 0.0378418H158.542C159.366 0.113791 160.332 0.34165 161.44 0.73089C162.501 1.13912 163.439 1.86062 164.235 2.87644C165.201 4.30998 165.732 5.98087 165.826 7.8891V17.81C165.826 20.0885 164.87 21.9872 162.966 23.5157C161.204 24.6075 159.252 25.2245 157.13 25.367H148.936C146.71 25.291 144.834 24.3131 143.318 22.4239C142.589 21.1612 142.172 19.7562 142.049 18.2087V7.4524H142.039ZM150.489 5.7815C148.727 6.19922 147.827 7.14859 147.808 8.65808V16.5094C147.903 18.3037 148.917 19.329 150.859 19.5948H157.064C158.977 19.1866 159.982 17.8954 160.076 15.7404V9.08531C160.029 7.33847 159.11 6.2372 157.32 5.7815H150.499H150.489Z" fill="white"/>
<path d="M185.739 1.09163C186.488 0.389094 187.217 0.0378418 187.918 0.0378418H192.598C193.327 0.0378418 193.687 0.398596 193.687 1.12961V15.0473C193.687 15.6549 194.085 15.9587 194.881 15.9587C195.677 15.9587 196.074 16.3195 196.074 17.0505V19.9935C196.074 20.7245 195.686 21.0853 194.909 21.0853C194.085 21.0853 193.678 21.3891 193.678 21.9967V23.7435C193.678 24.4746 193.318 24.8353 192.588 24.8353H188.998C188.269 24.8353 187.909 24.4746 187.909 23.7435V21.9967C187.909 21.3891 187.605 21.0853 186.999 21.0853H172.676C171.946 21.0853 171.586 20.7245 171.586 19.9935V15.598C171.586 14.8669 171.946 14.1549 172.676 13.4524L185.73 1.09163H185.739ZM187.909 7.27202C187.909 6.59797 187.53 6.61697 186.781 7.34798C184.025 9.81634 181.268 12.3416 178.511 14.9049C177.715 15.6075 177.668 15.9587 178.369 15.9587H186.999C187.605 15.9587 187.909 15.6549 187.909 15.0473V7.27202Z" fill="white"/>
<path d="M205.68 16.6421C207.442 16.3478 208.873 16.851 209.962 18.1326C210.786 19.6801 210.89 21.1421 210.284 22.4902C209.337 24.332 207.528 24.9301 204.847 24.275C203.757 23.8383 203.066 23.0124 202.781 21.8067C202.592 20.9807 202.639 20.0124 202.924 18.9016C203.501 17.62 204.42 16.87 205.68 16.6516V16.6421Z" fill="white"/>
<path d="M222.722 0.512525C223.395 0.294171 224.267 0.132779 225.337 0.0378418H235.53C237.804 0.113791 239.736 0.730892 241.328 1.88912C242.275 2.93342 242.787 4.17707 242.891 5.6296V9.76886C242.843 11.4397 242.029 12.8353 240.466 13.9461C238.145 14.9619 235.066 15.4651 231.22 15.4366L228.321 15.617C227.061 15.6929 226.095 15.9207 225.422 16.31C224.797 16.9176 224.513 17.772 224.589 18.8923C224.589 19.4999 224.892 19.8037 225.498 19.8037H241.962C242.692 19.8037 243.052 20.1644 243.052 20.8954V23.734C243.052 24.4651 242.692 24.8258 241.962 24.8258H219.767C219.037 24.8258 218.677 24.4651 218.677 23.734V19.1201C218.706 16.7942 219.35 14.8575 220.638 13.31C221.311 12.56 222.287 12.0094 223.537 11.6771C226.682 11.1454 229.581 10.8037 232.243 10.6613C233.209 10.6138 234.175 10.4999 235.142 10.329C236.686 10.0632 237.368 9.0853 237.169 7.38594C237.406 5.9334 236.875 5.01251 235.577 4.62327H226.398C224.75 4.98403 224.086 5.99038 224.399 7.64228C224.399 8.3733 224.039 8.73405 223.31 8.73405H219.757C219.028 8.73405 218.668 8.3733 218.668 7.64228V5.17392C218.715 3.04734 220.07 1.49038 222.732 0.522028L222.722 0.512525Z" fill="white"/>
<path d="M251.834 0.797465C252.971 0.341769 254.202 0.0664557 255.528 0H267.057C268.118 0.0949367 269.084 0.294319 269.956 0.579129C271.813 1.25318 272.769 2.46836 272.817 4.21519V7.9557C272.722 9.3133 272.059 10.3956 270.818 11.193C270.164 11.5538 270.212 11.9525 270.96 12.3893C272.05 13.0443 272.703 13.8418 272.921 14.7912C273.669 18.1804 273.035 21.038 270.998 23.3734C269.766 24.2468 268.251 24.731 266.46 24.8259H255.254C250.754 24.4842 248.641 22.3196 248.907 18.3228C248.907 17.5918 249.267 17.231 249.996 17.231H253.51C254.24 17.231 254.6 17.3734 254.6 17.6677C254.742 19.2437 255.623 19.9557 257.243 19.8133H264.528C265.324 19.8892 265.977 19.7184 266.489 19.3007C267.237 18.5696 267.464 17.3639 267.18 15.6646C266.962 15.0854 266.47 14.7437 265.693 14.6487H256.551C255.822 14.6487 255.462 14.288 255.462 13.557V10.9082C255.462 10.1772 255.822 9.81645 256.551 9.81645H264.67C265.513 9.7405 266.129 9.52215 266.517 9.16139C266.953 8.80063 267.105 8.24999 266.991 7.52847C267.019 6.96835 266.991 6.41773 266.915 5.85761C266.337 4.88925 265.56 4.5095 264.594 4.72786H256.542C255.216 5.08862 254.657 5.81015 254.875 6.87344C254.875 7.35761 254.515 7.60444 253.785 7.60444H250.053C249.323 7.60444 248.963 7.24369 248.963 6.51267C248.916 5.44938 249.068 4.3861 249.437 3.31331C249.825 2.26901 250.612 1.43355 251.796 0.806968L251.834 0.797465Z" fill="white"/>
</svg>
