<svg width="332" height="49" viewBox="0 0 332 49" fill="none" xmlns="http://www.w3.org/2000/svg">
<g clip-path="url(#clip0_267_276)">
<path d="M27.4448 1.28572C27.7971 1.17052 28.2475 1.08298 28.8005 1.03229H34.0897C35.267 1.06915 36.2705 1.40091 37.1 2.023C37.5905 2.58057 37.8581 3.24876 37.9072 4.02752V6.24398C37.8804 7.13794 37.4612 7.88443 36.6451 8.47887C35.441 9.02262 33.8399 9.28991 31.8465 9.27608L30.3391 9.37283C29.688 9.4097 29.1841 9.53411 28.8317 9.74147C28.5062 10.064 28.3635 10.5248 28.3992 11.1239C28.3992 11.4464 28.5552 11.6078 28.8674 11.6078H37.4077C37.7823 11.6078 37.9741 11.8013 37.9741 12.193V13.709C37.9741 14.0961 37.7868 14.2942 37.4077 14.2942H25.8928C25.5182 14.2942 25.3264 14.1007 25.3264 13.709V11.2391C25.3398 9.99491 25.6788 8.9581 26.3432 8.12866C26.6956 7.72776 27.195 7.43747 27.8506 7.25315C29.4829 6.96745 30.9858 6.78774 32.3638 6.7094C32.8633 6.68175 33.3672 6.62645 33.8712 6.53429C34.6739 6.39144 35.0262 5.86611 34.9236 4.95832C35.0485 4.17956 34.772 3.68652 34.0942 3.47916H29.3357C28.4839 3.67269 28.136 4.21184 28.301 5.09197C28.301 5.47905 28.1137 5.67717 27.7347 5.67717H25.8928C25.5182 5.67717 25.3264 5.48366 25.3264 5.09197V3.76947C25.3532 2.63128 26.0534 1.79721 27.4359 1.28111L27.4448 1.28572Z" fill="white"/>
<path d="M40.895 4.99981C41.0823 2.48381 42.4024 1.16131 44.8463 1.03229H49.4576C49.8857 1.06915 50.3852 1.19356 50.965 1.40093C51.518 1.62211 51.9996 2.00457 52.4144 2.54832C52.9139 3.31326 53.1904 4.20722 53.2439 5.23021V10.5387C53.2439 11.7552 52.7488 12.7736 51.7588 13.5892C50.8446 14.1744 49.8322 14.5016 48.7307 14.5799H44.4762C43.3211 14.5431 42.3489 14.0177 41.5595 13.004C41.1849 12.3312 40.9619 11.5801 40.8995 10.7506V4.99519L40.895 4.99981ZM45.2789 4.10584C44.3647 4.32703 43.9009 4.83853 43.8875 5.64033V9.83825C43.9365 10.7967 44.4628 11.3497 45.4662 11.4926H48.6816C49.6717 11.2714 50.1934 10.5848 50.2425 9.43274V5.87535C50.2157 4.93991 49.743 4.35468 48.811 4.10584H45.2744H45.2789Z" fill="white"/>
<path d="M58.3369 1.28572C58.6892 1.17052 59.1396 1.08298 59.6926 1.03229H64.9818C66.1591 1.06915 67.1626 1.40091 67.9921 2.023C68.4826 2.58057 68.7502 3.24876 68.7993 4.02752V6.24398C68.7725 7.13794 68.3533 7.88443 67.5372 8.47887C66.3331 9.02262 64.732 9.28991 62.7386 9.27608L61.2312 9.37283C60.5801 9.4097 60.0761 9.53411 59.7238 9.74147C59.3983 10.064 59.2556 10.5248 59.2912 11.1239C59.2912 11.4464 59.4473 11.6078 59.7595 11.6078H68.2998C68.6744 11.6078 68.8661 11.8013 68.8661 12.193V13.709C68.8661 14.0961 68.6788 14.2942 68.2998 14.2942H56.7849C56.4103 14.2942 56.2185 14.1007 56.2185 13.709V11.2391C56.2319 9.99491 56.5708 8.9581 57.2353 8.12866C57.5876 7.72776 58.0871 7.43747 58.7427 7.25315C60.3749 6.96745 61.8778 6.78774 63.2559 6.7094C63.7554 6.68175 64.2593 6.62645 64.7633 6.53429C65.566 6.39144 65.9183 5.86611 65.8157 4.95832C65.9406 4.17956 65.6641 3.68652 64.9862 3.47916H60.2278C59.376 3.67269 59.0281 4.21184 59.1931 5.09197C59.1931 5.47905 59.0058 5.67717 58.6267 5.67717H56.7849C56.4103 5.67717 56.2185 5.48366 56.2185 5.09197V3.76947C56.2453 2.63128 56.9455 1.79721 58.3279 1.28111L58.3369 1.28572Z" fill="white"/>
<path d="M73.4286 1.48389C73.995 1.24888 74.6372 1.10144 75.3686 1.03693H81.2018C82.1294 1.12909 82.8831 1.40557 83.4584 1.87098C84.1229 2.52071 84.4351 3.42849 84.3994 4.59432C84.3994 4.9814 84.2121 5.17955 83.833 5.17955H81.9154C81.5407 5.17955 81.349 5.05514 81.349 4.81091C81.3624 3.90313 80.9298 3.4884 80.0512 3.56674H75.7253C74.985 3.74645 74.655 4.18882 74.7264 4.88924C74.713 5.41917 74.7264 5.97212 74.762 6.54351C74.8512 6.65872 74.9449 6.66795 75.043 6.56196C75.2704 6.34078 75.6718 6.22557 76.2471 6.21175H81.3445C83.1373 6.32695 84.1274 7.2762 84.3191 9.05029V11.3267C84.2433 12.6077 83.6145 13.5063 82.4371 14.0085C82.0715 14.1514 81.6076 14.2482 81.0457 14.2989H75.1367C74.5346 14.2343 74.0307 14.1238 73.6293 13.9671C73.0406 13.7874 72.5768 13.4233 72.2379 12.8796C71.948 12.3358 71.7875 11.7184 71.7473 11.0318V4.32246C71.7741 3.80636 71.8989 3.28565 72.1219 2.76494C72.4965 2.07834 72.9291 1.64978 73.4197 1.48389H73.4286ZM75.9483 8.65401C75.3953 8.52498 75.0029 8.78763 74.762 9.45119C74.7264 9.87974 74.713 10.3267 74.7264 10.7921C74.878 11.4004 75.2036 11.7276 75.703 11.7644H80.1449C81.0725 11.5847 81.4739 11.1147 81.349 10.3636V9.6263C81.1617 8.88901 80.7291 8.56185 80.0512 8.65401H75.9483Z" fill="white"/>
<path d="M89.3628 9.92114C90.2771 9.76447 91.0173 10.0317 91.5837 10.7183C92.0119 11.5478 92.0654 12.3265 91.7532 13.05C91.2626 14.0361 90.3216 14.3541 88.9302 14.0039C88.3639 13.7689 88.0071 13.3311 87.8599 12.6814C87.7573 12.239 87.7841 11.7229 87.9357 11.1238C88.2345 10.4372 88.7117 10.0363 89.3673 9.91653L89.3628 9.92114Z" fill="white"/>
<path d="M96.1323 4.99981C96.3196 2.48381 97.6397 1.16131 100.084 1.03229H104.695C105.123 1.06915 105.622 1.19356 106.202 1.40093C106.755 1.62211 107.237 2.00457 107.652 2.54832C108.151 3.31326 108.428 4.20722 108.481 5.23021V10.5387C108.481 11.7552 107.986 12.7736 106.996 13.5892C106.082 14.1744 105.07 14.5016 103.968 14.5799H99.7134C98.5584 14.5431 97.5862 14.0177 96.7968 13.004C96.4222 12.3312 96.1992 11.5801 96.1368 10.7506V4.99519L96.1323 4.99981ZM100.516 4.10584C99.6019 4.32703 99.1381 4.83853 99.1248 5.64033V9.83825C99.1738 10.7967 99.7001 11.3497 100.703 11.4926H103.919C104.909 11.2714 105.431 10.5848 105.48 9.43274V5.87535C105.453 4.93991 104.98 4.35468 104.048 4.10584H100.512H100.516Z" fill="white"/>
<path d="M118.806 1.59909C119.194 1.22123 119.568 1.03693 119.934 1.03693H122.36C122.734 1.03693 122.926 1.23044 122.926 1.62213V9.06874C122.926 9.3913 123.131 9.55258 123.546 9.55258C123.961 9.55258 124.166 9.74613 124.166 10.1378V11.7138C124.166 12.1008 123.965 12.299 123.564 12.299C123.136 12.299 122.926 12.4603 122.926 12.7828V13.7182C122.926 14.1053 122.739 14.3035 122.36 14.3035H120.496C120.121 14.3035 119.929 14.1099 119.929 13.7182V12.7828C119.929 12.4603 119.773 12.299 119.461 12.299H112.027C111.652 12.299 111.46 12.1054 111.46 11.7138V9.35905C111.46 8.97197 111.648 8.58948 112.027 8.21162L118.801 1.60371L118.806 1.59909ZM119.934 4.90305C119.934 4.53902 119.738 4.55285 119.35 4.93992C117.918 6.26243 116.491 7.608 115.059 8.9858C114.645 9.36366 114.622 9.54797 114.984 9.54797H119.461C119.773 9.54797 119.929 9.38669 119.929 9.06413V4.90305H119.934Z" fill="white"/>
<path d="M129.152 9.92114C130.066 9.76447 130.807 10.0317 131.373 10.7183C131.801 11.5478 131.855 12.3265 131.542 13.05C131.052 14.0361 130.111 14.3541 128.72 14.0039C128.153 13.7689 127.796 13.3311 127.649 12.6814C127.547 12.239 127.573 11.7229 127.725 11.1238C128.024 10.4372 128.501 10.0363 129.157 9.91653L129.152 9.92114Z" fill="white"/>
<path d="M137.996 1.28572C138.348 1.17052 138.799 1.08298 139.352 1.03229H144.641C145.818 1.06915 146.822 1.40091 147.651 2.023C148.142 2.58057 148.409 3.24876 148.458 4.02752V6.24398C148.432 7.13794 148.012 7.88443 147.196 8.47887C145.992 9.02262 144.391 9.28991 142.398 9.27608L140.89 9.37283C140.239 9.4097 139.735 9.53411 139.383 9.74147C139.057 10.064 138.915 10.5248 138.95 11.1239C138.95 11.4464 139.106 11.6078 139.419 11.6078H147.959C148.333 11.6078 148.525 11.8013 148.525 12.193V13.709C148.525 14.0961 148.338 14.2942 147.959 14.2942H136.444C136.069 14.2942 135.878 14.1007 135.878 13.709V11.2391C135.891 9.99491 136.23 8.9581 136.894 8.12866C137.247 7.72776 137.746 7.43747 138.402 7.25315C140.034 6.96745 141.537 6.78774 142.915 6.7094C143.414 6.68175 143.918 6.62645 144.422 6.53429C145.225 6.39144 145.577 5.86611 145.475 4.95832C145.6 4.17956 145.323 3.68652 144.645 3.47916H139.887C139.035 3.67269 138.687 4.21184 138.852 5.09197C138.852 5.47905 138.665 5.67717 138.286 5.67717H136.444C136.069 5.67717 135.878 5.48366 135.878 5.09197V3.76947C135.904 2.63128 136.604 1.79721 137.987 1.28111L137.996 1.28572Z" fill="white"/>
<path d="M153.1 1.44231C153.689 1.19808 154.331 1.05521 155.018 1.01373H161.003C161.556 1.06442 162.055 1.17043 162.51 1.32249C163.478 1.68653 163.973 2.33164 163.995 3.26707V5.27159C163.946 5.99966 163.598 6.57566 162.961 6.9996C162.622 7.19314 162.648 7.4097 163.036 7.6401C163.603 7.99031 163.942 8.41888 164.053 8.92576C164.441 10.7413 164.111 12.2712 163.054 13.5154C162.416 13.9808 161.632 14.2434 160.704 14.2941H154.889C152.556 14.1144 151.459 12.9532 151.597 10.8151C151.597 10.428 151.785 10.2298 152.164 10.2298H153.988C154.362 10.2298 154.554 10.3082 154.554 10.4648C154.63 11.3081 155.089 11.6906 155.928 11.6122H159.709C160.124 11.6491 160.463 11.5616 160.726 11.3404C161.114 10.9533 161.235 10.3035 161.083 9.39576C160.972 9.08242 160.713 8.90271 160.311 8.85202H155.571C155.196 8.85202 155.004 8.6585 155.004 8.26682V6.84753C155.004 6.46046 155.192 6.2623 155.571 6.2623H159.785C160.222 6.22544 160.543 6.10562 160.744 5.91209C160.972 5.71855 161.052 5.42826 160.989 5.03657C161.003 4.73705 160.989 4.44214 160.954 4.14261C160.65 3.62651 160.249 3.42376 159.75 3.53896H155.571C154.88 3.7325 154.594 4.11496 154.706 4.68636C154.706 4.94441 154.518 5.07342 154.139 5.07342H152.199C151.825 5.07342 151.633 4.8799 151.633 4.48822C151.606 3.91682 151.691 3.35002 151.878 2.77862C152.079 2.22105 152.485 1.77408 153.1 1.43769V1.44231Z" fill="white"/>
<path d="M168.428 8.43738C168.428 5.5251 169.499 3.43304 171.006 1.91699L172.233 2.88928C170.846 4.58043 170.257 5.94902 170.257 8.44197C170.257 10.9349 170.846 12.2989 172.233 14.0177L171.006 14.99C169.499 13.4463 168.428 11.3819 168.428 8.44197V8.43738Z" fill="white"/>
<path d="M184.385 2.797V13.0868H182.53V12.414H175.809V13.1836H174.039V2.79242H184.385V2.797ZM182.534 10.6768V9.63074C182.392 9.65378 182.231 9.65377 182.102 9.65377H181.196C179.894 9.65377 179.631 8.94416 179.631 7.48802V4.53886H178.739C178.69 7.38663 178.449 9.24368 176.665 10.3127C176.523 9.9395 176.148 9.39113 175.809 9.0317V10.6768H182.53H182.534ZM175.809 4.54347V8.76443C176.929 7.94419 177.013 6.70003 177.027 4.54347H175.809ZM182.534 4.54347H181.259V7.52947C181.259 7.96724 181.272 8.16539 181.486 8.16539H182.053C182.187 8.16539 182.365 8.15155 182.534 8.12851V4.54347Z" fill="white"/>
<path d="M186.209 14.013C187.596 12.2942 188.184 10.9532 188.184 8.43724C188.184 5.92124 187.596 4.58028 186.209 2.88452L187.435 1.91223C188.943 3.42828 190.013 5.52034 190.013 8.43262C190.013 11.3449 188.943 13.4369 187.435 14.9806L186.209 14.0083V14.013Z" fill="white"/>
<path opacity="0.5" d="M8.17441 16.6397C12.5537 16.6397 16.1037 12.9715 16.1037 8.44657C16.1037 3.92164 12.5537 0.253479 8.17441 0.253479C3.79518 0.253479 0.245117 3.92164 0.245117 8.44657C0.245117 12.9715 3.79518 16.6397 8.17441 16.6397Z" fill="white"/>
<path d="M8.17457 16.8931C3.66585 16.8931 0 13.1053 0 8.44652C0 3.78779 3.66585 0 8.17457 0C12.6833 0 16.3491 3.78779 16.3491 8.44652C16.3491 13.1053 12.6833 16.8931 8.17457 16.8931ZM8.17457 0.506873C3.93789 0.506873 0.490563 4.06888 0.490563 8.44652C0.490563 12.8242 3.93789 16.3862 8.17457 16.3862C12.4113 16.3862 15.8586 12.8242 15.8586 8.44652C15.8586 4.06888 12.4113 0.506873 8.17457 0.506873Z" fill="white"/>
<path opacity="0.5" d="M8.71866 4.75554L9.2226 6.57111L10.9976 6.1103C11.5505 5.96745 11.943 6.66329 11.5416 7.08723L10.2706 8.44658L11.5416 9.80596C11.9385 10.2299 11.5505 10.9257 10.9976 10.7829L9.2226 10.3221L8.71866 12.1376C8.56257 12.7044 7.78213 12.7044 7.62604 12.1376L7.1221 10.3221L5.34715 10.7829C4.79415 10.9257 4.4017 10.2299 4.80307 9.80596L6.07408 8.44658L4.80307 7.08723C4.40616 6.66329 4.79415 5.96745 5.34715 6.1103L7.1221 6.57111L7.62604 4.75554C7.78213 4.18875 8.56257 4.18875 8.71866 4.75554Z" fill="white"/>
<path d="M198.593 6.58146C198.702 5.14498 199.453 4.39111 200.85 4.3161H203.482C203.725 4.3386 204.012 4.40987 204.342 4.52613C204.658 4.6499 204.934 4.87119 205.17 5.18249C205.457 5.62131 205.613 6.1314 205.642 6.71274V9.74323C205.642 10.4371 205.359 11.0184 204.792 11.4872C204.27 11.8211 203.693 12.0086 203.061 12.0536H200.633C199.972 12.0311 199.42 11.731 198.967 11.1534C198.752 10.7671 198.625 10.3396 198.589 9.86699V6.58146H198.593ZM201.094 6.07138C200.571 6.1989 200.306 6.49146 200.299 6.94903V9.34567C200.328 9.89326 200.629 10.2083 201.202 10.2908H203.039C203.605 10.167 203.903 9.77322 203.932 9.11311V7.08029C203.918 6.54771 203.645 6.21015 203.115 6.07138H201.094Z" fill="white"/>
<path d="M207.402 4.54858C207.66 4.43606 207.993 4.36105 208.4 4.31604H211.765C212.222 4.34604 212.654 4.50732 213.053 4.80361C213.435 5.15242 213.631 5.69627 213.645 6.43514V9.79942C213.616 10.422 213.435 10.9396 213.097 11.3522C212.676 11.6635 212.157 11.8397 211.54 11.8847H208.36C207.736 11.8772 207.217 11.5772 206.803 10.9846C206.574 10.6808 206.476 10.302 206.513 9.85193C206.513 9.63064 206.621 9.51812 206.836 9.51812H207.943C208.157 9.51812 208.266 9.6569 208.266 9.92695C208.353 10.3208 208.581 10.4895 208.952 10.437H211.155C211.75 10.377 212.03 10.0695 211.994 9.51437V8.92552C211.994 8.74174 211.877 8.68174 211.649 8.74925L211.013 8.85053H208.146C207.66 8.82052 207.26 8.69299 206.952 8.46045C206.694 8.14165 206.542 7.79285 206.491 7.41779V5.9513C206.534 5.3437 206.839 4.87487 207.405 4.54107L207.402 4.54858ZM208.625 5.80129C208.244 5.8913 208.084 6.10134 208.142 6.43514C208.121 6.75394 208.142 6.98647 208.208 7.1365C208.317 7.34278 208.48 7.46281 208.701 7.49281H211.13C211.543 7.53782 211.819 7.35777 211.957 6.96021C211.979 6.5739 211.957 6.3076 211.892 6.16133C211.776 5.95505 211.605 5.83505 211.376 5.80504H208.625V5.80129Z" fill="white"/>
<path d="M215.609 5.26868C216.411 5.05489 216.93 5.33245 217.166 6.10132C217.261 6.75393 217.036 7.20026 216.502 7.44404C216.288 7.54156 216.03 7.5528 215.729 7.47779C215.479 7.43278 215.275 7.29027 215.116 7.04648C214.894 6.68267 214.872 6.26261 215.05 5.78253C215.177 5.50874 215.366 5.33994 215.609 5.27243V5.26868ZM215.794 9.61188C216.244 9.52187 216.64 9.64189 216.978 9.96819C217.228 10.347 217.283 10.7521 217.137 11.1909C216.999 11.5997 216.695 11.8322 216.212 11.8923C215.667 11.9523 215.279 11.7347 215.05 11.2359C214.88 10.7933 214.949 10.347 215.264 9.90444C215.381 9.76567 215.555 9.66814 215.791 9.61563L215.794 9.61188Z" fill="white"/>
<path d="M219.413 4.54852C219.751 4.40975 220.114 4.32725 220.509 4.30475H223.925C224.241 4.33475 224.527 4.39475 224.785 4.48102C225.337 4.6873 225.62 5.05862 225.635 5.5912V6.73513C225.606 7.1477 225.41 7.47775 225.043 7.72154C224.851 7.83406 224.865 7.95407 225.086 8.08909C225.41 8.28787 225.602 8.53167 225.667 8.82046C225.889 9.85563 225.7 10.7295 225.097 11.4421C224.731 11.7084 224.284 11.8584 223.754 11.8847H220.433C219.101 11.7797 218.473 11.1196 218.553 9.89688C218.553 9.6756 218.662 9.56308 218.876 9.56308H219.918C220.132 9.56308 220.241 9.60808 220.241 9.69809C220.284 10.1782 220.546 10.3957 221.025 10.3544H223.184C223.42 10.377 223.613 10.3245 223.765 10.2007C223.987 9.9794 224.056 9.60808 223.968 9.0905C223.903 8.91422 223.758 8.80922 223.529 8.77921H220.821C220.607 8.77921 220.498 8.66669 220.498 8.4454V7.63526C220.498 7.41398 220.607 7.30148 220.821 7.30148H223.228C223.478 7.27897 223.66 7.21145 223.776 7.10268C223.903 6.99016 223.95 6.82513 223.914 6.60385C223.921 6.43507 223.914 6.26255 223.892 6.09377C223.722 5.79747 223.489 5.68496 223.206 5.74872H220.821C220.429 5.86124 220.262 6.07877 220.328 6.40508C220.328 6.5551 220.219 6.62637 220.005 6.62637H218.898C218.683 6.62637 218.575 6.51385 218.575 6.29256C218.56 5.96626 218.607 5.63994 218.712 5.31739C218.829 4.99859 219.061 4.74356 219.409 4.55228L219.413 4.54852Z" fill="white"/>
<path d="M226.408 6.58139C226.517 5.14491 227.268 4.39105 228.666 4.31604H231.297C231.541 4.33854 231.827 4.4098 232.158 4.52607C232.473 4.64984 232.749 4.87113 232.985 5.18243C233.272 5.62125 233.428 6.13134 233.457 6.71268V9.74317C233.457 10.437 233.174 11.0184 232.608 11.4872C232.085 11.821 231.508 12.0085 230.876 12.0535H228.448C227.787 12.031 227.236 11.731 226.782 11.1534C226.568 10.7671 226.441 10.3395 226.404 9.86692V6.58139H226.408ZM228.913 6.07132C228.39 6.19884 228.125 6.4914 228.118 6.94897V9.34561C228.147 9.8932 228.448 10.2082 229.021 10.2907H230.858C231.424 10.167 231.722 9.77316 231.751 9.11305V7.08023C231.737 6.54765 231.464 6.21009 230.934 6.07132H228.913Z" fill="white"/>
<path d="M234.684 8.08928C234.684 7.85291 234.785 7.73285 234.985 7.73285H239.068C239.283 7.73285 239.392 7.84541 239.392 8.06677V9.1548C239.392 9.37616 239.283 9.4887 239.068 9.4887H235.007C234.792 9.4887 234.684 9.37616 234.684 9.1548V8.08928Z" fill="white"/>
<path d="M241.087 4.66109C241.087 4.4323 241.192 4.31604 241.399 4.31604H243.936C244.15 4.31604 244.259 4.42856 244.259 4.64985V11.5547C244.259 11.776 244.15 11.8885 243.936 11.8885H242.873C242.659 11.8885 242.55 11.776 242.55 11.5547V6.34886C242.55 6.16508 242.459 6.07132 242.281 6.07132H241.41C241.196 6.07132 241.087 5.95879 241.087 5.73751V4.66109Z" fill="white"/>
<path d="M254.819 5.26868C255.621 5.05489 256.14 5.33245 256.376 6.10132C256.47 6.75393 256.245 7.20026 255.712 7.44404C255.498 7.54156 255.24 7.5528 254.939 7.47779C254.688 7.43278 254.485 7.29027 254.325 7.04648C254.104 6.68267 254.082 6.26261 254.26 5.78253C254.387 5.50874 254.576 5.33994 254.819 5.27243V5.26868ZM255 9.61188C255.45 9.52187 255.846 9.64189 256.184 9.96819C256.434 10.347 256.489 10.7521 256.343 11.1909C256.205 11.5997 255.901 11.8322 255.418 11.8923C254.873 11.9523 254.485 11.7347 254.256 11.2359C254.086 10.7933 254.155 10.347 254.47 9.90444C254.587 9.76567 254.761 9.66814 254.997 9.61563L255 9.61188Z" fill="white"/>
<path d="M277.792 6.58139C277.901 5.14491 278.652 4.39105 280.05 4.31604H282.681C282.925 4.33854 283.211 4.4098 283.542 4.52607C283.857 4.64984 284.133 4.87113 284.369 5.18243C284.656 5.62125 284.812 6.13134 284.841 6.71268V9.74317C284.841 10.437 284.558 11.0184 283.992 11.4872C283.469 11.821 282.892 12.0085 282.26 12.0535H279.832C279.171 12.031 278.62 11.731 278.166 11.1534C277.952 10.7671 277.825 10.3395 277.788 9.86692V6.58139H277.792ZM280.293 6.07132C279.77 6.19884 279.505 6.4914 279.498 6.94897V9.34561C279.527 9.8932 279.828 10.2082 280.402 10.2907H282.239C282.805 10.167 283.102 9.77316 283.131 9.11305V7.08023C283.117 6.54765 282.845 6.21009 282.315 6.07132H280.293Z" fill="white"/>
<path d="M286.601 4.54858C286.859 4.43606 287.193 4.36105 287.599 4.31604H290.964C291.422 4.34604 291.854 4.50732 292.253 4.80361C292.634 5.15242 292.83 5.69627 292.845 6.43514V9.79942C292.816 10.422 292.634 10.9396 292.296 11.3522C291.875 11.6635 291.356 11.8397 290.739 11.8847H287.56C286.935 11.8772 286.416 11.5772 286.002 10.9846C285.774 10.6808 285.676 10.302 285.712 9.85193C285.712 9.63064 285.821 9.51812 286.035 9.51812H287.142C287.356 9.51812 287.465 9.6569 287.465 9.92695C287.552 10.3208 287.781 10.4895 288.151 10.437H290.355C290.95 10.377 291.229 10.0695 291.193 9.51437V8.92552C291.193 8.74174 291.077 8.68174 290.848 8.74925L290.213 8.85053H287.345C286.859 8.82052 286.46 8.69299 286.151 8.46045C285.893 8.14165 285.741 7.79285 285.69 7.41779V5.9513C285.734 5.3437 286.039 4.87487 286.605 4.54107L286.601 4.54858ZM287.825 5.80129C287.443 5.8913 287.284 6.10134 287.342 6.43514C287.32 6.75394 287.342 6.98647 287.407 7.1365C287.516 7.34278 287.679 7.46281 287.901 7.49281H290.329C290.743 7.53782 291.019 7.35777 291.157 6.96021C291.178 6.5739 291.157 6.3076 291.091 6.16133C290.975 5.95505 290.805 5.83505 290.576 5.80504H287.825V5.80129Z" fill="white"/>
<path d="M294.809 5.26868C295.611 5.05489 296.13 5.33245 296.366 6.10132C296.46 6.75393 296.235 7.20026 295.702 7.44404C295.487 7.54156 295.23 7.5528 294.928 7.47779C294.678 7.43278 294.475 7.29027 294.315 7.04648C294.094 6.68267 294.072 6.26261 294.25 5.78253C294.377 5.50874 294.565 5.33994 294.809 5.27243V5.26868ZM294.994 9.61188C295.444 9.52187 295.84 9.64189 296.177 9.96819C296.428 10.347 296.482 10.7521 296.337 11.1909C296.199 11.5997 295.894 11.8322 295.411 11.8923C294.867 11.9523 294.478 11.7347 294.25 11.2359C294.079 10.7933 294.148 10.347 294.464 9.90444C294.58 9.76567 294.754 9.66814 294.99 9.61563L294.994 9.61188Z" fill="white"/>
<path d="M297.669 6.58139C297.778 5.14491 298.529 4.39105 299.926 4.31604H302.558C302.801 4.33854 303.088 4.4098 303.418 4.52607C303.734 4.64984 304.01 4.87113 304.246 5.18243C304.533 5.62125 304.689 6.13134 304.718 6.71268V9.74317C304.718 10.437 304.435 11.0184 303.868 11.4872C303.346 11.821 302.769 12.0085 302.137 12.0535H299.709C299.048 12.031 298.496 11.731 298.043 11.1534C297.828 10.7671 297.701 10.3395 297.665 9.86692V6.58139H297.669ZM300.173 6.07132C299.651 6.19884 299.386 6.4914 299.378 6.94897V9.34561C299.407 9.8932 299.709 10.2082 300.282 10.2907H302.119C302.685 10.167 302.983 9.77316 303.012 9.11305V7.08023C302.997 6.54765 302.725 6.21009 302.195 6.07132H300.173Z" fill="white"/>
<path d="M305.564 6.58139C305.673 5.14491 306.424 4.39105 307.821 4.31604H310.453C310.696 4.33854 310.983 4.4098 311.313 4.52607C311.629 4.64984 311.905 4.87113 312.141 5.18243C312.428 5.62125 312.584 6.13134 312.613 6.71268V9.74317C312.613 10.437 312.33 11.0184 311.763 11.4872C311.241 11.821 310.664 12.0085 310.032 12.0535H307.604C306.943 12.031 306.391 11.731 305.938 11.1534C305.723 10.7671 305.596 10.3395 305.56 9.86692V6.58139H305.564ZM308.068 6.07132C307.546 6.19884 307.281 6.4914 307.273 6.94897V9.34561C307.302 9.8932 307.604 10.2082 308.177 10.2907H310.014C310.58 10.167 310.878 9.77316 310.907 9.11305V7.08023C310.892 6.54765 310.62 6.21009 310.09 6.07132H308.068Z" fill="white"/>
<path d="M257.669 6.58139C257.778 5.14491 258.529 4.39105 259.926 4.31604H262.558C262.801 4.33854 263.088 4.4098 263.418 4.52607C263.734 4.64984 264.01 4.87113 264.246 5.18243C264.533 5.62125 264.689 6.13134 264.718 6.71268V9.74317C264.718 10.437 264.435 11.0184 263.868 11.4872C263.346 11.821 262.769 12.0085 262.137 12.0535H259.709C259.048 12.031 258.496 11.731 258.043 11.1534C257.828 10.7671 257.701 10.3395 257.665 9.86692V6.58139H257.669ZM260.173 6.07132C259.651 6.19884 259.386 6.4914 259.378 6.94897V9.34561C259.407 9.8932 259.709 10.2082 260.282 10.2907H262.119C262.685 10.167 262.983 9.77316 263.012 9.11305V7.08023C262.997 6.54765 262.725 6.21009 262.195 6.07132H260.173Z" fill="white"/>
<path d="M265.564 6.58139C265.673 5.14491 266.424 4.39105 267.821 4.31604H270.453C270.696 4.33854 270.983 4.4098 271.313 4.52607C271.629 4.64984 271.905 4.87113 272.141 5.18243C272.428 5.62125 272.584 6.13134 272.613 6.71268V9.74317C272.613 10.437 272.33 11.0184 271.763 11.4872C271.241 11.821 270.664 12.0085 270.032 12.0535H267.604C266.943 12.031 266.391 11.731 265.938 11.1534C265.723 10.7671 265.596 10.3395 265.56 9.86692V6.58139H265.564ZM268.068 6.07132C267.546 6.19884 267.281 6.4914 267.273 6.94897V9.34561C267.302 9.8932 267.604 10.2082 268.177 10.2907H270.014C270.58 10.167 270.878 9.77316 270.907 9.11305V7.08023C270.892 6.54765 270.62 6.21009 270.09 6.07132H268.068Z" fill="white"/>
<path d="M319.495 4.70606C319.495 6.49885 319.749 9.78063 322.893 11.6709C322.602 11.9072 322.083 12.4998 321.862 12.8336C320.188 11.7985 319.255 10.197 318.755 8.61421C318.087 10.5158 317.049 11.9522 315.629 12.8524C315.393 12.5711 314.794 12.016 314.46 11.7685C316.239 10.8608 317.266 9.13178 317.716 6.82141L318.352 6.94143C318.297 6.63013 318.265 6.33383 318.235 6.04878H316.29V4.70233H319.495V4.70606Z" fill="white"/>
<path d="M328.544 8.95173C328.49 9.06049 328.428 9.16927 328.366 9.27054H331.851C331.851 9.27054 331.844 9.56308 331.826 9.7056C331.709 11.4234 331.572 12.1697 331.332 12.451C331.147 12.6798 330.936 12.7623 330.697 12.7961C330.486 12.8336 330.16 12.8411 329.789 12.8336C329.771 12.5711 329.702 12.2147 329.579 11.9522C329.314 12.3235 329.023 12.6611 328.726 12.8974C328.504 12.6536 328.138 12.3498 327.818 12.1697C328.454 11.7684 329.016 11.0521 329.394 10.2944H329.085C328.61 11.1233 327.8 12.0047 327.06 12.4848C326.856 12.2223 326.522 11.9035 326.225 11.7122C326.824 11.4121 327.43 10.8758 327.898 10.2944H327.59C327.299 10.602 326.983 10.8758 326.657 11.0933C326.515 10.9283 326.236 10.6583 326.007 10.4557C325.321 10.8195 324.624 11.1758 324.025 11.4759L323.557 10.1407C323.84 10.0394 324.192 9.90438 324.577 9.75061V7.35023H323.767V6.10503H324.577V4.35724H325.764V6.10503H326.504V7.35023H325.764V9.25179L326.352 8.99673L326.544 9.78812C326.816 9.54059 327.071 9.25927 327.274 8.95173H326.41V7.8528H332V8.95173H328.533H328.544ZM331.412 7.59776H327.143V4.43226H331.412V7.59776ZM330.232 5.3249H328.268V5.59869H330.232V5.3249ZM330.232 6.43133H328.268V6.70512H330.232V6.43133ZM330.472 10.2982C330.279 10.8083 329.996 11.3446 329.67 11.8247C329.847 11.8322 329.985 11.8322 330.076 11.8322C330.192 11.8322 330.261 11.8134 330.33 11.7234C330.435 11.6034 330.533 11.2058 330.613 10.2944H330.472V10.2982Z" fill="white"/>
<path d="M40.5386 31.2843V33.4133H25.3579V31.2843H31.6906C31.5881 30.9341 31.4543 30.5655 31.3517 30.2475L33.9383 29.5978C34.1434 30.1093 34.4155 30.7406 34.6206 31.2843H40.5431H40.5386ZM40.2487 44.2283C40.2487 45.302 39.9945 45.7582 39.2453 46.0577C38.5139 46.3204 37.5105 46.3388 36.2484 46.3204C36.1637 45.9149 35.9764 45.4218 35.7712 44.984H31.3651V45.6153H29.0862V40.8691H36.6587V44.5463C36.9976 44.5463 37.2875 44.5278 37.3901 44.5278C37.6443 44.5278 37.7469 44.4587 37.7469 44.2099V40.4451H28.1496V46.4586H25.7503V38.3853H40.2487V44.2237V44.2283ZM38.7324 37.8462H27.4495V33.9063H38.7324V37.8462ZM36.1146 35.5744H29.9201V36.1735H36.1146V35.5744ZM34.4958 42.5925H31.3651V43.2606H34.4958V42.5925Z" fill="white"/>
<path d="M59.2957 45.7075H54.1716V46.4817H52.0086V45.196L50.0865 45.9333C50.0508 45.6015 49.9839 45.2145 49.9171 44.809C46.9202 45.302 46.2913 45.4955 45.8855 45.7213C45.7829 45.2836 45.4262 44.2099 45.172 43.6293C45.5644 43.4864 45.8186 43.0487 46.1576 42.3114C46.4965 41.6248 47.4999 38.777 47.9459 36.2104L50.2783 36.685C50.0241 37.7033 49.6985 38.7586 49.3239 39.7631L50.5994 39.3069C51.1613 41.1686 51.7411 43.4726 52.0131 45.09V36.473C51.7054 36.9476 51.4021 37.3716 51.0944 37.7402C50.858 37.2471 50.1935 36.1412 49.7833 35.6482C50.0731 35.3164 50.3452 34.9431 50.6172 34.5422H47.6738C47.1476 37.9706 46.3136 40.9612 45.0203 43.0717C44.61 42.7031 43.5397 41.9289 42.9778 41.611C44.1507 39.9244 44.8821 37.4084 45.3414 34.5422H43.7404V32.1H45.6447C45.7116 31.3258 45.7785 30.5517 45.832 29.7591L48.1956 29.9526C48.1421 30.6715 48.0752 31.3949 47.9905 32.1H51.2594V33.4363C51.8392 32.3442 52.3476 31.0954 52.691 29.8466L54.7692 30.4457C54.4971 31.289 54.1894 32.1506 53.8326 32.9939H55.7548C55.5853 32.3258 55.2107 31.3765 54.903 30.6531L57.0124 29.9849C57.387 30.7222 57.7973 31.7083 57.9801 32.358L56.2275 32.9893H59.1887V35.2058H57.6234V36.5052H59.0861V38.6342H57.6234V39.9336H59.0861V42.0625H57.6234V43.3989H59.2913V45.7029L59.2957 45.7075ZM49.5112 42.8229C49.3596 42.104 49.1723 41.3621 48.985 40.6756C48.6639 41.5004 48.3205 42.3114 47.9637 43.0303L49.5112 42.8183V42.8229ZM54.176 35.2058V36.5052H55.4337V35.2058H54.176ZM55.4337 38.6388H54.176V39.9382H55.4337V38.6388ZM54.176 43.4035H55.4337V42.0672H54.176V43.4035Z" fill="white"/>
<path d="M77.1701 42.4173C76.5903 42.8228 75.9615 43.2099 75.3684 43.5232C76.0641 43.8734 76.8847 44.1407 77.8212 44.3158C77.3262 44.8088 76.6795 45.7765 76.3763 46.4263C73.4641 45.6705 71.7293 44.0531 70.6233 41.5371H69.2096V43.8227L71.6267 43.3849C71.5063 44.0162 71.4037 44.9839 71.4037 45.4954C67.9296 46.2005 67.283 46.3571 66.9084 46.6014V46.6198C66.788 46.0392 66.3465 45.0208 66.0387 44.5969C66.4312 44.3158 66.9396 43.7536 66.9396 42.7859V41.5371H65.7667V39.4082H67.9787V38.5465H66.0566V36.436H67.9787V35.5375H65.8336V35.7126C65.8336 38.8599 65.5437 43.6061 63.742 46.5276C63.247 46.1221 62.141 45.454 61.5122 45.2097C63.2158 42.5371 63.3317 38.5281 63.3317 35.7126V30.4548H76.742V35.5375H74.579V36.436H76.791V38.5465H74.579V39.4082H77.5759V41.5371H75.908L77.1656 42.4173H77.1701ZM65.8336 33.3947H74.2401V32.6021H65.8336V33.3947ZM70.2442 36.436H72.2867V35.5375H70.2442V36.436ZM70.2442 39.4082H72.2867V38.5465H70.2442V39.4082ZM73.0003 41.5371C73.1876 41.8182 73.4106 42.0809 73.6469 42.3113C74.0394 42.0671 74.4452 41.7998 74.7886 41.5371H73.0003Z" fill="white"/>
<path d="M93.528 44.4034C94.023 44.4034 94.1256 44.2283 94.2103 43.2421C94.6697 43.5601 95.6062 43.8735 96.2172 43.9794C95.9808 45.7904 95.3832 46.2835 93.7822 46.2835H91.4855C89.2199 46.2835 88.6625 45.7213 88.6625 43.9288V43.5048H87.1462C86.6512 45.1913 85.3935 46.0531 81.0186 46.4586C80.8848 45.8964 80.372 44.9978 79.9795 44.5232C83.1771 44.3988 84.1984 44.1361 84.6265 43.5048H82.6196V37.4544H93.6662V43.5048H91.0796V43.9103C91.0796 44.3665 91.2 44.4034 91.8289 44.4034H93.5324H93.528ZM88.1184 37.072H80.867V30.2475H87.9623V31.6391H85.7325V32.1137H87.7081V32.2197C88.5911 31.5009 89.1531 30.6207 89.4608 29.7913L91.5523 30.1415C91.5033 30.2981 91.4319 30.441 91.3651 30.5977H95.8247V32.1275H90.5489C90.482 32.252 90.3795 32.3718 90.2947 32.4962H95.0933V33.851H89.715V33.2012C89.492 33.4316 89.2556 33.6574 89.0014 33.8694C88.7116 33.4823 88.1675 32.957 87.7081 32.6206V35.1366H85.7325V35.6988H88.1139V37.072H88.1184ZM82.9452 31.6391V32.1137H83.8282V31.6391H82.9452ZM82.9452 33.3763V33.8878H85.6522V33.3763H82.9452ZM82.9452 35.6988H83.8282V35.1366H82.9452V35.6988ZM84.952 39.1133H91.2134V38.6894H84.952V39.1133ZM84.952 40.6939H91.2134V40.27H84.952V40.6939ZM84.952 42.2745H91.2134V41.8505H84.952V42.2745ZM88.6625 34.2058H95.5705V37.0535H88.6625V34.2058ZM90.2457 35.9476H90.705V35.2979H90.2457V35.9476ZM91.8289 35.9476H92.306V35.2979H91.8289V35.9476ZM93.4254 35.9476H93.9026V35.2979H93.4254V35.9476Z" fill="white"/>
<path d="M108.066 39.6571V40.4681H113.735V46.3941H111.572V45.9379H108.066V46.4309H105.903V35.1228H105.154V32.2059L104.508 33.5238C104.369 33.4362 104.182 33.3487 103.995 33.2427V34.7219H100.913V33.6666C100.369 34.2104 99.7715 34.685 99.1962 35.0721C99.0758 34.579 98.5853 33.3118 98.2954 32.7681C99.5709 32.0124 100.918 30.782 101.649 29.4641L103.553 30.183C103.486 30.3258 103.402 30.4641 103.317 30.6207C104.084 30.9203 104.967 31.2705 105.48 31.5331L105.377 31.7266H108.78C108.575 31.2889 108.321 30.8143 108.115 30.4272L110.31 29.5148C110.684 30.0954 111.126 30.888 111.38 31.4318L110.769 31.7313H114.377V35.1274H112.981V39.6663H108.062L108.066 39.6571ZM103.794 41.68C104.32 42.7537 105.02 44.2144 105.342 45.09L103.571 45.9701C103.468 45.6522 103.33 45.2513 103.161 44.8273C100.32 45.8319 99.7403 46.1268 99.3657 46.4079C99.2631 45.8273 98.942 44.8273 98.6165 44.3343C98.9733 44.1776 99.3122 43.8965 99.3122 43.2283V35.1044H104.793V41.6616H101.408V43.3481L102.412 43.0302L102.14 42.4127L103.79 41.6754L103.794 41.68ZM101.413 36.8969V37.5282H102.657V36.8969H101.413ZM102.657 39.8691V39.2516H101.413V39.8691H102.657ZM103.691 33.0814C103.196 32.8372 102.635 32.5699 102.126 32.3441C101.921 32.6068 101.702 32.8372 101.497 33.0814H103.691ZM107.197 33.7127V34.556H112.25V33.7127H107.197ZM110.894 36.5421H108.071V37.6664H110.894V36.5421ZM108.066 42.5417V43.809H111.572V42.5417H108.066Z" fill="white"/>
<path d="M184.461 30.3719C184.376 30.4779 184.292 30.5839 184.207 30.6899C185.736 32.0078 188.479 33.0999 191.2 33.5929C190.687 34.0491 189.991 34.9477 189.652 35.5283C189.38 35.4592 189.09 35.3717 188.818 35.2841V39.8737H176.719V35.4085C176.429 35.5145 176.126 35.6021 175.836 35.6896C175.6 35.1966 174.966 34.1782 174.561 33.7036C177.745 32.9801 180.773 31.5562 182.289 29.5701L184.465 30.3811L184.461 30.3719ZM177.62 40.2884H187.953V46.3895H185.402V46.0393H180.059V46.4632H177.624V40.2931L177.62 40.2884ZM187.61 34.8556C186.981 34.6113 186.352 34.3302 185.772 34.0123V34.4178H179.711V34.1367C179.203 34.3994 178.69 34.6298 178.164 34.8556H187.61ZM179.493 38.3531C179.426 37.86 179.288 37.1918 179.118 36.6849L180.26 36.3854H178.762V38.3531H179.493ZM180.055 41.9059V42.3436H185.398V41.9059H180.055ZM185.398 44.4218V43.9657H180.055V44.4218H185.398ZM181.669 36.3854H180.835C181.058 36.9476 181.228 37.6158 181.277 38.072L180.309 38.3531H181.669V36.3854ZM183.881 32.8004C183.542 32.5561 183.217 32.2705 182.913 32.0078C182.588 32.2889 182.267 32.5515 181.91 32.8004H183.886H183.881ZM183.645 36.3854V38.3531H184.787L183.917 38.1227C184.104 37.6296 184.309 36.9292 184.43 36.3808H183.645V36.3854ZM186.642 36.3854H185.398L186.486 36.6297C186.178 37.2794 185.906 37.8969 185.687 38.3531H186.642V36.3854Z" fill="white"/>
<path d="M198.812 34.662H193.126V32.6759H195.423C195.253 32.0262 194.91 31.1645 194.607 30.4779L196.324 29.8097C196.716 30.547 197.158 31.57 197.327 32.2013L196.203 32.6759H198.808V34.662H198.812ZM198.335 45.514H195.338V46.2005H193.634V40.0995H198.33V45.514H198.335ZM193.706 35.1873H198.384V37.0858H193.706V35.1873ZM193.706 37.6158H198.384V39.5143H193.706V37.6158ZM195.338 42.0303V43.5786H196.596V42.0303H195.338ZM208.512 42.4358C208.07 43.0855 207.526 43.6845 206.911 44.2283C207.08 44.4403 207.285 44.5647 207.504 44.5647C207.758 44.5647 207.914 44.0716 207.963 43.1915C208.356 43.5786 208.918 43.8781 209.341 44.0716C209.069 45.8319 208.458 46.5139 207.281 46.5139C206.411 46.5139 205.751 46.1268 205.274 45.4218C204.766 45.7397 204.235 46.0208 203.727 46.2282C203.521 45.9287 203.129 45.454 202.79 45.1038C202.723 45.6476 202.518 45.9655 202.059 46.1775C201.466 46.4402 200.699 46.4586 199.659 46.4586C199.575 45.9333 199.32 45.1914 199.08 44.6845C199.588 44.7213 200.253 44.7214 200.422 44.7214C200.627 44.7029 200.694 44.6522 200.694 44.4587V43.9149C200.012 43.9841 199.365 44.0578 198.79 44.1085L198.585 42.1915C199.196 42.1547 199.914 42.104 200.694 42.0533V41.4911H198.718V39.6802H200.694V39.1871C200.199 39.224 199.726 39.2562 199.262 39.2746C199.213 38.8691 198.99 38.2194 198.803 37.8139C200.235 37.7079 201.903 37.4775 202.924 37.1642L203.909 38.3576L203.892 37.4453H205.934C205.934 37.7079 205.916 37.9567 205.916 38.201L207.245 37.2702C207.856 37.7079 208.574 38.3761 208.913 38.8876L207.825 39.6802H208.998V41.4911H206.086C206.121 41.8275 206.171 42.1408 206.22 42.4404C206.46 42.1777 206.679 41.8966 206.866 41.5971L208.498 42.4404L208.512 42.4358ZM202.692 32.9755H199.254V31.3073H200.971C200.819 30.9894 200.632 30.6392 200.444 30.3581L202.161 29.7406C202.5 30.2152 202.893 30.8465 203.062 31.3073H204.935C205.189 30.8143 205.479 30.2152 205.618 29.7591L207.78 30.2705C207.526 30.6392 207.268 30.994 207.049 31.3073H208.681V32.9755H205.056V33.3625H208.137V34.8924H205.056V35.3163H209.038V37.1089H198.759V35.3163H202.692V34.8924H199.78V33.3625H202.692V32.9755ZM202.83 39.6755H203.972C203.954 39.3438 203.936 39.0074 203.923 38.6756C203.584 38.7632 203.209 38.8323 202.835 38.906V39.6802L202.83 39.6755ZM202.83 44.5278V44.8273C203.41 44.5647 204.003 44.2467 204.565 43.8597C204.36 43.1731 204.208 42.3666 204.106 41.4865H202.83V41.8736L203.936 41.786L203.972 43.5786L202.83 43.703V44.5278ZM207.254 39.6755C206.933 39.2378 206.402 38.7079 205.925 38.3024C205.925 38.7954 205.943 39.2516 205.961 39.6755H207.254Z" fill="white"/>
<path d="M213.944 34.6251H211.955V31.0723H218.372C218.252 30.7543 218.136 30.4548 218.015 30.1737L220.432 29.4687C220.704 29.9433 220.959 30.5423 221.128 31.0677H227.086V34.6205H225.146V36.3623H223.804C224.723 37.1549 225.677 38.0488 226.221 38.7539L224.281 40.1086C224.058 39.7907 223.755 39.4221 223.398 39.035C216.031 39.634 215.023 39.7216 214.274 40.0211C214.153 39.5649 213.814 38.4728 213.578 37.8599C213.988 37.7908 214.345 37.5788 214.804 37.2286C215.027 37.0904 215.433 36.7909 215.91 36.3669H213.953V34.6251H213.944ZM227.171 43.7536V45.9885H211.99V43.7536H218.22V42.7352H213.471V40.5556H218.22V39.5004H220.771V40.5556H225.895V42.7352H220.771V43.7536H227.171ZM214.372 33.3763V34.2011H224.549V33.3763H214.372ZM221.637 37.3162C221.431 37.1226 221.226 36.9475 221.039 36.7863L221.668 36.3623H219.063C218.622 36.7678 218.127 37.1871 217.618 37.5742L221.637 37.3116V37.3162Z" fill="white"/>
<path opacity="0.5" d="M8.17441 47.8732C12.5537 47.8732 16.1037 44.205 16.1037 39.6801C16.1037 35.1552 12.5537 31.487 8.17441 31.487C3.79518 31.487 0.245117 35.1552 0.245117 39.6801C0.245117 44.205 3.79518 47.8732 8.17441 47.8732Z" fill="white"/>
<mask id="mask0_267_276" style="mask-type:luminance" maskUnits="userSpaceOnUse" x="0" y="31" width="17" height="17">
<path d="M8.17441 47.8732C12.5537 47.8732 16.1037 44.205 16.1037 39.6801C16.1037 35.1552 12.5537 31.487 8.17441 31.487C3.79518 31.487 0.245117 35.1552 0.245117 39.6801C0.245117 44.205 3.79518 47.8732 8.17441 47.8732Z" fill="white"/>
</mask>
<g mask="url(#mask0_267_276)">
<g opacity="0.5">
<path opacity="0.6" d="M4.69497 30.4186L-1.79395 48.7801L-1.33313 48.954L5.1558 30.5925L4.69497 30.4186Z" fill="white"/>
<path opacity="0.6" d="M7.94034 30.4194L1.45142 48.7809L1.91224 48.9548L8.40116 30.5933L7.94034 30.4194Z" fill="white"/>
<path opacity="0.6" d="M11.1855 30.4156L4.69653 48.7771L5.15734 48.951L11.6463 30.5895L11.1855 30.4156Z" fill="white"/>
<path opacity="0.6" d="M14.4296 30.4206L7.94067 48.782L8.40148 48.9559L14.8904 30.5944L14.4296 30.4206Z" fill="white"/>
<path opacity="0.6" d="M17.6748 30.4168L11.1858 48.7783L11.6467 48.9521L18.1356 30.5907L17.6748 30.4168Z" fill="white"/>
<path opacity="0.6" d="M11.6341 30.4073L11.1733 30.5812L17.6622 48.9426L18.123 48.7688L11.6341 30.4073Z" fill="white"/>
<path opacity="0.6" d="M8.38415 30.4105L7.92334 30.5844L14.4123 48.9458L14.8731 48.7719L8.38415 30.4105Z" fill="white"/>
<path opacity="0.6" d="M5.14683 30.4076L4.68604 30.5814L11.175 48.9429L11.6358 48.769L5.14683 30.4076Z" fill="white"/>
<path opacity="0.6" d="M1.89635 30.4062L1.43555 30.5801L7.92447 48.9415L8.38527 48.7677L1.89635 30.4062Z" fill="white"/>
<path opacity="0.6" d="M-1.35413 30.4096L-1.81494 30.5834L4.67398 48.9449L5.13479 48.771L-1.35413 30.4096Z" fill="white"/>
</g>
</g>
<path d="M8.17457 48.1267C3.66585 48.1267 0 44.3389 0 39.6801C0 35.0214 3.66585 31.2336 8.17457 31.2336C12.6833 31.2336 16.3491 35.0214 16.3491 39.6801C16.3491 44.3389 12.6833 48.1267 8.17457 48.1267ZM8.17457 31.7405C3.93789 31.7405 0.490563 35.3025 0.490563 39.6801C0.490563 44.0578 3.93789 47.6198 8.17457 47.6198C12.4113 47.6198 15.8586 44.0578 15.8586 39.6801C15.8586 35.3025 12.4113 31.7405 8.17457 31.7405Z" fill="white"/>
<path d="M129.161 32.6667C129.749 32.4225 130.391 32.2796 131.078 32.2382H137.063C137.616 32.2888 138.116 32.3948 138.57 32.5469C139.538 32.9109 140.033 33.556 140.055 34.4915V36.496C140.006 37.2241 139.659 37.8001 139.021 38.224C138.682 38.4175 138.709 38.6341 139.097 38.8645C139.663 39.2147 140.002 39.6433 140.113 40.1502C140.501 41.9657 140.171 43.4956 139.114 44.7398C138.477 45.2052 137.692 45.4678 136.764 45.5185H130.949C128.616 45.3388 127.519 44.1776 127.658 42.0394C127.658 41.6524 127.845 41.4542 128.224 41.4542H130.048C130.423 41.4542 130.614 41.5326 130.614 41.6892C130.69 42.5325 131.15 42.915 131.988 42.8367H135.77C136.184 42.8735 136.523 42.786 136.787 42.5648C137.175 42.1777 137.295 41.5279 137.143 40.6202C137.032 40.3068 136.773 40.1271 136.372 40.0764H131.631C131.257 40.0764 131.065 39.8829 131.065 39.4912V38.0719C131.065 37.6849 131.252 37.4867 131.631 37.4867H135.846C136.283 37.4498 136.604 37.33 136.804 37.1365C137.032 36.9429 137.112 36.6527 137.05 36.261C137.063 35.9614 137.05 35.6665 137.014 35.367C136.711 34.8509 136.309 34.6482 135.81 34.7634H131.631C130.94 34.9569 130.654 35.3394 130.766 35.9108C130.766 36.1688 130.579 36.2978 130.2 36.2978H128.26C127.885 36.2978 127.693 36.1043 127.693 35.7126C127.667 35.1412 127.751 34.5744 127.939 34.003C128.139 33.4454 128.545 32.9985 129.161 32.6621V32.6667Z" fill="white"/>
<path d="M142.955 36.2241C143.142 33.7081 144.462 32.3856 146.906 32.2566H151.517C151.945 32.2935 152.445 32.4179 153.025 32.6252C153.578 32.8464 154.059 33.2289 154.474 33.7726C154.974 34.5376 155.25 35.4315 155.304 36.4545V41.763C155.304 42.9795 154.809 43.9979 153.818 44.8135C152.904 45.3987 151.892 45.7259 150.79 45.8042H146.536C145.381 45.7674 144.409 45.242 143.619 44.2283C143.245 43.5555 143.022 42.8044 142.959 41.9749V36.2195L142.955 36.2241ZM147.339 35.3301C146.424 35.5513 145.961 36.0628 145.947 36.8646V41.0626C145.996 42.021 146.522 42.574 147.526 42.7169H150.741C151.731 42.4957 152.253 41.8091 152.302 40.657V37.0996C152.275 36.1642 151.803 35.579 150.871 35.3301H147.334H147.339Z" fill="white"/>
<path d="M165.623 32.8188C166.011 32.4409 166.386 32.2566 166.752 32.2566H169.178C169.552 32.2566 169.744 32.4501 169.744 32.8418V40.2884C169.744 40.611 169.949 40.7722 170.364 40.7722C170.779 40.7722 170.984 40.9658 170.984 41.3575V42.9334C170.984 43.3205 170.783 43.5187 170.382 43.5187C169.954 43.5187 169.744 43.6799 169.744 44.0025V44.9379C169.744 45.325 169.557 45.5231 169.178 45.5231H167.313C166.939 45.5231 166.747 45.3296 166.747 44.9379V44.0025C166.747 43.6799 166.591 43.5187 166.279 43.5187H158.845C158.47 43.5187 158.278 43.3251 158.278 42.9334V40.5787C158.278 40.1916 158.465 39.8092 158.845 39.4313L165.619 32.8234L165.623 32.8188ZM166.752 36.1273C166.752 35.7633 166.555 35.7771 166.167 36.1642C164.736 37.4867 163.309 38.8323 161.877 40.2101C161.462 40.5879 161.44 40.7722 161.801 40.7722H166.279C166.591 40.7722 166.747 40.611 166.747 40.2884V36.1273H166.752Z" fill="white"/>
<path d="M246.063 4.26962C246.421 4.12785 246.827 4.03891 247.289 4H250.977C251.563 4.05559 252.04 4.22237 252.403 4.50312C252.823 4.89506 253.021 5.44266 252.998 6.14592C252.998 6.37942 252.88 6.49895 252.64 6.49895H251.428C251.191 6.49895 251.07 6.4239 251.07 6.27657C251.078 5.72897 250.805 5.4788 250.249 5.52605H247.515C247.047 5.63446 246.838 5.90131 246.883 6.32382C246.875 6.64349 246.883 6.97705 246.906 7.32173C246.962 7.39122 247.021 7.39679 247.083 7.33286C247.227 7.19943 247.481 7.12994 247.845 7.1216H251.067C252.2 7.19109 252.826 7.76371 252.948 8.83389V10.2071C252.9 10.9798 252.502 11.5219 251.758 11.8248C251.527 11.911 251.233 11.9694 250.878 12H247.143C246.762 11.961 246.443 11.8944 246.19 11.7998C245.818 11.6914 245.524 11.4718 245.31 11.1438C245.127 10.8158 245.025 10.4434 245 10.0292V5.98193C245.017 5.6706 245.096 5.35649 245.237 5.04239C245.474 4.62821 245.747 4.36969 246.057 4.26962H246.063ZM247.656 8.59484C247.306 8.51701 247.058 8.67544 246.906 9.07572C246.883 9.33424 246.875 9.60386 246.883 9.8846C246.979 10.2515 247.185 10.4489 247.501 10.4711H250.309C250.895 10.3627 251.149 10.0792 251.07 9.62611V9.18135C250.951 8.7366 250.678 8.53925 250.249 8.59484H247.656Z" fill="white"/>
</g>
<defs>
<clipPath id="clip0_267_276">
<rect width="332" height="49" fill="white"/>
</clipPath>
</defs>
</svg>
