<svg width="750" height="136" viewBox="0 0 750 136" fill="none" xmlns="http://www.w3.org/2000/svg">
<path d="M10.12 41.918H35.466V47.254H10.12V41.918ZM7.63599 28.67H38.41V49.048H32.476V33.96H13.294V49.094H7.63599V28.67ZM16.652 5.578L22.954 7.648C21.942 9.51866 20.8533 11.4353 19.688 13.398C18.5533 15.33 17.4033 17.17 16.238 18.918C15.0727 20.6353 13.9687 22.1687 12.926 23.518L7.95799 21.494C9.00066 20.0833 10.0587 18.4733 11.132 16.664C12.2053 14.824 13.2173 12.938 14.168 11.006C15.1493 9.074 15.9773 7.26466 16.652 5.578ZM27.692 13.766L32.062 10.546C33.5953 11.7727 35.1593 13.1527 36.754 14.686C38.3793 16.1887 39.8667 17.722 41.216 19.286C42.596 20.8193 43.6847 22.2453 44.482 23.564L39.698 27.244C38.962 25.9253 37.9347 24.484 36.616 22.92C35.328 21.3253 33.902 19.7307 32.338 18.136C30.774 16.5413 29.2253 15.0847 27.692 13.766ZM2.71399 18.964C5.04466 18.9027 7.63599 18.826 10.488 18.734C13.3707 18.6113 16.3913 18.4887 19.55 18.366C22.7393 18.2433 25.9747 18.1207 29.256 17.998C32.5373 17.8753 35.7573 17.7527 38.916 17.63L38.686 22.966C35.4967 23.15 32.2767 23.3187 29.026 23.472C25.7753 23.5947 22.586 23.7327 19.458 23.886C16.3607 24.0087 13.4167 24.1313 10.626 24.254C7.83532 24.346 5.30532 24.438 3.03599 24.53L2.71399 18.964ZM69.414 6.728H77.464V9.304H69.414V6.728ZM69.092 14.548H77.878V17.078H69.092V14.548ZM69.092 18.136H77.878V20.666H69.092V18.136ZM62.652 39.158H85.422V42.516H62.652V39.158ZM67.758 10.5H78.798V13.352H67.758V10.5ZM72.266 24.346V26.37H74.566V24.346H72.266ZM69.046 21.908H77.878V28.808H69.046V21.908ZM63.25 34.604H81.466V33.132H60.306V30.004H86.572V37.686H63.25V34.604ZM61.364 18.964H64.86V29.268H61.364V18.964ZM56.81 17.262C58.19 17.2007 59.754 17.1393 61.502 17.078C63.2807 17.0167 65.1513 16.94 67.114 16.848L67.068 19.884C65.2893 20.0373 63.5567 20.1753 61.87 20.298C60.214 20.39 58.65 20.4973 57.178 20.62L56.81 17.262ZM61.686 34.604H66.746C66.4087 36.168 66.0253 37.7933 65.596 39.48C65.1667 41.1667 64.7527 42.6387 64.354 43.896L59.432 43.206C59.8613 42.01 60.2753 40.63 60.674 39.066C61.0727 37.502 61.41 36.0147 61.686 34.604ZM83.628 39.158H88.78C88.78 39.158 88.7647 39.4033 88.734 39.894C88.7033 40.3847 88.6267 40.7833 88.504 41.09C88.136 42.9607 87.7373 44.4327 87.308 45.506C86.8787 46.5793 86.342 47.3767 85.698 47.898C85.1153 48.3273 84.4867 48.6187 83.812 48.772C83.1373 48.9253 82.34 49.0327 81.42 49.094C80.684 49.1247 79.6567 49.1247 78.338 49.094C77.0193 49.0633 75.6393 49.0327 74.198 49.002C74.1673 48.3887 74.014 47.6987 73.738 46.932C73.4927 46.196 73.1707 45.5367 72.772 44.954C74.152 45.0767 75.5013 45.1533 76.82 45.184C78.1693 45.2453 79.1353 45.276 79.718 45.276C80.178 45.276 80.5613 45.2453 80.868 45.184C81.1747 45.1533 81.4507 45.0613 81.696 44.908C82.064 44.632 82.4013 44.08 82.708 43.252C83.0453 42.424 83.3367 41.2433 83.582 39.71L83.628 39.158ZM65.044 22.184L67.666 21.54C67.9113 22.3067 68.1413 23.15 68.356 24.07C68.6013 24.99 68.7853 25.772 68.908 26.416L66.148 27.198C66.056 26.5233 65.9027 25.726 65.688 24.806C65.504 23.8553 65.2893 22.9813 65.044 22.184ZM65.044 15.744L67.39 14.87C67.7887 15.698 68.126 16.618 68.402 17.63C68.7087 18.6113 68.9233 19.47 69.046 20.206L66.47 21.172C66.4087 20.436 66.24 19.562 65.964 18.55C65.7187 17.538 65.412 16.6027 65.044 15.744ZM57.27 12.248L59.064 9.58C59.9533 10.1627 60.8427 10.8373 61.732 11.604C62.6213 12.34 63.3113 12.9993 63.802 13.582L61.87 16.664C61.3793 16.02 60.7047 15.284 59.846 14.456C58.9873 13.628 58.1287 12.892 57.27 12.248ZM61.824 5.716L64.952 7.326C64.308 8.338 63.664 9.36533 63.02 10.408C62.376 11.4507 61.778 12.3247 61.226 13.03L58.788 11.696C59.3093 10.8987 59.8613 9.93266 60.444 8.798C61.0267 7.63266 61.4867 6.60533 61.824 5.716ZM64.952 9.672L67.988 11.466C66.9147 12.846 65.7493 14.2873 64.492 15.79C63.2653 17.2927 62.1307 18.55 61.088 19.562L58.834 18.09C59.5087 17.354 60.2293 16.4953 60.996 15.514C61.7627 14.5327 62.4987 13.536 63.204 12.524C63.9093 11.4813 64.492 10.5307 64.952 9.672ZM58.374 21.356L61.594 22.092C61.318 23.2573 60.9653 24.4533 60.536 25.68C60.1067 26.876 59.6467 27.9033 59.156 28.762C58.8187 28.5473 58.3433 28.302 57.73 28.026C57.1473 27.7193 56.6567 27.474 56.258 27.29C56.7793 26.4927 57.2087 25.5727 57.546 24.53C57.8833 23.4567 58.1593 22.3987 58.374 21.356ZM82.524 18.964H86.02V29.268H82.524V18.964ZM78.2 17.262C79.6107 17.2313 81.2207 17.1853 83.03 17.124C84.8393 17.0627 86.756 17.0013 88.78 16.94L88.734 20.022C86.894 20.1447 85.1 20.252 83.352 20.344C81.6347 20.436 80.0247 20.528 78.522 20.62L78.2 17.262ZM86.158 22.184L88.918 21.356C89.3167 22.276 89.7153 23.288 90.114 24.392C90.5127 25.4653 90.804 26.4007 90.988 27.198L88.09 28.164C87.9367 27.3667 87.676 26.416 87.308 25.312C86.9707 24.1773 86.5873 23.1347 86.158 22.184ZM86.066 15.56L88.688 14.456C89.148 15.284 89.5773 16.2193 89.976 17.262C90.4053 18.3047 90.6967 19.194 90.85 19.93L88.044 21.172C87.9213 20.4053 87.676 19.5007 87.308 18.458C86.94 17.3847 86.526 16.4187 86.066 15.56ZM78.062 12.248L79.948 9.672C80.776 10.224 81.5733 10.868 82.34 11.604C83.1373 12.3093 83.7507 12.9533 84.18 13.536L82.064 16.434C81.6653 15.8207 81.0827 15.1153 80.316 14.318C79.58 13.5207 78.8287 12.8307 78.062 12.248ZM82.754 5.854L85.882 7.418C85.2073 8.46066 84.5327 9.50333 83.858 10.546C83.1833 11.558 82.5547 12.432 81.972 13.168L79.534 11.834C80.0553 11.0367 80.6227 10.0553 81.236 8.89C81.88 7.72467 82.386 6.71267 82.754 5.854ZM86.112 9.488L89.194 11.282C88.0287 12.662 86.802 14.1033 85.514 15.606C84.2567 17.1087 83.0607 18.366 81.926 19.378L79.718 17.906C80.454 17.17 81.2053 16.3113 81.972 15.33C82.7693 14.3487 83.536 13.352 84.272 12.34C85.008 11.2973 85.6213 10.3467 86.112 9.488ZM79.488 21.356L82.708 22.138C82.432 23.2727 82.0793 24.438 81.65 25.634C81.2513 26.83 80.822 27.842 80.362 28.67C80.0553 28.4553 79.6107 28.1947 79.028 27.888C78.4453 27.5507 77.9547 27.29 77.556 27.106C78.016 26.3087 78.3993 25.404 78.706 24.392C79.0127 23.3493 79.2733 22.3373 79.488 21.356ZM48.024 10.224L51.152 6.498C51.9493 6.89666 52.7773 7.372 53.636 7.924C54.4947 8.44533 55.292 8.99733 56.028 9.58C56.7947 10.132 57.408 10.6533 57.868 11.144L54.556 15.284C54.1267 14.7627 53.544 14.2107 52.808 13.628C52.072 13.0147 51.2747 12.4167 50.416 11.834C49.588 11.2207 48.7907 10.684 48.024 10.224ZM47.058 22.414L50.094 18.596C50.8913 18.964 51.7193 19.4087 52.578 19.93C53.4367 20.4207 54.2493 20.9267 55.016 21.448C55.8133 21.9693 56.4573 22.46 56.948 22.92L53.728 27.152C53.2987 26.6613 52.7007 26.14 51.934 25.588C51.1673 25.0053 50.3547 24.438 49.496 23.886C48.668 23.3033 47.8553 22.8127 47.058 22.414ZM48.07 45.828C48.6527 44.6013 49.2813 43.1907 49.956 41.596C50.6307 39.9707 51.3053 38.2533 51.98 36.444C52.6853 34.604 53.314 32.7793 53.866 30.97L58.236 33.822C57.7453 35.4473 57.2087 37.1187 56.626 38.836C56.0433 40.5227 55.4453 42.194 54.832 43.85C54.2493 45.506 53.6513 47.0853 53.038 48.588L48.07 45.828ZM111.826 9.718H134.32V47.392H128.524V14.916H117.346V47.76H111.826V9.718ZM115.046 38.652H131.56V43.85H115.046V38.652ZM93.104 30.28C94.5453 29.9733 96.1707 29.6053 97.98 29.176C99.82 28.716 101.752 28.2407 103.776 27.75C105.8 27.2287 107.809 26.7073 109.802 26.186L110.446 31.246C107.686 32.0433 104.865 32.8253 101.982 33.592C99.13 34.328 96.5387 35.0027 94.208 35.616L93.104 30.28ZM93.702 13.72H109.71V18.826H93.702V13.72ZM99.498 5.9H105.156V43.022C105.156 44.402 105.003 45.4753 104.696 46.242C104.42 47.0087 103.868 47.6067 103.04 48.036C102.243 48.4653 101.261 48.7413 100.096 48.864C98.9613 49.0173 97.5813 49.0787 95.956 49.048C95.864 48.312 95.6493 47.438 95.312 46.426C95.0053 45.414 94.6833 44.54 94.346 43.804C95.2047 43.8347 96.048 43.8653 96.876 43.896C97.7347 43.896 98.3173 43.896 98.624 43.896C98.9613 43.896 99.1913 43.8347 99.314 43.712C99.4367 43.5587 99.498 43.3287 99.498 43.022V5.9ZM165.002 6.498H170.614V49.094H165.002V6.498ZM157.182 8.476L162.518 9.534C162.089 11.6193 161.567 13.6893 160.954 15.744C160.341 17.7987 159.651 19.7307 158.884 21.54C158.148 23.3187 157.366 24.8827 156.538 26.232C156.201 25.956 155.725 25.6493 155.112 25.312C154.529 24.9747 153.931 24.6527 153.318 24.346C152.735 24.0087 152.214 23.7633 151.754 23.61C152.582 22.3833 153.349 20.9573 154.054 19.332C154.759 17.676 155.373 15.928 155.894 14.088C156.415 12.2173 156.845 10.3467 157.182 8.476ZM158.976 14.824H180.274V20.252H157.596L158.976 14.824ZM152.536 28.21H182.436V33.592H152.536V28.21ZM149.132 6.084L154.376 7.74C153.395 10.316 152.245 12.9227 150.926 15.56C149.607 18.1667 148.166 20.6353 146.602 22.966C145.069 25.2967 143.474 27.3513 141.818 29.13C141.634 28.67 141.373 28.0873 141.036 27.382C140.699 26.646 140.331 25.91 139.932 25.174C139.533 24.438 139.165 23.84 138.828 23.38C140.208 21.9693 141.527 20.344 142.784 18.504C144.072 16.664 145.253 14.686 146.326 12.57C147.43 10.454 148.365 8.292 149.132 6.084ZM144.578 18.826L149.822 13.582V13.628V49.048H144.578V18.826ZM191.82 20.896H228.068V25.312H191.82V20.896ZM188.738 9.028H225.86V13.352H188.738V9.028ZM199.962 28.854H225.4V33.178H199.962V28.854ZM199.134 36.122H224.066V40.308H199.134V36.122ZM195.224 43.804H227.7V48.266H195.224V43.804ZM204.102 5.946H209.668V12.432H204.102V5.946ZM208.794 25.864H214.222V45.46H208.794V25.864ZM189.06 20.896H194.442V28.624C194.442 30.1267 194.365 31.798 194.212 33.638C194.089 35.478 193.844 37.364 193.476 39.296C193.108 41.1973 192.587 43.0373 191.912 44.816C191.237 46.5947 190.363 48.22 189.29 49.692C189.014 49.3547 188.6 48.956 188.048 48.496C187.496 48.036 186.929 47.5913 186.346 47.162C185.794 46.7327 185.334 46.4107 184.966 46.196C186.223 44.4787 187.128 42.5773 187.68 40.492C188.263 38.4067 188.631 36.3213 188.784 34.236C188.968 32.1507 189.06 30.2647 189.06 28.578V20.896ZM199.824 25.312L204.7 26.462C203.995 28.4247 203.09 30.326 201.986 32.166C200.882 33.9753 199.701 35.478 198.444 36.674C198.137 36.398 197.739 36.076 197.248 35.708C196.757 35.34 196.251 34.9873 195.73 34.65C195.209 34.282 194.764 34.006 194.396 33.822C195.592 32.7793 196.665 31.5067 197.616 30.004C198.567 28.5013 199.303 26.9373 199.824 25.312ZM195.086 15.146L198.49 12.57C200.361 12.9687 202.293 13.4287 204.286 13.95C206.31 14.4713 208.319 15.0233 210.312 15.606C212.336 16.158 214.253 16.7253 216.062 17.308C217.902 17.8907 219.527 18.4273 220.938 18.918L217.58 21.724C216.231 21.2027 214.651 20.6507 212.842 20.068C211.063 19.4547 209.162 18.8567 207.138 18.274C205.145 17.6913 203.105 17.1393 201.02 16.618C198.965 16.066 196.987 15.5753 195.086 15.146ZM215.694 11.926L219.374 13.904C217.902 14.8547 216.2 15.744 214.268 16.572C212.367 17.4 210.343 18.1513 208.196 18.826C206.08 19.47 203.918 20.0527 201.71 20.574C199.502 21.0647 197.371 21.494 195.316 21.862C195.132 21.402 194.825 20.8347 194.396 20.16C193.997 19.4853 193.66 18.9333 193.384 18.504C195.347 18.228 197.386 17.8753 199.502 17.446C201.649 17.0167 203.734 16.5107 205.758 15.928C207.782 15.3453 209.653 14.732 211.37 14.088C213.118 13.4133 214.559 12.6927 215.694 11.926ZM232.576 34.052H273.608V38.606H232.576V34.052ZM232.714 13.444H273.47V17.952H232.714V13.444ZM234.6 21.678H271.676V26.002H234.6V21.678ZM236.854 28.026H269.56V32.028H236.854V28.026ZM250.194 23.84H255.668V49.14H250.194V23.84ZM246.192 5.854H251.344V15.606H246.192V5.854ZM254.748 5.854H259.946V15.284H254.748V5.854ZM249.182 36.076L253.552 38.054C252.111 39.6487 250.363 41.136 248.308 42.516C246.284 43.8653 244.107 45.046 241.776 46.058C239.445 47.1007 237.099 47.944 234.738 48.588C234.493 48.128 234.155 47.6067 233.726 47.024C233.327 46.472 232.898 45.92 232.438 45.368C232.009 44.816 231.595 44.356 231.196 43.988C233.496 43.4973 235.781 42.8687 238.05 42.102C240.35 41.3353 242.466 40.4307 244.398 39.388C246.33 38.3453 247.925 37.2413 249.182 36.076ZM256.772 35.938C257.723 36.858 258.857 37.732 260.176 38.56C261.495 39.3573 262.936 40.0933 264.5 40.768C266.095 41.412 267.766 41.9793 269.514 42.47C271.293 42.9607 273.087 43.344 274.896 43.62C274.467 44.0493 274.007 44.54 273.516 45.092C273.056 45.6747 272.611 46.2727 272.182 46.886C271.783 47.53 271.446 48.1127 271.17 48.634C269.33 48.174 267.521 47.576 265.742 46.84C263.994 46.1347 262.323 45.322 260.728 44.402C259.133 43.482 257.631 42.4547 256.22 41.32C254.809 40.1853 253.567 38.974 252.494 37.686L256.772 35.938ZM265.328 6.268L271.078 7.648C270.373 8.90533 269.652 10.132 268.916 11.328C268.18 12.4933 267.505 13.49 266.892 14.318L262.384 12.938C262.752 12.3247 263.12 11.6347 263.488 10.868C263.856 10.0707 264.193 9.27333 264.5 8.476C264.837 7.648 265.113 6.912 265.328 6.268ZM259.256 16.112L265.098 17.492C264.454 18.5653 263.841 19.608 263.258 20.62C262.675 21.6013 262.154 22.4447 261.694 23.15L257.002 21.862C257.401 21.0033 257.815 20.0527 258.244 19.01C258.673 17.9367 259.011 16.9707 259.256 16.112ZM235.98 7.74L240.718 6.13C241.393 7.08067 242.067 8.18467 242.742 9.442C243.417 10.6687 243.907 11.7267 244.214 12.616L239.246 14.456C239.001 13.536 238.556 12.4473 237.912 11.19C237.268 9.93267 236.624 8.78267 235.98 7.74ZM241.822 18.044L247.204 17.17C247.603 17.814 247.986 18.55 248.354 19.378C248.753 20.1753 249.044 20.8807 249.228 21.494L243.616 22.46C243.463 21.8773 243.217 21.1567 242.88 20.298C242.543 19.4393 242.19 18.688 241.822 18.044ZM282.578 13.398H296.7V44.356H282.578V39.526H291.732V18.182H282.578V13.398ZM279.358 13.398H284.372V47.76H279.358V13.398ZM282.394 25.68H294.124V30.464H282.394V25.68ZM285.936 5.9L291.916 6.774C291.425 8.338 290.889 9.88667 290.306 11.42C289.754 12.9533 289.248 14.2567 288.788 15.33L284.372 14.318C284.587 13.5207 284.786 12.6313 284.97 11.65C285.185 10.6687 285.384 9.672 285.568 8.66C285.752 7.648 285.875 6.728 285.936 5.9ZM302.772 13.03H316.25V18.09H302.772V13.03ZM314.318 13.03H319.424C319.424 13.03 319.424 13.1987 319.424 13.536C319.424 13.8427 319.424 14.1953 319.424 14.594C319.424 14.9927 319.409 15.2993 319.378 15.514C319.255 20.6967 319.102 25.0973 318.918 28.716C318.765 32.304 318.565 35.2787 318.32 37.64C318.105 39.9707 317.845 41.7953 317.538 43.114C317.231 44.4327 316.833 45.3987 316.342 46.012C315.729 46.9013 315.069 47.5147 314.364 47.852C313.659 48.1893 312.846 48.4347 311.926 48.588C311.037 48.7107 309.933 48.7567 308.614 48.726C307.326 48.726 306.007 48.7107 304.658 48.68C304.627 47.9133 304.443 47.0087 304.106 45.966C303.769 44.954 303.355 44.0647 302.864 43.298C304.336 43.4207 305.701 43.4973 306.958 43.528C308.246 43.5587 309.181 43.574 309.764 43.574C310.224 43.574 310.592 43.528 310.868 43.436C311.175 43.3133 311.466 43.0987 311.742 42.792C312.141 42.3933 312.463 41.5807 312.708 40.354C312.984 39.0967 313.214 37.3333 313.398 35.064C313.582 32.7947 313.751 29.9273 313.904 26.462C314.057 22.9967 314.195 18.872 314.318 14.088V13.03ZM302.91 5.946L308.246 7.188C307.663 9.42667 306.943 11.6653 306.084 13.904C305.256 16.1427 304.336 18.2587 303.324 20.252C302.343 22.2147 301.331 23.932 300.288 25.404C299.981 25.0973 299.537 24.7447 298.954 24.346C298.402 23.9167 297.835 23.5027 297.252 23.104C296.7 22.7053 296.209 22.3987 295.78 22.184C296.792 20.8653 297.743 19.3473 298.632 17.63C299.552 15.882 300.365 14.0113 301.07 12.018C301.806 9.994 302.419 7.97 302.91 5.946ZM300.656 26.324L304.98 23.886C305.747 24.9287 306.559 26.0787 307.418 27.336C308.277 28.5933 309.089 29.82 309.856 31.016C310.623 32.212 311.251 33.27 311.742 34.19L307.05 37.042C306.621 36.0913 306.038 35.0027 305.302 33.776C304.597 32.5493 303.83 31.292 303.002 30.004C302.205 28.6853 301.423 27.4587 300.656 26.324ZM324.392 9.304H365.654V14.87H324.392V9.304ZM341.09 14.272H347.024V49.002H341.09V14.272ZM344.218 25.45L347.99 21.034C349.247 21.6473 350.597 22.3527 352.038 23.15C353.51 23.9167 354.967 24.7293 356.408 25.588C357.849 26.4467 359.214 27.29 360.502 28.118C361.79 28.9153 362.863 29.682 363.722 30.418L359.628 35.478C358.831 34.742 357.819 33.9447 356.592 33.086C355.396 32.1967 354.077 31.3073 352.636 30.418C351.225 29.5287 349.799 28.6547 348.358 27.796C346.917 26.9067 345.537 26.1247 344.218 25.45ZM369.748 24.07H412.344V30.096H369.748V24.07ZM429.594 8.292H457.24V48.68H451.996V13.076H434.654V49.094H429.594V8.292ZM435.85 18.688H450.984V22.69H435.85V18.688ZM432.216 41.596H454.526V46.38H432.216V41.596ZM441.094 13.996H445.372V28.808H441.094V13.996ZM441.002 30.51V35.34H445.648V30.51H441.002ZM437 26.692H449.834V39.112H437V26.692ZM423.936 6.038L428.95 7.602C428.091 10.2393 427.033 12.9073 425.776 15.606C424.549 18.274 423.2 20.804 421.728 23.196C420.256 25.5573 418.707 27.658 417.082 29.498C416.959 29.038 416.745 28.4247 416.438 27.658C416.131 26.8913 415.794 26.1247 415.426 25.358C415.058 24.5913 414.736 23.9627 414.46 23.472C415.748 22.0613 416.975 20.4207 418.14 18.55C419.336 16.6793 420.425 14.686 421.406 12.57C422.387 10.4233 423.231 8.246 423.936 6.038ZM420.164 18.688L425.362 13.49L425.408 13.536V49.186H420.164V18.688ZM462.254 22.506H504.16V28.256H462.254V22.506ZM480.056 5.946H486.082V49.14H480.056V5.946ZM517.408 5.716L523.066 7.188C522.238 9.45733 521.257 11.6807 520.122 13.858C519.018 16.0353 517.807 18.0593 516.488 19.93C515.2 21.77 513.866 23.38 512.486 24.76C512.118 24.4533 511.643 24.07 511.06 23.61C510.477 23.1193 509.879 22.6593 509.266 22.23C508.683 21.8007 508.162 21.448 507.702 21.172C509.113 19.976 510.431 18.5653 511.658 16.94C512.885 15.284 513.989 13.5053 514.97 11.604C515.951 9.672 516.764 7.70933 517.408 5.716ZM518.42 10.96H547.676V16.296H515.752L518.42 10.96ZM515.154 21.862H546.572V27.014H520.674V36.674H515.154V21.862ZM507.84 33.96H550.16V39.25H507.84V33.96ZM528.678 13.72H534.382V49.14H528.678V13.72ZM561.798 5.992H566.766V11.558H561.798V5.992ZM554.576 9.074H573.85V13.214H554.576V9.074ZM553.702 16.894H574.218V21.172H553.702V16.894ZM575.138 16.894H596.344V21.172H575.138V16.894ZM582.544 5.992H587.742V11.558H582.544V5.992ZM575.598 9.074H595.746V13.214H575.598V9.074ZM560.418 26.968V30.832H567.824V26.968H560.418ZM555.634 22.92H572.838V34.972H555.634V22.92ZM581.532 26.968V30.878H589.122V26.968H581.532ZM576.564 22.92H594.412V35.018H576.564V22.92ZM565.064 34.19H569.894V42.884L565.064 44.724V34.19ZM563.776 42.93C565.064 42.562 566.597 42.0713 568.376 41.458C570.185 40.8447 572.025 40.2007 573.896 39.526L574.816 44.034C573.191 44.678 571.55 45.322 569.894 45.966C568.238 46.61 566.643 47.2233 565.11 47.806L563.776 42.93ZM556.968 13.26L561.154 12.524C561.461 13.168 561.721 13.904 561.936 14.732C562.181 15.5293 562.35 16.2193 562.442 16.802L558.072 17.722C558.011 17.1087 557.873 16.388 557.658 15.56C557.474 14.7013 557.244 13.9347 556.968 13.26ZM567.134 12.34L571.78 13.306C571.412 14.1647 571.09 14.962 570.814 15.698C570.538 16.434 570.277 17.0933 570.032 17.676L565.754 16.802C565.969 16.1273 566.214 15.376 566.49 14.548C566.797 13.72 567.011 12.984 567.134 12.34ZM577.898 13.214L582.176 12.248C582.513 12.9533 582.805 13.7353 583.05 14.594C583.326 15.422 583.51 16.158 583.602 16.802L579.094 17.906C579.063 17.262 578.925 16.5107 578.68 15.652C578.435 14.7627 578.174 13.95 577.898 13.214ZM588.524 12.156L593.446 13.168C593.017 14.088 592.618 14.9313 592.25 15.698C591.882 16.4647 591.545 17.1393 591.238 17.722L587.006 16.756C587.282 16.0813 587.558 15.3147 587.834 14.456C588.11 13.5973 588.34 12.8307 588.524 12.156ZM578.588 34.466H583.372C583.249 36.858 582.943 38.9893 582.452 40.86C581.961 42.7 581.087 44.2947 579.83 45.644C578.573 47.024 576.717 48.174 574.264 49.094C573.988 48.4807 573.559 47.76 572.976 46.932C572.424 46.104 571.887 45.4447 571.366 44.954C573.39 44.3407 574.893 43.5587 575.874 42.608C576.855 41.6573 577.53 40.5073 577.898 39.158C578.266 37.8087 578.496 36.2447 578.588 34.466ZM558.164 34.282H562.81C562.687 36.4287 562.411 38.4373 561.982 40.308C561.583 42.148 560.909 43.8193 559.958 45.322C559.007 46.8247 557.612 48.0973 555.772 49.14C555.588 48.7413 555.312 48.2813 554.944 47.76C554.576 47.2387 554.193 46.7327 553.794 46.242C553.395 45.7513 553.027 45.368 552.69 45.092C554.162 44.356 555.266 43.4513 556.002 42.378C556.769 41.274 557.29 40.0473 557.566 38.698C557.873 37.3487 558.072 35.8767 558.164 34.282ZM585.396 34.42H590.272V42.7C590.272 42.8227 590.272 42.9453 590.272 43.068C590.303 43.16 590.349 43.2367 590.41 43.298C590.563 43.482 590.793 43.574 591.1 43.574C591.223 43.574 591.361 43.574 591.514 43.574C591.698 43.574 591.851 43.574 591.974 43.574C592.311 43.574 592.557 43.4973 592.71 43.344C592.802 43.2827 592.879 43.1907 592.94 43.068C593.001 42.9147 593.047 42.746 593.078 42.562C593.139 42.194 593.185 41.642 593.216 40.906C593.277 40.17 593.293 39.3267 593.262 38.376C593.691 38.8053 594.305 39.25 595.102 39.71C595.93 40.17 596.666 40.492 597.31 40.676C597.279 41.7493 597.203 42.7767 597.08 43.758C596.957 44.7393 596.819 45.46 596.666 45.92C596.329 46.8707 595.777 47.576 595.01 48.036C594.703 48.2507 594.305 48.404 593.814 48.496C593.354 48.6187 592.879 48.68 592.388 48.68C592.02 48.68 591.56 48.68 591.008 48.68C590.456 48.68 590.011 48.68 589.674 48.68C589.061 48.68 588.463 48.588 587.88 48.404C587.297 48.2507 586.807 47.9747 586.408 47.576C586.009 47.1467 585.733 46.656 585.58 46.104C585.457 45.552 585.396 44.6013 585.396 43.252V34.42ZM617.826 20.482H623.438V43.022C623.438 44.494 623.239 45.6287 622.84 46.426C622.472 47.254 621.751 47.8673 620.678 48.266C619.666 48.6953 618.409 48.956 616.906 49.048C615.403 49.14 613.625 49.186 611.57 49.186C611.417 48.4193 611.141 47.4993 610.742 46.426C610.343 45.3833 609.929 44.5093 609.5 43.804C610.481 43.8347 611.447 43.8653 612.398 43.896C613.379 43.9267 614.238 43.942 614.974 43.942C615.741 43.9113 616.277 43.896 616.584 43.896C617.044 43.8653 617.366 43.7887 617.55 43.666C617.734 43.5433 617.826 43.298 617.826 42.93V20.482ZM606.51 18.642H637.146V41.136H631.58V23.242H606.51V18.642ZM599.702 26.324H642.298V31.062H599.702V26.324ZM605.406 34.42H634.616V39.02H605.406V34.42ZM633.512 5.992L637.79 10.27C635.674 10.73 633.389 11.1287 630.936 11.466C628.513 11.8033 625.999 12.11 623.392 12.386C620.785 12.662 618.194 12.9073 615.618 13.122C613.042 13.306 610.527 13.4593 608.074 13.582C607.982 12.938 607.798 12.1713 607.522 11.282C607.246 10.3927 606.97 9.65667 606.694 9.074C609.055 8.95133 611.463 8.798 613.916 8.614C616.4 8.39933 618.823 8.154 621.184 7.878C623.576 7.602 625.815 7.31066 627.9 7.004C630.016 6.69733 631.887 6.36 633.512 5.992ZM605.912 7.786L611.524 9.074C611.003 10.7607 610.359 12.4167 609.592 14.042C608.856 15.6673 608.059 17.2007 607.2 18.642C606.341 20.0527 605.467 21.2947 604.578 22.368C604.21 22.0613 603.735 21.7087 603.152 21.31C602.569 20.8807 601.956 20.482 601.312 20.114C600.699 19.7153 600.162 19.4087 599.702 19.194C601.051 17.814 602.278 16.0967 603.382 14.042C604.486 11.9873 605.329 9.902 605.912 7.786ZM616.86 13.628L621.782 12.386C622.242 13.2447 622.671 14.18 623.07 15.192C623.469 16.1733 623.729 17.032 623.852 17.768L618.654 19.148C618.531 18.412 618.301 17.5227 617.964 16.48C617.627 15.4373 617.259 14.4867 616.86 13.628ZM630.016 12.846L634.524 10.546C635.383 11.3433 636.241 12.248 637.1 13.26C637.989 14.272 638.802 15.284 639.538 16.296C640.305 17.2773 640.903 18.1667 641.332 18.964L636.502 21.54C636.103 20.7427 635.551 19.838 634.846 18.826C634.141 17.814 633.359 16.7867 632.5 15.744C631.672 14.7013 630.844 13.7353 630.016 12.846ZM647.45 15.514H682.732V21.172H647.45V15.514ZM680.432 15.514H686.182C686.182 15.514 686.182 15.6827 686.182 16.02C686.182 16.3573 686.167 16.7407 686.136 17.17C686.136 17.5687 686.121 17.8907 686.09 18.136C685.845 22.736 685.599 26.6767 685.354 29.958C685.109 33.2087 684.833 35.9073 684.526 38.054C684.25 40.2007 683.913 41.9027 683.514 43.16C683.146 44.4173 682.701 45.3527 682.18 45.966C681.475 46.8553 680.754 47.4687 680.018 47.806C679.313 48.1433 678.454 48.3733 677.442 48.496C676.614 48.6187 675.525 48.68 674.176 48.68C672.827 48.68 671.447 48.6647 670.036 48.634C670.005 47.806 669.806 46.84 669.438 45.736C669.101 44.632 668.671 43.6967 668.15 42.93C669.622 43.0527 670.971 43.1293 672.198 43.16C673.455 43.16 674.391 43.16 675.004 43.16C675.464 43.16 675.863 43.114 676.2 43.022C676.537 42.93 676.844 42.7307 677.12 42.424C677.519 42.0253 677.887 41.2587 678.224 40.124C678.561 38.9587 678.853 37.3487 679.098 35.294C679.374 33.2393 679.619 30.6787 679.834 27.612C680.049 24.5147 680.248 20.85 680.432 16.618V15.514ZM661.572 5.992H667.46V15.514C667.46 17.5993 667.353 19.8227 667.138 22.184C666.954 24.5453 666.555 26.9527 665.942 29.406C665.329 31.8287 664.393 34.236 663.136 36.628C661.879 39.02 660.207 41.3047 658.122 43.482C656.067 45.6593 653.476 47.622 650.348 49.37C650.041 48.91 649.627 48.3887 649.106 47.806C648.615 47.2233 648.079 46.6713 647.496 46.15C646.944 45.6287 646.438 45.1993 645.978 44.862C648.861 43.3287 651.237 41.6113 653.108 39.71C655.009 37.8087 656.527 35.8307 657.662 33.776C658.797 31.6907 659.64 29.59 660.192 27.474C660.775 25.3273 661.143 23.242 661.296 21.218C661.48 19.1633 661.572 17.262 661.572 15.514V5.992Z" fill="url(#paint0_linear_267_132)"/>
<path d="M16.2656 98H10.3294V78.7636H16.5286C18.3947 78.7636 19.9914 79.1487 21.3189 79.9189C22.6464 80.6829 23.664 81.7818 24.3716 83.2158C25.0792 84.6435 25.433 86.353 25.433 88.3442C25.433 90.348 25.076 92.0732 24.3622 93.5197C23.6483 94.9599 22.6089 96.0682 21.2438 96.8447C19.8787 97.6149 18.2193 98 16.2656 98ZM12.6588 95.9336H16.1153C17.7058 95.9336 19.024 95.6268 20.0697 95.0131C21.1154 94.3994 21.895 93.5259 22.4085 92.3925C22.922 91.2591 23.1787 89.9097 23.1787 88.3442C23.1787 86.7913 22.9251 85.4544 22.4179 84.3335C21.9107 83.2064 21.153 82.3423 20.1448 81.7411C19.1367 81.1337 17.8812 80.83 16.3783 80.83H12.6588V95.9336ZM29.0398 98V83.5727H31.1813V85.7518H31.3316C31.5946 85.038 32.0705 84.4588 32.7593 84.0142C33.4481 83.5696 34.2246 83.3473 35.0887 83.3473C35.2515 83.3473 35.455 83.3504 35.6992 83.3567C35.9434 83.363 36.1282 83.3723 36.2534 83.3849V85.6391C36.1783 85.6203 36.0061 85.5922 35.7368 85.5546C35.4738 85.5108 35.1952 85.4888 34.9009 85.4888C34.1995 85.4888 33.5733 85.636 33.0223 85.9303C32.4775 86.2184 32.0455 86.6191 31.7261 87.1326C31.413 87.6398 31.2565 88.219 31.2565 88.8702V98H29.0398ZM38.881 98V83.5727H41.0977V98H38.881ZM40.0082 81.1682C39.5761 81.1682 39.2035 81.021 38.8904 80.7267C38.5836 80.4324 38.4302 80.0786 38.4302 79.6653C38.4302 79.2521 38.5836 78.8983 38.8904 78.604C39.2035 78.3097 39.5761 78.1625 40.0082 78.1625C40.4402 78.1625 40.8097 78.3097 41.1165 78.604C41.4296 78.8983 41.5861 79.2521 41.5861 79.6653C41.5861 80.0786 41.4296 80.4324 41.1165 80.7267C40.8097 81.021 40.4402 81.1682 40.0082 81.1682ZM56.955 83.5727L51.62 98H49.3657L44.0306 83.5727H46.4352L50.4177 95.0695H50.568L54.5505 83.5727H56.955ZM59.8809 98V83.5727H62.0976V98H59.8809ZM61.008 81.1682C60.576 81.1682 60.2034 81.021 59.8903 80.7267C59.5834 80.4324 59.43 80.0786 59.43 79.6653C59.43 79.2521 59.5834 78.8983 59.8903 78.604C60.2034 78.3097 60.576 78.1625 61.008 78.1625C61.4401 78.1625 61.8095 78.3097 62.1164 78.604C62.4295 78.8983 62.586 79.2521 62.586 79.6653C62.586 80.0786 62.4295 80.4324 62.1164 80.7267C61.8095 81.021 61.4401 81.1682 61.008 81.1682ZM68.3743 89.3211V98H66.1576V83.5727H68.2991V85.827H68.487C68.8251 85.0944 69.3386 84.5057 70.0274 84.0612C70.7162 83.6103 71.6054 83.3849 72.695 83.3849C73.6718 83.3849 74.5265 83.5853 75.2592 83.986C75.9918 84.3805 76.5616 84.9816 76.9687 85.7894C77.3757 86.5909 77.5792 87.6054 77.5792 88.8327V98H75.3625V88.983C75.3625 87.8496 75.0682 86.9666 74.4796 86.3342C73.891 85.6955 73.0832 85.3761 72.0562 85.3761C71.3487 85.3761 70.7162 85.5296 70.1589 85.8364C69.6079 86.1432 69.1727 86.5909 68.8533 87.1795C68.534 87.7682 68.3743 88.482 68.3743 89.3211ZM87.4533 103.711C86.3826 103.711 85.4621 103.573 84.6919 103.298C83.9217 103.028 83.2798 102.671 82.7663 102.227C82.2591 101.788 81.8552 101.319 81.5547 100.818L83.3205 99.578C83.5209 99.841 83.7745 100.142 84.0813 100.48C84.3882 100.824 84.8077 101.122 85.34 101.372C85.8785 101.629 86.5829 101.757 87.4533 101.757C88.618 101.757 89.5792 101.475 90.3369 100.912C91.0946 100.348 91.4734 99.4653 91.4734 98.263V95.3325H91.2856C91.1228 95.5955 90.8911 95.9211 90.5905 96.3093C90.2962 96.6913 89.8704 97.0325 89.3131 97.3331C88.7621 97.6274 88.0169 97.7746 87.0776 97.7746C85.9129 97.7746 84.8672 97.4991 83.9404 96.948C83.0199 96.397 82.2904 95.5955 81.7519 94.5435C81.2197 93.4915 80.9535 92.2141 80.9535 90.7112C80.9535 89.2334 81.2134 87.9466 81.7331 86.8508C82.2529 85.7487 82.9761 84.8971 83.9029 84.296C84.8296 83.6886 85.9004 83.3849 87.1152 83.3849C88.0545 83.3849 88.7996 83.5414 89.3507 83.8545C89.908 84.1613 90.3338 84.512 90.6281 84.9065C90.9286 85.2947 91.1603 85.6141 91.3231 85.8646H91.5486V83.5727H93.6901V98.4133C93.6901 99.6531 93.4083 100.661 92.8448 101.438C92.2875 102.22 91.536 102.793 90.5905 103.157C89.6512 103.526 88.6055 103.711 87.4533 103.711ZM87.3782 95.7833C88.2674 95.7833 89.0188 95.5798 89.6324 95.1728C90.2461 94.7658 90.7126 94.1803 91.032 93.4163C91.3513 92.6524 91.511 91.7382 91.511 90.6736C91.511 89.6342 91.3545 88.7168 91.0414 87.9216C90.7283 87.1263 90.2649 86.5033 89.6512 86.0524C89.0376 85.6016 88.2799 85.3761 87.3782 85.3761C86.4389 85.3761 85.6562 85.6141 85.03 86.09C84.4101 86.5659 83.9436 87.2046 83.6305 88.0061C83.3236 88.8076 83.1702 89.6968 83.1702 90.6736C83.1702 91.6755 83.3268 92.5616 83.6399 93.3318C83.9592 94.0957 84.4289 94.6969 85.0488 95.1352C85.675 95.5673 86.4514 95.7833 87.3782 95.7833ZM111.461 83.5727V85.4513H103.985V83.5727H111.461ZM106.164 80.1162H108.38V93.8672C108.38 94.4934 108.471 94.963 108.653 95.2761C108.841 95.5829 109.079 95.7896 109.367 95.896C109.661 95.9962 109.971 96.0463 110.297 96.0463C110.541 96.0463 110.741 96.0338 110.898 96.0087C111.054 95.9774 111.179 95.9524 111.273 95.9336L111.724 97.9249C111.574 97.9812 111.364 98.0376 111.095 98.0939C110.826 98.1565 110.484 98.1879 110.071 98.1879C109.445 98.1879 108.831 98.0532 108.23 97.784C107.635 97.5147 107.141 97.1046 106.746 96.5535C106.358 96.0025 106.164 95.3074 106.164 94.4683V80.1162ZM117.322 89.3211V98H115.106V78.7636H117.322V85.827H117.51C117.848 85.0818 118.355 84.4901 119.032 84.0518C119.714 83.6072 120.622 83.3849 121.756 83.3849C122.739 83.3849 123.6 83.5821 124.339 83.9766C125.078 84.3648 125.651 84.9629 126.058 85.7706C126.471 86.5721 126.677 87.5928 126.677 88.8327V98H124.461V88.983C124.461 87.837 124.163 86.951 123.568 86.3248C122.98 85.6924 122.163 85.3761 121.117 85.3761C120.391 85.3761 119.739 85.5296 119.163 85.8364C118.593 86.1432 118.143 86.5909 117.811 87.1795C117.485 87.7682 117.322 88.482 117.322 89.3211ZM136.782 98.3006C135.392 98.3006 134.192 97.9937 133.184 97.3801C132.182 96.7602 131.409 95.896 130.864 94.7877C130.326 93.6731 130.057 92.3769 130.057 90.8991C130.057 89.4213 130.326 88.1188 130.864 86.9917C131.409 85.8583 132.167 84.9754 133.137 84.3429C134.114 83.7042 135.254 83.3849 136.556 83.3849C137.308 83.3849 138.05 83.5101 138.782 83.7606C139.515 84.0111 140.182 84.4181 140.783 84.9816C141.384 85.5389 141.863 86.2778 142.22 87.1983C142.577 88.1188 142.756 89.2522 142.756 90.5985V91.5378H131.634V89.6217H140.501C140.501 88.8076 140.338 88.0812 140.013 87.4425C139.693 86.8038 139.236 86.2998 138.641 85.9303C138.053 85.5609 137.358 85.3761 136.556 85.3761C135.673 85.3761 134.909 85.5953 134.264 86.0336C133.626 86.4657 133.134 87.0293 132.79 87.7243C132.445 88.4194 132.273 89.1645 132.273 89.9598V91.2372C132.273 92.3268 132.461 93.2504 132.837 94.0081C133.219 94.7595 133.748 95.3325 134.424 95.727C135.1 96.1152 135.886 96.3093 136.782 96.3093C137.364 96.3093 137.89 96.2279 138.36 96.0651C138.836 95.896 139.246 95.6455 139.59 95.3137C139.935 94.9755 140.201 94.556 140.389 94.055L142.53 94.6562C142.305 95.3826 141.926 96.0213 141.394 96.5723C140.861 97.1171 140.204 97.5429 139.421 97.8497C138.638 98.1503 137.759 98.3006 136.782 98.3006ZM153.867 98V78.7636H165.401V80.83H156.197V87.3298H164.537V89.3962H156.197V98H153.867ZM177.279 92.1013V83.5727H179.495V98H177.279V95.5579H177.128C176.79 96.2905 176.264 96.9136 175.55 97.427C174.836 97.9343 173.935 98.1879 172.845 98.1879C171.944 98.1879 171.142 97.9906 170.441 97.5961C169.739 97.1954 169.188 96.5942 168.788 95.7927C168.387 94.9849 168.186 93.9674 168.186 92.7401V83.5727H170.403V92.5898C170.403 93.6418 170.697 94.4808 171.286 95.107C171.881 95.7332 172.639 96.0463 173.559 96.0463C174.11 96.0463 174.671 95.9054 175.24 95.6236C175.816 95.3419 176.299 94.9098 176.687 94.3274C177.081 93.7451 177.279 93.0031 177.279 92.1013ZM189.83 83.5727V85.4513H182.353V83.5727H189.83ZM184.532 80.1162H186.749V93.8672C186.749 94.4934 186.84 94.963 187.021 95.2761C187.209 95.5829 187.447 95.7896 187.735 95.896C188.029 95.9962 188.339 96.0463 188.665 96.0463C188.909 96.0463 189.11 96.0338 189.266 96.0087C189.423 95.9774 189.548 95.9524 189.642 95.9336L190.093 97.9249C189.942 97.9812 189.733 98.0376 189.463 98.0939C189.194 98.1565 188.853 98.1879 188.44 98.1879C187.813 98.1879 187.2 98.0532 186.599 97.784C186.004 97.5147 185.509 97.1046 185.115 96.5535C184.726 96.0025 184.532 95.3074 184.532 94.4683V80.1162ZM202.256 92.1013V83.5727H204.473V98H202.256V95.5579H202.106C201.768 96.2905 201.242 96.9136 200.528 97.427C199.814 97.9343 198.912 98.1879 197.823 98.1879C196.921 98.1879 196.12 97.9906 195.418 97.5961C194.717 97.1954 194.166 96.5942 193.765 95.7927C193.364 94.9849 193.164 93.9674 193.164 92.7401V83.5727H195.381V92.5898C195.381 93.6418 195.675 94.4808 196.264 95.107C196.859 95.7332 197.616 96.0463 198.537 96.0463C199.088 96.0463 199.648 95.9054 200.218 95.6236C200.794 95.3419 201.276 94.9098 201.665 94.3274C202.059 93.7451 202.256 93.0031 202.256 92.1013ZM208.533 98V83.5727H210.675V85.7518H210.825C211.088 85.038 211.564 84.4588 212.253 84.0142C212.941 83.5696 213.718 83.3473 214.582 83.3473C214.745 83.3473 214.948 83.3504 215.192 83.3567C215.437 83.363 215.621 83.3723 215.747 83.3849V85.6391C215.671 85.6203 215.499 85.5922 215.23 85.5546C214.967 85.5108 214.688 85.4888 214.394 85.4888C213.693 85.4888 213.067 85.636 212.516 85.9303C211.971 86.2184 211.539 86.6191 211.219 87.1326C210.906 87.6398 210.75 88.219 210.75 88.8702V98H208.533ZM223.984 98.3006C222.594 98.3006 221.395 97.9937 220.387 97.3801C219.385 96.7602 218.611 95.896 218.067 94.7877C217.528 93.6731 217.259 92.3769 217.259 90.8991C217.259 89.4213 217.528 88.1188 218.067 86.9917C218.611 85.8583 219.369 84.9754 220.34 84.3429C221.317 83.7042 222.456 83.3849 223.759 83.3849C224.51 83.3849 225.252 83.5101 225.985 83.7606C226.717 84.0111 227.384 84.4181 227.985 84.9816C228.587 85.5389 229.066 86.2778 229.422 87.1983C229.779 88.1188 229.958 89.2522 229.958 90.5985V91.5378H218.837V89.6217H227.704C227.704 88.8076 227.541 88.0812 227.215 87.4425C226.896 86.8038 226.439 86.2998 225.844 85.9303C225.255 85.5609 224.56 85.3761 223.759 85.3761C222.876 85.3761 222.112 85.5953 221.467 86.0336C220.828 86.4657 220.337 87.0293 219.992 87.7243C219.648 88.4194 219.476 89.1645 219.476 89.9598V91.2372C219.476 92.3268 219.663 93.2504 220.039 94.0081C220.421 94.7595 220.95 95.3325 221.626 95.727C222.303 96.1152 223.089 96.3093 223.984 96.3093C224.566 96.3093 225.092 96.2279 225.562 96.0651C226.038 95.896 226.448 95.6455 226.793 95.3137C227.137 94.9755 227.403 94.556 227.591 94.055L229.732 94.6562C229.507 95.3826 229.128 96.0213 228.596 96.5723C228.064 97.1171 227.406 97.5429 226.623 97.8497C225.841 98.1503 224.961 98.3006 223.984 98.3006ZM242.384 95.5391C241.921 95.5391 241.523 95.3732 241.192 95.0413C240.86 94.7094 240.694 94.3118 240.694 93.8484C240.694 93.385 240.86 92.9874 241.192 92.6555C241.523 92.3236 241.921 92.1577 242.384 92.1577C242.848 92.1577 243.245 92.3236 243.577 92.6555C243.909 92.9874 244.075 93.385 244.075 93.8484C244.075 94.1552 243.997 94.437 243.84 94.6937C243.69 94.9505 243.487 95.1571 243.23 95.3137C242.979 95.464 242.698 95.5391 242.384 95.5391ZM242.384 85.8082C241.921 85.8082 241.523 85.6423 241.192 85.3104C240.86 84.9785 240.694 84.5809 240.694 84.1175C240.694 83.6541 240.86 83.2565 241.192 82.9246C241.523 82.5927 241.921 82.4268 242.384 82.4268C242.848 82.4268 243.245 82.5927 243.577 82.9246C243.909 83.2565 244.075 83.6541 244.075 84.1175C244.075 84.4243 243.997 84.7061 243.84 84.9629C243.69 85.2196 243.487 85.4262 243.23 85.5828C242.979 85.7331 242.698 85.8082 242.384 85.8082ZM254.741 80.83V78.7636H269.168V80.83H263.119V98H260.79V80.83H254.741ZM274.679 89.3211V98H272.462V78.7636H274.679V85.827H274.867C275.205 85.0818 275.712 84.4901 276.389 84.0518C277.071 83.6072 277.979 83.3849 279.113 83.3849C280.096 83.3849 280.957 83.5821 281.696 83.9766C282.434 84.3648 283.007 84.9629 283.414 85.7706C283.828 86.5721 284.034 87.5928 284.034 88.8327V98H281.818V88.983C281.818 87.837 281.52 86.951 280.925 86.3248C280.337 85.6924 279.52 85.3761 278.474 85.3761C277.747 85.3761 277.096 85.5296 276.52 85.8364C275.95 86.1432 275.499 86.5909 275.168 87.1795C274.842 87.7682 274.679 88.482 274.679 89.3211ZM294.139 98.3006C292.748 98.3006 291.549 97.9937 290.541 97.3801C289.539 96.7602 288.766 95.896 288.221 94.7877C287.683 93.6731 287.413 92.3769 287.413 90.8991C287.413 89.4213 287.683 88.1188 288.221 86.9917C288.766 85.8583 289.524 84.9754 290.494 84.3429C291.471 83.7042 292.611 83.3849 293.913 83.3849C294.665 83.3849 295.407 83.5101 296.139 83.7606C296.872 84.0111 297.539 84.4181 298.14 84.9816C298.741 85.5389 299.22 86.2778 299.577 87.1983C299.934 88.1188 300.112 89.2522 300.112 90.5985V91.5378H288.991V89.6217H297.858C297.858 88.8076 297.695 88.0812 297.37 87.4425C297.05 86.8038 296.593 86.2998 295.998 85.9303C295.41 85.5609 294.715 85.3761 293.913 85.3761C293.03 85.3761 292.266 85.5953 291.621 86.0336C290.983 86.4657 290.491 87.0293 290.147 87.7243C289.802 88.4194 289.63 89.1645 289.63 89.9598V91.2372C289.63 92.3268 289.818 93.2504 290.194 94.0081C290.576 94.7595 291.105 95.3325 291.781 95.727C292.457 96.1152 293.243 96.3093 294.139 96.3093C294.721 96.3093 295.247 96.2279 295.717 96.0651C296.192 95.896 296.603 95.6455 296.947 95.3137C297.291 94.9755 297.558 94.556 297.745 94.055L299.887 94.6562C299.662 95.3826 299.283 96.0213 298.75 96.5723C298.218 97.1171 297.561 97.5429 296.778 97.8497C295.995 98.1503 295.115 98.3006 294.139 98.3006ZM326.478 78.7636V98H324.224L313.741 82.8964H313.553V98H311.224V78.7636H313.478L323.998 93.9048H324.186V78.7636H326.478ZM336.887 98.3006C335.497 98.3006 334.298 97.9937 333.29 97.3801C332.288 96.7602 331.515 95.896 330.97 94.7877C330.431 93.6731 330.162 92.3769 330.162 90.8991C330.162 89.4213 330.431 88.1188 330.97 86.9917C331.515 85.8583 332.272 84.9754 333.243 84.3429C334.22 83.7042 335.359 83.3849 336.662 83.3849C337.413 83.3849 338.155 83.5101 338.888 83.7606C339.621 84.0111 340.288 84.4181 340.889 84.9816C341.49 85.5389 341.969 86.2778 342.326 87.1983C342.683 88.1188 342.861 89.2522 342.861 90.5985V91.5378H331.74V89.6217H340.607C340.607 88.8076 340.444 88.0812 340.118 87.4425C339.799 86.8038 339.342 86.2998 338.747 85.9303C338.158 85.5609 337.463 85.3761 336.662 85.3761C335.779 85.3761 335.015 85.5953 334.37 86.0336C333.731 86.4657 333.24 87.0293 332.895 87.7243C332.551 88.4194 332.379 89.1645 332.379 89.9598V91.2372C332.379 92.3268 332.567 93.2504 332.942 94.0081C333.324 94.7595 333.853 95.3325 334.53 95.727C335.206 96.1152 335.992 96.3093 336.887 96.3093C337.47 96.3093 337.996 96.2279 338.465 96.0651C338.941 95.896 339.351 95.6455 339.696 95.3137C340.04 94.9755 340.306 94.556 340.494 94.055L342.636 94.6562C342.41 95.3826 342.031 96.0213 341.499 96.5723C340.967 97.1171 340.309 97.5429 339.527 97.8497C338.744 98.1503 337.864 98.3006 336.887 98.3006ZM347.499 83.5727L350.955 89.4714L354.412 83.5727H356.967L352.308 90.7864L356.967 98H354.412L350.955 92.4019L347.499 98H344.944L349.528 90.7864L344.944 83.5727H347.499ZM366.404 83.5727V85.4513H358.927V83.5727H366.404ZM361.107 80.1162H363.323V93.8672C363.323 94.4934 363.414 94.963 363.596 95.2761C363.784 95.5829 364.021 95.7896 364.31 95.896C364.604 95.9962 364.914 96.0463 365.239 96.0463C365.484 96.0463 365.684 96.0338 365.841 96.0087C365.997 95.9774 366.122 95.9524 366.216 95.9336L366.667 97.9249C366.517 97.9812 366.307 98.0376 366.038 98.0939C365.769 98.1565 365.427 98.1879 365.014 98.1879C364.388 98.1879 363.774 98.0532 363.173 97.784C362.578 97.5147 362.083 97.1046 361.689 96.5535C361.301 96.0025 361.107 95.3074 361.107 94.4683V80.1162ZM383.414 98H377.478V78.7636H383.677C385.543 78.7636 387.14 79.1487 388.468 79.9189C389.795 80.6829 390.813 81.7818 391.52 83.2158C392.228 84.6435 392.582 86.353 392.582 88.3442C392.582 90.348 392.225 92.0732 391.511 93.5197C390.797 94.9599 389.758 96.0682 388.393 96.8447C387.027 97.6149 385.368 98 383.414 98ZM379.808 95.9336H383.264C384.855 95.9336 386.173 95.6268 387.218 95.0131C388.264 94.3994 389.044 93.5259 389.557 92.3925C390.071 91.2591 390.327 89.9097 390.327 88.3442C390.327 86.7913 390.074 85.4544 389.567 84.3335C389.059 83.2064 388.302 82.3423 387.294 81.7411C386.285 81.1337 385.03 80.83 383.527 80.83H379.808V95.9336ZM402.237 98.3006C400.847 98.3006 399.648 97.9937 398.64 97.3801C397.638 96.7602 396.865 95.896 396.32 94.7877C395.781 93.6731 395.512 92.3769 395.512 90.8991C395.512 89.4213 395.781 88.1188 396.32 86.9917C396.865 85.8583 397.622 84.9754 398.593 84.3429C399.57 83.7042 400.71 83.3849 402.012 83.3849C402.763 83.3849 403.505 83.5101 404.238 83.7606C404.971 84.0111 405.638 84.4181 406.239 84.9816C406.84 85.5389 407.319 86.2778 407.676 87.1983C408.033 88.1188 408.211 89.2522 408.211 90.5985V91.5378H397.09V89.6217H405.957C405.957 88.8076 405.794 88.0812 405.469 87.4425C405.149 86.8038 404.692 86.2998 404.097 85.9303C403.509 85.5609 402.814 85.3761 402.012 85.3761C401.129 85.3761 400.365 85.5953 399.72 86.0336C399.081 86.4657 398.59 87.0293 398.246 87.7243C397.901 88.4194 397.729 89.1645 397.729 89.9598V91.2372C397.729 92.3268 397.917 93.2504 398.292 94.0081C398.674 94.7595 399.204 95.3325 399.88 95.727C400.556 96.1152 401.342 96.3093 402.237 96.3093C402.82 96.3093 403.346 96.2279 403.815 96.0651C404.291 95.896 404.701 95.6455 405.046 95.3137C405.39 94.9755 405.656 94.556 405.844 94.055L407.986 94.6562C407.76 95.3826 407.382 96.0213 406.849 96.5723C406.317 97.1171 405.66 97.5429 404.877 97.8497C404.094 98.1503 403.214 98.3006 402.237 98.3006ZM417.444 98.3006C416.092 98.3006 414.927 97.9812 413.95 97.3425C412.973 96.7038 412.222 95.824 411.696 94.7031C411.17 93.5823 410.907 92.3017 410.907 90.8615C410.907 89.3962 411.176 88.1032 411.715 86.9823C412.26 85.8552 413.017 84.9754 413.988 84.3429C414.965 83.7042 416.104 83.3849 417.407 83.3849C418.421 83.3849 419.335 83.5727 420.149 83.9484C420.963 84.3241 421.63 84.8501 422.15 85.5264C422.67 86.2027 422.992 86.9917 423.118 87.8934H420.901C420.732 87.2359 420.356 86.6536 419.774 86.1463C419.198 85.6329 418.421 85.3761 417.444 85.3761C416.58 85.3761 415.823 85.6016 415.171 86.0524C414.526 86.497 414.022 87.1263 413.659 87.9404C413.302 88.7481 413.124 89.6968 413.124 90.7864C413.124 91.901 413.299 92.8716 413.65 93.6981C414.007 94.5247 414.508 95.1665 415.152 95.6236C415.804 96.0807 416.568 96.3093 417.444 96.3093C418.02 96.3093 418.543 96.2091 419.013 96.0087C419.483 95.8084 419.88 95.5203 420.206 95.1446C420.531 94.7689 420.763 94.318 420.901 93.792H423.118C422.992 94.6437 422.682 95.4107 422.188 96.0933C421.699 96.7695 421.051 97.3081 420.243 97.7088C419.442 98.1033 418.509 98.3006 417.444 98.3006ZM430.604 98.3381C429.689 98.3381 428.86 98.1659 428.115 97.8215C427.369 97.4709 426.778 96.9668 426.339 96.3093C425.901 95.6455 425.682 94.844 425.682 93.9048C425.682 93.0782 425.845 92.4082 426.17 91.8947C426.496 91.375 426.931 90.968 427.476 90.6736C428.021 90.3793 428.622 90.1602 429.279 90.0162C429.943 89.8659 430.61 89.7469 431.28 89.6592C432.157 89.5465 432.867 89.462 433.412 89.4056C433.963 89.343 434.364 89.2397 434.614 89.0957C434.871 88.9516 434.999 88.7012 434.999 88.3442V88.2691C434.999 87.3424 434.746 86.6222 434.239 86.1088C433.738 85.5953 432.977 85.3386 431.956 85.3386C430.898 85.3386 430.068 85.5703 429.467 86.0336C428.866 86.497 428.443 86.9917 428.199 87.5177L426.095 86.7663C426.471 85.8896 426.972 85.2071 427.598 84.7186C428.23 84.224 428.919 83.8796 429.664 83.6854C430.416 83.4851 431.155 83.3849 431.881 83.3849C432.344 83.3849 432.877 83.4412 433.478 83.5539C434.085 83.6604 434.671 83.8827 435.234 84.2208C435.804 84.559 436.277 85.0693 436.653 85.7518C437.028 86.4344 437.216 87.3486 437.216 88.4945V98H434.999V96.0463H434.887C434.736 96.3594 434.486 96.6944 434.135 97.0513C433.785 97.4083 433.318 97.712 432.736 97.9624C432.153 98.2129 431.443 98.3381 430.604 98.3381ZM430.942 96.3469C431.818 96.3469 432.557 96.1747 433.158 95.8303C433.766 95.4859 434.223 95.0413 434.53 94.4965C434.843 93.9517 434.999 93.3788 434.999 92.7776V90.7488C434.905 90.8615 434.699 90.9648 434.379 91.0588C434.066 91.1464 433.703 91.2247 433.29 91.2936C432.883 91.3562 432.485 91.4125 432.097 91.4626C431.715 91.5065 431.405 91.544 431.167 91.5754C430.591 91.6505 430.053 91.7726 429.552 91.9417C429.057 92.1045 428.656 92.3518 428.349 92.6837C428.049 93.0093 427.898 93.4539 427.898 94.0175C427.898 94.7877 428.183 95.37 428.753 95.7645C429.329 96.1528 430.059 96.3469 430.942 96.3469ZM446.71 98.3006C445.508 98.3006 444.446 97.9969 443.526 97.3895C442.605 96.7758 441.885 95.9117 441.365 94.7971C440.846 93.6762 440.586 92.3518 440.586 90.8239C440.586 89.3086 440.846 87.9936 441.365 86.879C441.885 85.7644 442.608 84.9034 443.535 84.296C444.462 83.6886 445.533 83.3849 446.747 83.3849C447.687 83.3849 448.429 83.5414 448.973 83.8545C449.524 84.1613 449.944 84.512 450.232 84.9065C450.526 85.2947 450.755 85.6141 450.918 85.8646H451.106V78.7636H453.322V98H451.181V95.7833H450.918C450.755 96.0463 450.523 96.3782 450.223 96.7789C449.922 97.1734 449.493 97.5272 448.936 97.8403C448.379 98.1472 447.637 98.3006 446.71 98.3006ZM447.01 96.3093C447.9 96.3093 448.651 96.0776 449.265 95.6142C449.878 95.1446 450.345 94.4965 450.664 93.6699C450.983 92.8371 451.143 91.8759 451.143 90.7864C451.143 89.7093 450.987 88.7669 450.674 87.9591C450.36 87.1451 449.897 86.5127 449.283 86.0618C448.67 85.6047 447.912 85.3761 447.01 85.3761C446.071 85.3761 445.288 85.6172 444.662 86.0994C444.042 86.5753 443.576 87.2234 443.263 88.0437C442.956 88.8577 442.802 89.7719 442.802 90.7864C442.802 91.8133 442.959 92.7463 443.272 93.5854C443.591 94.4182 444.061 95.082 444.681 95.5767C445.307 96.0651 446.084 96.3093 447.01 96.3093ZM463.739 98.3006C462.349 98.3006 461.15 97.9937 460.141 97.3801C459.14 96.7602 458.366 95.896 457.821 94.7877C457.283 93.6731 457.014 92.3769 457.014 90.8991C457.014 89.4213 457.283 88.1188 457.821 86.9917C458.366 85.8583 459.124 84.9754 460.094 84.3429C461.071 83.7042 462.211 83.3849 463.513 83.3849C464.265 83.3849 465.007 83.5101 465.74 83.7606C466.472 84.0111 467.139 84.4181 467.74 84.9816C468.341 85.5389 468.82 86.2778 469.177 87.1983C469.534 88.1188 469.713 89.2522 469.713 90.5985V91.5378H458.592V89.6217H467.458C467.458 88.8076 467.296 88.0812 466.97 87.4425C466.651 86.8038 466.194 86.2998 465.599 85.9303C465.01 85.5609 464.315 85.3761 463.513 85.3761C462.631 85.3761 461.867 85.5953 461.222 86.0336C460.583 86.4657 460.091 87.0293 459.747 87.7243C459.403 88.4194 459.23 89.1645 459.23 89.9598V91.2372C459.23 92.3268 459.418 93.2504 459.794 94.0081C460.176 94.7595 460.705 95.3325 461.381 95.727C462.058 96.1152 462.843 96.3093 463.739 96.3093C464.321 96.3093 464.847 96.2279 465.317 96.0651C465.793 95.896 466.203 95.6455 466.547 95.3137C466.892 94.9755 467.158 94.556 467.346 94.055L469.487 94.6562C469.262 95.3826 468.883 96.0213 468.351 96.5723C467.818 97.1171 467.161 97.5429 466.378 97.8497C465.596 98.1503 464.716 98.3006 463.739 98.3006ZM486.385 98.3006C485.082 98.3006 483.94 97.9906 482.956 97.3707C481.98 96.7508 481.216 95.8835 480.665 94.7689C480.12 93.6543 479.847 92.3518 479.847 90.8615C479.847 89.3587 480.12 88.0468 480.665 86.9259C481.216 85.8051 481.98 84.9347 482.956 84.3148C483.94 83.6948 485.082 83.3849 486.385 83.3849C487.687 83.3849 488.827 83.6948 489.804 84.3148C490.787 84.9347 491.551 85.8051 492.096 86.9259C492.647 88.0468 492.922 89.3587 492.922 90.8615C492.922 92.3518 492.647 93.6543 492.096 94.7689C491.551 95.8835 490.787 96.7508 489.804 97.3707C488.827 97.9906 487.687 98.3006 486.385 98.3006ZM486.385 96.3093C487.374 96.3093 488.188 96.0557 488.827 95.5485C489.466 95.0413 489.938 94.3744 490.245 93.5478C490.552 92.7213 490.705 91.8258 490.705 90.8615C490.705 89.8972 490.552 88.9986 490.245 88.1658C489.938 87.333 489.466 86.6598 488.827 86.1463C488.188 85.6329 487.374 85.3761 486.385 85.3761C485.395 85.3761 484.581 85.6329 483.943 86.1463C483.304 86.6598 482.831 87.333 482.524 88.1658C482.218 88.9986 482.064 89.8972 482.064 90.8615C482.064 91.8258 482.218 92.7213 482.524 93.5478C482.831 94.3744 483.304 95.0413 483.943 95.5485C484.581 96.0557 485.395 96.3093 486.385 96.3093ZM502.731 83.5727V85.4513H494.953V83.5727H502.731ZM497.283 98V81.5815C497.283 80.7549 497.477 80.0661 497.865 79.5151C498.253 78.964 498.757 78.5507 499.377 78.2752C499.997 77.9997 500.652 77.8619 501.34 77.8619C501.885 77.8619 502.33 77.9058 502.674 77.9934C503.019 78.0811 503.275 78.1625 503.444 78.2376L502.806 80.1538C502.693 80.1162 502.536 80.0692 502.336 80.0129C502.142 79.9565 501.885 79.9283 501.566 79.9283C500.833 79.9283 500.304 80.1131 499.978 80.4825C499.659 80.852 499.499 81.3936 499.499 82.1075V98H497.283ZM512.525 80.83V78.7636H526.952V80.83H520.903V98H518.574V80.83H512.525ZM532.529 98.3381C531.615 98.3381 530.785 98.1659 530.04 97.8215C529.295 97.4709 528.703 96.9668 528.265 96.3093C527.826 95.6455 527.607 94.844 527.607 93.9048C527.607 93.0782 527.77 92.4082 528.096 91.8947C528.421 91.375 528.856 90.968 529.401 90.6736C529.946 90.3793 530.547 90.1602 531.205 90.0162C531.868 89.8659 532.535 89.7469 533.205 89.6592C534.082 89.5465 534.793 89.462 535.337 89.4056C535.889 89.343 536.289 89.2397 536.54 89.0957C536.797 88.9516 536.925 88.7012 536.925 88.3442V88.2691C536.925 87.3424 536.671 86.6222 536.164 86.1088C535.663 85.5953 534.902 85.3386 533.882 85.3386C532.823 85.3386 531.994 85.5703 531.393 86.0336C530.791 86.497 530.369 86.9917 530.125 87.5177L528.021 86.7663C528.396 85.8896 528.897 85.2071 529.523 84.7186C530.156 84.224 530.845 83.8796 531.59 83.6854C532.341 83.4851 533.08 83.3849 533.806 83.3849C534.27 83.3849 534.802 83.4412 535.403 83.5539C536.011 83.6604 536.596 83.8827 537.16 84.2208C537.73 84.559 538.202 85.0693 538.578 85.7518C538.954 86.4344 539.142 87.3486 539.142 88.4945V98H536.925V96.0463H536.812C536.662 96.3594 536.411 96.6944 536.061 97.0513C535.71 97.4083 535.244 97.712 534.661 97.9624C534.079 98.2129 533.368 98.3381 532.529 98.3381ZM532.867 96.3469C533.744 96.3469 534.483 96.1747 535.084 95.8303C535.691 95.4859 536.148 95.0413 536.455 94.4965C536.768 93.9517 536.925 93.3788 536.925 92.7776V90.7488C536.831 90.8615 536.624 90.9648 536.305 91.0588C535.992 91.1464 535.629 91.2247 535.215 91.2936C534.808 91.3562 534.411 91.4125 534.023 91.4626C533.641 91.5065 533.331 91.544 533.093 91.5754C532.517 91.6505 531.978 91.7726 531.477 91.9417C530.982 92.1045 530.582 92.3518 530.275 92.6837C529.974 93.0093 529.824 93.4539 529.824 94.0175C529.824 94.7877 530.109 95.37 530.679 95.7645C531.255 96.1528 531.984 96.3469 532.867 96.3469ZM543.187 98V83.5727H545.404V98H543.187ZM544.315 81.1682C543.883 81.1682 543.51 81.021 543.197 80.7267C542.89 80.4324 542.737 80.0786 542.737 79.6653C542.737 79.2521 542.89 78.8983 543.197 78.604C543.51 78.3097 543.883 78.1625 544.315 78.1625C544.747 78.1625 545.116 78.3097 545.423 78.604C545.736 78.8983 545.893 79.2521 545.893 79.6653C545.893 80.0786 545.736 80.4324 545.423 80.7267C545.116 81.021 544.747 81.1682 544.315 81.1682ZM552.733 98L548.337 83.5727H550.666L553.785 94.6186H553.935L557.016 83.5727H559.383L562.426 94.581H562.576L565.695 83.5727H568.024L563.628 98H561.449L558.293 86.9165H558.068L554.912 98H552.733ZM575.2 98.3381C574.286 98.3381 573.456 98.1659 572.711 97.8215C571.966 97.4709 571.374 96.9668 570.936 96.3093C570.498 95.6455 570.279 94.844 570.279 93.9048C570.279 93.0782 570.441 92.4082 570.767 91.8947C571.093 91.375 571.528 90.968 572.073 90.6736C572.617 90.3793 573.218 90.1602 573.876 90.0162C574.54 89.8659 575.207 89.7469 575.877 89.6592C576.753 89.5465 577.464 89.462 578.009 89.4056C578.56 89.343 578.961 89.2397 579.211 89.0957C579.468 88.9516 579.596 88.7012 579.596 88.3442V88.2691C579.596 87.3424 579.343 86.6222 578.835 86.1088C578.334 85.5953 577.574 85.3386 576.553 85.3386C575.495 85.3386 574.665 85.5703 574.064 86.0336C573.463 86.497 573.04 86.9917 572.796 87.5177L570.692 86.7663C571.068 85.8896 571.568 85.2071 572.195 84.7186C572.827 84.224 573.516 83.8796 574.261 83.6854C575.012 83.4851 575.751 83.3849 576.478 83.3849C576.941 83.3849 577.473 83.4412 578.075 83.5539C578.682 83.6604 579.267 83.8827 579.831 84.2208C580.401 84.559 580.874 85.0693 581.249 85.7518C581.625 86.4344 581.813 87.3486 581.813 88.4945V98H579.596V96.0463H579.483C579.333 96.3594 579.083 96.6944 578.732 97.0513C578.381 97.4083 577.915 97.712 577.332 97.9624C576.75 98.2129 576.039 98.3381 575.2 98.3381ZM575.538 96.3469C576.415 96.3469 577.154 96.1747 577.755 95.8303C578.363 95.4859 578.82 95.0413 579.126 94.4965C579.44 93.9517 579.596 93.3788 579.596 92.7776V90.7488C579.502 90.8615 579.296 90.9648 578.976 91.0588C578.663 91.1464 578.3 91.2247 577.887 91.2936C577.48 91.3562 577.082 91.4125 576.694 91.4626C576.312 91.5065 576.002 91.544 575.764 91.5754C575.188 91.6505 574.649 91.7726 574.148 91.9417C573.654 92.1045 573.253 92.3518 572.946 92.6837C572.645 93.0093 572.495 93.4539 572.495 94.0175C572.495 94.7877 572.78 95.37 573.35 95.7645C573.926 96.1528 574.656 96.3469 575.538 96.3469ZM588.075 89.3211V98H585.859V83.5727H588V85.827H588.188C588.526 85.0944 589.04 84.5057 589.729 84.0612C590.417 83.6103 591.307 83.3849 592.396 83.3849C593.373 83.3849 594.228 83.5853 594.96 83.986C595.693 84.3805 596.263 84.9816 596.67 85.7894C597.077 86.5909 597.28 87.6054 597.28 88.8327V98H595.064V88.983C595.064 87.8496 594.769 86.9666 594.181 86.3342C593.592 85.6955 592.784 85.3761 591.757 85.3761C591.05 85.3761 590.417 85.5296 589.86 85.8364C589.309 86.1432 588.874 86.5909 588.555 87.1795C588.235 87.7682 588.075 88.482 588.075 89.3211ZM603.285 78.7636V80.4543C603.285 80.9678 603.191 81.5157 603.003 82.0981C602.821 82.6742 602.552 83.2346 602.195 83.7794C601.844 84.3179 601.419 84.7875 600.918 85.1883L599.715 84.2114C600.11 83.6479 600.451 83.0624 600.739 82.455C601.034 81.8413 601.181 81.187 601.181 80.4919V78.7636H603.285ZM614.392 86.8038L612.4 87.3674C612.275 87.0355 612.09 86.713 611.846 86.3999C611.608 86.0806 611.283 85.8176 610.869 85.611C610.456 85.4043 609.927 85.301 609.282 85.301C608.399 85.301 607.663 85.5045 607.075 85.9115C606.492 86.3123 606.201 86.8226 606.201 87.4425C606.201 87.9936 606.402 88.4288 606.802 88.7481C607.203 89.0675 607.829 89.3336 608.681 89.5465L610.822 90.0725C612.112 90.3856 613.074 90.8646 613.706 91.5096C614.338 92.1483 614.655 92.9717 614.655 93.9799C614.655 94.8065 614.417 95.5454 613.941 96.1966C613.471 96.8478 612.814 97.3613 611.968 97.737C611.123 98.1127 610.14 98.3006 609.019 98.3006C607.547 98.3006 606.33 97.9812 605.365 97.3425C604.401 96.7038 603.79 95.7708 603.534 94.5435L605.638 94.0175C605.838 94.7939 606.217 95.3763 606.774 95.7645C607.338 96.1528 608.073 96.3469 608.981 96.3469C610.015 96.3469 610.835 96.1277 611.442 95.6894C612.056 95.2448 612.363 94.7125 612.363 94.0926C612.363 93.5917 612.187 93.1721 611.837 92.834C611.486 92.4896 610.948 92.2328 610.221 92.0638L607.817 91.5002C606.495 91.1871 605.525 90.7018 604.905 90.0443C604.291 89.3806 603.984 88.5509 603.984 87.5553C603.984 86.7412 604.213 86.0211 604.67 85.3949C605.134 84.7687 605.763 84.2772 606.558 83.9203C607.36 83.5633 608.268 83.3849 609.282 83.3849C610.71 83.3849 611.831 83.698 612.645 84.3241C613.465 84.9503 614.047 85.7769 614.392 86.8038ZM10.3294 130V110.764H21.8637V112.83H12.6588V119.33H20.9996V121.396H12.6588V130H10.3294ZM29.7982 130.338C28.884 130.338 28.0543 130.166 27.3092 129.822C26.564 129.471 25.9723 128.967 25.5339 128.309C25.0956 127.646 24.8764 126.844 24.8764 125.905C24.8764 125.078 25.0392 124.408 25.3649 123.895C25.6905 123.375 26.1257 122.968 26.6705 122.674C27.2152 122.379 27.8164 122.16 28.4739 122.016C29.1376 121.866 29.8045 121.747 30.4745 121.659C31.3512 121.547 32.0619 121.462 32.6067 121.406C33.1577 121.343 33.5585 121.24 33.8089 121.096C34.0657 120.952 34.194 120.701 34.194 120.344V120.269C34.194 119.342 33.9404 118.622 33.4332 118.109C32.9323 117.595 32.1715 117.339 31.1508 117.339C30.0925 117.339 29.2629 117.57 28.6617 118.034C28.0606 118.497 27.6379 118.992 27.3937 119.518L25.2897 118.766C25.6654 117.89 26.1664 117.207 26.7926 116.719C27.425 116.224 28.1138 115.88 28.859 115.685C29.6104 115.485 30.3493 115.385 31.0757 115.385C31.539 115.385 32.0713 115.441 32.6724 115.554C33.2798 115.66 33.8653 115.883 34.4289 116.221C34.9987 116.559 35.4715 117.069 35.8472 117.752C36.2229 118.434 36.4107 119.349 36.4107 120.495V130H34.194V128.046H34.0813C33.9311 128.359 33.6806 128.694 33.3299 129.051C32.9793 129.408 32.5127 129.712 31.9304 129.962C31.348 130.213 30.6373 130.338 29.7982 130.338ZM30.1364 128.347C31.013 128.347 31.7519 128.175 32.3531 127.83C32.9605 127.486 33.4176 127.041 33.7244 126.497C34.0375 125.952 34.194 125.379 34.194 124.778V122.749C34.1001 122.862 33.8935 122.965 33.5741 123.059C33.261 123.146 32.8978 123.225 32.4846 123.294C32.0775 123.356 31.6799 123.413 31.2917 123.463C30.9097 123.506 30.5998 123.544 30.3618 123.575C29.7857 123.65 29.2472 123.773 28.7462 123.942C28.2516 124.104 27.8508 124.352 27.544 124.684C27.2434 125.009 27.0931 125.454 27.0931 126.017C27.0931 126.788 27.378 127.37 27.9479 127.765C28.524 128.153 29.2535 128.347 30.1364 128.347ZM50.676 118.804L48.6847 119.367C48.5595 119.036 48.3748 118.713 48.1306 118.4C47.8926 118.081 47.567 117.818 47.1537 117.611C46.7404 117.404 46.2113 117.301 45.5663 117.301C44.6834 117.301 43.9476 117.505 43.359 117.912C42.7767 118.312 42.4855 118.823 42.4855 119.443C42.4855 119.994 42.6859 120.429 43.0866 120.748C43.4874 121.067 44.1136 121.334 44.9652 121.547L47.1067 122.073C48.3967 122.386 49.3579 122.865 49.9903 123.51C50.6228 124.148 50.939 124.972 50.939 125.98C50.939 126.806 50.701 127.545 50.2251 128.197C49.7555 128.848 49.098 129.361 48.2527 129.737C47.4073 130.113 46.4242 130.301 45.3033 130.301C43.8318 130.301 42.6139 129.981 41.6495 129.343C40.6852 128.704 40.0747 127.771 39.818 126.543L41.9219 126.017C42.1223 126.794 42.5012 127.376 43.0585 127.765C43.622 128.153 44.3578 128.347 45.2658 128.347C46.299 128.347 47.1193 128.128 47.7267 127.689C48.3403 127.245 48.6472 126.713 48.6472 126.093C48.6472 125.592 48.4718 125.172 48.1212 124.834C47.7705 124.49 47.232 124.233 46.5056 124.064L44.1011 123.5C42.7798 123.187 41.8092 122.702 41.1893 122.044C40.5756 121.381 40.2688 120.551 40.2688 119.555C40.2688 118.741 40.4974 118.021 40.9545 117.395C41.4179 116.769 42.0472 116.277 42.8424 115.92C43.6439 115.563 44.5519 115.385 45.5663 115.385C46.994 115.385 48.1149 115.698 48.9289 116.324C49.7492 116.95 50.3316 117.777 50.676 118.804ZM60.5501 115.573V117.451H53.0735V115.573H60.5501ZM55.2526 112.116H57.4693V125.867C57.4693 126.493 57.5601 126.963 57.7417 127.276C57.9295 127.583 58.1675 127.79 58.4555 127.896C58.7498 127.996 59.0598 128.046 59.3854 128.046C59.6296 128.046 59.83 128.034 59.9866 128.009C60.1431 127.977 60.2683 127.952 60.3623 127.934L60.8131 129.925C60.6628 129.981 60.4531 130.038 60.1838 130.094C59.9145 130.157 59.5733 130.188 59.16 130.188C58.5338 130.188 57.9202 130.053 57.319 129.784C56.7241 129.515 56.2295 129.105 55.835 128.554C55.4467 128.002 55.2526 127.307 55.2526 126.468V112.116ZM69.7785 130.301C68.3884 130.301 67.1892 129.994 66.1811 129.38C65.1792 128.76 64.4058 127.896 63.8611 126.788C63.3225 125.673 63.0533 124.377 63.0533 122.899C63.0533 121.421 63.3225 120.119 63.8611 118.992C64.4058 117.858 65.1635 116.975 66.1341 116.343C67.111 115.704 68.2506 115.385 69.5531 115.385C70.3045 115.385 71.0465 115.51 71.7792 115.761C72.5118 116.011 73.1787 116.418 73.7798 116.982C74.381 117.539 74.86 118.278 75.2169 119.198C75.5738 120.119 75.7523 121.252 75.7523 122.599V123.538H64.6313V121.622H73.498C73.498 120.808 73.3352 120.081 73.0096 119.443C72.6903 118.804 72.2331 118.3 71.6383 117.93C71.0497 117.561 70.3546 117.376 69.5531 117.376C68.6702 117.376 67.9062 117.595 67.2612 118.034C66.6225 118.466 66.131 119.029 65.7866 119.724C65.4422 120.419 65.27 121.165 65.27 121.96V123.237C65.27 124.327 65.4578 125.25 65.8335 126.008C66.2155 126.759 66.7446 127.332 67.4209 127.727C68.0972 128.115 68.8831 128.309 69.7785 128.309C70.3609 128.309 70.8868 128.228 71.3565 128.065C71.8324 127.896 72.2425 127.646 72.5869 127.314C72.9313 126.976 73.1975 126.556 73.3853 126.055L75.5269 126.656C75.3014 127.383 74.9226 128.021 74.3903 128.572C73.8581 129.117 73.2006 129.543 72.4179 129.85C71.6351 130.15 70.7554 130.301 69.7785 130.301ZM81.341 121.321V130H79.1243V115.573H81.2658V117.827H81.4537C81.7918 117.094 82.3053 116.506 82.9941 116.061C83.6829 115.61 84.5721 115.385 85.6617 115.385C86.6385 115.385 87.4932 115.585 88.2259 115.986C88.9585 116.381 89.5283 116.982 89.9354 117.789C90.3424 118.591 90.5459 119.605 90.5459 120.833V130H88.3292V120.983C88.3292 119.85 88.0349 118.967 87.4463 118.334C86.8577 117.695 86.0499 117.376 85.0229 117.376C84.3154 117.376 83.6829 117.53 83.1256 117.836C82.5746 118.143 82.1394 118.591 81.82 119.18C81.5007 119.768 81.341 120.482 81.341 121.321ZM100.645 130.301C99.2553 130.301 98.0562 129.994 97.048 129.38C96.0461 128.76 95.2728 127.896 94.728 126.788C94.1895 125.673 93.9202 124.377 93.9202 122.899C93.9202 121.421 94.1895 120.119 94.728 118.992C95.2728 117.858 96.0305 116.975 97.0011 116.343C97.9779 115.704 99.1176 115.385 100.42 115.385C101.171 115.385 101.913 115.51 102.646 115.761C103.379 116.011 104.046 116.418 104.647 116.982C105.248 117.539 105.727 118.278 106.084 119.198C106.441 120.119 106.619 121.252 106.619 122.599V123.538H95.4982V121.622H104.365C104.365 120.808 104.202 120.081 103.877 119.443C103.557 118.804 103.1 118.3 102.505 117.93C101.917 117.561 101.222 117.376 100.42 117.376C99.5371 117.376 98.7732 117.595 98.1282 118.034C97.4895 118.466 96.9979 119.029 96.6535 119.724C96.3091 120.419 96.1369 121.165 96.1369 121.96V123.237C96.1369 124.327 96.3248 125.25 96.7005 126.008C97.0825 126.759 97.6116 127.332 98.2879 127.727C98.9641 128.115 99.75 128.309 100.645 128.309C101.228 128.309 101.754 128.228 102.223 128.065C102.699 127.896 103.109 127.646 103.454 127.314C103.798 126.976 104.064 126.556 104.252 126.055L106.394 126.656C106.168 127.383 105.79 128.021 105.257 128.572C104.725 129.117 104.068 129.543 103.285 129.85C102.502 130.15 101.622 130.301 100.645 130.301ZM109.991 130V115.573H112.133V117.752H112.283C112.546 117.038 113.022 116.459 113.711 116.014C114.4 115.57 115.176 115.347 116.04 115.347C116.203 115.347 116.406 115.35 116.651 115.357C116.895 115.363 117.08 115.372 117.205 115.385V117.639C117.13 117.62 116.958 117.592 116.688 117.555C116.425 117.511 116.147 117.489 115.852 117.489C115.151 117.489 114.525 117.636 113.974 117.93C113.429 118.218 112.997 118.619 112.678 119.133C112.364 119.64 112.208 120.219 112.208 120.87V130H109.991ZM129.902 110.764V130H127.572V110.764H129.902ZM136.488 121.321V130H134.272V115.573H136.413V117.827H136.601C136.939 117.094 137.453 116.506 138.141 116.061C138.83 115.61 139.719 115.385 140.809 115.385C141.786 115.385 142.64 115.585 143.373 115.986C144.106 116.381 144.676 116.982 145.083 117.789C145.49 118.591 145.693 119.605 145.693 120.833V130H143.476V120.983C143.476 119.85 143.182 118.967 142.593 118.334C142.005 117.695 141.197 117.376 140.17 117.376C139.463 117.376 138.83 117.53 138.273 117.836C137.722 118.143 137.287 118.591 136.967 119.18C136.648 119.768 136.488 120.482 136.488 121.321ZM155.192 130.301C153.989 130.301 152.928 129.997 152.007 129.389C151.087 128.776 150.367 127.912 149.847 126.797C149.327 125.676 149.067 124.352 149.067 122.824C149.067 121.309 149.327 119.994 149.847 118.879C150.367 117.764 151.09 116.903 152.017 116.296C152.944 115.689 154.014 115.385 155.229 115.385C156.168 115.385 156.91 115.541 157.455 115.855C158.006 116.161 158.426 116.512 158.714 116.906C159.008 117.295 159.237 117.614 159.399 117.865H159.587V110.764H161.804V130H159.662V127.783H159.399C159.237 128.046 159.005 128.378 158.704 128.779C158.404 129.173 157.975 129.527 157.418 129.84C156.86 130.147 156.118 130.301 155.192 130.301ZM155.492 128.309C156.381 128.309 157.133 128.078 157.746 127.614C158.36 127.145 158.827 126.497 159.146 125.67C159.465 124.837 159.625 123.876 159.625 122.786C159.625 121.709 159.468 120.767 159.155 119.959C158.842 119.145 158.379 118.513 157.765 118.062C157.151 117.605 156.394 117.376 155.492 117.376C154.553 117.376 153.77 117.617 153.144 118.099C152.524 118.575 152.057 119.223 151.744 120.044C151.438 120.858 151.284 121.772 151.284 122.786C151.284 123.813 151.441 124.746 151.754 125.585C152.073 126.418 152.543 127.082 153.163 127.577C153.789 128.065 154.565 128.309 155.492 128.309ZM175.264 124.101V115.573H177.481V130H175.264V127.558H175.114C174.775 128.291 174.249 128.914 173.536 129.427C172.822 129.934 171.92 130.188 170.83 130.188C169.929 130.188 169.127 129.991 168.426 129.596C167.725 129.195 167.174 128.594 166.773 127.793C166.372 126.985 166.172 125.967 166.172 124.74V115.573H168.388V124.59C168.388 125.642 168.683 126.481 169.271 127.107C169.866 127.733 170.624 128.046 171.544 128.046C172.095 128.046 172.656 127.905 173.226 127.624C173.802 127.342 174.284 126.91 174.672 126.327C175.067 125.745 175.264 125.003 175.264 124.101ZM191.76 118.804L189.769 119.367C189.643 119.036 189.459 118.713 189.214 118.4C188.976 118.081 188.651 117.818 188.238 117.611C187.824 117.404 187.295 117.301 186.65 117.301C185.767 117.301 185.032 117.505 184.443 117.912C183.861 118.312 183.569 118.823 183.569 119.443C183.569 119.994 183.77 120.429 184.171 120.748C184.571 121.067 185.197 121.334 186.049 121.547L188.191 122.073C189.481 122.386 190.442 122.865 191.074 123.51C191.707 124.148 192.023 124.972 192.023 125.98C192.023 126.806 191.785 127.545 191.309 128.197C190.839 128.848 190.182 129.361 189.337 129.737C188.491 130.113 187.508 130.301 186.387 130.301C184.916 130.301 183.698 129.981 182.733 129.343C181.769 128.704 181.159 127.771 180.902 126.543L183.006 126.017C183.206 126.794 183.585 127.376 184.142 127.765C184.706 128.153 185.442 128.347 186.35 128.347C187.383 128.347 188.203 128.128 188.811 127.689C189.424 127.245 189.731 126.713 189.731 126.093C189.731 125.592 189.556 125.172 189.205 124.834C188.854 124.49 188.316 124.233 187.589 124.064L185.185 123.5C183.864 123.187 182.893 122.702 182.273 122.044C181.66 121.381 181.353 120.551 181.353 119.555C181.353 118.741 181.581 118.021 182.038 117.395C182.502 116.769 183.131 116.277 183.926 115.92C184.728 115.563 185.636 115.385 186.65 115.385C188.078 115.385 189.199 115.698 190.013 116.324C190.833 116.95 191.415 117.777 191.76 118.804ZM201.634 115.573V117.451H194.157V115.573H201.634ZM196.336 112.116H198.553V125.867C198.553 126.493 198.644 126.963 198.826 127.276C199.013 127.583 199.251 127.79 199.539 127.896C199.834 127.996 200.144 128.046 200.469 128.046C200.714 128.046 200.914 128.034 201.07 128.009C201.227 127.977 201.352 127.952 201.446 127.934L201.897 129.925C201.747 129.981 201.537 130.038 201.268 130.094C200.998 130.157 200.657 130.188 200.244 130.188C199.618 130.188 199.004 130.053 198.403 129.784C197.808 129.515 197.313 129.105 196.919 128.554C196.531 128.002 196.336 127.307 196.336 126.468V112.116ZM204.968 130V115.573H207.11V117.752H207.26C207.523 117.038 207.999 116.459 208.688 116.014C209.377 115.57 210.153 115.347 211.017 115.347C211.18 115.347 211.384 115.35 211.628 115.357C211.872 115.363 212.057 115.372 212.182 115.385V117.639C212.107 117.62 211.935 117.592 211.665 117.555C211.402 117.511 211.124 117.489 210.83 117.489C210.128 117.489 209.502 117.636 208.951 117.93C208.406 118.218 207.974 118.619 207.655 119.133C207.342 119.64 207.185 120.219 207.185 120.87V130H204.968ZM216.677 135.41C216.301 135.41 215.966 135.379 215.671 135.316C215.377 135.26 215.174 135.204 215.061 135.147L215.625 133.194C216.163 133.331 216.639 133.381 217.052 133.344C217.465 133.306 217.832 133.122 218.151 132.79C218.477 132.464 218.774 131.935 219.043 131.202L219.457 130.075L214.122 115.573H216.526L220.509 127.069H220.659L224.642 115.573H227.046L220.922 132.104C220.647 132.849 220.305 133.466 219.898 133.954C219.491 134.449 219.018 134.815 218.48 135.053C217.948 135.291 217.347 135.41 216.677 135.41Z" fill="url(#paint1_linear_267_132)"/>
<defs>
<linearGradient id="paint0_linear_267_132" x1="750" y1="27.9998" x2="-4.06645e-06" y2="27.9998" gradientUnits="userSpaceOnUse">
<stop stop-color="#A36F37"/>
<stop offset="0.4375" stop-color="#E7D380"/>
<stop offset="0.663462" stop-color="#F6EBAB"/>
<stop offset="1" stop-color="#A36F37"/>
</linearGradient>
<linearGradient id="paint1_linear_267_132" x1="691" y1="104" x2="8.00002" y2="104" gradientUnits="userSpaceOnUse">
<stop stop-color="#A36F37"/>
<stop offset="0.4375" stop-color="#E7D380"/>
<stop offset="0.663462" stop-color="#F6EBAB"/>
<stop offset="1" stop-color="#A36F37"/>
</linearGradient>
</defs>
</svg>
