<svg width="393" height="97" viewBox="0 0 393 97" fill="none" xmlns="http://www.w3.org/2000/svg">
<g clip-path="url(#clip0_267_238)">
<g filter="url(#filter0_d_267_238)">
<path d="M28.8401 41.946C28.8401 34.4019 33.7561 30.0835 39.6131 30.0835C42.8224 30.0835 45.1163 31.4815 46.6188 33.0341L43.8216 36.5009C42.7604 35.4985 41.6152 34.7373 39.7881 34.7373C36.5497 34.7373 34.2266 37.3525 34.2266 41.7613C34.2266 46.1702 36.1704 48.8796 40.2294 48.8796C41.0244 48.8796 41.8486 48.6686 42.3191 48.303V44.6516H38.8472V40.2126H47.0017V50.7976C45.47 52.32 42.764 53.5635 39.7006 53.5635C33.6066 53.5635 28.8401 49.6106 28.8401 41.946Z" fill="white"/>
<path d="M50.9985 47.5117V28.84H56.21V47.7265C56.21 48.8532 56.7388 49.1848 57.1509 49.1848C57.3259 49.1848 57.4463 49.1848 57.738 49.1245L58.358 53.1076C57.8 53.3525 56.9175 53.5635 55.7687 53.5635C52.1765 53.5635 51.0022 51.1292 51.0022 47.5117H50.9985Z" fill="white"/>
<path d="M84.1382 51.2837H84.0215L83.6094 53.1377H79.5176V28.84H84.729V34.6808L84.6123 37.2658C85.8486 36.109 87.4095 35.4118 88.9375 35.4118C92.9419 35.4118 95.502 38.8786 95.502 44.1693C95.502 50.1608 92.0593 53.5673 88.4671 53.5673C86.9937 53.5673 85.4657 52.8061 84.1418 51.2875L84.1382 51.2837ZM90.1155 44.2898C90.1155 41.2488 89.2621 39.8207 87.4058 39.8207C86.4358 39.8207 85.6407 40.2766 84.729 41.279V48.1221C85.5532 48.8833 86.4358 49.1245 87.2308 49.1245C88.8208 49.1245 90.1155 47.7566 90.1155 44.2898Z" fill="white"/>
<path d="M97.7668 48.303C97.7668 44.6516 100.535 42.677 107.066 41.946C106.95 40.5479 106.242 39.7265 104.535 39.7265C103.212 39.7265 101.826 40.2729 100.148 41.2489L98.3248 37.6916C100.531 36.3237 102.916 35.4118 105.535 35.4118C109.86 35.4118 112.303 37.9064 112.303 43.3176V53.1415H108.036L107.654 51.4081H107.537C106.155 52.6855 104.594 53.5673 102.737 53.5673C99.6486 53.5673 97.7632 51.197 97.7632 48.3068L97.7668 48.303ZM107.066 47.9978V45.2319C103.799 45.6878 102.741 46.6601 102.741 47.8772C102.741 48.8796 103.449 49.3694 104.535 49.3694C105.622 49.3694 106.3 48.8532 107.066 48.0016V47.9978Z" fill="white"/>
<path d="M116.337 47.5117V28.84H121.548V47.7265C121.548 48.8532 122.077 49.1848 122.489 49.1848C122.664 49.1848 122.785 49.1848 123.076 49.1245L123.696 53.1076C123.138 53.3525 122.256 53.5635 121.107 53.5635C117.515 53.5635 116.341 51.1292 116.341 47.5117H116.337Z" fill="white"/>
<path d="M133.259 30.5131H147.241V35.0162H138.528V39.9714H146.005V44.5046H138.528V53.1415H133.259V30.5131Z" fill="white"/>
<path d="M148.59 48.303C148.59 44.6516 151.358 42.677 157.89 41.946C157.773 40.5479 157.066 39.7265 155.359 39.7265C154.035 39.7265 152.649 40.2729 150.972 41.2489L149.148 37.6916C151.355 36.3237 153.74 35.4118 156.358 35.4118C160.683 35.4118 163.127 37.9064 163.127 43.3176V53.1415H158.86L158.477 51.4081H158.36C156.978 52.6855 155.417 53.5673 153.561 53.5673C150.472 53.5673 148.587 51.197 148.587 48.3068L148.59 48.303ZM157.893 47.9978V45.2319C154.626 45.6878 153.568 46.6601 153.568 47.8772C153.568 48.8796 154.276 49.3694 155.363 49.3694C156.449 49.3694 157.128 48.8532 157.893 48.0016V47.9978Z" fill="white"/>
<path d="M165.72 51.133L168.046 47.7566C169.578 48.9738 170.96 49.5805 172.284 49.5805C173.608 49.5805 174.257 49.0642 174.257 48.2126C174.257 47.1801 172.638 46.694 170.931 45.9931C168.929 45.1716 166.577 43.7736 166.577 40.9135C166.577 37.6276 169.166 35.4081 173.05 35.4081C175.698 35.4081 177.583 36.5009 179.053 37.6276L176.697 40.8532C175.519 40.0016 174.341 39.3949 173.225 39.3949C172.047 39.3949 171.46 39.8207 171.46 40.6422C171.46 41.6747 172.992 42.0703 174.727 42.7109C176.817 43.5324 179.144 44.7797 179.144 47.9111C179.144 51.0425 176.73 53.5673 172.167 53.5673C169.99 53.5673 167.397 52.5951 165.72 51.133Z" fill="white"/>
<path d="M182.171 46.7241V40.0619H179.906V36.0487L182.467 35.8376L183.054 31.2743H187.412V35.8376H191.354V40.0656H187.412V46.6638C187.412 48.5781 188.294 49.3393 189.531 49.3393C190.059 49.3393 190.65 49.1584 191.062 49.0341L191.886 52.9267C191.004 53.2018 189.797 53.5635 188.09 53.5635C183.882 53.5635 182.175 50.8278 182.175 46.7204L182.171 46.7241Z" fill="white"/>
<path d="M193.002 44.5046C193.002 38.8786 196.886 35.4118 200.949 35.4118C205.777 35.4118 208.13 39.0293 208.13 43.7736C208.13 44.7156 208.013 45.6878 207.893 46.0835H198.06C198.531 48.4575 200.121 49.4297 202.24 49.4297C203.447 49.4297 204.567 49.0642 205.774 48.3369L207.51 51.5889C205.774 52.8664 203.476 53.5673 201.507 53.5673C196.707 53.5673 193.002 50.2211 193.002 44.5046ZM203.688 42.5564C203.688 40.823 202.951 39.5456 201.04 39.5456C199.596 39.5456 198.33 40.4877 197.98 42.5564H203.691H203.688Z" fill="white"/>
<path d="M211.485 35.8339H215.752L216.105 37.9931H216.222C217.604 36.5951 219.311 35.4081 221.58 35.4081C225.23 35.4081 226.787 38.1137 226.787 42.4321V53.1377H221.547V43.1028C221.547 40.7326 220.927 40.0317 219.603 40.0317C218.425 40.0317 217.717 40.5781 216.689 41.5842V53.1415H211.478V35.8376L211.485 35.8339Z" fill="white"/>
<path d="M229.909 44.5046C229.909 38.8786 233.793 35.4118 237.856 35.4118C242.684 35.4118 245.037 39.0293 245.037 43.7736C245.037 44.7156 244.92 45.6878 244.8 46.0835H234.968C235.438 48.4575 237.028 49.4297 239.147 49.4297C240.354 49.4297 241.474 49.0642 242.681 48.3369L244.417 51.5889C242.681 52.8664 240.383 53.5673 238.414 53.5673C233.615 53.5673 229.909 50.2211 229.909 44.5046ZM240.595 42.5564C240.595 40.823 239.858 39.5456 237.947 39.5456C236.503 39.5456 235.237 40.4877 234.887 42.5564H240.598H240.595Z" fill="white"/>
<path d="M248.392 35.8339H252.659L253.013 38.8447H253.129C254.366 36.531 256.218 35.4081 257.896 35.4081C258.895 35.4081 259.457 35.5588 259.927 35.7736L259.045 40.4274C258.457 40.2766 257.954 40.1523 257.221 40.1523C255.985 40.1523 254.482 40.9738 253.6 43.2536V53.1377H248.388V35.8339H248.392Z" fill="white"/>
<path d="M269.201 30.5131H283.183V35.0162H274.471V39.9714H281.947V44.5046H274.471V53.1415H269.201V30.5131Z" fill="white"/>
<path d="M306.097 35.8339H310.364L310.718 38.8447H310.835C312.071 36.531 313.924 35.4081 315.601 35.4081C316.6 35.4081 317.162 35.5588 317.632 35.7736L316.75 40.4274C316.163 40.2766 315.659 40.1523 314.926 40.1523C313.69 40.1523 312.188 40.9738 311.305 43.2536V53.1377H306.094V35.8339H306.097Z" fill="white"/>
<path d="M319.58 46.5395V35.8339H324.82V45.8687C324.82 48.2729 325.437 48.9399 326.764 48.9399C327.942 48.9399 328.679 48.4538 329.561 47.1763V35.8339H334.802V53.1377H330.535L330.152 50.7675H330.035C328.653 52.4707 327.092 53.5635 324.795 53.5635C321.144 53.5635 319.583 50.8579 319.583 46.5395H319.58Z" fill="white"/>
<path d="M339.003 35.8339H343.27L343.624 38.0232H343.741C345.123 36.5951 346.567 35.4081 348.832 35.4081C351.096 35.4081 352.57 36.4104 353.423 38.2682C354.864 36.7496 356.425 35.4081 358.664 35.4081C362.314 35.4081 363.904 38.1137 363.904 42.4321V53.1377H358.664V43.1028C358.664 40.7326 358.077 40.0317 356.749 40.0317C355.983 40.0317 355.072 40.5178 354.072 41.5842V53.1415H348.803V43.1066C348.803 40.7364 348.215 40.0355 346.888 40.0355C346.122 40.0355 345.21 40.5216 344.211 41.588V53.1452H339V35.8414L339.003 35.8339Z" fill="white"/>
<path d="M73.398 36.693L77.22 43.5362C77.5118 44.0562 77.5118 44.6968 77.22 45.2168L73.398 52.06C73.1063 52.58 72.5702 52.9003 71.9867 52.9003H64.3391C63.7592 52.9003 63.2195 52.58 62.9277 52.06L59.1058 45.2168C58.814 44.6968 58.814 44.0562 59.1058 43.5362L62.9277 36.693C63.2195 36.173 63.7556 35.8527 64.3391 35.8527H71.9867C72.5665 35.8527 73.1063 36.173 73.398 36.693ZM68.1647 41.083C66.4032 41.083 64.9773 42.5564 64.9773 44.3765C64.9773 46.1966 66.4032 47.6699 68.1647 47.6699C69.9262 47.6699 71.3521 46.1966 71.3521 44.3765C71.3521 42.5564 69.9262 41.083 68.1647 41.083Z" fill="white"/>
<path d="M299.08 36.693L302.902 43.5362C303.194 44.0562 303.194 44.6968 302.902 45.2168L299.08 52.06C298.789 52.58 298.252 52.9003 297.669 52.9003H290.021C289.441 52.9003 288.902 52.58 288.61 52.06L284.788 45.2168C284.496 44.6968 284.496 44.0562 284.788 43.5362L288.61 36.693C288.902 36.173 289.438 35.8527 290.021 35.8527H297.669C298.249 35.8527 298.789 36.173 299.08 36.693ZM293.847 41.083C292.086 41.083 290.66 42.5564 290.66 44.3765C290.66 46.1966 292.086 47.6699 293.847 47.6699C295.608 47.6699 297.034 46.1966 297.034 44.3765C297.034 42.5564 295.608 41.083 293.847 41.083Z" fill="white"/>
</g>
<g filter="url(#filter1_d_267_238)">
<path d="M153.604 80.4349H147.079V84.5988H144.133V80.4349H135.365V77.5936H138.411V73.0227C138.173 73.3054 137.94 73.5918 137.703 73.8367C137.152 73.3091 135.934 72.3332 135.245 71.9073C136.955 70.385 138.429 67.8037 139.216 65.2262L142.145 65.9987C141.988 66.466 141.809 66.9521 141.613 67.4194H152.444V70.2606H147.079V72.3332H151.973V75.0764H147.079V77.5936H153.604V80.4349ZM140.238 70.2606C139.826 71.0105 139.373 71.7039 138.921 72.3332H144.129V70.2606H140.238ZM144.129 77.5936V75.0764H141.281V77.5936H144.129Z" fill="white"/>
<path d="M169.526 81.5352H176.561V84.1542H159.738V81.5352H166.499V79.587H161.663V77.0472H166.499V75.1593H162.666V73.3732C161.86 73.9007 161.036 74.3906 160.248 74.775C159.854 74.0439 159.129 73.0077 158.498 72.3784C160.522 71.6059 162.684 70.2455 164.435 68.7043H162.393V65.9836H169.584C171.196 68.4217 174.242 70.8786 177.721 72.1184C177.13 72.7477 176.225 74.0063 175.813 74.839C174.967 74.4321 174.161 73.9648 173.377 73.4561V75.1631H169.526V77.051H174.42V79.5908H169.526V81.539V81.5352ZM168.031 68.6968C166.853 70.0797 165.358 71.4175 163.786 72.5743H172.141C170.569 71.3949 169.194 70.0345 168.053 68.6968H168.034H168.031Z" fill="white"/>
<path d="M200.915 73.0869C199.872 74.4058 198.712 75.8076 197.75 76.761C198.574 78.3851 199.693 79.6249 201.269 80.7214C200.601 81.249 199.854 82.1835 199.518 82.9748C198.143 81.8971 197.1 80.7403 196.276 79.3799V81.411C196.276 82.7713 196.039 83.5438 195.273 84.0111C194.507 84.4972 193.464 84.6216 192.031 84.6216C191.933 83.8302 191.462 82.549 191.068 81.7803C191.933 81.8218 192.819 81.8217 193.114 81.8217C193.41 81.8217 193.526 81.72 193.526 81.4148V78.939C192.286 80.1788 190.992 81.3771 189.872 82.4322L188.851 80.8269C186.769 81.5165 184.508 82.2287 182.68 82.8166L182.112 80.013C182.761 79.851 183.508 79.6475 184.333 79.4025V74.8957H182.505V72.1939H184.333V69.0851H182.425V66.3644H188.815V69.0851H186.988V72.1939H188.541V74.8957H186.988V78.6338L188.756 78.0836L188.953 79.2405C190.211 78.3663 191.94 77.0474 193.534 75.7888V71.1387H189.15V68.4595H193.534V65.3319H196.283V68.4595H198.464C197.954 67.9094 197.265 67.3215 196.677 66.8768L198.231 65.3733C199.037 65.9235 200.08 66.7563 200.591 67.3441L199.489 68.4595H200.922V71.1387H196.283V72.0733C196.44 72.8646 196.619 73.6183 196.816 74.289C197.425 73.4751 198.034 72.5631 198.446 71.7907L200.922 73.0907L200.915 73.0869ZM191.364 71.8472C192.053 72.9023 192.837 74.3267 193.133 75.2989L190.795 76.4143C190.54 75.4609 189.832 73.9574 189.165 72.8382L191.367 71.8434L191.364 71.8472Z" fill="white"/>
<path d="M213.38 76.9042C212.691 77.085 211.984 77.2697 211.276 77.4543V81.4336C211.276 82.8354 211.061 83.5664 210.273 84.0111C209.507 84.4784 208.464 84.5801 207.031 84.5613C206.933 83.7888 206.579 82.5528 206.207 81.7577C206.896 81.7991 207.72 81.7991 207.976 81.7991C208.249 81.7991 208.348 81.6974 208.348 81.4148V78.208L206.324 78.7355L205.791 75.8717C206.517 75.7285 207.403 75.5476 208.348 75.3441V71.3234H206.068V68.6027H208.348V65.313H211.276V68.6027H212.987V71.3234H211.276V74.6545L213.045 74.2061L213.38 76.9079V76.9042ZM223.756 66.9522V83.8302H220.747V82.387H216.659V83.9923H213.811V66.9522H223.756ZM220.751 79.606V69.7369H216.663V79.606H220.751Z" fill="white"/>
<path d="M236.181 66.2626C235.671 67.6833 235.021 69.168 234.274 70.5698V84.5839H231.56V74.8543C231.287 75.2198 230.992 75.5665 230.714 75.8679C230.459 75.1369 229.693 73.4902 229.219 72.7591C230.908 70.9918 232.541 68.1882 233.486 65.3884L236.177 66.2626H236.181ZM248.15 77.8576H243.256V84.5801H240.368V77.8576H235.218V74.9749H240.368V72.0092H238.362C238.008 72.9211 237.636 73.7351 237.261 74.4058C236.692 73.98 235.452 73.3093 234.766 73.004C235.787 71.4591 236.615 68.8816 237.045 66.485L239.795 67.0728C239.657 67.7436 239.5 68.4332 239.303 69.1228H240.364V65.5693H243.252V69.1228H247.162V72.0055H243.252V74.9711H248.147V77.8538L248.15 77.8576Z" fill="white"/>
<path d="M271.757 81.8368V84.192H257.329V81.8368H263.029V81.1887H259.098V80.1336C258.784 80.4991 258.449 80.8458 258.117 81.1472C257.978 80.6611 257.508 79.5231 257.132 78.7694C256.877 80.9211 256.268 83.216 255.028 84.8401C254.594 84.3126 253.398 83.2763 252.807 82.9522C254.401 80.8382 254.536 77.8123 254.536 75.6606V72.3898H257.286C256.914 72.0054 256.48 71.5985 256.166 71.3535C257.442 71.1689 258.839 70.9466 260.214 70.6639C259.135 70.419 258.051 70.1967 257.048 70.0158L258.325 69.0624H254.787V66.7864H261.392C261.213 66.5038 261.02 66.2174 260.841 65.9725L262.727 65.0379C263.139 65.5466 263.609 66.1948 263.945 66.7826H270.903V69.0587H268.073L269.153 69.7483C268.544 70.0309 267.854 70.3173 267.129 70.5622C268.11 70.826 269.014 71.0898 269.784 71.3347L268.544 72.3898H271.432V74.7261H257.3V75.7021C257.3 76.4331 257.282 77.2471 257.202 78.0987C258.026 77.2471 258.755 76.0676 259.186 74.809L261.585 75.5589C261.527 75.7435 261.469 75.9056 261.388 76.0865H263.019V75.0916H265.83V76.0865H270.451V78.3625H265.83V78.9729H269.802V81.1849H265.83V81.833H271.746L271.757 81.8368ZM263.029 78.9729V78.3625H260.316C260.199 78.566 260.061 78.7695 259.944 78.9729H263.029ZM266.687 72.3936C265.841 72.1298 264.878 71.8434 263.876 71.5796C262.698 71.8849 261.516 72.1486 260.356 72.3936H266.684H266.687ZM260.929 69.0624C261.932 69.2848 262.975 69.5109 264.014 69.7746C264.802 69.5523 265.528 69.3074 266.177 69.0624H260.929Z" fill="white"/>
<path d="M284.379 81.4713C283.062 82.6508 280.823 83.7473 278.817 84.2334C278.445 83.623 277.697 82.6508 277.147 82.1232C279.072 81.8594 281.235 81.249 282.376 80.5405L284.382 81.4751L284.379 81.4713ZM294.915 77.6767V80.0733H287.406V84.6027H284.576V80.0733H277.205V77.6767H284.576V77.1265H279.014V75.0351H284.576V74.4661H278.051V72.2541H281.333C281.177 71.8698 280.94 71.4025 280.764 71.0558L282.121 70.7506H277.245V68.4557H279.645C279.371 67.7435 278.956 66.8731 278.584 66.1797L281.042 65.3281C281.574 66.1797 282.183 67.3592 282.438 68.1317L281.552 68.4557H282.967V65.2866H285.622V68.4557H286.567V65.2866H289.258V68.4557H290.556L289.966 68.2711C290.378 67.4572 290.83 66.2815 291.067 65.4072L294.076 66.1194C293.565 66.9937 293.073 67.8038 292.643 68.4557H294.863V70.7506H289.616L291.778 71.3008C291.424 71.6663 291.071 71.9904 290.757 72.2541H294.079V74.4661H287.416V75.0351H293.193V77.1265H287.416V77.6767H294.925H294.915ZM283.649 70.7506C283.904 71.1764 284.16 71.6437 284.298 71.9904L283.179 72.2541H288.445L287.697 72.0318C287.993 71.6475 288.346 71.1576 288.58 70.7506H283.646H283.649ZM289.958 80.3973C291.413 81.0266 293.634 82.0441 294.853 82.711L292.77 84.2334C291.709 83.5853 289.528 82.4661 287.993 81.7351L289.958 80.3936V80.3973Z" fill="white"/>
<path d="M314.63 66.6883C314.513 66.9106 314.374 67.1556 314.236 67.3779C315.337 68.84 317.146 70.0571 319.188 70.709C318.561 71.3195 317.693 72.5367 317.263 73.3506C316.73 73.1283 316.22 72.8419 315.749 72.5367V73.4523H309.363V72.5367C308.853 72.9022 308.32 73.2488 307.81 73.5315C307.456 72.759 306.847 71.6624 306.278 70.9314H300.283V68.6365H302.996C302.682 67.8866 302.248 66.9898 301.876 66.2814L304.079 65.2036C304.611 66.0779 305.199 67.2121 305.494 67.9846L304.316 68.6327H306.949V70.4001C309.188 69.262 311.351 67.2536 312.452 65.1396L314.633 66.6846L314.63 66.6883ZM306.431 83.5249H303.189V84.3388H300.928V77.2093H306.431V83.5249ZM306.355 73.735H301.048V71.5418H306.355V73.735ZM301.045 74.3454H306.351V76.5385H301.045V74.3454ZM303.189 79.523V81.1886H304.17V79.523H303.189ZM317.518 81.8367C317.518 82.873 317.419 83.5437 316.891 83.9507C316.38 84.3577 315.771 84.3991 315.023 84.3991C314.983 83.8716 314.845 83.182 314.67 82.5715V83.9545H312.802V80.6045H312.292V83.9545H310.406V80.6045H309.914V84.5838H307.635V74.206H317.522V81.8405L317.518 81.8367ZM310.403 78.2041V76.58H309.91V78.2041H310.403ZM313.86 70.9728C313.426 70.5244 313.014 70.0383 312.642 69.5107C312.208 70.0195 311.738 70.5056 311.245 70.9728H313.86ZM312.799 78.2041V76.58H312.288V78.2041H312.799ZM315.239 76.5762H314.67V78.2003H315.239V76.5762ZM314.666 81.9987H315.078C315.195 81.9987 315.235 81.9384 315.235 81.7764V80.5969H314.666V81.9987Z" fill="white"/>
<path d="M330.275 79.9902C328.408 80.823 326.384 81.6973 324.692 82.3869L323.769 79.3609C324.32 79.1989 324.987 78.9766 325.695 78.7505V72.8796H324.141V70.0986H325.695V65.6106H328.349V70.0986H329.648V72.8796H328.349V77.816L329.724 77.3073L330.275 79.9865V79.9902ZM342.303 82.2022V84.335H328.838V82.2022H342.303ZM342.186 68.9417H329.254V66.8504H334.09C333.915 66.5677 333.718 66.3002 333.539 66.059L335.8 64.9436C336.311 65.5126 336.821 66.2437 337.135 66.8541H342.186V68.9455V68.9417ZM341.34 76.1918H330.136V69.3487H341.34V76.1918ZM330.727 81.799V76.5988H340.691V81.799H330.727ZM338.922 70.954H332.416V74.5677H338.922V70.954ZM338.47 74.1608H332.868V71.3798H338.47V74.1608ZM333.302 78.5093H337.981V78.0609H333.302V78.5093ZM333.302 80.3332H337.981V79.8847H333.302V80.3332ZM336.602 72.5178H334.637V73.0265H336.602V72.5178Z" fill="white"/>
</g>
<g filter="url(#filter2_d_267_238)">
<path d="M53.7661 67.2234C54.2183 67.0727 54.7981 66.9634 55.5093 66.8993H62.3144C63.8316 66.9483 65.1226 67.3741 66.1875 68.1768C66.8184 68.8927 67.1648 69.7519 67.2305 70.7542V73.6068C67.1977 74.7561 66.6579 75.717 65.6076 76.4858C64.0577 77.1867 62.0008 77.5296 59.4334 77.5107L57.4969 77.6351C56.6581 77.6841 56.0126 77.8423 55.5603 78.1099C55.1409 78.5281 54.955 79.1198 55.0024 79.8847C55.0024 80.303 55.2029 80.5103 55.6078 80.5103H66.6032C67.0883 80.5103 67.329 80.759 67.329 81.2601V83.2121C67.329 83.7133 67.0883 83.962 66.6032 83.962H51.7821C51.2971 83.962 51.0564 83.7133 51.0564 83.2121V80.0355C51.071 78.4339 51.5086 77.1 52.3656 76.0336C52.8179 75.5173 53.4634 75.1405 54.3022 74.9069C56.3991 74.5413 58.3393 74.3077 60.1153 74.206C60.7609 74.1721 61.4064 74.0967 62.0519 73.9799C63.0839 73.7952 63.5362 73.1207 63.4085 71.9526C63.569 70.9502 63.2152 70.3171 62.3436 70.0496H56.2168C55.1191 70.2983 54.6741 70.9917 54.8857 72.1259C54.8857 72.6271 54.645 72.8758 54.1599 72.8758H51.7858C51.3007 72.8758 51.06 72.6271 51.06 72.1259V70.4226C51.0929 68.9568 51.9973 67.8866 53.7734 67.2196L53.7661 67.2234Z" fill="white"/>
<path d="M94.8374 67.2234C95.2896 67.0727 95.8694 66.9634 96.5806 66.8993H103.386C104.903 66.9483 106.194 67.3741 107.259 68.1768C107.89 68.8927 108.236 69.7519 108.302 70.7542V73.6068C108.269 74.7561 107.729 75.717 106.679 76.4858C105.129 77.1867 103.072 77.5296 100.505 77.5107L98.5682 77.6351C97.7294 77.6841 97.0839 77.8423 96.6317 78.1099C96.2123 78.5281 96.0263 79.1198 96.0737 79.8847C96.0737 80.303 96.2743 80.5103 96.6791 80.5103H107.675C108.16 80.5103 108.4 80.759 108.4 81.2601V83.2121C108.4 83.7133 108.16 83.962 107.675 83.962H92.8534C92.3684 83.962 92.1277 83.7133 92.1277 83.2121V80.0355C92.1423 78.4339 92.5799 77.1 93.437 76.0336C93.8892 75.5173 94.5347 75.1405 95.3735 74.9069C97.4704 74.5413 99.4106 74.3077 101.187 74.206C101.832 74.1721 102.478 74.0967 103.123 73.9799C104.155 73.7952 104.608 73.1207 104.48 71.9526C104.64 70.9502 104.287 70.3171 103.415 70.0496H97.2881C96.1904 70.2983 95.7455 70.9917 95.957 72.1259C95.957 72.6271 95.7163 72.8758 95.2312 72.8758H92.8571C92.3721 72.8758 92.1314 72.6271 92.1314 72.1259V70.4226C92.1642 68.9568 93.0686 67.8866 94.8447 67.2196L94.8374 67.2234Z" fill="white"/>
<path d="M128.856 77.5371L127.452 75.0124C126.952 74.1155 126.03 73.5654 125.03 73.5654H123.798L118.386 73.5503C117.642 73.5654 117.127 73.7161 116.836 74.0025C116.708 74.1344 116.584 74.1268 116.471 73.9761C116.424 73.2413 116.405 72.5329 116.424 71.8508C116.325 70.9502 116.755 70.385 117.707 70.1476H123.276C124.407 70.0458 124.965 70.5809 124.946 71.7491C124.946 72.0656 125.187 72.2239 125.672 72.2239H128.141C128.626 72.2239 128.867 71.9752 128.867 71.474C128.914 69.9742 128.513 68.8061 127.656 67.9695C126.912 67.3703 125.946 67.0086 124.75 66.8918H117.244C116.307 66.9747 115.475 67.1669 114.75 67.4683C114.119 67.6869 113.564 68.2371 113.079 69.1188C112.788 69.7858 112.627 70.4528 112.594 71.1198V79.7528C112.642 80.6384 112.853 81.4297 113.225 82.1306C113.663 82.8315 114.257 83.2988 115.016 83.5324C115.534 83.7321 116.179 83.8753 116.952 83.9582H123.794V83.9657H125.027C126.026 83.9657 126.949 83.4118 127.448 82.5187L128.852 79.994C129.275 79.2328 129.275 78.2945 128.852 77.5333L128.856 77.5371ZM124.932 79.4175L124.33 80.4952C124.111 80.8871 123.71 81.1245 123.273 81.1245H118.109C117.671 81.1245 117.27 80.8833 117.051 80.4952L116.449 79.4175C116.23 79.0256 116.23 78.547 116.449 78.1551L117.051 77.0774C117.27 76.6855 117.671 76.4481 118.109 76.4481H123.273C123.71 76.4481 124.111 76.6892 124.33 77.0774L124.932 78.1551C125.151 78.547 125.151 79.0256 124.932 79.4175Z" fill="white"/>
<path d="M88.6962 74.5677L84.8231 67.6341C84.5095 67.0764 83.9333 66.7298 83.3097 66.7298H75.5636C74.94 66.7298 74.3601 67.0727 74.0501 67.6341L70.1771 74.5677C69.8635 75.1254 69.8635 75.815 70.1771 76.3765L74.0501 83.3101C74.3638 83.8678 74.94 84.2144 75.5636 84.2144H83.3097C83.9333 84.2144 84.5131 83.8715 84.8231 83.3101L88.6962 76.3765C89.0098 75.8188 89.0098 75.1292 88.6962 74.5677ZM83.2003 75.4721C83.2003 77.62 81.5154 79.3609 79.4366 79.3609C77.3579 79.3609 75.673 77.62 75.673 75.4721C75.673 73.3242 77.3579 71.5833 79.4366 71.5833C81.5154 71.5833 83.2003 73.3242 83.2003 75.4721Z" fill="white"/>
</g>
</g>
<defs>
<filter id="filter0_d_267_238" x="8.7738e-05" y="-3.8147e-06" width="392.744" height="82.4073" filterUnits="userSpaceOnUse" color-interpolation-filters="sRGB">
<feFlood flood-opacity="0" result="BackgroundImageFix"/>
<feColorMatrix in="SourceAlpha" type="matrix" values="0 0 0 0 0 0 0 0 0 0 0 0 0 0 0 0 0 0 127 0" result="hardAlpha"/>
<feOffset/>
<feGaussianBlur stdDeviation="14.42"/>
<feColorMatrix type="matrix" values="0 0 0 0 0.356863 0 0 0 0 0.956863 0 0 0 0 0.941176 0 0 0 0.5 0"/>
<feBlend mode="normal" in2="BackgroundImageFix" result="effect1_dropShadow_267_238"/>
<feBlend mode="normal" in="SourceGraphic" in2="effect1_dropShadow_267_238" result="shape"/>
</filter>
<filter id="filter1_d_267_238" x="123.085" y="52.7836" width="231.378" height="44.2165" filterUnits="userSpaceOnUse" color-interpolation-filters="sRGB">
<feFlood flood-opacity="0" result="BackgroundImageFix"/>
<feColorMatrix in="SourceAlpha" type="matrix" values="0 0 0 0 0 0 0 0 0 0 0 0 0 0 0 0 0 0 127 0" result="hardAlpha"/>
<feOffset/>
<feGaussianBlur stdDeviation="6.08"/>
<feColorMatrix type="matrix" values="0 0 0 0 0.270588 0 0 0 0 1 0 0 0 0 1 0 0 0 0.5 0"/>
<feBlend mode="normal" in2="BackgroundImageFix" result="effect1_dropShadow_267_238"/>
<feBlend mode="normal" in="SourceGraphic" in2="effect1_dropShadow_267_238" result="shape"/>
</filter>
<filter id="filter2_d_267_238" x="38.8964" y="54.5698" width="102.433" height="41.8046" filterUnits="userSpaceOnUse" color-interpolation-filters="sRGB">
<feFlood flood-opacity="0" result="BackgroundImageFix"/>
<feColorMatrix in="SourceAlpha" type="matrix" values="0 0 0 0 0 0 0 0 0 0 0 0 0 0 0 0 0 0 127 0" result="hardAlpha"/>
<feOffset/>
<feGaussianBlur stdDeviation="6.08"/>
<feColorMatrix type="matrix" values="0 0 0 0 0.270588 0 0 0 0 1 0 0 0 0 1 0 0 0 0.5 0"/>
<feBlend mode="normal" in2="BackgroundImageFix" result="effect1_dropShadow_267_238"/>
<feBlend mode="normal" in="SourceGraphic" in2="effect1_dropShadow_267_238" result="shape"/>
</filter>
<clipPath id="clip0_267_238">
<rect width="393" height="97" fill="white"/>
</clipPath>
</defs>
</svg>
