<svg width="602" height="76" viewBox="0 0 602 76" fill="none" xmlns="http://www.w3.org/2000/svg">
<g clip-path="url(#clip0_267_138)">
<path d="M67.822 47.6098V51.0569H42.4242V47.6098H53.0191C52.8475 47.0428 52.6236 46.4459 52.452 45.9311L56.7795 44.879C57.1227 45.7072 57.5778 46.7294 57.9211 47.6098H67.8295H67.822ZM67.3371 68.5683C67.3371 70.3067 66.9118 71.0454 65.6583 71.5304C64.4347 71.9557 62.7559 71.9855 60.6444 71.9557C60.5026 71.2991 60.1893 70.5007 59.846 69.7919H52.4744V70.8141H48.6617V63.1291H61.3308V69.0831C61.8979 69.0831 62.3828 69.0532 62.5544 69.0532C62.9797 69.0532 63.1513 68.9413 63.1513 68.5384V62.4427H47.0949V72.1795H43.0808V59.1075H67.3371V68.5608V68.5683ZM64.8003 58.2345H45.9235V51.8553H64.8003V58.2345ZM60.4206 54.5562H50.057V55.5261H60.4206V54.5562ZM57.7121 65.9195H52.4744V67.0014H57.7121V65.9195Z" fill="white"/>
<path d="M99.2038 70.9632H90.6309V72.2167H87.0122V70.1351L83.7964 71.3288C83.7367 70.7916 83.6248 70.1649 83.5129 69.5083C78.499 70.3067 77.447 70.62 76.768 70.9856C76.5964 70.2768 75.9995 68.5384 75.5742 67.5983C76.2308 67.367 76.6561 66.6582 77.2231 65.4644C77.7902 64.3527 79.4689 59.7417 80.2151 55.5858L84.1173 56.3543C83.692 58.0032 83.1473 59.7118 82.5206 61.3383L84.6545 60.5997C85.5946 63.614 86.5645 67.3446 87.0197 69.9634V56.011C86.5048 56.7795 85.9975 57.466 85.4827 58.0629C85.0872 57.2645 83.9755 55.4738 83.2891 54.6755C83.774 54.1383 84.2292 53.534 84.6843 52.8848H79.7599C78.8795 58.436 77.4843 63.2782 75.3205 66.6954C74.6341 66.0985 72.8434 64.8451 71.9033 64.3303C73.8656 61.5995 75.0892 57.5257 75.8577 52.8848H73.1792V48.9304H76.3651C76.477 47.6769 76.5889 46.4235 76.6785 45.1401L80.6329 45.4535C80.5434 46.6174 80.4314 47.7888 80.2897 48.9304H85.7587V51.0941C86.7287 49.3258 87.5792 47.3039 88.1538 45.2819L91.6307 46.2518C91.1755 47.6172 90.6607 49.0125 90.0638 50.3778H93.2796C92.9961 49.296 92.3693 47.759 91.8545 46.5876L95.3836 45.5057C96.0104 46.6995 96.6968 48.2962 97.0027 49.3482L94.0705 50.3704H99.0247V53.9592H96.4058V56.0633H98.8531V59.5103H96.4058V61.6144H98.8531V65.0614H96.4058V67.2252H99.1963V70.9558L99.2038 70.9632ZM82.8339 66.2925C82.5803 65.1286 82.2669 63.9274 81.9535 62.8157C81.4163 64.1512 80.8418 65.4644 80.2449 66.6283L82.8339 66.2851V66.2925ZM90.6383 53.9592V56.0633H92.7424V53.9592H90.6383ZM92.7424 59.5178H90.6383V61.6218H92.7424V59.5178ZM90.6383 67.2327H92.7424V65.0689H90.6383V67.2327Z" fill="white"/>
<path d="M129.108 65.6359C128.138 66.2925 127.086 66.9193 126.094 67.4266C127.258 67.9937 128.631 68.4264 130.197 68.7099C129.369 69.5083 128.287 71.0752 127.78 72.1272C122.908 70.9035 120.005 68.2847 118.155 64.2109H115.79V67.9116L119.834 67.2028C119.632 68.225 119.461 69.7918 119.461 70.62C113.649 71.7616 112.567 72.0153 111.94 72.4107V72.4405C111.738 71.5004 111 69.8515 110.485 69.1651C111.142 68.7099 111.992 67.7997 111.992 66.2328V64.2109H110.03V60.7638H113.731V59.3685H110.515V55.9514H113.731V54.4964H110.142V54.7799C110.142 59.8759 109.657 67.5609 106.643 72.2913C105.814 71.6347 103.964 70.5529 102.912 70.1574C105.762 65.8299 105.956 59.3387 105.956 54.7799V46.2667H128.392V54.4964H124.773V55.9514H128.474V59.3685H124.773V60.7638H129.787V64.2109H126.997L129.101 65.6359H129.108ZM110.142 51.027H124.206V49.7437H110.142V51.027ZM117.521 55.9514H120.938V54.4964H117.521V55.9514ZM117.521 60.7638H120.938V59.3685H117.521V60.7638ZM122.132 64.2109C122.445 64.666 122.818 65.0913 123.214 65.4644C123.87 65.0689 124.549 64.6362 125.124 64.2109H122.132Z" fill="white"/>
<path d="M156.476 68.8517C157.304 68.8517 157.475 68.5681 157.617 66.9714C158.386 67.4863 159.953 67.9936 160.975 68.1652C160.579 71.0975 159.58 71.8958 156.901 71.8958H153.058C149.268 71.8958 148.336 70.9856 148.336 68.0832V67.3967H145.799C144.971 70.1275 142.867 71.5228 135.547 72.1794C135.323 71.2691 134.465 69.8142 133.809 69.0457C139.158 68.8442 140.867 68.4189 141.583 67.3967H138.226V57.6002H156.707V67.3967H152.38V68.0533C152.38 68.792 152.581 68.8517 153.633 68.8517H156.483H156.476ZM147.425 56.981H135.293V45.931H147.164V48.1842H143.434V48.9527H146.739V49.1243C148.216 47.9604 149.156 46.5353 149.671 45.1923L153.17 45.7593C153.088 46.013 152.969 46.2443 152.857 46.498H160.318V48.9751H151.492C151.38 49.1765 151.208 49.3706 151.066 49.572H159.095V51.7656H150.096V50.7135C149.723 51.0866 149.328 51.4522 148.903 51.7954C148.418 51.1687 147.507 50.3181 146.739 49.7734V53.8473H143.434V54.7575H147.418V56.981H147.425ZM138.77 48.1842V48.9527H140.248V48.1842H138.77ZM138.77 50.9971V51.8253H143.299V50.9971H138.77ZM138.77 54.7575H140.248V53.8473H138.77V54.7575ZM142.128 60.2862H152.603V59.5998H142.128V60.2862ZM142.128 62.8454H152.603V62.159H142.128V62.8454ZM142.128 65.4046H152.603V64.7182H142.128V65.4046ZM148.336 52.3401H159.893V56.9511H148.336V52.3401ZM150.984 55.1604H151.753V54.1084H150.984V55.1604ZM153.633 55.1604H154.431V54.1084H153.633V55.1604ZM156.304 55.1604H157.102V54.1084H156.304V55.1604Z" fill="white"/>
<path d="M180.799 61.1667V62.4799H190.282V72.0749H186.664V71.3363H180.799V72.1346H177.18V53.8249H175.927V49.102L174.845 51.2359C174.614 51.0941 174.3 50.9524 173.987 50.7808V53.1758H168.831V51.4672C167.921 52.3476 166.921 53.1161 165.959 53.7428C165.757 52.9445 164.937 50.8927 164.452 50.0122C166.586 48.7886 168.839 46.7965 170.063 44.6626L173.248 45.8265C173.137 46.0578 172.995 46.2817 172.853 46.5354C174.136 47.0203 175.614 47.5874 176.472 48.0127L176.3 48.326H181.993C181.65 47.6172 181.224 46.8487 180.881 46.222L184.552 44.7447C185.179 45.6848 185.918 46.9681 186.343 47.8485L185.321 48.3335H191.357V53.8324H189.021V61.1816H180.792L180.799 61.1667ZM173.651 64.4422C174.532 66.1806 175.703 68.5458 176.24 69.9634L173.278 71.3885C173.107 70.8737 172.875 70.2246 172.592 69.5381C167.839 71.1647 166.869 71.6422 166.242 72.0973C166.071 71.1572 165.534 69.5382 164.989 68.7398C165.586 68.4861 166.153 68.031 166.153 66.9491V53.7951H175.323V64.4123H169.66V67.1431L171.338 66.6283L170.883 65.6285L173.644 64.4347L173.651 64.4422ZM169.667 56.6975V57.7197H171.749V56.6975H169.667ZM171.749 61.5099V60.5101H169.667V61.5099H171.749ZM173.48 50.5196C172.652 50.1242 171.711 49.6914 170.861 49.3258C170.518 49.7511 170.152 50.1242 169.809 50.5196H173.48ZM179.344 51.5418V52.9072H187.798V51.5418H179.344ZM185.53 56.123H180.807V57.9435H185.53V56.123ZM180.799 65.8374V67.8892H186.664V65.8374H180.799Z" fill="white"/>
<path d="M308.609 46.1325C308.467 46.3041 308.325 46.4757 308.184 46.6473C310.743 48.7812 315.332 50.5495 319.883 51.3478C319.025 52.0865 317.861 53.5414 317.294 54.4815C316.839 54.3696 316.354 54.2279 315.899 54.0861V61.5174H295.656V54.2875C295.171 54.4591 294.664 54.6009 294.179 54.7427C293.784 53.9443 292.724 52.2954 292.045 51.5269C297.372 50.3555 302.439 48.05 304.975 44.8342L308.616 46.1474L308.609 46.1325ZM297.164 62.1889H314.451V72.0675H310.183V71.5005H301.245V72.1869H297.171V62.1964L297.164 62.1889ZM313.877 53.3922C312.825 52.9968 311.773 52.5416 310.803 52.0268V52.6834H300.663V52.2283C299.812 52.6536 298.954 53.0266 298.074 53.3922H313.877ZM300.297 59.0552C300.185 58.2569 299.954 57.175 299.671 56.3543L301.581 55.8693H299.074V59.0552H300.297ZM301.237 64.8078V65.5166H310.176V64.8078H301.237ZM310.176 68.8816V68.1429H301.237V68.8816H310.176ZM303.938 55.8693H302.543C302.916 56.7796 303.2 57.8614 303.282 58.6001L301.663 59.0552H303.938V55.8693ZM307.639 50.0645C307.072 49.6691 306.527 49.2065 306.02 48.7812C305.475 49.2364 304.938 49.6616 304.341 50.0645H307.647H307.639ZM307.244 55.8693V59.0552H309.154L307.699 58.6822C308.012 57.8838 308.355 56.7497 308.557 55.8619H307.244V55.8693ZM312.258 55.8693H310.176L311.996 56.2648C311.482 57.3168 311.026 58.3166 310.661 59.0552H312.258V55.8693Z" fill="white"/>
<path d="M332.619 53.0788H323.106V49.863H326.949C326.665 48.811 326.091 47.4158 325.583 46.304L328.456 45.2222C329.112 46.416 329.851 48.0723 330.135 49.0945L328.254 49.863H332.612V53.0788H332.619ZM331.821 70.6499H326.807V71.7616H323.957V61.883H331.813V70.6499H331.821ZM324.076 53.9293H331.903V57.0033H324.076V53.9293ZM324.076 57.8614H331.903V60.9354H324.076V57.8614ZM326.807 65.0092V67.5162H328.911V65.0092H326.807ZM348.847 65.6658C348.109 66.7178 347.198 67.6877 346.169 68.5682C346.452 68.9114 346.795 69.1129 347.161 69.1129C347.586 69.1129 347.847 68.3145 347.929 66.8894C348.586 67.5161 349.526 68.0011 350.235 68.3145C349.78 71.1647 348.758 72.2689 346.788 72.2689C345.333 72.2689 344.229 71.6422 343.43 70.5006C342.58 71.0154 341.692 71.4706 340.841 71.8063C340.498 71.3214 339.842 70.5529 339.274 69.9858C339.163 70.8662 338.819 71.3811 338.051 71.7243C337.059 72.1496 335.775 72.1794 334.037 72.1794C333.895 71.3288 333.47 70.1275 333.067 69.3068C333.917 69.3665 335.029 69.3665 335.313 69.3665C335.656 69.3367 335.768 69.2546 335.768 68.9412V68.0608C334.626 68.1727 333.544 68.2921 332.582 68.3742L332.239 65.2703C333.261 65.2106 334.462 65.1286 335.768 65.0465V64.1362H332.462V61.204H335.768V60.4056C334.94 60.4653 334.149 60.5176 333.373 60.5474C333.291 59.8908 332.918 58.8388 332.604 58.1822C334.999 58.0106 337.79 57.6375 339.498 57.1302L341.147 59.0626L341.117 57.5853H344.535C344.535 58.0106 344.505 58.4135 344.505 58.8089L346.728 57.3018C347.75 58.0106 348.952 59.0925 349.519 59.9207L347.698 61.204H349.66V64.1362H344.788C344.848 64.6809 344.93 65.1882 345.012 65.6732C345.415 65.2479 345.781 64.7928 346.094 64.3079L348.825 65.6732L348.847 65.6658ZM339.11 50.348H333.358V47.647H336.23C335.977 47.1322 335.663 46.5652 335.35 46.11L338.222 45.1102C338.79 45.8787 339.446 46.9009 339.73 47.647H342.863C343.289 46.8487 343.774 45.8788 344.005 45.1401L347.624 45.9683C347.198 46.5652 346.766 47.1397 346.4 47.647H349.131V50.348H343.065V50.9747H348.22V53.4518H343.065V54.1383H349.728V57.0406H332.53V54.1383H339.11V53.4518H334.238V50.9747H339.11V50.348ZM339.342 61.1965H341.252C341.222 60.6593 341.192 60.1147 341.17 59.5775C340.603 59.7192 339.976 59.8311 339.349 59.9505V61.204L339.342 61.1965ZM339.342 69.0532V69.5381C340.312 69.1128 341.304 68.598 342.244 67.9713C341.901 66.8596 341.647 65.5538 341.476 64.1288H339.342V64.7555L341.192 64.6137L341.252 67.5162L339.342 67.7176V69.0532ZM346.743 61.1965C346.206 60.4877 345.318 59.6297 344.52 58.9731C344.52 59.7714 344.55 60.5101 344.579 61.1965H346.743Z" fill="white"/>
<path d="M357.935 53.0191H354.607V47.2665H365.344C365.142 46.7517 364.948 46.2667 364.747 45.8116L368.791 44.67C369.246 45.4385 369.671 46.4085 369.955 47.259H379.923V53.0116H376.677V55.8319H374.431C375.968 57.1153 377.565 58.5627 378.475 59.7043L375.23 61.8979C374.857 61.383 374.349 60.7862 373.753 60.1594C361.427 61.1294 359.74 61.2711 358.487 61.7561C358.285 61.0174 357.718 59.2491 357.323 58.2568C358.009 58.1449 358.606 57.8017 359.375 57.2346C359.748 57.0108 360.427 56.5258 361.225 55.8394H357.95V53.0191H357.935ZM380.065 67.7997V71.4183H354.667V67.7997H365.09V66.1507H357.144V62.6216H365.09V60.913H369.358V62.6216H377.931V66.1507H369.358V67.7997H380.065ZM358.651 50.9971V52.3326H375.678V50.9971H358.651ZM370.805 57.3764C370.462 57.063 370.119 56.7795 369.806 56.5184L370.858 55.8319H366.5C365.762 56.4885 364.933 57.1675 364.083 57.7942L370.805 57.3689V57.3764Z" fill="white"/>
<path d="M45.916 2.08174C46.5054 1.89521 47.259 1.75346 48.1842 1.67139H57.0331C59.0029 1.73108 60.6817 2.26825 62.0694 3.27551C62.8902 4.17831 63.3379 5.26021 63.4199 6.52115V10.11C63.3752 11.5574 62.6738 12.7661 61.3084 13.7286C59.2939 14.609 56.6153 15.0418 53.2802 15.0194L50.7583 15.1761C49.669 15.2358 48.8259 15.4372 48.2364 15.773C47.6918 16.2953 47.453 17.0414 47.5127 18.0113C47.5127 18.5336 47.7738 18.7948 48.2961 18.7948H62.5843C63.211 18.7948 63.5318 19.1081 63.5318 19.7423V22.1971C63.5318 22.8238 63.2185 23.1446 62.5843 23.1446H43.3195C42.6928 23.1446 42.3719 22.8313 42.3719 22.1971V18.1979C42.3943 16.1833 42.9614 14.5046 44.0731 13.1616C44.6625 12.5124 45.4982 12.0424 46.595 11.744C49.3258 11.2814 51.8402 10.9904 54.1457 10.8636C54.9813 10.8188 55.8244 10.7293 56.6676 10.58C58.0106 10.3487 58.6 9.49813 58.4284 8.02828C58.6373 6.76734 58.1747 5.96902 57.0406 5.63327H49.0795C47.6545 5.94664 47.0725 6.81959 47.3485 8.24468C47.3485 8.87142 47.0352 9.19222 46.401 9.19222H43.3195C42.6928 9.19222 42.3719 8.87888 42.3719 8.24468V6.10333C42.4167 4.26042 43.5881 2.90993 45.9011 2.07427L45.916 2.08174Z" fill="white"/>
<path d="M68.4189 8.09545C68.7323 4.02165 70.9408 1.8803 75.0295 1.67139H82.7444C83.4607 1.73108 84.2963 1.93252 85.2663 2.26827C86.1915 2.62641 86.9973 3.24568 87.6912 4.1261C88.5268 5.36465 88.9894 6.81212 89.0789 8.4685V17.0638C89.0789 19.0335 88.2507 20.6825 86.5944 22.0031C85.0648 22.9507 83.3711 23.4804 81.5282 23.6072H74.4103C72.4778 23.5475 70.8513 22.697 69.5307 21.0555C68.9039 19.9662 68.5309 18.75 68.4264 17.407V8.08798L68.4189 8.09545ZM75.7533 6.64798C74.2237 7.00611 73.4478 7.83432 73.4254 9.13256V15.9297C73.5075 17.4816 74.3879 18.377 76.0666 18.6083H81.4461C83.1025 18.2501 83.9755 17.1384 84.0576 15.2731V9.51309C84.0128 7.99847 83.2219 7.05088 81.6625 6.64798H75.7458H75.7533Z" fill="white"/>
<path d="M97.5996 2.08174C98.189 1.89521 98.9426 1.75346 99.8678 1.67139H108.717C110.686 1.73108 112.365 2.26825 113.753 3.27551C114.574 4.17831 115.021 5.26021 115.104 6.52115V10.11C115.059 11.5574 114.357 12.7661 112.992 13.7286C110.977 14.609 108.299 15.0418 104.964 15.0194L102.442 15.1761C101.353 15.2358 100.509 15.4372 99.92 15.773C99.3753 16.2953 99.1366 17.0414 99.1963 18.0113C99.1963 18.5336 99.4574 18.7948 99.9797 18.7948H114.268C114.895 18.7948 115.215 19.1081 115.215 19.7423V22.1971C115.215 22.8238 114.902 23.1446 114.268 23.1446H95.0031C94.3764 23.1446 94.0555 22.8313 94.0555 22.1971V18.1979C94.0779 16.1833 94.645 14.5046 95.7567 13.1616C96.3461 12.5124 97.1818 12.0424 98.2786 11.744C101.009 11.2814 103.524 10.9904 105.829 10.8636C106.665 10.8188 107.508 10.7293 108.351 10.58C109.694 10.3487 110.284 9.49813 110.112 8.02828C110.321 6.76734 109.858 5.96902 108.724 5.63327H100.763C99.338 5.94664 98.7561 6.81959 99.0321 8.24468C99.0321 8.87142 98.7188 9.19222 98.0846 9.19222H95.0031C94.3764 9.19222 94.0555 8.87888 94.0555 8.24468V6.10333C94.1003 4.26042 95.2717 2.90993 97.5847 2.07427L97.5996 2.08174Z" fill="white"/>
<path d="M122.848 2.40254C123.796 2.02203 124.87 1.78329 126.094 1.67883H135.853C137.405 1.82806 138.666 2.27573 139.628 3.0293C140.74 4.08133 141.262 5.55116 141.203 7.43884C141.203 8.06558 140.889 8.38642 140.255 8.38642H137.047C136.42 8.38642 136.099 8.18498 136.099 7.78954C136.122 6.31968 135.398 5.64817 133.928 5.77501H126.691C125.452 6.066 124.9 6.78226 125.019 7.91636C124.997 8.7744 125.019 9.66971 125.079 10.5949C125.228 10.7814 125.385 10.7964 125.549 10.6248C125.93 10.2666 126.601 10.0801 127.564 10.0577H136.092C139.091 10.2442 140.748 11.7812 141.068 14.6538V18.3396C140.942 20.4138 139.89 21.8687 137.92 22.682C137.308 22.9133 136.532 23.07 135.592 23.1521H125.706C124.699 23.0476 123.855 22.8686 123.184 22.6149C122.199 22.3239 121.423 21.7344 120.856 20.854C120.371 19.9736 120.102 18.9738 120.035 17.8621V6.99865C120.08 6.163 120.289 5.31989 120.662 4.47677C121.289 3.36506 122.013 2.67115 122.833 2.40254H122.848ZM127.064 14.0121C126.139 13.8032 125.482 14.2285 125.079 15.3029C125.019 15.9968 124.997 16.7205 125.019 17.4741C125.273 18.459 125.818 18.9887 126.653 19.0484H134.085C135.637 18.7574 136.308 17.9964 136.099 16.7802V15.5864C135.786 14.3926 135.062 13.8629 133.928 14.0121H127.064Z" fill="white"/>
<path d="M149.507 16.0639C151.037 15.8102 152.275 16.2429 153.223 17.3547C153.939 18.6977 154.028 19.9586 153.506 21.13C152.685 22.7267 151.111 23.2415 148.783 22.6745C147.836 22.294 147.239 21.5852 146.993 20.5331C146.821 19.8169 146.866 18.9812 147.119 18.0112C147.619 16.8995 148.418 16.2504 149.514 16.0564L149.507 16.0639Z" fill="white"/>
<path d="M160.833 8.09545C161.146 4.02165 163.355 1.8803 167.444 1.67139H175.158C175.875 1.73108 176.71 1.93252 177.68 2.26827C178.606 2.62641 179.411 3.24568 180.105 4.1261C180.941 5.36465 181.403 6.81212 181.493 8.4685V17.0638C181.493 19.0335 180.665 20.6825 179.008 22.0031C177.479 22.9507 175.785 23.4804 173.942 23.6072H166.824C164.892 23.5475 163.265 22.697 161.945 21.0555C161.318 19.9662 160.945 18.75 160.84 17.407V8.08798L160.833 8.09545ZM168.167 6.64798C166.638 7.00611 165.862 7.83432 165.839 9.13256V15.9297C165.922 17.4816 166.802 18.377 168.481 18.6083H173.86C175.517 18.2501 176.39 17.1384 176.472 15.2731V9.51309C176.427 7.99847 175.636 7.05088 174.077 6.64798H168.16H168.167Z" fill="white"/>
<path d="M198.766 2.58907C199.415 1.97726 200.041 1.67883 200.653 1.67883H204.712C205.339 1.67883 205.66 1.99217 205.66 2.62637V14.6837C205.66 15.2059 206.003 15.4671 206.697 15.4671C207.391 15.4671 207.734 15.7805 207.734 16.4147V18.9664C207.734 19.5931 207.398 19.9139 206.727 19.9139C206.01 19.9139 205.66 20.1751 205.66 20.6974V22.212C205.66 22.8387 205.346 23.1595 204.712 23.1595H201.593C200.967 23.1595 200.646 22.8462 200.646 22.212V20.6974C200.646 20.1751 200.385 19.9139 199.862 19.9139H187.425C186.798 19.9139 186.477 19.6006 186.477 18.9664V15.1537C186.477 14.527 186.79 13.9077 187.425 13.2958L198.758 2.59654L198.766 2.58907ZM200.653 7.93872C200.653 7.34929 200.325 7.37169 199.676 7.99843C197.281 10.1398 194.893 12.3185 192.498 14.5494C191.804 15.1612 191.767 15.4596 192.371 15.4596H199.862C200.385 15.4596 200.646 15.1985 200.646 14.6762V7.93872H200.653Z" fill="white"/>
<path d="M216.076 16.0639C217.605 15.8102 218.844 16.2429 219.791 17.3547C220.507 18.6977 220.597 19.9586 220.075 21.13C219.254 22.7267 217.68 23.2415 215.352 22.6745C214.404 22.294 213.807 21.5852 213.561 20.5331C213.39 19.8169 213.434 18.9812 213.688 18.0112C214.188 16.8995 214.986 16.2504 216.083 16.0564L216.076 16.0639Z" fill="white"/>
<path d="M230.871 2.08174C231.461 1.89521 232.214 1.75346 233.139 1.67139H241.988C243.958 1.73108 245.637 2.26825 247.025 3.27551C247.845 4.17831 248.293 5.26021 248.375 6.52115V10.11C248.33 11.5574 247.629 12.7661 246.263 13.7286C244.249 14.609 241.57 15.0418 238.235 15.0194L235.713 15.1761C234.624 15.2358 233.781 15.4372 233.191 15.773C232.647 16.2953 232.408 17.0414 232.468 18.0113C232.468 18.5336 232.729 18.7948 233.251 18.7948H247.539C248.166 18.7948 248.487 19.1081 248.487 19.7423V22.1971C248.487 22.8238 248.174 23.1446 247.539 23.1446H228.275C227.648 23.1446 227.327 22.8313 227.327 22.1971V18.1979C227.349 16.1833 227.916 14.5046 229.028 13.1616C229.618 12.5124 230.453 12.0424 231.55 11.744C234.281 11.2814 236.795 10.9904 239.101 10.8636C239.936 10.8188 240.78 10.7293 241.623 10.58C242.966 10.3487 243.555 9.49813 243.383 8.02828C243.592 6.76734 243.13 5.96902 241.996 5.63327H234.035C232.61 5.94664 232.028 6.81959 232.304 8.24468C232.304 8.87142 231.99 9.19222 231.356 9.19222H228.275C227.648 9.19222 227.327 8.87888 227.327 8.24468V6.10333C227.372 4.26042 228.543 2.90993 230.856 2.07427L230.871 2.08174Z" fill="white"/>
<path d="M256.142 2.33541C257.127 1.93997 258.201 1.70863 259.35 1.64148H269.363C270.288 1.72355 271.124 1.89519 271.885 2.14141C273.504 2.73084 274.332 3.77539 274.37 5.29V8.53564C274.288 9.71451 273.706 10.6472 272.639 11.3336C272.072 11.647 272.116 11.9976 272.766 12.3707C273.713 12.9377 274.28 13.6316 274.467 14.4523C275.116 17.3921 274.564 19.8691 272.795 21.8836C271.728 22.6372 270.415 23.0625 268.863 23.1446H259.134C255.232 22.8536 253.396 20.9734 253.628 17.5114C253.628 16.8847 253.941 16.5638 254.575 16.5638H257.627C258.254 16.5638 258.574 16.6907 258.574 16.9444C258.701 18.3097 259.47 18.929 260.872 18.8022H267.2C267.893 18.8619 268.46 18.7201 268.901 18.362C269.55 17.7353 269.751 16.6832 269.498 15.2134C269.311 14.706 268.878 14.415 268.207 14.3329H260.276C259.649 14.3329 259.328 14.0196 259.328 13.3854V11.0874C259.328 10.4606 259.641 10.1398 260.276 10.1398H267.326C268.058 10.0801 268.595 9.88608 268.931 9.57271C269.311 9.25934 269.445 8.78932 269.341 8.15512C269.363 7.67014 269.341 7.19262 269.281 6.70765C268.774 5.87199 268.102 5.5437 267.267 5.73023H260.276C259.119 6.0436 258.642 6.66287 258.828 7.58806C258.828 8.00588 258.515 8.21477 257.881 8.21477H254.635C254.008 8.21477 253.687 7.90143 253.687 7.26723C253.643 6.34205 253.784 5.42431 254.098 4.49912C254.433 3.59632 255.112 2.87261 256.142 2.32794V2.33541Z" fill="white"/>
<path d="M281.786 13.6615C281.786 8.946 283.577 5.55861 286.099 3.10388L288.15 4.67818C285.83 7.41643 284.845 9.63239 284.845 13.6689C284.845 17.7054 285.83 19.9139 288.15 22.6969L286.099 24.2712C283.577 21.7717 281.786 18.4291 281.786 13.6689V13.6615Z" fill="white"/>
<path d="M308.482 4.52891V21.1897H305.378V20.1004H294.134V21.3464H291.172V4.52148H308.482V4.52891ZM305.386 17.2875V15.5938C305.147 15.6311 304.878 15.6311 304.662 15.6311H303.147C300.969 15.6311 300.529 14.4822 300.529 12.1244V7.34925H299.036C298.954 11.9603 298.551 14.9671 295.567 16.6981C295.328 16.0938 294.701 15.2059 294.134 14.6239V17.2875H305.378H305.386ZM294.134 7.35672V14.1911C296.007 12.863 296.149 10.8486 296.171 7.35672H294.134ZM305.386 7.35672H303.252V12.1915C303.252 12.9004 303.274 13.2212 303.632 13.2212H304.58C304.804 13.2212 305.102 13.1988 305.386 13.1615V7.35672Z" fill="white"/>
<path d="M311.534 22.6894C313.854 19.9063 314.839 17.7352 314.839 13.6614C314.839 9.58756 313.854 7.41632 311.534 4.67061L313.586 3.09631C316.107 5.55104 317.898 8.93843 317.898 13.6539C317.898 18.3694 316.107 21.7567 313.586 24.2562L311.534 22.6819V22.6894Z" fill="white"/>
<path d="M327.12 9.33392C327.344 6.4763 328.888 4.97662 331.761 4.82739H337.17C337.67 4.87216 338.26 5.01392 338.939 5.24522C339.588 5.49144 340.155 5.93164 340.64 6.55092C341.229 7.42388 341.55 8.43861 341.61 9.59509V15.6237C341.61 17.0041 341.028 18.1605 339.864 19.0932C338.789 19.7572 337.603 20.1303 336.305 20.2198H331.313C329.955 20.175 328.821 19.5781 327.889 18.4291C327.449 17.6606 327.187 16.81 327.113 15.8699V9.33392H327.12ZM332.261 8.31922C331.187 8.5729 330.642 9.15489 330.627 10.0652V14.8329C330.687 15.9222 331.306 16.5489 332.485 16.713H336.26C337.424 16.4668 338.036 15.6834 338.096 14.3702V10.3263C338.066 9.26679 337.506 8.59528 336.417 8.31922H332.261Z" fill="white"/>
<path d="M345.229 5.28998C345.758 5.06615 346.445 4.91693 347.28 4.82739H354.197C355.137 4.88708 356.025 5.2079 356.846 5.79734C357.629 6.49123 358.032 7.57312 358.062 9.04297V15.7356C358.002 16.9742 357.629 18.0038 356.935 18.8246C356.07 19.4438 355.003 19.7945 353.734 19.884H347.198C345.915 19.8691 344.848 19.2722 343.997 18.0934C343.527 17.489 343.326 16.7354 343.401 15.8401C343.401 15.3999 343.624 15.176 344.065 15.176H346.34C346.78 15.176 347.004 15.4521 347.004 15.9893C347.183 16.7727 347.653 17.1085 348.414 17.004H352.943C354.167 16.8847 354.741 16.2728 354.667 15.1686V13.9972C354.667 13.6316 354.428 13.5122 353.958 13.6465L352.652 13.848H346.758C345.758 13.7883 344.938 13.5346 344.303 13.072C343.774 12.4378 343.46 11.7439 343.356 10.9978V8.08045C343.445 6.87174 344.072 5.93909 345.236 5.27504L345.229 5.28998ZM347.743 7.78203C346.959 7.9611 346.631 8.37893 346.751 9.04297C346.706 9.67717 346.751 10.1398 346.885 10.4382C347.109 10.8486 347.444 11.0873 347.9 11.147H352.891C353.742 11.2366 354.309 10.8784 354.592 10.0875C354.637 9.31901 354.592 8.78926 354.458 8.49828C354.219 8.08791 353.869 7.84919 353.398 7.7895H347.743V7.78203Z" fill="white"/>
<path d="M362.098 6.72252C363.747 6.29724 364.814 6.84939 365.299 8.37893C365.493 9.67717 365.03 10.5651 363.934 11.05C363.493 11.244 362.964 11.2664 362.344 11.1172C361.83 11.0276 361.412 10.7441 361.084 10.2592C360.628 9.53542 360.584 8.69978 360.949 7.74475C361.21 7.20008 361.598 6.86429 362.098 6.72999V6.72252ZM362.479 15.3626C363.404 15.1835 364.217 15.4223 364.911 16.0714C365.426 16.825 365.538 17.6308 365.239 18.5037C364.956 19.317 364.329 19.7796 363.337 19.899C362.218 20.0184 361.419 19.5856 360.949 18.5933C360.599 17.7129 360.74 16.825 361.389 15.9446C361.628 15.6685 361.986 15.4745 362.471 15.37L362.479 15.3626Z" fill="white"/>
<path d="M369.917 5.29C370.611 5.01394 371.357 4.84982 372.171 4.80505H379.192C379.841 4.86474 380.43 4.9841 380.96 5.15571C382.094 5.56607 382.676 6.30474 382.706 7.36423V9.63988C382.646 10.4606 382.243 11.1172 381.49 11.6022C381.094 11.826 381.124 12.0648 381.579 12.3334C382.243 12.7288 382.639 13.2138 382.773 13.7883C383.228 15.8476 382.84 17.586 381.602 19.0036C380.848 19.5334 379.93 19.8318 378.841 19.8841H372.014C369.276 19.6751 367.985 18.362 368.149 15.9296C368.149 15.4894 368.373 15.2656 368.813 15.2656H370.955C371.395 15.2656 371.619 15.3551 371.619 15.5342C371.708 16.4892 372.245 16.922 373.23 16.8399H377.67C378.155 16.8847 378.55 16.7802 378.863 16.534C379.319 16.0938 379.46 15.3551 379.281 14.3255C379.147 13.9748 378.848 13.7659 378.378 13.7062H372.812C372.372 13.7062 372.148 13.4824 372.148 13.0422V11.4305C372.148 10.9903 372.372 10.7665 372.812 10.7665H377.759C378.274 10.7218 378.647 10.5874 378.886 10.3711C379.147 10.1472 379.244 9.81892 379.169 9.37871C379.184 9.04296 379.169 8.69976 379.125 8.364C378.774 7.77457 378.296 7.55075 377.714 7.67759H372.812C372.007 7.90142 371.663 8.33417 371.798 8.98329C371.798 9.28174 371.574 9.42352 371.134 9.42352H368.858C368.418 9.42352 368.194 9.19968 368.194 8.75947C368.164 8.11034 368.261 7.4612 368.477 6.81953C368.716 6.18533 369.194 5.67799 369.91 5.29747L369.917 5.29Z" fill="white"/>
<path d="M384.295 9.33392C384.519 6.4763 386.063 4.97662 388.936 4.82739H394.345C394.845 4.87216 395.435 5.01392 396.114 5.24522C396.763 5.49144 397.33 5.93164 397.815 6.55092C398.404 7.42388 398.725 8.43861 398.785 9.59509V15.6237C398.785 17.0041 398.203 18.1605 397.039 19.0932C395.964 19.7572 394.778 20.1303 393.48 20.2198H388.488C387.13 20.175 385.996 19.5781 385.064 18.4291C384.623 17.6606 384.362 16.81 384.288 15.8699V9.33392H384.295ZM389.443 8.31922C388.369 8.5729 387.824 9.15489 387.809 10.0652V14.8329C387.869 15.9222 388.488 16.5489 389.667 16.713H393.443C394.607 16.4668 395.218 15.6834 395.278 14.3702V10.3263C395.248 9.26679 394.689 8.59528 393.599 8.31922H389.443Z" fill="white"/>
<path d="M401.307 12.3333C401.307 11.8633 401.516 11.6245 401.926 11.6245H410.32C410.76 11.6245 410.984 11.8484 410.984 12.2886V14.4523C410.984 14.8925 410.76 15.1163 410.32 15.1163H401.971C401.53 15.1163 401.307 14.8925 401.307 14.4523V12.3333Z" fill="white"/>
<path d="M414.468 5.51381C414.468 5.05868 414.685 4.82739 415.11 4.82739H420.325C420.765 4.82739 420.989 5.05124 420.989 5.49145V19.2274C420.989 19.6677 420.765 19.8915 420.325 19.8915H418.139C417.699 19.8915 417.475 19.6677 417.475 19.2274V8.87134C417.475 8.50574 417.288 8.31922 416.923 8.31922H415.132C414.692 8.31922 414.468 8.09537 414.468 7.65516V5.51381Z" fill="white"/>
<path d="M424.993 5.50554C425.665 5.23974 426.425 5.07297 427.293 5H434.207C435.306 5.10424 436.199 5.41696 436.881 5.94336C437.669 6.67825 438.039 7.70499 437.997 9.02361C437.997 9.46142 437.774 9.68554 437.325 9.68554H435.052C434.608 9.68554 434.381 9.54482 434.381 9.26859C434.397 8.24183 433.884 7.77275 432.843 7.86136H427.716C426.838 8.06463 426.447 8.56496 426.531 9.35718C426.515 9.95656 426.531 10.582 426.574 11.2283C426.679 11.3585 426.79 11.369 426.906 11.2491C427.176 10.9989 427.652 10.8686 428.334 10.853H434.376C436.501 10.9833 437.674 12.0569 437.901 14.0636V16.6383C437.812 18.0872 437.067 19.1035 435.671 19.6716C435.237 19.8332 434.688 19.9427 434.022 20H427.018C426.304 19.927 425.706 19.802 425.231 19.6247C424.533 19.4215 423.983 19.0097 423.582 18.3947C423.238 17.7797 423.047 17.0813 423 16.3047V8.71612C423.032 8.13239 423.18 7.54344 423.444 6.95448C423.888 6.1779 424.401 5.69318 424.982 5.50554H424.993ZM427.98 13.6153C427.324 13.4694 426.859 13.7665 426.574 14.517C426.531 15.0017 426.515 15.5073 426.531 16.0337C426.711 16.7217 427.097 17.0917 427.689 17.1334H432.954C434.053 16.9301 434.529 16.3985 434.381 15.549V14.715C434.159 13.8811 433.646 13.5111 432.843 13.6153H427.98Z" fill="white"/>
<path d="M442.694 6.72252C444.343 6.29724 445.41 6.84939 445.895 8.37893C446.089 9.67717 445.626 10.5651 444.529 11.05C444.089 11.244 443.559 11.2664 442.94 11.1172C442.425 11.0276 442.007 10.7441 441.679 10.2592C441.224 9.53542 441.179 8.69978 441.545 7.74475C441.806 7.20008 442.194 6.86429 442.694 6.72999V6.72252ZM443.067 15.3626C443.992 15.1835 444.805 15.4223 445.499 16.0714C446.014 16.825 446.126 17.6308 445.827 18.5037C445.544 19.317 444.917 19.7796 443.925 19.899C442.806 20.0184 442.007 19.5856 441.537 18.5933C441.187 17.7129 441.328 16.825 441.978 15.9446C442.216 15.6685 442.574 15.4745 443.059 15.37L443.067 15.3626Z" fill="white"/>
<path d="M464.891 9.33392C465.115 6.4763 466.659 4.97662 469.532 4.82739H474.941C475.441 4.87216 476.03 5.01392 476.709 5.24522C477.358 5.49144 477.925 5.93164 478.41 6.55092C479 7.42388 479.321 8.43861 479.38 9.59509V15.6237C479.38 17.0041 478.798 18.1605 477.634 19.0932C476.56 19.7572 475.374 20.1303 474.075 20.2198H469.084C467.726 20.175 466.592 19.5781 465.659 18.4291C465.219 17.6606 464.958 16.81 464.883 15.8699V9.33392H464.891ZM470.031 8.31922C468.957 8.5729 468.412 9.15489 468.397 10.0652V14.8329C468.457 15.9222 469.076 16.5489 470.255 16.713H474.031C475.195 16.4668 475.806 15.6834 475.866 14.3702V10.3263C475.836 9.26679 475.277 8.59528 474.187 8.31922H470.031Z" fill="white"/>
<path d="M448.891 9.33392C449.115 6.4763 450.659 4.97662 453.532 4.82739H458.941C459.441 4.87216 460.03 5.01392 460.709 5.24522C461.358 5.49144 461.925 5.93164 462.41 6.55092C463 7.42388 463.321 8.43861 463.38 9.59509V15.6237C463.38 17.0041 462.798 18.1605 461.634 19.0932C460.56 19.7572 459.374 20.1303 458.075 20.2198H453.084C451.726 20.175 450.592 19.5781 449.659 18.4291C449.219 17.6606 448.958 16.81 448.883 15.8699V9.33392H448.891ZM454.031 8.31922C452.957 8.5729 452.412 9.15489 452.397 10.0652V14.8329C452.457 15.9222 453.076 16.5489 454.255 16.713H458.031C459.195 16.4668 459.806 15.6834 459.866 14.3702V10.3263C459.836 9.26679 459.277 8.59528 458.187 8.31922H454.031Z" fill="white"/>
<path opacity="0.5" d="M13.6763 26.9423C21.0029 26.9423 26.9423 21.0029 26.9423 13.6763C26.9423 6.34975 21.0029 0.4104 13.6763 0.4104C6.34971 0.4104 0.410339 6.34975 0.410339 13.6763C0.410339 21.0029 6.34971 26.9423 13.6763 26.9423Z" fill="white"/>
<path d="M13.6763 27.3526C6.13308 27.3526 0 21.2195 0 13.6763C0 6.13305 6.13308 0 13.6763 0C21.2196 0 27.3527 6.13305 27.3527 13.6763C27.3527 21.2195 21.2196 27.3526 13.6763 27.3526ZM13.6763 0.820711C6.58821 0.820711 0.820728 6.58818 0.820728 13.6763C0.820728 20.7644 6.58821 26.5319 13.6763 26.5319C20.7644 26.5319 26.5319 20.7644 26.5319 13.6763C26.5319 6.58818 20.7644 0.820711 13.6763 0.820711Z" fill="white"/>
<path opacity="0.5" d="M14.5866 7.70001L15.4297 10.6397L18.3992 9.8936C19.3244 9.6623 19.981 10.789 19.3095 11.4754L17.1831 13.6764L19.3095 15.8775C19.9735 16.5639 19.3244 17.6905 18.3992 17.4592L15.4297 16.7131L14.5866 19.6528C14.3254 20.5706 13.0197 20.5706 12.7586 19.6528L11.9155 16.7131L8.94593 17.4592C8.02074 17.6905 7.36416 16.5639 8.03566 15.8775L10.1621 13.6764L8.03566 11.4754C7.37162 10.789 8.02074 9.6623 8.94593 9.8936L11.9155 10.6397L12.7586 7.70001C13.0197 6.78229 14.3254 6.78229 14.5866 7.70001Z" fill="white"/>
<path opacity="0.5" d="M13.6762 74.47C21.0028 74.47 26.9422 68.5306 26.9422 61.2041C26.9422 53.8775 21.0028 47.9381 13.6762 47.9381C6.34965 47.9381 0.410278 53.8775 0.410278 61.2041C0.410278 68.5306 6.34965 74.47 13.6762 74.47Z" fill="white"/>
<mask id="mask0_267_138" style="mask-type:luminance" maskUnits="userSpaceOnUse" x="0" y="48" width="27" height="28">
<path d="M13.6762 75.47C21.0028 75.47 26.9422 69.5306 26.9422 62.2041C26.9422 54.8775 21.0028 48.9381 13.6762 48.9381C6.34965 48.9381 0.410278 54.8775 0.410278 62.2041C0.410278 69.5306 6.34965 75.47 13.6762 75.47Z" fill="white"/>
</mask>
<g mask="url(#mask0_267_138)">
<g opacity="0.5">
<path opacity="0.6" d="M7.85533 47.2081L-3.00085 76.9384L-2.22989 77.2199L8.62629 47.4897L7.85533 47.2081Z" fill="white"/>
<path opacity="0.6" d="M13.2848 47.2094L2.42865 76.9396L3.19961 77.2211L14.0558 47.4909L13.2848 47.2094Z" fill="white"/>
<path opacity="0.6" d="M18.7144 47.2032L7.85822 76.9333L8.62918 77.2149L19.4854 47.4847L18.7144 47.2032Z" fill="white"/>
<path opacity="0.6" d="M24.1414 47.2113L13.2852 76.9415L14.0562 77.2231L24.9124 47.4928L24.1414 47.2113Z" fill="white"/>
<path opacity="0.6" d="M29.571 47.2051L18.7148 76.9353L19.4857 77.2168L30.3419 47.4866L29.571 47.2051Z" fill="white"/>
<path opacity="0.6" d="M19.465 47.1898L18.694 47.4713L29.5502 77.2015L30.3211 76.92L19.465 47.1898Z" fill="white"/>
<path opacity="0.6" d="M14.027 47.195L13.2561 47.4766L24.1123 77.2068L24.8832 76.9252L14.027 47.195Z" fill="white"/>
<path opacity="0.6" d="M8.61096 47.1903L7.84003 47.4718L18.6962 77.202L19.4671 76.9204L8.61096 47.1903Z" fill="white"/>
<path opacity="0.6" d="M3.17303 47.1881L2.4021 47.4696L13.2583 77.1998L14.0292 76.9183L3.17303 47.1881Z" fill="white"/>
<path opacity="0.6" d="M-2.26495 47.1934L-3.03589 47.4749L7.82029 77.2051L8.59122 76.9236L-2.26495 47.1934Z" fill="white"/>
</g>
</g>
<path d="M13.6763 74.8804C6.13308 74.8804 0 68.7473 0 61.2041C0 53.6608 6.13308 47.5277 13.6763 47.5277C21.2196 47.5277 27.3527 53.6608 27.3527 61.2041C27.3527 68.7473 21.2196 74.8804 13.6763 74.8804ZM13.6763 48.3485C6.58821 48.3485 0.820728 54.1159 0.820728 61.2041C0.820728 68.2922 6.58821 74.0596 13.6763 74.0596C20.7644 74.0596 26.5319 68.2922 26.5319 61.2041C26.5319 54.1159 20.7644 48.3485 13.6763 48.3485Z" fill="white"/>
<path d="M489.916 9.33392C490.139 6.4763 491.684 4.97662 494.556 4.82739H499.966C500.466 4.87216 501.055 5.01392 501.734 5.24522C502.383 5.49144 502.95 5.93164 503.435 6.55092C504.025 7.42388 504.345 8.43861 504.405 9.59509V15.6237C504.405 17.0041 503.823 18.1605 502.659 19.0932C501.585 19.7572 500.398 20.1303 499.1 20.2198H494.109C492.751 20.175 491.617 19.5781 490.684 18.4291C490.244 17.6606 489.983 16.81 489.908 15.8699V9.33392H489.916ZM495.056 8.31922C493.982 8.5729 493.437 9.15489 493.422 10.0652V14.8329C493.482 15.9222 494.101 16.5489 495.28 16.713H499.055C500.219 16.4668 500.831 15.6834 500.891 14.3702V10.3263C500.861 9.26679 500.302 8.59528 499.212 8.31922H495.056Z" fill="white"/>
<path d="M508.024 5.28998C508.554 5.06615 509.24 4.91693 510.076 4.82739H516.992C517.932 4.88708 518.82 5.2079 519.641 5.79734C520.424 6.49123 520.827 7.57312 520.857 9.04297V15.7356C520.797 16.9742 520.424 18.0038 519.73 18.8246C518.865 19.4438 517.798 19.7945 516.53 19.884H509.994C508.71 19.8691 507.643 19.2722 506.793 18.0934C506.323 17.489 506.121 16.7354 506.196 15.8401C506.196 15.3999 506.42 15.176 506.86 15.176H509.136C509.576 15.176 509.8 15.4521 509.8 15.9893C509.979 16.7727 510.449 17.1085 511.21 17.004H515.739C516.962 16.8847 517.537 16.2728 517.462 15.1686V13.9972C517.462 13.6316 517.223 13.5122 516.753 13.6465L515.448 13.848H509.553C508.554 13.7883 507.733 13.5346 507.099 13.072C506.569 12.4378 506.256 11.7439 506.151 10.9978V8.08045C506.241 6.87174 506.867 5.93909 508.031 5.27504L508.024 5.28998ZM510.538 7.78203C509.755 7.9611 509.427 8.37893 509.546 9.04297C509.501 9.67717 509.546 10.1398 509.68 10.4382C509.904 10.8486 510.24 11.0873 510.695 11.147H515.686C516.537 11.2366 517.104 10.8784 517.388 10.0875C517.432 9.31901 517.388 8.78926 517.253 8.49828C517.015 8.08791 516.664 7.84919 516.194 7.7895H510.538V7.78203Z" fill="white"/>
<path d="M524.894 6.72252C526.542 6.29724 527.609 6.84939 528.094 8.37893C528.288 9.67717 527.826 10.5651 526.729 11.05C526.289 11.244 525.759 11.2664 525.14 11.1172C524.625 11.0276 524.207 10.7441 523.879 10.2592C523.424 9.53542 523.379 8.69978 523.745 7.74475C524.006 7.20008 524.394 6.86429 524.894 6.72999V6.72252ZM525.274 15.3626C526.199 15.1835 527.013 15.4223 527.706 16.0714C528.221 16.825 528.333 17.6308 528.035 18.5037C527.751 19.317 527.124 19.7796 526.132 19.899C525.013 20.0184 524.215 19.5856 523.745 18.5933C523.394 17.7129 523.536 16.825 524.185 15.9446C524.423 15.6685 524.782 15.4745 525.267 15.37L525.274 15.3626Z" fill="white"/>
<path d="M530.773 9.33392C530.997 6.4763 532.541 4.97662 535.414 4.82739H540.823C541.323 4.87216 541.912 5.01392 542.591 5.24522C543.241 5.49144 543.808 5.93164 544.293 6.55092C544.882 7.42388 545.203 8.43861 545.262 9.59509V15.6237C545.262 17.0041 544.681 18.1605 543.517 19.0932C542.442 19.7572 541.256 20.1303 539.958 20.2198H534.966C533.608 20.175 532.474 19.5781 531.541 18.4291C531.101 17.6606 530.84 16.81 530.765 15.8699V9.33392H530.773ZM535.921 8.31922C534.847 8.5729 534.302 9.15489 534.287 10.0652V14.8329C534.347 15.9222 534.966 16.5489 536.145 16.713H539.92C541.084 16.4668 541.696 15.6834 541.756 14.3702V10.3263C541.726 9.26679 541.166 8.59528 540.077 8.31922H535.921Z" fill="white"/>
<path d="M547.001 9.33392C547.225 6.4763 548.769 4.97662 551.642 4.82739H557.051C557.551 4.87216 558.141 5.01392 558.819 5.24522C559.469 5.49144 560.036 5.93164 560.521 6.55092C561.11 7.42388 561.431 8.43861 561.491 9.59509V15.6237C561.491 17.0041 560.909 18.1605 559.745 19.0932C558.67 19.7572 557.484 20.1303 556.186 20.2198H551.194C549.836 20.175 548.702 19.5781 547.769 18.4291C547.329 17.6606 547.068 16.81 546.994 15.8699V9.33392H547.001ZM552.149 8.31922C551.075 8.5729 550.53 9.15489 550.515 10.0652V14.8329C550.575 15.9222 551.194 16.5489 552.373 16.713H556.148C557.312 16.4668 557.924 15.6834 557.984 14.3702V10.3263C557.954 9.26679 557.394 8.59528 556.305 8.31922H552.149Z" fill="white"/>
<path d="M575.637 5.60337C575.637 9.16981 576.159 15.6983 582.621 19.4588C582.024 19.9288 580.957 21.1077 580.502 21.7718C577.062 19.7125 575.145 16.5266 574.115 13.3779C572.742 17.1608 570.608 20.0184 567.691 21.8091C567.206 21.2495 565.975 20.1452 565.288 19.6528C568.944 17.8472 571.056 14.4076 571.981 9.81148L573.287 10.0502C573.175 9.43097 573.108 8.84153 573.048 8.27448H569.049V5.59595H575.637V5.60337Z" fill="white"/>
<path d="M594.238 14.0494C594.126 14.2657 593.999 14.4821 593.872 14.6836H601.035C601.035 14.6836 601.02 15.2655 600.983 15.5491C600.744 18.9663 600.46 20.4511 599.968 21.0106C599.587 21.4658 599.155 21.6299 598.662 21.6971C598.229 21.7717 597.558 21.7866 596.797 21.7717C596.76 21.2494 596.618 20.5406 596.364 20.0183C595.819 20.757 595.223 21.4285 594.611 21.8985C594.156 21.4136 593.402 20.8092 592.745 20.4511C594.051 19.6527 595.208 18.2276 595.984 16.7205H595.349C594.372 18.3694 592.708 20.1228 591.186 21.0778C590.768 20.5555 590.082 19.9213 589.47 19.5408C590.701 18.9439 591.947 17.877 592.91 16.7205H592.275C591.678 17.3323 591.029 17.877 590.358 18.3097C590.067 17.9814 589.492 17.4442 589.022 17.0413C587.612 17.765 586.18 18.4739 584.948 19.0708L583.986 16.4146C584.568 16.2131 585.292 15.9445 586.083 15.6386V10.8635H584.419V8.38636H586.083V4.90942H588.522V8.38636H590.044V10.8635H588.522V14.6463L589.731 14.1389L590.127 15.7132C590.686 15.2208 591.208 14.6612 591.626 14.0494H589.85V11.8632H601.341V14.0494H594.215H594.238ZM600.132 11.3559H591.358V5.05866H600.132V11.3559ZM597.707 6.83442H593.671V7.37907H597.707V6.83442ZM597.707 9.03547H593.671V9.58013H597.707V9.03547ZM598.2 16.7279C597.804 17.7427 597.222 18.8096 596.551 19.7646C596.916 19.7796 597.2 19.7795 597.386 19.7795C597.625 19.7795 597.767 19.7422 597.909 19.5632C598.125 19.3244 598.326 18.5335 598.491 16.7205H598.2V16.7279Z" fill="white"/>
<path d="M216.09 49.8482C217.075 49.4527 218.15 49.2214 219.299 49.1543H229.312C230.237 49.2364 231.073 49.408 231.834 49.6542C233.453 50.2436 234.281 51.2882 234.318 52.8028V56.0484C234.236 57.2273 233.654 58.1599 232.587 58.8464C232.02 59.1597 232.065 59.5104 232.714 59.8834C233.662 60.4505 234.229 61.1444 234.415 61.9651C235.064 64.9048 234.512 67.3819 232.744 69.3964C231.677 70.15 230.364 70.5753 228.812 70.6574H219.082C215.18 70.3664 213.345 68.4862 213.576 65.0242C213.576 64.3974 213.889 64.0766 214.524 64.0766H217.575C218.202 64.0766 218.523 64.2034 218.523 64.4571C218.65 65.8225 219.418 66.4418 220.821 66.315H227.148C227.842 66.3747 228.409 66.2329 228.849 65.8748C229.498 65.248 229.7 64.196 229.446 62.7261C229.259 62.2188 228.827 61.9278 228.155 61.8457H220.224C219.597 61.8457 219.276 61.5324 219.276 60.8982V58.6001C219.276 57.9734 219.59 57.6525 220.224 57.6525H227.275C228.006 57.5929 228.543 57.3989 228.879 57.0855C229.259 56.7721 229.394 56.3021 229.289 55.6679C229.312 55.1829 229.289 54.7054 229.23 54.2204C228.722 53.3848 228.051 53.0565 227.215 53.243H220.224C219.067 53.5564 218.59 54.1756 218.776 55.1008C218.776 55.5187 218.463 55.7276 217.829 55.7276H214.583C213.957 55.7276 213.636 55.4142 213.636 54.78C213.591 53.8548 213.733 52.9371 214.046 52.0119C214.382 51.1091 215.061 50.3854 216.09 49.8407V49.8482Z" fill="white"/>
<path d="M239.168 55.6081C239.481 51.5343 241.69 49.393 245.778 49.1841H253.493C254.21 49.2438 255.045 49.4452 256.015 49.781C256.94 50.1391 257.746 50.7584 258.44 51.6388C259.276 52.8773 259.738 54.3248 259.828 55.9812V64.5765C259.828 66.5462 259 68.1952 257.343 69.5158C255.814 70.4633 254.12 70.9931 252.277 71.1199H245.159C243.227 71.0602 241.6 70.2097 240.28 68.5682C239.653 67.4789 239.28 66.2627 239.175 64.9197V55.6007L239.168 55.6081ZM246.502 54.1607C244.973 54.5188 244.197 55.347 244.174 56.6453V63.4424C244.256 64.9943 245.137 65.8897 246.816 66.121H252.195C253.851 65.7628 254.724 64.6511 254.806 62.7858V57.0258C254.762 55.5112 253.971 54.5636 252.411 54.1607H246.495H246.502Z" fill="white"/>
<path d="M277.093 50.0943C277.742 49.4825 278.369 49.1841 278.981 49.1841H283.04C283.666 49.1841 283.987 49.4975 283.987 50.1317V62.1889C283.987 62.7112 284.33 62.9723 285.024 62.9723C285.718 62.9723 286.061 63.2857 286.061 63.9199V66.4716C286.061 67.0983 285.726 67.4192 285.054 67.4192C284.338 67.4192 283.987 67.6803 283.987 68.2026V69.7172C283.987 70.344 283.674 70.6648 283.04 70.6648H279.921C279.294 70.6648 278.973 70.3514 278.973 69.7172V68.2026C278.973 67.6803 278.712 67.4192 278.19 67.4192H265.752C265.125 67.4192 264.804 67.1058 264.804 66.4716V62.659C264.804 62.0322 265.118 61.413 265.752 60.8011L277.086 50.1018L277.093 50.0943ZM278.981 55.4514C278.981 54.862 278.652 54.8844 278.003 55.5111C275.608 57.6525 273.221 59.8312 270.826 62.0621C270.132 62.6739 270.094 62.9723 270.699 62.9723H278.19C278.712 62.9723 278.973 62.7112 278.973 62.1889V55.4514H278.981Z" fill="white"/>
</g>
<defs>
<clipPath id="clip0_267_138">
<rect width="602" height="76" fill="white"/>
</clipPath>
</defs>
</svg>
