<svg width="744" height="152" viewBox="0 0 744 152" fill="none" xmlns="http://www.w3.org/2000/svg">
<g clip-path="url(#clip0_267_202)">
<g filter="url(#filter0_d_267_202)">
<path d="M28.84 54.7899C28.84 39.8527 38.8977 31.3022 50.8803 31.3022C57.4461 31.3022 62.1392 34.0703 65.2132 37.1443L59.4905 44.0085C57.3193 42.0239 54.9765 40.5167 51.2384 40.5167C44.6129 40.5167 39.8601 45.6948 39.8601 54.4243C39.8601 63.1539 43.837 68.5185 52.1412 68.5185C53.7678 68.5185 55.454 68.1007 56.4165 67.377V60.1471H49.3135V51.3578H65.9966V72.3162C62.863 75.3306 57.3268 77.7927 51.0594 77.7927C38.5918 77.7927 28.84 69.966 28.84 54.7899Z" fill="white"/>
<path d="M74.1741 65.8101V28.84H84.8361V66.2354C84.8361 68.4663 85.918 69.1229 86.7611 69.1229C87.1192 69.1229 87.3654 69.1229 87.9623 69.0035L89.2307 76.89C88.0892 77.3749 86.2836 77.7928 83.9333 77.7928C76.584 77.7928 74.1815 72.9728 74.1815 65.8101H74.1741Z" fill="white"/>
<path d="M141.974 73.2787H141.735L140.892 76.9496H132.52V28.84H143.182V40.4048L142.944 45.5232C145.473 43.2326 148.666 41.8523 151.793 41.8523C159.985 41.8523 165.223 48.7166 165.223 59.1921C165.223 71.0553 158.179 77.8002 150.83 77.8002C147.816 77.8002 144.69 76.293 141.981 73.2862L141.974 73.2787ZM154.203 59.4308C154.203 53.4096 152.457 50.5819 148.659 50.5819C146.674 50.5819 145.048 51.4847 143.182 53.4693V67.0188C144.869 68.526 146.674 69.0035 148.301 69.0035C151.554 69.0035 154.203 66.2951 154.203 59.4308Z" fill="white"/>
<path d="M169.856 67.377C169.856 60.1471 175.519 56.2374 188.882 54.79C188.643 52.0219 187.196 50.3953 183.704 50.3953C180.996 50.3953 178.16 51.4772 174.728 53.4097L170.998 46.3663C175.512 43.6579 180.391 41.8523 185.748 41.8523C194.597 41.8523 199.596 46.7916 199.596 57.5058V76.9571H190.867L190.083 73.525H189.845C187.017 76.0543 183.823 77.8002 180.026 77.8002C173.706 77.8002 169.849 73.1072 169.849 67.3844L169.856 67.377ZM188.882 66.7726V61.2961C182.197 62.1989 180.033 64.1239 180.033 66.5339C180.033 68.5185 181.481 69.4885 183.704 69.4885C185.928 69.4885 187.315 68.4663 188.882 66.7801V66.7726Z" fill="white"/>
<path d="M207.848 65.8101V28.84H218.511V66.2354C218.511 68.4663 219.592 69.1229 220.435 69.1229C220.794 69.1229 221.04 69.1229 221.637 69.0035L222.905 76.89C221.764 77.3749 219.958 77.7928 217.608 77.7928C210.258 77.7928 207.856 72.9728 207.856 65.8101H207.848Z" fill="white"/>
<path d="M242.468 32.1528H271.074V41.0689H253.25V50.8803H268.545V59.8561H253.25V76.9571H242.468V32.1528Z" fill="white"/>
<path d="M273.835 67.377C273.835 60.1471 279.498 56.2374 292.861 54.79C292.622 52.0219 291.175 50.3953 287.683 50.3953C284.975 50.3953 282.139 51.4772 278.707 53.4097L274.977 46.3663C279.491 43.6579 284.37 41.8523 289.727 41.8523C298.576 41.8523 303.575 46.7916 303.575 57.5058V76.9571H294.846L294.062 73.525H293.824C290.996 76.0543 287.802 77.8002 284.005 77.8002C277.685 77.8002 273.828 73.1072 273.828 67.3844L273.835 67.377ZM292.869 66.7726V61.2961C286.183 62.1989 284.02 64.1239 284.02 66.5339C284.02 68.5185 285.467 69.4885 287.691 69.4885C289.914 69.4885 291.302 68.4663 292.869 66.7801V66.7726Z" fill="white"/>
<path d="M308.88 72.9803L313.64 66.2951C316.774 68.705 319.602 69.9063 322.31 69.9063C325.019 69.9063 326.347 68.8841 326.347 67.1979C326.347 65.1535 323.034 64.191 319.542 62.8033C315.446 61.1767 310.634 58.4086 310.634 52.7456C310.634 46.2394 315.931 41.8448 323.877 41.8448C329.294 41.8448 333.151 44.0085 336.158 46.2394L331.338 52.6262C328.928 50.94 326.518 49.7387 324.235 49.7387C321.825 49.7387 320.624 50.5818 320.624 52.2084C320.624 54.2527 323.758 55.0362 327.309 56.3046C331.585 57.9311 336.345 60.4008 336.345 66.601C336.345 72.8012 331.406 77.8002 322.072 77.8002C317.617 77.8002 312.312 75.8752 308.88 72.9803Z" fill="white"/>
<path d="M342.538 64.2507V51.0594H337.904V43.1132L343.142 42.6954L344.343 33.6599H353.259V42.6954H361.325V51.0668H353.259V64.1314C353.259 67.9216 355.065 69.4288 357.594 69.4288C358.676 69.4288 359.885 69.0706 360.728 68.8244L362.414 76.5318C360.609 77.0765 358.139 77.7928 354.647 77.7928C346.037 77.7928 342.545 72.3759 342.545 64.2433L342.538 64.2507Z" fill="white"/>
<path d="M364.697 59.8561C364.697 48.7166 372.643 41.8523 380.955 41.8523C390.834 41.8523 395.646 49.015 395.646 58.4086C395.646 60.2739 395.407 62.1989 395.161 62.9823H375.046C376.008 67.6829 379.261 69.6079 383.596 69.6079C386.066 69.6079 388.357 68.8841 390.826 67.4441L394.378 73.8831C390.826 76.4125 386.126 77.8002 382.097 77.8002C372.278 77.8002 364.697 71.1747 364.697 59.8561ZM386.559 55.9987C386.559 52.5666 385.051 50.0372 381.142 50.0372C378.187 50.0372 375.598 51.9025 374.882 55.9987H386.566H386.559Z" fill="white"/>
<path d="M402.511 42.6879H411.24L411.964 46.9632H412.203C415.03 44.1951 418.522 41.8448 423.163 41.8448C430.632 41.8448 433.818 47.2019 433.818 55.7524V76.9496H423.096V57.0805C423.096 52.3874 421.827 50.9997 419.119 50.9997C416.709 50.9997 415.262 52.0815 413.158 54.0737V76.9571H402.496V42.6954L402.511 42.6879Z" fill="white"/>
<path d="M440.204 59.8561C440.204 48.7166 448.15 41.8523 456.462 41.8523C466.341 41.8523 471.153 49.015 471.153 58.4086C471.153 60.2739 470.915 62.1989 470.668 62.9823H450.553C451.515 67.6829 454.769 69.6079 459.103 69.6079C461.573 69.6079 463.864 68.8841 466.333 67.4441L469.885 73.8831C466.333 76.4125 461.633 77.8002 457.604 77.8002C447.785 77.8002 440.204 71.1747 440.204 59.8561ZM462.066 55.9987C462.066 52.5666 460.558 50.0372 456.649 50.0372C453.694 50.0372 451.105 51.9025 450.389 55.9987H462.073H462.066Z" fill="white"/>
<path d="M478.018 42.6879H486.747L487.471 48.6494H487.71C490.239 44.0682 494.029 41.8448 497.461 41.8448C499.506 41.8448 500.655 42.1433 501.617 42.5686L499.812 51.7831C498.61 51.4846 497.581 51.2384 496.081 51.2384C493.552 51.2384 490.478 52.865 488.672 57.379V76.9496H478.01V42.6879H478.018Z" fill="white"/>
<path d="M520.591 32.1528H549.197V41.0689H531.372V50.8803H546.668V59.8561H531.372V76.9571H520.591V32.1528Z" fill="white"/>
<path d="M596.076 42.6879H604.805L605.529 48.6494H605.768C608.297 44.0682 612.087 41.8448 615.52 41.8448C617.564 41.8448 618.713 42.1433 619.675 42.5686L617.87 51.7831C616.669 51.4846 615.639 51.2384 614.139 51.2384C611.61 51.2384 608.536 52.865 606.73 57.379V76.9496H596.068V42.6879H596.076Z" fill="white"/>
<path d="M623.66 63.8851V42.6879H634.381V62.557C634.381 67.3173 635.642 68.6379 638.358 68.6379C640.768 68.6379 642.275 67.6754 644.081 65.1461V42.6879H654.803V76.9496H646.073L645.29 72.2566H645.051C642.223 75.629 639.03 77.7928 634.329 77.7928C626.861 77.7928 623.667 72.4356 623.667 63.8851H623.66Z" fill="white"/>
<path d="M663.398 42.6879H672.128L672.851 47.0229H673.09C675.918 44.1951 678.872 41.8448 683.506 41.8448C688.139 41.8448 691.153 43.8295 692.899 47.5078C695.847 44.501 699.04 41.8448 703.621 41.8448C711.09 41.8448 714.343 47.2019 714.343 55.7524V76.9496H703.621V57.0805C703.621 52.3874 702.42 50.9997 699.704 50.9997C698.137 50.9997 696.272 51.9622 694.228 54.0737V76.9571H683.446V57.088C683.446 52.3949 682.245 51.0071 679.529 51.0071C677.962 51.0071 676.097 51.9696 674.053 54.0811V76.9645H663.39V42.7028L663.398 42.6879Z" fill="white"/>
<path d="M120.001 44.389L127.82 57.9385C128.417 58.9682 128.417 60.2366 127.82 61.2662L120.001 74.8157C119.404 75.8454 118.307 76.4796 117.113 76.4796H101.467C100.281 76.4796 99.1765 75.8454 98.5796 74.8157L90.7603 61.2662C90.1634 60.2366 90.1634 58.9682 90.7603 57.9385L98.5796 44.389C99.1765 43.3594 100.273 42.7252 101.467 42.7252H117.113C118.299 42.7252 119.404 43.3594 120.001 44.389ZM109.294 53.0813C105.69 53.0813 102.773 55.9986 102.773 59.6024C102.773 63.2061 105.69 66.1234 109.294 66.1234C112.898 66.1234 115.815 63.2061 115.815 59.6024C115.815 55.9986 112.898 53.0813 109.294 53.0813Z" fill="white"/>
<path d="M581.72 44.389L589.54 57.9385C590.137 58.9682 590.137 60.2366 589.54 61.2662L581.72 74.8157C581.124 75.8454 580.027 76.4796 578.833 76.4796H563.187C562.001 76.4796 560.896 75.8454 560.299 74.8157L552.48 61.2662C551.883 60.2366 551.883 58.9682 552.48 57.9385L560.299 44.389C560.896 43.3594 561.993 42.7252 563.187 42.7252H578.833C580.019 42.7252 581.124 43.3594 581.72 44.389ZM571.014 53.0813C567.41 53.0813 564.493 55.9986 564.493 59.6024C564.493 63.2061 567.41 66.1234 571.014 66.1234C574.617 66.1234 577.535 63.2061 577.535 59.6024C577.535 55.9986 574.617 53.0813 571.014 53.0813Z" fill="white"/>
</g>
<g filter="url(#filter1_d_267_202)">
<path d="M238.641 130.998H225.293V139.243H219.264V130.998H201.327V125.373H207.557V116.322C207.072 116.882 206.595 117.449 206.11 117.934C204.983 116.889 202.491 114.957 201.081 114.114C204.58 111.099 207.595 105.988 209.206 100.885L215.198 102.415C214.877 103.34 214.511 104.302 214.108 105.227H236.268V110.853H225.293V114.957H235.306V120.389H225.293V125.373H238.641V130.998ZM211.296 110.853C210.452 112.338 209.527 113.711 208.602 114.957H219.257V110.853H211.296ZM219.257 125.373V120.389H213.429V125.373H219.257Z" fill="white"/>
<path d="M271.216 133.177H285.609V138.363H251.19V133.177H265.023V129.32H255.13V124.291H265.023V120.553H257.182V117.016C255.533 118.061 253.847 119.031 252.235 119.792C251.429 118.344 249.944 116.292 248.654 115.046C252.795 113.517 257.219 110.823 260.8 107.772H256.622V102.385H271.336C274.633 107.212 280.864 112.077 287.981 114.532C286.773 115.778 284.922 118.27 284.079 119.918C282.348 119.113 280.699 118.188 279.095 117.18V120.56H271.216V124.298H281.229V129.327H271.216V133.184V133.177ZM268.157 107.757C265.747 110.495 262.688 113.144 259.472 115.434H276.566C273.35 113.099 270.537 110.406 268.202 107.757H268.165H268.157Z" fill="white"/>
<path d="M335.435 116.449C333.301 119.06 330.928 121.836 328.958 123.724C330.644 126.939 332.935 129.394 336.158 131.565C334.793 132.61 333.263 134.46 332.577 136.027C329.764 133.893 327.63 131.603 325.944 128.909V132.931C325.944 135.624 325.459 137.154 323.892 138.079C322.325 139.042 320.191 139.288 317.259 139.288C317.058 137.721 316.095 135.184 315.289 133.662C317.058 133.744 318.871 133.744 319.475 133.744C320.079 133.744 320.318 133.543 320.318 132.938V128.036C317.781 130.491 315.133 132.864 312.842 134.953L310.753 131.774C306.493 133.14 301.867 134.55 298.129 135.714L296.965 130.163C298.293 129.842 299.822 129.439 301.509 128.954V120.03H297.77V114.681H301.509V108.525H297.606V103.138H310.678V108.525H306.94V114.681H310.119V120.03H306.94V127.432L310.559 126.343L310.962 128.633C313.536 126.902 317.073 124.291 320.333 121.799V112.592H311.365V107.287H320.333V101.094H325.959V107.287H330.421C329.376 106.197 327.966 105.033 326.765 104.153L329.943 101.176C331.592 102.265 333.726 103.914 334.77 105.078L332.517 107.287H335.449V112.592H325.959V114.442C326.28 116.009 326.645 117.501 327.048 118.829C328.294 117.218 329.54 115.412 330.383 113.882L335.449 116.457L335.435 116.449ZM315.894 113.994C317.304 116.083 318.908 118.904 319.512 120.829L314.73 123.037C314.207 121.15 312.76 118.173 311.395 115.957L315.901 113.987L315.894 113.994Z" fill="white"/>
<path d="M360.937 124.007C359.527 124.365 358.079 124.731 356.632 125.097V132.976C356.632 135.751 356.192 137.199 354.58 138.079C353.013 139.004 350.879 139.206 347.947 139.168C347.745 137.639 347.022 135.192 346.261 133.617C347.671 133.699 349.357 133.699 349.879 133.699C350.439 133.699 350.64 133.498 350.64 132.938V126.589L346.499 127.633L345.41 121.963C346.895 121.679 348.708 121.321 350.64 120.918V112.957H345.977V107.57H350.64V101.057H356.632V107.57H360.131V112.957H356.632V119.553L360.25 118.665L360.937 124.015V124.007ZM382.164 104.302V137.721H376.008V134.863H367.644V138.042H361.817V104.302H382.164ZM376.016 129.357V109.816H367.652V129.357H376.016Z" fill="white"/>
<path d="M407.584 102.937C406.54 105.75 405.211 108.689 403.682 111.465V139.213H398.131V119.948C397.571 120.672 396.967 121.358 396.4 121.955C395.877 120.508 394.311 117.247 393.341 115.8C396.795 112.301 400.138 106.75 402.07 101.206L407.577 102.937H407.584ZM432.072 125.895H422.059V139.206H416.149V125.895H405.614V120.187H416.149V114.315H412.046C411.322 116.121 410.561 117.732 409.793 119.06C408.629 118.217 406.092 116.889 404.689 116.285C406.778 113.226 408.472 108.122 409.352 103.377L414.978 104.541C414.695 105.869 414.374 107.235 413.971 108.6H416.142V101.564H422.051V108.6H430.05V114.308H422.051V120.18H432.064V125.887L432.072 125.895Z" fill="white"/>
<path d="M480.368 133.774V138.437H450.851V133.774H462.513V132.491H454.47V130.401C453.828 131.125 453.142 131.812 452.463 132.409C452.18 131.446 451.217 129.193 450.449 127.701C449.926 131.961 448.68 136.505 446.143 139.72C445.256 138.676 442.808 136.624 441.6 135.982C444.86 131.797 445.136 125.805 445.136 121.545V115.069H450.762C450.001 114.308 449.113 113.502 448.471 113.017C451.083 112.651 453.94 112.211 456.753 111.652C454.545 111.167 452.329 110.726 450.277 110.368L452.888 108.481H445.651V103.974H459.163C458.798 103.414 458.402 102.847 458.037 102.362L461.894 100.512C462.737 101.519 463.7 102.803 464.386 103.967H478.622V108.473H472.832L475.041 109.838C473.795 110.398 472.384 110.965 470.9 111.45C472.907 111.972 474.757 112.495 476.331 112.98L473.795 115.069H479.704V119.695H450.792V121.627C450.792 123.075 450.754 124.686 450.59 126.372C452.277 124.686 453.769 122.351 454.649 119.859L459.559 121.344C459.439 121.709 459.32 122.03 459.156 122.388H462.491V120.418H468.243V122.388H477.697V126.895H468.243V128.103H476.369V132.483H468.243V133.766H480.345L480.368 133.774ZM462.513 128.103V126.895H456.962C456.723 127.298 456.44 127.701 456.201 128.103H462.513ZM469.997 115.076C468.266 114.554 466.296 113.987 464.244 113.465C461.834 114.069 459.417 114.591 457.044 115.076H469.989H469.997ZM458.216 108.481C460.267 108.921 462.401 109.368 464.528 109.891C466.139 109.45 467.624 108.966 468.952 108.481H458.216Z" fill="white"/>
<path d="M506.191 133.05C503.497 135.386 498.916 137.557 494.813 138.519C494.052 137.31 492.522 135.386 491.395 134.341C495.335 133.819 499.759 132.61 502.095 131.207L506.198 133.058L506.191 133.05ZM527.746 125.537V130.282H512.384V139.25H506.594V130.282H491.515V125.537H506.594V124.447H495.216V120.306H506.594V119.18H493.246V114.8H499.961C499.64 114.039 499.155 113.114 498.797 112.427L501.572 111.823H491.597V107.279H496.506C495.947 105.869 495.096 104.146 494.335 102.773L499.364 101.087C500.453 102.773 501.699 105.108 502.222 106.638L500.408 107.279H503.303V101.004H508.735V107.279H510.668V101.004H516.174V107.279H518.83L517.621 106.914C518.465 105.302 519.39 102.974 519.875 101.243L526.03 102.653C524.986 104.384 523.978 105.988 523.098 107.279H527.642V111.823H516.905L521.33 112.912C520.606 113.636 519.882 114.278 519.24 114.8H526.038V119.18H512.406V120.306H524.225V124.447H512.406V125.537H527.769H527.746ZM504.699 111.823C505.221 112.666 505.743 113.591 506.027 114.278L503.736 114.8H514.51L512.981 114.36C513.585 113.599 514.309 112.629 514.786 111.823H504.691H504.699ZM517.606 130.924C520.583 132.17 525.127 134.184 527.619 135.505L523.359 138.519C521.188 137.236 516.726 135.02 513.585 133.572L517.606 130.916V130.924Z" fill="white"/>
<path d="M568.081 103.78C567.843 104.22 567.559 104.705 567.276 105.145C569.529 108.04 573.23 110.45 577.408 111.741C576.125 112.95 574.349 115.36 573.468 116.971C572.379 116.531 571.334 115.964 570.372 115.36V117.173H557.307V115.36C556.263 116.083 555.174 116.77 554.129 117.329C553.405 115.8 552.159 113.629 550.995 112.181H538.729V107.637H544.28C543.639 106.153 542.751 104.377 541.99 102.974L546.496 100.84C547.586 102.571 548.787 104.817 549.391 106.347L546.981 107.63H552.368V111.129C556.949 108.876 561.374 104.899 563.627 100.713L568.089 103.773L568.081 103.78ZM551.309 137.117H544.676V138.728H540.05V124.612H551.309V137.117ZM551.152 117.732H540.296V113.39H551.152V117.732ZM540.289 118.941H551.144V123.284H540.289V118.941ZM544.676 129.193V132.491H546.683V129.193H544.676ZM573.991 133.774C573.991 135.826 573.789 137.154 572.707 137.96C571.663 138.765 570.417 138.848 568.887 138.848C568.805 137.803 568.522 136.438 568.163 135.229V137.967H564.343V131.334H563.299V137.967H559.441V131.334H558.434V139.213H553.771V118.665H573.998V133.781L573.991 133.774ZM559.434 126.581V123.366H558.427V126.581H559.434ZM566.507 112.263C565.619 111.375 564.776 110.413 564.015 109.368C563.127 110.376 562.165 111.338 561.157 112.263H566.507ZM564.336 126.581V123.366H563.291V126.581H564.336ZM569.327 123.358H568.163V126.574H569.327V123.358ZM568.156 134.095H568.999C569.238 134.095 569.32 133.975 569.32 133.655V131.319H568.156V134.095Z" fill="white"/>
<path d="M600.09 130.118C596.27 131.767 592.129 133.498 588.667 134.863L586.779 128.872C587.906 128.551 589.271 128.111 590.719 127.663V116.039H587.54V110.532H590.719V101.646H596.15V110.532H598.806V116.039H596.15V125.813L598.963 124.806L600.09 130.11V130.118ZM624.697 134.498V138.721H597.15V134.498H624.697ZM624.458 108.242H598.001V104.101H607.894C607.536 103.541 607.133 103.011 606.768 102.534L611.393 100.325C612.438 101.452 613.483 102.9 614.124 104.108H624.458V108.249V108.242ZM622.727 122.597H599.806V109.048H622.727V122.597ZM601.015 133.699V123.403H621.399V133.699H601.015ZM617.78 112.226H604.47V119.381H617.78V112.226ZM616.855 118.575H605.395V113.069H616.855V118.575ZM606.283 127.186H615.855V126.298H606.283V127.186ZM606.283 130.797H615.855V129.909H606.283V130.797ZM613.035 115.322H609.013V116.33H613.035V115.322Z" fill="white"/>
</g>
<g filter="url(#filter2_d_267_202)">
<path d="M34.3836 104.839C35.3088 104.541 36.4952 104.325 37.9501 104.198H51.8726C54.9765 104.295 57.6177 105.138 59.7964 106.727C61.0872 108.145 61.796 109.846 61.9303 111.831V117.479C61.8631 119.754 60.7589 121.657 58.6101 123.179C55.4391 124.567 51.231 125.246 45.9783 125.208L42.0164 125.455C40.3004 125.552 38.9797 125.865 38.0545 126.395C37.1965 127.223 36.816 128.394 36.913 129.909C36.913 130.737 37.3234 131.148 38.1515 131.148H60.647C61.6393 131.148 62.1318 131.64 62.1318 132.632V136.497C62.1318 137.49 61.6393 137.982 60.647 137.982H30.3248C29.3324 137.982 28.84 137.49 28.84 136.497V130.207C28.8698 127.036 29.7652 124.395 31.5186 122.284C32.4437 121.262 33.7644 120.515 35.4804 120.053C39.7706 119.329 43.74 118.866 47.3736 118.665C48.6942 118.598 50.0148 118.449 51.3354 118.217C53.4469 117.852 54.3721 116.516 54.111 114.203C54.4393 112.219 53.7156 110.965 51.9323 110.435H39.3976C37.1517 110.928 36.2415 112.301 36.6742 114.546C36.6742 115.539 36.1818 116.031 35.1895 116.031H30.3322C29.3399 116.031 28.8475 115.539 28.8475 114.546V111.174C28.9146 108.272 30.765 106.153 34.3986 104.832L34.3836 104.839Z" fill="white"/>
<path d="M118.411 104.839C119.337 104.541 120.523 104.325 121.978 104.198H135.9C139.004 104.295 141.645 105.138 143.824 106.727C145.115 108.145 145.824 109.846 145.958 111.831V117.479C145.891 119.754 144.787 121.657 142.638 123.179C139.467 124.567 135.259 125.246 130.006 125.208L126.044 125.455C124.328 125.552 123.007 125.865 122.082 126.395C121.224 127.223 120.844 128.394 120.941 129.909C120.941 130.737 121.351 131.148 122.179 131.148H144.675C145.667 131.148 146.159 131.64 146.159 132.632V136.497C146.159 137.49 145.667 137.982 144.675 137.982H114.352C113.36 137.982 112.868 137.49 112.868 136.497V130.207C112.898 127.036 113.793 124.395 115.546 122.284C116.471 121.262 117.792 120.515 119.508 120.053C123.798 119.329 127.768 118.866 131.401 118.665C132.722 118.598 134.043 118.449 135.363 118.217C137.475 117.852 138.4 116.516 138.139 114.203C138.467 112.219 137.743 110.965 135.96 110.435H123.425C121.179 110.928 120.269 112.301 120.702 114.546C120.702 115.539 120.21 116.031 119.217 116.031H114.36C113.368 116.031 112.875 115.539 112.875 114.546V111.174C112.942 108.272 114.793 106.153 118.426 104.832L118.411 104.839Z" fill="white"/>
<path d="M188.009 125.261L185.137 120.262C184.115 118.486 182.227 117.397 180.182 117.397H177.661L166.588 117.367C165.066 117.397 164.014 117.695 163.417 118.262C163.156 118.523 162.902 118.508 162.671 118.21C162.574 116.755 162.537 115.352 162.574 114.002C162.373 112.219 163.253 111.099 165.2 110.629H176.594C178.907 110.428 180.048 111.487 180.011 113.8C180.011 114.427 180.503 114.74 181.496 114.74H186.547C187.539 114.74 188.032 114.248 188.032 113.256C188.129 110.286 187.308 107.973 185.555 106.317C184.032 105.13 182.055 104.414 179.608 104.183H164.253C162.335 104.347 160.634 104.728 159.149 105.324C157.859 105.757 156.725 106.847 155.732 108.592C155.135 109.913 154.807 111.234 154.74 112.554V129.648C154.837 131.401 155.27 132.968 156.031 134.356C156.926 135.744 158.142 136.669 159.694 137.131C160.754 137.527 162.074 137.81 163.656 137.975H177.653V137.989H180.175C182.219 137.989 184.107 136.893 185.129 135.124L188.002 130.125C188.867 128.618 188.867 126.76 188.002 125.253L188.009 125.261ZM179.981 128.984L178.75 131.118C178.302 131.894 177.482 132.364 176.586 132.364H166.021C165.126 132.364 164.305 131.886 163.857 131.118L162.626 128.984C162.179 128.208 162.179 127.26 162.626 126.484L163.857 124.35C164.305 123.574 165.126 123.104 166.021 123.104H176.586C177.482 123.104 178.302 123.582 178.75 124.35L179.981 126.484C180.429 127.26 180.429 128.208 179.981 128.984Z" fill="white"/>
<path d="M105.847 119.381L97.923 105.653C97.2814 104.548 96.1025 103.862 94.8266 103.862H78.9791C77.7032 103.862 76.5169 104.541 75.8827 105.653L67.9589 119.381C67.3173 120.486 67.3173 121.851 67.9589 122.963L75.8827 136.691C76.5244 137.795 77.7032 138.482 78.9791 138.482H94.8266C96.1025 138.482 97.2888 137.803 97.923 136.691L105.847 122.963C106.488 121.858 106.488 120.493 105.847 119.381ZM94.6028 121.172C94.6028 125.425 91.1557 128.872 86.9029 128.872C82.65 128.872 79.2029 125.425 79.2029 121.172C79.2029 116.919 82.65 113.472 86.9029 113.472C91.1557 113.472 94.6028 116.919 94.6028 121.172Z" fill="white"/>
</g>
</g>
<defs>
<filter id="filter0_d_267_202" x="2.67029e-05" y="-3.8147e-06" width="743.183" height="106.64" filterUnits="userSpaceOnUse" color-interpolation-filters="sRGB">
<feFlood flood-opacity="0" result="BackgroundImageFix"/>
<feColorMatrix in="SourceAlpha" type="matrix" values="0 0 0 0 0 0 0 0 0 0 0 0 0 0 0 0 0 0 127 0" result="hardAlpha"/>
<feOffset/>
<feGaussianBlur stdDeviation="14.42"/>
<feColorMatrix type="matrix" values="0 0 0 0 0.356863 0 0 0 0 0.956863 0 0 0 0 0.941176 0 0 0 0.5 0"/>
<feBlend mode="normal" in2="BackgroundImageFix" result="effect1_dropShadow_267_202"/>
<feBlend mode="normal" in="SourceGraphic" in2="effect1_dropShadow_267_202" result="shape"/>
</filter>
<filter id="filter1_d_267_202" x="188.921" y="88.165" width="447.936" height="63.715" filterUnits="userSpaceOnUse" color-interpolation-filters="sRGB">
<feFlood flood-opacity="0" result="BackgroundImageFix"/>
<feColorMatrix in="SourceAlpha" type="matrix" values="0 0 0 0 0 0 0 0 0 0 0 0 0 0 0 0 0 0 127 0" result="hardAlpha"/>
<feOffset/>
<feGaussianBlur stdDeviation="6.08"/>
<feColorMatrix type="matrix" values="0 0 0 0 0.270588 0 0 0 0 1 0 0 0 0 1 0 0 0 0.5 0"/>
<feBlend mode="normal" in2="BackgroundImageFix" result="effect1_dropShadow_267_202"/>
<feBlend mode="normal" in="SourceGraphic" in2="effect1_dropShadow_267_202" result="shape"/>
</filter>
<filter id="filter2_d_267_202" x="16.68" y="91.702" width="184.131" height="58.94" filterUnits="userSpaceOnUse" color-interpolation-filters="sRGB">
<feFlood flood-opacity="0" result="BackgroundImageFix"/>
<feColorMatrix in="SourceAlpha" type="matrix" values="0 0 0 0 0 0 0 0 0 0 0 0 0 0 0 0 0 0 127 0" result="hardAlpha"/>
<feOffset/>
<feGaussianBlur stdDeviation="6.08"/>
<feColorMatrix type="matrix" values="0 0 0 0 0.270588 0 0 0 0 1 0 0 0 0 1 0 0 0 0.5 0"/>
<feBlend mode="normal" in2="BackgroundImageFix" result="effect1_dropShadow_267_202"/>
<feBlend mode="normal" in="SourceGraphic" in2="effect1_dropShadow_267_202" result="shape"/>
</filter>
<clipPath id="clip0_267_202">
<rect width="744" height="152" fill="white"/>
</clipPath>
</defs>
</svg>
