<svg width="319" height="79" viewBox="0 0 319 79" fill="none" xmlns="http://www.w3.org/2000/svg">
<g clip-path="url(#clip0_267_339)">
<path d="M5.796 28.44H25.632V32.616H5.796V28.44ZM3.852 18.072H27.936V34.02H23.292V22.212H8.28V34.056H3.852V18.072ZM10.908 0L15.84 1.62C15.048 3.084 14.196 4.584 13.284 6.12C12.396 7.632 11.496 9.072 10.584 10.44C9.672 11.784 8.808 12.984 7.992 14.04L4.104 12.456C4.92 11.352 5.748 10.092 6.588 8.676C7.428 7.236 8.22 5.76 8.964 4.248C9.732 2.736 10.38 1.32 10.908 0ZM19.548 6.408L22.968 3.888C24.168 4.848 25.392 5.928 26.64 7.128C27.912 8.304 29.076 9.504 30.132 10.728C31.212 11.928 32.064 13.044 32.688 14.076L28.944 16.956C28.368 15.924 27.564 14.796 26.532 13.572C25.524 12.324 24.408 11.076 23.184 9.828C21.96 8.58 20.748 7.44 19.548 6.408ZM0 10.476C1.824 10.428 3.852 10.368 6.084 10.296C8.34 10.2 10.704 10.104 13.176 10.008C15.672 9.912 18.204 9.816 20.772 9.72C23.34 9.624 25.86 9.528 28.332 9.432L28.152 13.608C25.656 13.752 23.136 13.884 20.592 14.004C18.048 14.1 15.552 14.208 13.104 14.328C10.68 14.424 8.376 14.52 6.192 14.616C4.008 14.688 2.028 14.76 0.252 14.832L0 10.476ZM52.2 0.900001H58.5V2.916H52.2V0.900001ZM51.948 7.02H58.824V9H51.948V7.02ZM51.948 9.828H58.824V11.808H51.948V9.828ZM46.908 26.28H64.728V28.908H46.908V26.28ZM50.904 3.852H59.544V6.084H50.904V3.852ZM54.432 14.688V16.272H56.232V14.688H54.432ZM51.912 12.78H58.824V18.18H51.912V12.78ZM47.376 22.716H61.632V21.564H45.072V19.116H65.628V25.128H47.376V22.716ZM45.9 10.476H48.636V18.54H45.9V10.476ZM42.336 9.144C43.416 9.096 44.64 9.048 46.008 9C47.4 8.952 48.864 8.892 50.4 8.82L50.364 11.196C48.972 11.316 47.616 11.424 46.296 11.52C45 11.592 43.776 11.676 42.624 11.772L42.336 9.144ZM46.152 22.716H50.112C49.848 23.94 49.548 25.212 49.212 26.532C48.876 27.852 48.552 29.004 48.24 29.988L44.388 29.448C44.724 28.512 45.048 27.432 45.36 26.208C45.672 24.984 45.936 23.82 46.152 22.716ZM63.324 26.28H67.356C67.356 26.28 67.344 26.472 67.32 26.856C67.296 27.24 67.236 27.552 67.14 27.792C66.852 29.256 66.54 30.408 66.204 31.248C65.868 32.088 65.448 32.712 64.944 33.12C64.488 33.456 63.996 33.684 63.468 33.804C62.94 33.924 62.316 34.008 61.596 34.056C61.02 34.08 60.216 34.08 59.184 34.056C58.152 34.032 57.072 34.008 55.944 33.984C55.92 33.504 55.8 32.964 55.584 32.364C55.392 31.788 55.14 31.272 54.828 30.816C55.908 30.912 56.964 30.972 57.996 30.996C59.052 31.044 59.808 31.068 60.264 31.068C60.624 31.068 60.924 31.044 61.164 30.996C61.404 30.972 61.62 30.9 61.812 30.78C62.1 30.564 62.364 30.132 62.604 29.484C62.868 28.836 63.096 27.912 63.288 26.712L63.324 26.28ZM48.78 12.996L50.832 12.492C51.024 13.092 51.204 13.752 51.372 14.472C51.564 15.192 51.708 15.804 51.804 16.308L49.644 16.92C49.572 16.392 49.452 15.768 49.284 15.048C49.14 14.304 48.972 13.62 48.78 12.996ZM48.78 7.956L50.616 7.272C50.928 7.92 51.192 8.64 51.408 9.432C51.648 10.2 51.816 10.872 51.912 11.448L49.896 12.204C49.848 11.628 49.716 10.944 49.5 10.152C49.308 9.36 49.068 8.628 48.78 7.956ZM42.696 5.22L44.1 3.132C44.796 3.588 45.492 4.116 46.188 4.716C46.884 5.292 47.424 5.808 47.808 6.264L46.296 8.676C45.912 8.172 45.384 7.596 44.712 6.948C44.04 6.3 43.368 5.724 42.696 5.22ZM46.26 0.108001L48.708 1.368C48.204 2.16 47.7 2.964 47.196 3.78C46.692 4.596 46.224 5.28 45.792 5.832L43.884 4.788C44.292 4.164 44.724 3.408 45.18 2.52C45.636 1.608 45.996 0.804 46.26 0.108001ZM48.708 3.204L51.084 4.608C50.244 5.688 49.332 6.816 48.348 7.992C47.388 9.168 46.5 10.152 45.684 10.944L43.92 9.792C44.448 9.216 45.012 8.544 45.612 7.776C46.212 7.008 46.788 6.228 47.34 5.436C47.892 4.62 48.348 3.876 48.708 3.204ZM43.56 12.348L46.08 12.924C45.864 13.836 45.588 14.772 45.252 15.732C44.916 16.668 44.556 17.472 44.172 18.144C43.908 17.976 43.536 17.784 43.056 17.568C42.6 17.328 42.216 17.136 41.904 16.992C42.312 16.368 42.648 15.648 42.912 14.832C43.176 13.992 43.392 13.164 43.56 12.348ZM62.46 10.476H65.196V18.54H62.46V10.476ZM59.076 9.144C60.18 9.12 61.44 9.084 62.856 9.036C64.272 8.988 65.772 8.94 67.356 8.892L67.32 11.304C65.88 11.4 64.476 11.484 63.108 11.556C61.764 11.628 60.504 11.7 59.328 11.772L59.076 9.144ZM65.304 12.996L67.464 12.348C67.776 13.068 68.088 13.86 68.4 14.724C68.712 15.564 68.94 16.296 69.084 16.92L66.816 17.676C66.696 17.052 66.492 16.308 66.204 15.444C65.94 14.556 65.64 13.74 65.304 12.996ZM65.232 7.812L67.284 6.948C67.644 7.596 67.98 8.328 68.292 9.144C68.628 9.96 68.856 10.656 68.976 11.232L66.78 12.204C66.684 11.604 66.492 10.896 66.204 10.08C65.916 9.24 65.592 8.484 65.232 7.812ZM58.968 5.22L60.444 3.204C61.092 3.636 61.716 4.14 62.316 4.716C62.94 5.268 63.42 5.772 63.756 6.228L62.1 8.496C61.788 8.016 61.332 7.464 60.732 6.84C60.156 6.216 59.568 5.676 58.968 5.22ZM62.64 0.216001L65.088 1.44C64.56 2.256 64.032 3.072 63.504 3.888C62.976 4.68 62.484 5.364 62.028 5.94L60.12 4.896C60.528 4.272 60.972 3.504 61.452 2.592C61.956 1.68 62.352 0.888001 62.64 0.216001ZM65.268 3.06L67.68 4.464C66.768 5.544 65.808 6.672 64.8 7.848C63.816 9.024 62.88 10.008 61.992 10.8L60.264 9.648C60.84 9.072 61.428 8.4 62.028 7.632C62.652 6.864 63.252 6.084 63.828 5.292C64.404 4.476 64.884 3.732 65.268 3.06ZM60.084 12.348L62.604 12.96C62.388 13.848 62.112 14.76 61.776 15.696C61.464 16.632 61.128 17.424 60.768 18.072C60.528 17.904 60.18 17.7 59.724 17.46C59.268 17.196 58.884 16.992 58.572 16.848C58.932 16.224 59.232 15.516 59.472 14.724C59.712 13.908 59.916 13.116 60.084 12.348ZM35.46 3.636L37.908 0.720001C38.532 1.032 39.18 1.404 39.852 1.836C40.524 2.244 41.148 2.676 41.724 3.132C42.324 3.564 42.804 3.972 43.164 4.356L40.572 7.596C40.236 7.188 39.78 6.756 39.204 6.3C38.628 5.82 38.004 5.352 37.332 4.896C36.684 4.416 36.06 3.996 35.46 3.636ZM34.704 13.176L37.08 10.188C37.704 10.476 38.352 10.824 39.024 11.232C39.696 11.616 40.332 12.012 40.932 12.42C41.556 12.828 42.06 13.212 42.444 13.572L39.924 16.884C39.588 16.5 39.12 16.092 38.52 15.66C37.92 15.204 37.284 14.76 36.612 14.328C35.964 13.872 35.328 13.488 34.704 13.176ZM35.496 31.5C35.952 30.54 36.444 29.436 36.972 28.188C37.5 26.916 38.028 25.572 38.556 24.156C39.108 22.716 39.6 21.288 40.032 19.872L43.452 22.104C43.068 23.376 42.648 24.684 42.192 26.028C41.736 27.348 41.268 28.656 40.788 29.952C40.332 31.248 39.864 32.484 39.384 33.66L35.496 31.5ZM85.392 3.24H102.996V32.724H98.46V7.308H89.712V33.012H85.392V3.24ZM87.912 25.884H100.836V29.952H87.912V25.884ZM70.74 19.332C71.868 19.092 73.14 18.804 74.556 18.468C75.996 18.108 77.508 17.736 79.092 17.352C80.676 16.944 82.248 16.536 83.808 16.128L84.312 20.088C82.152 20.712 79.944 21.324 77.688 21.924C75.456 22.5 73.428 23.028 71.604 23.508L70.74 19.332ZM71.208 6.372H83.736V10.368H71.208V6.372ZM75.744 0.252001H80.172V29.304C80.172 30.384 80.052 31.224 79.812 31.824C79.596 32.424 79.164 32.892 78.516 33.228C77.892 33.564 77.124 33.78 76.212 33.876C75.324 33.996 74.244 34.044 72.972 34.02C72.9 33.444 72.732 32.76 72.468 31.968C72.228 31.176 71.976 30.492 71.712 29.916C72.384 29.94 73.044 29.964 73.692 29.988C74.364 29.988 74.82 29.988 75.06 29.988C75.324 29.988 75.504 29.94 75.6 29.844C75.696 29.724 75.744 29.544 75.744 29.304V0.252001ZM127.008 0.720001H131.4V34.056H127.008V0.720001ZM120.888 2.268L125.064 3.096C124.728 4.728 124.32 6.348 123.84 7.956C123.36 9.564 122.82 11.076 122.22 12.492C121.644 13.884 121.032 15.108 120.384 16.164C120.12 15.948 119.748 15.708 119.268 15.444C118.812 15.18 118.344 14.928 117.864 14.688C117.408 14.424 117 14.232 116.64 14.112C117.288 13.152 117.888 12.036 118.44 10.764C118.992 9.468 119.472 8.1 119.88 6.66C120.288 5.196 120.624 3.732 120.888 2.268ZM122.292 7.236H138.96V11.484H121.212L122.292 7.236ZM117.252 17.712H140.652V21.924H117.252V17.712ZM114.588 0.396001L118.692 1.692C117.924 3.708 117.024 5.748 115.992 7.812C114.96 9.852 113.832 11.784 112.608 13.608C111.408 15.432 110.16 17.04 108.864 18.432C108.72 18.072 108.516 17.616 108.252 17.064C107.988 16.488 107.7 15.912 107.388 15.336C107.076 14.76 106.788 14.292 106.524 13.932C107.604 12.828 108.636 11.556 109.62 10.116C110.628 8.676 111.552 7.128 112.392 5.472C113.256 3.816 113.988 2.124 114.588 0.396001ZM111.024 10.368L115.128 6.264V6.3V34.02H111.024V10.368ZM147.996 11.988H176.364V15.444H147.996V11.988ZM145.584 2.7H174.636V6.084H145.584V2.7ZM154.368 18.216H174.276V21.6H154.368V18.216ZM153.72 23.904H173.232V27.18H153.72V23.904ZM150.66 29.916H176.076V33.408H150.66V29.916ZM157.608 0.288H161.964V5.364H157.608V0.288ZM161.28 15.876H165.528V31.212H161.28V15.876ZM145.836 11.988H150.048V18.036C150.048 19.212 149.988 20.52 149.868 21.96C149.772 23.4 149.58 24.876 149.292 26.388C149.004 27.876 148.596 29.316 148.068 30.708C147.54 32.1 146.856 33.372 146.016 34.524C145.8 34.26 145.476 33.948 145.044 33.588C144.612 33.228 144.168 32.88 143.712 32.544C143.28 32.208 142.92 31.956 142.632 31.788C143.616 30.444 144.324 28.956 144.756 27.324C145.212 25.692 145.5 24.06 145.62 22.428C145.764 20.796 145.836 19.32 145.836 18V11.988ZM154.26 15.444L158.076 16.344C157.524 17.88 156.816 19.368 155.952 20.808C155.088 22.224 154.164 23.4 153.18 24.336C152.94 24.12 152.628 23.868 152.244 23.58C151.86 23.292 151.464 23.016 151.056 22.752C150.648 22.464 150.3 22.248 150.012 22.104C150.948 21.288 151.788 20.292 152.532 19.116C153.276 17.94 153.852 16.716 154.26 15.444ZM150.552 7.488L153.216 5.472C154.68 5.784 156.192 6.144 157.752 6.552C159.336 6.96 160.908 7.392 162.468 7.848C164.052 8.28 165.552 8.724 166.968 9.18C168.408 9.636 169.68 10.056 170.784 10.44L168.156 12.636C167.1 12.228 165.864 11.796 164.448 11.34C163.056 10.86 161.568 10.392 159.984 9.936C158.424 9.48 156.828 9.048 155.196 8.64C153.588 8.208 152.04 7.824 150.552 7.488ZM166.68 4.968L169.56 6.516C168.408 7.26 167.076 7.956 165.564 8.604C164.076 9.252 162.492 9.84 160.812 10.368C159.156 10.872 157.464 11.328 155.736 11.736C154.008 12.12 152.34 12.456 150.732 12.744C150.588 12.384 150.348 11.94 150.012 11.412C149.7 10.884 149.436 10.452 149.22 10.116C150.756 9.9 152.352 9.624 154.008 9.288C155.688 8.952 157.32 8.556 158.904 8.1C160.488 7.644 161.952 7.164 163.296 6.66C164.664 6.132 165.792 5.568 166.68 4.968ZM179.892 22.284H212.004V25.848H179.892V22.284ZM180 6.156H211.896V9.684H180V6.156ZM181.476 12.6H210.492V15.984H181.476V12.6ZM183.24 17.568H208.836V20.7H183.24V17.568ZM193.68 14.292H197.964V34.092H193.68V14.292ZM190.548 0.216001H194.58V7.848H190.548V0.216001ZM197.244 0.216001H201.312V7.596H197.244V0.216001ZM192.888 23.868L196.308 25.416C195.18 26.664 193.812 27.828 192.204 28.908C190.62 29.964 188.916 30.888 187.092 31.68C185.268 32.496 183.432 33.156 181.584 33.66C181.392 33.3 181.128 32.892 180.792 32.436C180.48 32.004 180.144 31.572 179.784 31.14C179.448 30.708 179.124 30.348 178.812 30.06C180.612 29.676 182.4 29.184 184.176 28.584C185.976 27.984 187.632 27.276 189.144 26.46C190.656 25.644 191.904 24.78 192.888 23.868ZM198.828 23.76C199.572 24.48 200.46 25.164 201.492 25.812C202.524 26.436 203.652 27.012 204.876 27.54C206.124 28.044 207.432 28.488 208.8 28.872C210.192 29.256 211.596 29.556 213.012 29.772C212.676 30.108 212.316 30.492 211.932 30.924C211.572 31.38 211.224 31.848 210.888 32.328C210.576 32.832 210.312 33.288 210.096 33.696C208.656 33.336 207.24 32.868 205.848 32.292C204.48 31.74 203.172 31.104 201.924 30.384C200.676 29.664 199.5 28.86 198.396 27.972C197.292 27.084 196.32 26.136 195.48 25.128L198.828 23.76ZM205.524 0.539999L210.024 1.62C209.472 2.604 208.908 3.564 208.332 4.5C207.756 5.412 207.228 6.192 206.748 6.84L203.22 5.76C203.508 5.28 203.796 4.74 204.084 4.14C204.372 3.516 204.636 2.892 204.876 2.268C205.14 1.62 205.356 1.044 205.524 0.539999ZM200.772 8.244L205.344 9.324C204.84 10.164 204.36 10.98 203.904 11.772C203.448 12.54 203.04 13.2 202.68 13.752L199.008 12.744C199.32 12.072 199.644 11.328 199.98 10.512C200.316 9.672 200.58 8.916 200.772 8.244ZM182.556 1.692L186.264 0.432001C186.792 1.176 187.32 2.04 187.848 3.024C188.376 3.984 188.76 4.812 189 5.508L185.112 6.948C184.92 6.228 184.572 5.376 184.068 4.392C183.564 3.408 183.06 2.508 182.556 1.692ZM187.128 9.756L191.34 9.072C191.652 9.576 191.952 10.152 192.24 10.8C192.552 11.424 192.78 11.976 192.924 12.456L188.532 13.212C188.412 12.756 188.22 12.192 187.956 11.52C187.692 10.848 187.416 10.26 187.128 9.756ZM3.024 50.12H14.076V74.348H3.024V70.568H10.188V53.864H3.024V50.12ZM0.504 50.12H4.428V77.012H0.504V50.12ZM2.88 59.732H12.06V63.476H2.88V59.732ZM5.652 44.252L10.332 44.936C9.948 46.16 9.528 47.372 9.072 48.572C8.64 49.772 8.244 50.792 7.884 51.632L4.428 50.84C4.596 50.216 4.752 49.52 4.896 48.752C5.064 47.984 5.22 47.204 5.364 46.412C5.508 45.62 5.604 44.9 5.652 44.252ZM18.828 49.832H29.376V53.792H18.828V49.832ZM27.864 49.832H31.86C31.86 49.832 31.86 49.964 31.86 50.228C31.86 50.468 31.86 50.744 31.86 51.056C31.86 51.368 31.848 51.608 31.824 51.776C31.728 55.832 31.608 59.276 31.464 62.108C31.344 64.916 31.188 67.244 30.996 69.092C30.828 70.916 30.624 72.344 30.384 73.376C30.144 74.408 29.832 75.164 29.448 75.644C28.968 76.34 28.452 76.82 27.9 77.084C27.348 77.348 26.712 77.54 25.992 77.66C25.296 77.756 24.432 77.792 23.4 77.768C22.392 77.768 21.36 77.756 20.304 77.732C20.28 77.132 20.136 76.424 19.872 75.608C19.608 74.816 19.284 74.12 18.9 73.52C20.052 73.616 21.12 73.676 22.104 73.7C23.112 73.724 23.844 73.736 24.3 73.736C24.66 73.736 24.948 73.7 25.164 73.628C25.404 73.532 25.632 73.364 25.848 73.124C26.16 72.812 26.412 72.176 26.604 71.216C26.82 70.232 27 68.852 27.144 67.076C27.288 65.3 27.42 63.056 27.54 60.344C27.66 57.632 27.768 54.404 27.864 50.66V49.832ZM18.936 44.288L23.112 45.26C22.656 47.012 22.092 48.764 21.42 50.516C20.772 52.268 20.052 53.924 19.26 55.484C18.492 57.02 17.7 58.364 16.884 59.516C16.644 59.276 16.296 59 15.84 58.688C15.408 58.352 14.964 58.028 14.508 57.716C14.076 57.404 13.692 57.164 13.356 56.996C14.148 55.964 14.892 54.776 15.588 53.432C16.308 52.064 16.944 50.6 17.496 49.04C18.072 47.456 18.552 45.872 18.936 44.288ZM17.172 60.236L20.556 58.328C21.156 59.144 21.792 60.044 22.464 61.028C23.136 62.012 23.772 62.972 24.372 63.908C24.972 64.844 25.464 65.672 25.848 66.392L22.176 68.624C21.84 67.88 21.384 67.028 20.808 66.068C20.256 65.108 19.656 64.124 19.008 63.116C18.384 62.084 17.772 61.124 17.172 60.236ZM35.748 46.916H68.04V51.272H35.748V46.916ZM48.816 50.804H53.46V77.984H48.816V50.804ZM51.264 59.552L54.216 56.096C55.2 56.576 56.256 57.128 57.384 57.752C58.536 58.352 59.676 58.988 60.804 59.66C61.932 60.332 63 60.992 64.008 61.64C65.016 62.264 65.856 62.864 66.528 63.44L63.324 67.4C62.7 66.824 61.908 66.2 60.948 65.528C60.012 64.832 58.98 64.136 57.852 63.44C56.748 62.744 55.632 62.06 54.504 61.388C53.376 60.692 52.296 60.08 51.264 59.552ZM71.244 58.472H104.58V63.188H71.244V58.472ZM118.08 46.124H139.716V77.732H135.612V49.868H122.04V78.056H118.08V46.124ZM122.976 54.26H134.82V57.392H122.976V54.26ZM120.132 72.188H137.592V75.932H120.132V72.188ZM127.08 50.588H130.428V62.18H127.08V50.588ZM127.008 63.512V67.292H130.644V63.512H127.008ZM123.876 60.524H133.92V70.244H123.876V60.524ZM113.652 44.36L117.576 45.584C116.904 47.648 116.076 49.736 115.092 51.848C114.132 53.936 113.076 55.916 111.924 57.788C110.772 59.636 109.56 61.28 108.288 62.72C108.192 62.36 108.024 61.88 107.784 61.28C107.544 60.68 107.28 60.08 106.992 59.48C106.704 58.88 106.452 58.388 106.236 58.004C107.244 56.9 108.204 55.616 109.116 54.152C110.052 52.688 110.904 51.128 111.672 49.472C112.44 47.792 113.1 46.088 113.652 44.36ZM110.7 54.26L114.768 50.192L114.804 50.228V78.128H110.7V54.26ZM143.64 57.248H176.436V61.748H143.64V57.248ZM157.572 44.288H162.288V78.092H157.572V44.288ZM186.804 44.108L191.232 45.26C190.584 47.036 189.816 48.776 188.928 50.48C188.064 52.184 187.116 53.768 186.084 55.232C185.076 56.672 184.032 57.932 182.952 59.012C182.664 58.772 182.292 58.472 181.836 58.112C181.38 57.728 180.912 57.368 180.432 57.032C179.976 56.696 179.568 56.42 179.208 56.204C180.312 55.268 181.344 54.164 182.304 52.892C183.264 51.596 184.128 50.204 184.896 48.716C185.664 47.204 186.3 45.668 186.804 44.108ZM187.596 48.212H210.492V52.388H185.508L187.596 48.212ZM185.04 56.744H209.628V60.776H189.36V68.336H185.04V56.744ZM179.316 66.212H212.436V70.352H179.316V66.212ZM195.624 50.372H200.088V78.092H195.624V50.372ZM221.544 44.324H225.432V48.68H221.544V44.324ZM215.892 46.736H230.976V49.976H215.892V46.736ZM215.208 52.856H231.264V56.204H215.208V52.856ZM231.984 52.856H248.58V56.204H231.984V52.856ZM237.78 44.324H241.848V48.68H237.78V44.324ZM232.344 46.736H248.112V49.976H232.344V46.736ZM220.464 60.74V63.764H226.26V60.74H220.464ZM216.72 57.572H230.184V67.004H216.72V57.572ZM236.988 60.74V63.8H242.928V60.74H236.988ZM233.1 57.572H247.068V67.04H233.1V57.572ZM224.1 66.392H227.88V73.196L224.1 74.636V66.392ZM223.092 73.232C224.1 72.944 225.3 72.56 226.692 72.08C228.108 71.6 229.548 71.096 231.012 70.568L231.732 74.096C230.46 74.6 229.176 75.104 227.88 75.608C226.584 76.112 225.336 76.592 224.136 77.048L223.092 73.232ZM217.764 50.012L221.04 49.436C221.28 49.94 221.484 50.516 221.652 51.164C221.844 51.788 221.976 52.328 222.048 52.784L218.628 53.504C218.58 53.024 218.472 52.46 218.304 51.812C218.16 51.14 217.98 50.54 217.764 50.012ZM225.72 49.292L229.356 50.048C229.068 50.72 228.816 51.344 228.6 51.92C228.384 52.496 228.18 53.012 227.988 53.468L224.64 52.784C224.808 52.256 225 51.668 225.216 51.02C225.456 50.372 225.624 49.796 225.72 49.292ZM234.144 49.976L237.492 49.22C237.756 49.772 237.984 50.384 238.176 51.056C238.392 51.704 238.536 52.28 238.608 52.784L235.08 53.648C235.056 53.144 234.948 52.556 234.756 51.884C234.564 51.188 234.36 50.552 234.144 49.976ZM242.46 49.148L246.312 49.94C245.976 50.66 245.664 51.32 245.376 51.92C245.088 52.52 244.824 53.048 244.584 53.504L241.272 52.748C241.488 52.22 241.704 51.62 241.92 50.948C242.136 50.276 242.316 49.676 242.46 49.148ZM234.684 66.608H238.428C238.332 68.48 238.092 70.148 237.708 71.612C237.324 73.052 236.64 74.3 235.656 75.356C234.672 76.436 233.22 77.336 231.3 78.056C231.084 77.576 230.748 77.012 230.292 76.364C229.86 75.716 229.44 75.2 229.032 74.816C230.616 74.336 231.792 73.724 232.56 72.98C233.328 72.236 233.856 71.336 234.144 70.28C234.432 69.224 234.612 68 234.684 66.608ZM218.7 66.464H222.336C222.24 68.144 222.024 69.716 221.688 71.18C221.376 72.62 220.848 73.928 220.104 75.104C219.36 76.28 218.268 77.276 216.828 78.092C216.684 77.78 216.468 77.42 216.18 77.012C215.892 76.604 215.592 76.208 215.28 75.824C214.968 75.44 214.68 75.14 214.416 74.924C215.568 74.348 216.432 73.64 217.008 72.8C217.608 71.936 218.016 70.976 218.232 69.92C218.472 68.864 218.628 67.712 218.7 66.464ZM240.012 66.572H243.828V73.052C243.828 73.148 243.828 73.244 243.828 73.34C243.852 73.412 243.888 73.472 243.936 73.52C244.056 73.664 244.236 73.736 244.476 73.736C244.572 73.736 244.68 73.736 244.8 73.736C244.944 73.736 245.064 73.736 245.16 73.736C245.424 73.736 245.616 73.676 245.736 73.556C245.808 73.508 245.868 73.436 245.916 73.34C245.964 73.22 246 73.088 246.024 72.944C246.072 72.656 246.108 72.224 246.132 71.648C246.18 71.072 246.192 70.412 246.168 69.668C246.504 70.004 246.984 70.352 247.608 70.712C248.256 71.072 248.832 71.324 249.336 71.468C249.312 72.308 249.252 73.112 249.156 73.88C249.06 74.648 248.952 75.212 248.832 75.572C248.568 76.316 248.136 76.868 247.536 77.228C247.296 77.396 246.984 77.516 246.6 77.588C246.24 77.684 245.868 77.732 245.484 77.732C245.196 77.732 244.836 77.732 244.404 77.732C243.972 77.732 243.624 77.732 243.36 77.732C242.88 77.732 242.412 77.66 241.956 77.516C241.5 77.396 241.116 77.18 240.804 76.868C240.492 76.532 240.276 76.148 240.156 75.716C240.06 75.284 240.012 74.54 240.012 73.484V66.572ZM265.392 55.664H269.784V73.304C269.784 74.456 269.628 75.344 269.316 75.968C269.028 76.616 268.464 77.096 267.624 77.408C266.832 77.744 265.848 77.948 264.672 78.02C263.496 78.092 262.104 78.128 260.496 78.128C260.376 77.528 260.16 76.808 259.848 75.968C259.536 75.152 259.212 74.468 258.876 73.916C259.644 73.94 260.4 73.964 261.144 73.988C261.912 74.012 262.584 74.024 263.16 74.024C263.76 74 264.18 73.988 264.42 73.988C264.78 73.964 265.032 73.904 265.176 73.808C265.32 73.712 265.392 73.52 265.392 73.232V55.664ZM256.536 54.224H280.512V71.828H276.156V57.824H256.536V54.224ZM251.208 60.236H284.544V63.944H251.208V60.236ZM255.672 66.572H278.532V70.172H255.672V66.572ZM277.668 44.324L281.016 47.672C279.36 48.032 277.572 48.344 275.652 48.608C273.756 48.872 271.788 49.112 269.748 49.328C267.708 49.544 265.68 49.736 263.664 49.904C261.648 50.048 259.68 50.168 257.76 50.264C257.688 49.76 257.544 49.16 257.328 48.464C257.112 47.768 256.896 47.192 256.68 46.736C258.528 46.64 260.412 46.52 262.332 46.376C264.276 46.208 266.172 46.016 268.02 45.8C269.892 45.584 271.644 45.356 273.276 45.116C274.932 44.876 276.396 44.612 277.668 44.324ZM256.068 45.728L260.46 46.736C260.052 48.056 259.548 49.352 258.948 50.624C258.372 51.896 257.748 53.096 257.076 54.224C256.404 55.328 255.72 56.3 255.024 57.14C254.736 56.9 254.364 56.624 253.908 56.312C253.452 55.976 252.972 55.664 252.468 55.376C251.988 55.064 251.568 54.824 251.208 54.656C252.264 53.576 253.224 52.232 254.088 50.624C254.952 49.016 255.612 47.384 256.068 45.728ZM264.636 50.3L268.488 49.328C268.848 50 269.184 50.732 269.496 51.524C269.808 52.292 270.012 52.964 270.108 53.54L266.04 54.62C265.944 54.044 265.764 53.348 265.5 52.532C265.236 51.716 264.948 50.972 264.636 50.3ZM274.932 49.688L278.46 47.888C279.132 48.512 279.804 49.22 280.476 50.012C281.172 50.804 281.808 51.596 282.384 52.388C282.984 53.156 283.452 53.852 283.788 54.476L280.008 56.492C279.696 55.868 279.264 55.16 278.712 54.368C278.16 53.576 277.548 52.772 276.876 51.956C276.228 51.14 275.58 50.384 274.932 49.688ZM288.576 51.776H316.188V56.204H288.576V51.776ZM314.388 51.776H318.888C318.888 51.776 318.888 51.908 318.888 52.172C318.888 52.436 318.876 52.736 318.852 53.072C318.852 53.384 318.84 53.636 318.816 53.828C318.624 57.428 318.432 60.512 318.24 63.08C318.048 65.624 317.832 67.736 317.592 69.416C317.376 71.096 317.112 72.428 316.8 73.412C316.512 74.396 316.164 75.128 315.756 75.608C315.204 76.304 314.64 76.784 314.064 77.048C313.512 77.312 312.84 77.492 312.048 77.588C311.4 77.684 310.548 77.732 309.492 77.732C308.436 77.732 307.356 77.72 306.252 77.696C306.228 77.048 306.072 76.292 305.784 75.428C305.52 74.564 305.184 73.832 304.776 73.232C305.928 73.328 306.984 73.388 307.944 73.412C308.928 73.412 309.66 73.412 310.14 73.412C310.5 73.412 310.812 73.376 311.076 73.304C311.34 73.232 311.58 73.076 311.796 72.836C312.108 72.524 312.396 71.924 312.66 71.036C312.924 70.124 313.152 68.864 313.344 67.256C313.56 65.648 313.752 63.644 313.92 61.244C314.088 58.82 314.244 55.952 314.388 52.64V51.776ZM299.628 44.324H304.236V51.776C304.236 53.408 304.152 55.148 303.984 56.996C303.84 58.844 303.528 60.728 303.048 62.648C302.568 64.544 301.836 66.428 300.852 68.3C299.868 70.172 298.56 71.96 296.928 73.664C295.32 75.368 293.292 76.904 290.844 78.272C290.604 77.912 290.28 77.504 289.872 77.048C289.488 76.592 289.068 76.16 288.612 75.752C288.18 75.344 287.784 75.008 287.424 74.744C289.68 73.544 291.54 72.2 293.004 70.712C294.492 69.224 295.68 67.676 296.568 66.068C297.456 64.436 298.116 62.792 298.548 61.136C299.004 59.456 299.292 57.824 299.412 56.24C299.556 54.632 299.628 53.144 299.628 51.776V44.324Z" fill="url(#paint0_linear_267_339)"/>
</g>
<defs>
<linearGradient id="paint0_linear_267_339" x1="383.876" y1="39.8517" x2="-2.124" y2="39.8517" gradientUnits="userSpaceOnUse">
<stop stop-color="#A36F37"/>
<stop offset="0.4375" stop-color="#E7D380"/>
<stop offset="0.663462" stop-color="#F6EBAB"/>
<stop offset="1" stop-color="#A36F37"/>
</linearGradient>
<clipPath id="clip0_267_339">
<rect width="319" height="79" fill="white"/>
</clipPath>
</defs>
</svg>
