<svg width="45" height="68" viewBox="0 0 45 68" fill="none" xmlns="http://www.w3.org/2000/svg">
<path d="M38.8801 33.216L42.6241 36.2879C43.5841 37.056 44.1281 37.632 44.2561 38.0159C44.4481 38.4 44.5441 39.36 44.5441 40.8959V58.56C44.5441 59.84 44.4161 60.736 44.1601 61.248C43.9681 61.76 43.4881 62.432 42.7201 63.264L40.9921 64.992C39.5201 66.464 38.0161 67.2 36.4801 67.2H9.21605C7.68005 67.2 6.14405 66.56 4.60805 65.28L2.30405 63.36C0.768049 62.08 4.91142e-05 60.48 4.91142e-05 58.56V54.72H8.06405V56.544C8.06405 57.504 8.09605 58.144 8.16005 58.464C8.28805 58.72 8.64005 59.072 9.21605 59.52C9.79205 59.968 10.24 60.256 10.56 60.384C10.88 60.448 11.616 60.48 12.768 60.48H31.7761C32.9281 60.48 33.6641 60.448 33.9841 60.384C34.3041 60.256 34.7521 59.968 35.3281 59.52C35.9041 59.072 36.2241 58.72 36.288 58.464C36.416 58.144 36.4801 57.504 36.4801 56.544V42.0479C36.4801 40.6399 35.904 39.424 34.752 38.4L33.3121 37.1519C32.352 36.32 31.68 35.84 31.2961 35.712C30.9121 35.584 30.1121 35.5199 28.8961 35.5199H13.536V29.3759H27.5521C28.7681 29.3759 29.5681 29.3119 29.9521 29.1839C30.3361 29.0559 31.008 28.5759 31.9681 27.7439L33.408 26.592C34.3681 25.8239 34.9121 25.2799 35.0401 24.9599C35.2321 24.5759 35.3281 23.7759 35.3281 22.5599V10.6559C35.3281 9.69595 35.2641 9.08795 35.1361 8.83195C35.0721 8.51195 34.7521 8.12795 34.1761 7.67995C33.6001 7.23195 33.1521 6.97595 32.8321 6.91195C32.5121 6.78395 31.7761 6.71995 30.6241 6.71995H14.7841C13.568 6.71995 12.8 6.78395 12.4801 6.91195C12.16 6.97595 11.712 7.23195 11.1361 7.67995C10.5601 8.12795 10.208 8.51195 10.08 8.83195C10.016 9.08795 9.98405 9.69595 9.98405 10.6559V12.4799H1.92005V8.63995C1.92005 6.71995 2.68805 5.11995 4.22405 3.83995L6.52805 1.91995C8.06405 0.639948 9.60005 -5.34058e-05 11.1361 -5.34058e-05H34.1761C35.7121 -5.34058e-05 37.2481 0.639948 38.7841 1.91995L41.0881 3.83995C42.6241 5.11995 43.392 6.71995 43.392 8.63995V24.384C43.392 25.4719 43.2961 26.1759 43.1041 26.4959C42.9761 26.8159 42.496 27.2959 41.664 27.936L38.8801 30.2399C37.8561 31.0719 36.9601 31.488 36.1921 31.488V31.9679C36.9601 31.9679 37.8561 32.384 38.8801 33.216Z" fill="url(#paint0_linear_179_2252)"/>
<defs>
<linearGradient id="paint0_linear_179_2252" x1="42.301" y1="67.1998" x2="33.3155" y2="-6.77775" gradientUnits="userSpaceOnUse">
<stop stop-color="#A36F37" stop-opacity="0"/>
<stop offset="0.283654" stop-color="#E7D380"/>
<stop offset="0.480769" stop-color="#F6EBAB"/>
<stop offset="0.740385" stop-color="#A36F37"/>
</linearGradient>
</defs>
</svg>
