<svg width="317" height="67" viewBox="0 0 317 67" fill="none" xmlns="http://www.w3.org/2000/svg">
<g clip-path="url(#clip0_288_94)">
<path d="M28.8326 1.53897C28.9788 1.16287 29.2238 0.972656 29.5763 0.972656H32.0783C32.4394 0.972656 32.693 1.15423 32.8392 1.52169L37.2455 12.8481C37.3917 13.2242 37.2885 13.4144 36.936 13.4144H34.9241C34.563 13.4144 34.3094 13.2328 34.1632 12.8654L33.7119 11.7716C33.5786 11.4777 33.3679 11.335 33.0756 11.335H28.5618C28.2738 11.335 28.0545 11.5295 27.9084 11.9186C27.788 12.2126 27.6848 12.5022 27.5988 12.7962C27.4527 13.2112 27.199 13.4144 26.8379 13.4144H24.6455C24.2844 13.4144 24.1726 13.2328 24.3188 12.8654C25.8062 9.09567 27.3108 5.32164 28.8369 1.53897H28.8326ZM31.0079 4.40084C30.8488 3.98583 30.7069 3.95556 30.5737 4.31005L29.1593 8.19647C29.0261 8.58554 29.112 8.78007 29.413 8.78007H32.1901C32.4824 8.78007 32.5641 8.6158 32.4437 8.28725L31.0122 4.40084H31.0079Z" fill="white"/>
<path d="M42.7395 4.32794C42.9071 4.04694 43.3241 3.89564 43.9905 3.87402H46.6558C48.1174 4.20257 48.8611 5.21848 48.8869 6.92176V10.3499C48.8525 10.8601 48.7493 11.3486 48.5774 11.8111C48.3839 12.3472 48.0959 12.7579 47.709 13.0518C47.1888 13.2723 46.6988 13.3934 46.2388 13.415H43.883C43.4488 13.415 43.092 13.3242 42.8126 13.1426C42.5589 12.9221 42.43 12.9783 42.43 13.3069V16.4454C42.43 16.8086 42.2494 16.9945 41.884 16.9945H40.2891C39.928 16.9945 39.7432 16.8129 39.7432 16.4454V4.49654C39.7432 4.13341 39.9237 3.94751 40.2891 3.94751H41.884C42.2451 3.94751 42.43 4.00804 42.43 4.12908L42.4644 4.40144C42.5503 4.57003 42.6406 4.54841 42.7352 4.32794H42.7395ZM43.2854 6.18684C42.6578 6.39435 42.3741 6.84395 42.4343 7.53564V10.1251C42.5804 10.6136 42.8942 10.886 43.3757 10.9465H45.0996C45.9207 10.8255 46.2861 10.4104 46.1872 9.70579V7.29787C46.1012 6.70129 45.7745 6.3295 45.2071 6.18684H43.2854Z" fill="white"/>
<path d="M51.6082 4.45762C51.6082 4.06855 51.7758 3.87402 52.1155 3.87402H53.6931C54.0542 3.87402 54.2391 4.03829 54.2391 4.36684C54.2391 4.74295 54.4325 4.75592 54.8194 4.40144C55.1806 4.12044 55.6706 3.94752 56.2897 3.87402H58.3918C58.7529 3.87402 58.9378 4.05559 58.9378 4.42304V5.78913C58.9378 6.15226 58.7572 6.33815 58.3918 6.33815H56.4702C55.5761 6.4981 54.9226 6.96932 54.5099 7.76043C54.3638 8.16248 54.2735 8.58613 54.2391 9.03572V12.866C54.2391 13.2291 54.0585 13.415 53.6931 13.415H52.1498C51.7887 13.415 51.6039 13.2334 51.6039 12.866V4.45762H51.6082Z" fill="white"/>
<path d="M61.4397 1.53897C61.4397 1.16287 61.616 0.972656 61.9642 0.972656H63.6322C63.9933 0.972656 64.1781 1.15423 64.1781 1.52169V2.1053C64.1781 2.46844 63.9976 2.65433 63.6322 2.65433H61.9814C61.6203 2.65433 61.4354 2.47276 61.4354 2.1053V1.53897H61.4397ZM61.4397 4.45703C61.4397 4.06795 61.6074 3.87343 61.947 3.87343H63.6322C63.9933 3.87343 64.1781 4.05499 64.1781 4.42245V12.8654C64.1781 13.2285 63.9976 13.4144 63.6322 13.4144H61.9814C61.6203 13.4144 61.4354 13.2328 61.4354 12.8654V4.45703H61.4397Z" fill="white"/>
<path d="M67.5871 1.53897C67.5871 1.16287 67.7633 0.972656 68.1115 0.972656H69.7236C70.0847 0.972656 70.2696 1.15423 70.2696 1.52169V12.8654C70.2696 13.2285 70.089 13.4144 69.7236 13.4144H68.1287C67.7676 13.4144 67.5828 13.2328 67.5828 12.8654V1.53897H67.5871Z" fill="white"/>
<path d="M80.2086 1.21043C80.5482 1.10236 80.9824 1.02021 81.5155 0.972656H86.6139C87.7488 1.00724 88.7161 1.31851 89.5157 1.90212C89.9886 2.42521 90.2465 3.05204 90.2938 3.78263V5.86202C90.268 6.70069 89.8639 7.40102 89.0772 7.95869C87.9165 8.46881 86.3732 8.71955 84.4516 8.70658L82.9986 8.79736C82.3709 8.83195 81.8852 8.94867 81.5456 9.1432C81.2317 9.44582 81.0942 9.87812 81.1286 10.4401C81.1286 10.7427 81.279 10.894 81.5799 10.894H89.8123C90.1734 10.894 90.3583 11.0756 90.3583 11.4431V12.8654C90.3583 13.2285 90.1777 13.4144 89.8123 13.4144H78.7126C78.3515 13.4144 78.1666 13.2328 78.1666 12.8654V10.5482C78.1795 9.38097 78.5062 8.4083 79.1468 7.63015C79.4864 7.25405 79.9679 6.98168 80.5998 6.80876C82.1732 6.54073 83.6219 6.37214 84.9503 6.29865C85.4317 6.27271 85.9175 6.22083 86.4033 6.13437C87.1771 6.00035 87.5167 5.50754 87.4178 4.6559C87.5382 3.9253 87.2717 3.46273 86.6182 3.26819H82.0313C81.2102 3.44976 80.8749 3.95555 81.034 4.78126C81.034 5.14439 80.8534 5.33029 80.488 5.33029H78.7126C78.3515 5.33029 78.1666 5.14871 78.1666 4.78126V3.54054C78.1924 2.47275 78.8673 1.69028 80.2 1.2061L80.2086 1.21043Z" fill="white"/>
<path d="M94.769 1.35321C95.3364 1.12409 95.9555 0.990079 96.6175 0.951172H102.387C102.92 0.998725 103.401 1.09816 103.84 1.24082C104.773 1.58234 105.25 2.18756 105.271 3.06513V4.94566C105.224 5.6287 104.889 6.16908 104.274 6.5668C103.947 6.74837 103.973 6.95156 104.347 7.16771C104.893 7.49626 105.22 7.89831 105.327 8.37384C105.701 10.0771 105.383 11.5124 104.364 12.6796C103.749 13.1162 102.993 13.3626 102.099 13.4102H96.4928C94.2445 13.2416 93.187 12.1522 93.3203 10.1463C93.3203 9.78314 93.5008 9.59724 93.8662 9.59724H95.6245C95.9856 9.59724 96.1704 9.67074 96.1704 9.81772C96.2435 10.6088 96.6863 10.9676 97.4945 10.8942H101.14C101.54 10.9287 101.866 10.8466 102.12 10.6391C102.494 10.276 102.61 9.66643 102.464 8.81479C102.357 8.52082 102.107 8.35222 101.72 8.30467H97.1506C96.7895 8.30467 96.6046 8.12309 96.6046 7.75564V6.42414C96.6046 6.06101 96.7852 5.87511 97.1506 5.87511H101.213C101.634 5.84053 101.944 5.72814 102.137 5.54657C102.357 5.365 102.434 5.09265 102.374 4.72519C102.387 4.44419 102.374 4.16752 102.339 3.88652C102.047 3.40234 101.66 3.21213 101.179 3.3202H97.1506C96.4842 3.50177 96.2091 3.86058 96.3166 4.39664C96.3166 4.63873 96.136 4.75977 95.7706 4.75977H93.9006C93.5395 4.75977 93.3547 4.57821 93.3547 4.21075C93.3289 3.67469 93.4105 3.14295 93.5911 2.60689C93.7845 2.0838 94.1757 1.66448 94.769 1.3489V1.35321Z" fill="white"/>
<path d="M109.806 10.3671C110.168 10.0861 110.726 10.0774 111.474 10.3325C111.969 10.5876 112.248 10.8989 112.308 11.2621C112.549 12.4554 112.265 13.6919 111.457 14.9846C111.143 15.3608 110.817 15.551 110.477 15.551H109.751C109.389 15.551 109.346 15.3694 109.622 15.0019C109.875 14.5998 110.103 14.1934 110.309 13.7784C110.43 13.4757 110.297 13.3028 109.91 13.2682C109.243 13.0607 108.947 12.5678 109.02 11.7895C109.007 11.3139 109.269 10.8427 109.798 10.3671H109.806Z" fill="white"/>
<path d="M122.716 1.21043C123.056 1.10236 123.49 1.02021 124.023 0.972656H129.121C130.256 1.00724 131.224 1.31851 132.023 1.90212C132.496 2.42521 132.754 3.05204 132.801 3.78263V5.86202C132.775 6.70069 132.371 7.40102 131.585 7.95869C130.424 8.46881 128.881 8.71955 126.959 8.70658L125.506 8.79736C124.878 8.83195 124.393 8.94867 124.053 9.1432C123.739 9.44582 123.602 9.87812 123.636 10.4401C123.636 10.7427 123.786 10.894 124.087 10.894H132.32C132.681 10.894 132.866 11.0756 132.866 11.4431V12.8654C132.866 13.2285 132.685 13.4144 132.32 13.4144H121.22C120.859 13.4144 120.674 13.2328 120.674 12.8654V10.5482C120.687 9.38097 121.014 8.4083 121.654 7.63015C121.994 7.25405 122.475 6.98168 123.107 6.80876C124.681 6.54073 126.129 6.37214 127.458 6.29865C127.939 6.27271 128.425 6.22083 128.911 6.13437C129.685 6.00035 130.024 5.50754 129.925 4.6559C130.046 3.9253 129.779 3.46273 129.126 3.26819H124.539C123.718 3.44976 123.382 3.95555 123.541 4.78126C123.541 5.14439 123.361 5.33029 122.995 5.33029H121.22C120.859 5.33029 120.674 5.14871 120.674 4.78126V3.54054C120.7 2.47275 121.375 1.69028 122.707 1.2061L122.716 1.21043Z" fill="white"/>
<path d="M135.686 4.6948C135.866 2.33442 137.139 1.0937 139.495 0.972656H143.94C144.352 1.00724 144.834 1.12397 145.393 1.31851C145.926 1.52601 146.39 1.88482 146.79 2.39494C147.271 3.11257 147.538 3.95124 147.589 4.91095V9.89111C147.589 11.0324 147.112 11.9878 146.158 12.753C145.277 13.302 144.301 13.6089 143.239 13.6824H139.138C138.024 13.6478 137.087 13.155 136.326 12.2039C135.965 11.5728 135.75 10.8681 135.69 10.09V4.69047L135.686 4.6948ZM139.912 3.8518C139.03 4.05931 138.583 4.53917 138.57 5.29138V9.22967C138.618 10.1289 139.125 10.6476 140.092 10.7817H143.192C144.146 10.5741 144.649 9.93 144.696 8.84924V5.51185C144.67 4.63427 144.215 4.08525 143.316 3.8518H139.907H139.912Z" fill="white"/>
<path d="M152.494 1.21043C152.834 1.10236 153.268 1.02021 153.801 0.972656H158.9C160.035 1.00724 161.002 1.31851 161.802 1.90212C162.274 2.42521 162.532 3.05204 162.58 3.78263V5.86202C162.554 6.70069 162.15 7.40102 161.363 7.95869C160.202 8.46881 158.659 8.71955 156.737 8.70658L155.284 8.79736C154.657 8.83195 154.171 8.94867 153.831 9.1432C153.518 9.44582 153.38 9.87812 153.414 10.4401C153.414 10.7427 153.565 10.894 153.866 10.894H162.098C162.459 10.894 162.644 11.0756 162.644 11.4431V12.8654C162.644 13.2285 162.464 13.4144 162.098 13.4144H150.998C150.637 13.4144 150.453 13.2328 150.453 12.8654V10.5482C150.465 9.38097 150.792 8.4083 151.433 7.63015C151.772 7.25405 152.254 6.98168 152.886 6.80876C154.459 6.54073 155.908 6.37214 157.236 6.29865C157.718 6.27271 158.203 6.22083 158.689 6.13437C159.463 6.00035 159.803 5.50754 159.704 4.6559C159.824 3.9253 159.558 3.46273 158.904 3.26819H154.317C153.496 3.44976 153.161 3.95555 153.32 4.78126C153.32 5.14439 153.139 5.33029 152.774 5.33029H150.998C150.637 5.33029 150.453 5.14871 150.453 4.78126V3.54054C150.478 2.47275 151.153 1.69028 152.486 1.2061L152.494 1.21043Z" fill="white"/>
<path d="M167.042 1.39199C167.588 1.17152 168.207 1.03318 168.912 0.972656H174.535C175.429 1.05912 176.155 1.3185 176.71 1.75513C177.351 2.36467 177.651 3.21632 177.617 4.31005C177.617 4.67318 177.437 4.85908 177.071 4.85908H175.223C174.861 4.85908 174.677 4.74235 174.677 4.51323C174.69 3.66159 174.273 3.27252 173.426 3.34602H169.256C168.542 3.51461 168.224 3.92962 168.293 4.58673C168.28 5.08388 168.293 5.60264 168.327 6.1387C168.413 6.24677 168.503 6.25542 168.598 6.15599C168.817 5.94849 169.204 5.84041 169.759 5.82744H174.672C176.4 5.93551 177.355 6.82606 177.54 8.49043V10.626C177.467 11.8278 176.86 12.6708 175.726 13.142C175.373 13.276 174.926 13.3668 174.384 13.4144H168.688C168.108 13.3538 167.622 13.2501 167.235 13.1031C166.668 12.9345 166.221 12.593 165.894 12.0829C165.615 11.5727 165.46 10.9935 165.421 10.3493V4.05499C165.447 3.57081 165.567 3.0823 165.782 2.5938C166.143 1.94966 166.56 1.54762 167.033 1.39199H167.042ZM169.471 8.12297C168.938 8.00193 168.559 8.24834 168.327 8.87086C168.293 9.2729 168.28 9.69224 168.293 10.1289C168.439 10.6995 168.753 11.0064 169.234 11.041H173.516C174.41 10.8724 174.797 10.4315 174.677 9.72683V9.03513C174.496 8.34344 174.079 8.03651 173.426 8.12297H169.471Z" fill="white"/>
<path d="M285.536 3.09404C285.939 2.93934 286.395 2.84227 286.916 2.7998H291.064C291.724 2.86047 292.259 3.04247 292.669 3.34884C293.142 3.77654 293.363 4.37412 293.338 5.14155C293.338 5.39635 293.205 5.52679 292.935 5.52679H291.572C291.305 5.52679 291.169 5.44489 291.169 5.28412C291.179 4.68655 290.871 4.41355 290.246 4.46512H287.169C286.643 4.58342 286.408 4.87462 286.459 5.33569C286.449 5.68453 286.459 6.04853 286.484 6.42466C286.547 6.50049 286.614 6.50656 286.684 6.4368C286.846 6.2912 287.131 6.21536 287.54 6.20626H291.165C292.44 6.28209 293.145 6.90696 293.281 8.0748V9.57327C293.227 10.4165 292.78 11.008 291.943 11.3387C291.682 11.4327 291.353 11.4964 290.953 11.5298H286.75C286.322 11.4873 285.964 11.4145 285.678 11.3114C285.26 11.1931 284.93 10.9535 284.689 10.5955C284.483 10.2375 284.369 9.83113 284.34 9.37912V4.96259C284.359 4.62285 284.448 4.28008 284.606 3.93731C284.873 3.48534 285.18 3.20324 285.529 3.09404H285.536ZM287.328 7.81697C286.935 7.73204 286.655 7.90493 286.484 8.34174C286.459 8.62384 286.449 8.91808 286.459 9.22447C286.567 9.62484 286.798 9.84018 287.153 9.86446H290.312C290.972 9.74616 291.257 9.43679 291.169 8.94235V8.457C291.035 7.97166 290.728 7.7563 290.246 7.81697H287.328Z" fill="white"/>
<path d="M183.644 7.91593C183.644 5.18377 184.676 3.22111 186.129 1.79883L187.311 2.711C185.974 4.29755 185.407 5.58149 185.407 7.92026C185.407 10.259 185.974 11.5386 187.311 13.1511L186.129 14.0633C184.676 12.6151 183.644 10.6784 183.644 7.92026V7.91593Z" fill="white"/>
<path d="M190.914 4.69523H188.579V2.96582H195.337V4.69523H192.99V11.6561H190.914V4.69523Z" fill="white"/>
<path d="M196.674 2.96582H198.75V6.26898H201.596V2.96582H203.651V11.6518H201.596V8.08054H198.75V11.6518H196.674V2.96582Z" fill="white"/>
<path d="M205.616 7.56604V2.96582H207.684V7.78654C207.684 9.4338 208.17 10.0175 209.124 10.0175C210.078 10.0175 210.585 9.4338 210.585 7.78654V2.96582H212.584V7.56604C212.584 10.4974 211.424 11.8161 209.124 11.8161C206.824 11.8161 205.616 10.4974 205.616 7.56604Z" fill="white"/>
<path d="M213.969 10.5184C213.969 9.80507 214.48 9.23438 215.198 9.23438C215.916 9.23438 216.427 9.80507 216.427 10.5184C216.427 11.2318 215.907 11.8155 215.198 11.8155C214.489 11.8155 213.969 11.2448 213.969 10.5184Z" fill="white"/>
<path d="M218.16 13.1462C219.497 11.5338 220.064 10.2757 220.064 7.91536C220.064 5.55498 219.497 4.29698 218.16 2.7061L219.342 1.79395C220.795 3.21623 221.827 5.17887 221.827 7.91105C221.827 10.6432 220.795 12.6059 219.342 14.0541L218.16 13.1419V13.1462Z" fill="white"/>
<path d="M229.273 5.40926C229.402 3.75335 230.291 2.88432 231.947 2.79785H235.063C235.351 2.82379 235.691 2.90594 236.082 3.03997C236.456 3.18264 236.783 3.43773 237.062 3.79658C237.402 4.30244 237.587 4.89044 237.621 5.56059V9.054C237.621 9.85385 237.286 10.524 236.615 11.0644C235.996 11.4492 235.313 11.6654 234.565 11.7173H231.689C230.906 11.6913 230.253 11.3454 229.715 10.6796C229.462 10.2343 229.311 9.74142 229.268 9.19666V5.40926H229.273ZM232.239 4.82127C231.62 4.96827 231.306 5.3055 231.297 5.83297V8.59569C231.332 9.22693 231.689 9.5901 232.368 9.68522H234.543C235.214 9.54254 235.566 9.08858 235.601 8.32764V5.98428C235.583 5.37034 235.261 4.98124 234.633 4.82127H232.239Z" fill="white"/>
<path d="M239.706 3.06591C240.011 2.9362 240.407 2.84973 240.888 2.79785H244.873C245.415 2.83244 245.926 3.01836 246.399 3.35992C246.851 3.762 247.083 4.38892 247.1 5.24065V9.11884C247.066 9.83654 246.851 10.4332 246.451 10.9088C245.952 11.2676 245.338 11.4708 244.607 11.5227H240.841C240.101 11.5141 239.487 11.1682 238.997 10.4851C238.726 10.1349 238.61 9.69819 238.653 9.17937C238.653 8.92428 238.782 8.79457 239.035 8.79457H240.347C240.6 8.79457 240.729 8.95455 240.729 9.26585C240.832 9.71982 241.103 9.91437 241.542 9.85384H244.151C244.856 9.78466 245.187 9.43014 245.144 8.79026V8.11146C245.144 7.89961 245.007 7.83043 244.736 7.90826L243.983 8.02499H240.587C240.011 7.9904 239.538 7.84341 239.173 7.57535C238.868 7.20785 238.687 6.80576 238.627 6.37341V4.68291C238.679 3.9825 239.04 3.44206 239.71 3.05727L239.706 3.06591ZM241.159 4.51429C240.708 4.61805 240.518 4.86017 240.587 5.24497C240.561 5.61246 240.587 5.88052 240.665 6.05346C240.794 6.29126 240.987 6.42961 241.249 6.4642H244.125C244.615 6.51608 244.942 6.30855 245.105 5.85026C245.131 5.40493 245.105 5.09797 245.028 4.92936C244.89 4.69156 244.688 4.55321 244.418 4.51862H241.159V4.51429Z" fill="white"/>
<path d="M249.43 3.89976C250.38 3.65332 250.995 3.97326 251.274 4.85958C251.386 5.61187 251.12 6.12637 250.488 6.4074C250.234 6.51981 249.929 6.53278 249.572 6.44631C249.275 6.39442 249.035 6.23013 248.845 5.9491C248.583 5.52972 248.557 5.04549 248.768 4.49208C248.919 4.17646 249.142 3.9819 249.43 3.90407V3.89976ZM249.645 8.90206C250.178 8.7983 250.647 8.93666 251.046 9.3128C251.343 9.74948 251.408 10.2164 251.236 10.7223C251.072 11.1935 250.711 11.4616 250.139 11.5308C249.495 11.5999 249.035 11.3492 248.764 10.7742C248.562 10.264 248.643 9.74948 249.017 9.23931C249.155 9.07934 249.361 8.96692 249.641 8.90639L249.645 8.90206Z" fill="white"/>
<path d="M253.935 3.06521C254.335 2.90524 254.765 2.81012 255.234 2.78418H259.279C259.653 2.81877 259.992 2.88794 260.298 2.98739C260.951 3.22518 261.286 3.65322 261.304 4.26716V5.58583C261.269 6.06141 261.037 6.44189 260.603 6.72291C260.375 6.85262 260.392 6.99096 260.654 7.14661C261.037 7.37576 261.265 7.65679 261.342 7.9897C261.605 9.18299 261.381 10.1904 260.667 11.0118C260.233 11.3188 259.704 11.4917 259.077 11.522H255.143C253.566 11.401 252.822 10.64 252.916 9.23055C252.916 8.97546 253.045 8.84577 253.299 8.84577H254.533C254.786 8.84577 254.915 8.89765 254.915 9.00142C254.967 9.55483 255.277 9.80559 255.844 9.75803H258.402C258.681 9.78398 258.909 9.72343 259.09 9.58076C259.352 9.32567 259.434 8.89764 259.33 8.301C259.253 8.09779 259.081 7.97674 258.81 7.94215H255.603C255.35 7.94215 255.221 7.81244 255.221 7.55735V6.62347C255.221 6.36838 255.35 6.23868 255.603 6.23868H258.453C258.75 6.21274 258.965 6.13492 259.103 6.00954C259.253 5.87983 259.309 5.68959 259.266 5.4345C259.275 5.23994 259.266 5.04107 259.24 4.84651C259.038 4.50495 258.763 4.37524 258.428 4.44874H255.603C255.139 4.57844 254.941 4.82921 255.019 5.20535C255.019 5.3783 254.89 5.46044 254.636 5.46044H253.325C253.071 5.46044 252.942 5.33074 252.942 5.07565C252.925 4.69951 252.981 4.32336 253.106 3.95154C253.243 3.58404 253.518 3.29003 253.931 3.06953L253.935 3.06521Z" fill="white"/>
<path d="M262.219 5.40926C262.348 3.75335 263.238 2.88432 264.893 2.79785H268.01C268.298 2.82379 268.638 2.90594 269.029 3.03997C269.403 3.18264 269.73 3.43773 270.009 3.79658C270.349 4.30244 270.533 4.89044 270.568 5.56059V9.054C270.568 9.85385 270.233 10.524 269.562 11.0644C268.943 11.4492 268.259 11.6654 267.511 11.7173H264.635C263.853 11.6913 263.2 11.3454 262.662 10.6796C262.409 10.2343 262.258 9.74142 262.215 9.19666V5.40926H262.219ZM265.181 4.82127C264.562 4.96827 264.248 5.3055 264.24 5.83297V8.59569C264.274 9.22693 264.631 9.5901 265.31 9.68522H267.486C268.156 9.54254 268.509 9.08858 268.543 8.32764V5.98428C268.526 5.37034 268.203 4.98124 267.576 4.82127H265.181Z" fill="white"/>
<path d="M272.016 7.14608C272.016 6.8737 272.137 6.73535 272.373 6.73535H277.209C277.463 6.73535 277.592 6.86505 277.592 7.12014V8.37397C277.592 8.62906 277.463 8.75876 277.209 8.75876H272.399C272.145 8.75876 272.016 8.62906 272.016 8.37397V7.14608Z" fill="white"/>
<path d="M279.6 3.19562C279.6 2.93189 279.724 2.79785 279.969 2.79785H282.974C283.228 2.79785 283.357 2.92756 283.357 3.18265V11.1422C283.357 11.3973 283.228 11.527 282.974 11.527H281.715C281.461 11.527 281.332 11.3973 281.332 11.1422V5.14121C281.332 4.92935 281.225 4.82127 281.014 4.82127H279.982C279.729 4.82127 279.6 4.69156 279.6 4.43647V3.19562Z" fill="white"/>
<path d="M295.862 3.89976C296.812 3.65332 297.427 3.97326 297.707 4.85958C297.818 5.61187 297.552 6.12637 296.92 6.4074C296.666 6.51981 296.361 6.53278 296.004 6.44631C295.708 6.39442 295.467 6.23013 295.278 5.9491C295.015 5.52972 294.99 5.04549 295.2 4.49208C295.351 4.17646 295.574 3.9819 295.862 3.90407V3.89976ZM296.077 8.90206C296.61 8.7983 297.079 8.93666 297.479 9.3128C297.775 9.74948 297.84 10.2164 297.668 10.7223C297.505 11.1935 297.143 11.4616 296.572 11.5308C295.927 11.5999 295.467 11.3492 295.196 10.7742C294.994 10.264 295.076 9.74948 295.45 9.23931C295.587 9.07934 295.794 8.96692 296.073 8.90639L296.077 8.90206Z" fill="white"/>
<path d="M308.652 5.40926C308.78 3.75335 309.67 2.88432 311.325 2.79785H314.442C314.73 2.82379 315.07 2.90594 315.461 3.03997C315.835 3.18264 316.162 3.43773 316.441 3.79658C316.781 4.30244 316.966 4.89044 317 5.56059V9.054C317 9.85385 316.665 10.524 315.994 11.0644C315.375 11.4492 314.691 11.6654 313.943 11.7173H311.067C310.285 11.6913 309.632 11.3454 309.094 10.6796C308.841 10.2343 308.69 9.74142 308.647 9.19666V5.40926H308.652ZM311.618 4.82127C310.999 4.96827 310.685 5.3055 310.676 5.83297V8.59569C310.711 9.22693 311.068 9.5901 311.747 9.68522H313.922C314.593 9.54254 314.945 9.08858 314.979 8.32764V5.98428C314.962 5.37034 314.64 4.98124 314.012 4.82127H311.618Z" fill="white"/>
<path d="M299.505 5.40926C299.633 3.75335 300.523 2.88432 302.178 2.79785H305.295C305.583 2.82379 305.923 2.90594 306.314 3.03997C306.688 3.18264 307.015 3.43773 307.294 3.79658C307.634 4.30244 307.819 4.89044 307.853 5.56059V9.054C307.853 9.85385 307.518 10.524 306.847 11.0644C306.228 11.4492 305.544 11.6654 304.796 11.7173H301.92C301.138 11.6913 300.485 11.3454 299.947 10.6796C299.694 10.2343 299.543 9.74142 299.5 9.19666V5.40926H299.505ZM302.471 4.82127C301.852 4.96827 301.538 5.3055 301.529 5.83297V8.59569C301.564 9.22693 301.921 9.5901 302.6 9.68522H304.775C305.446 9.54254 305.798 9.08858 305.832 8.32764V5.98428C305.815 5.37034 305.493 4.98124 304.865 4.82127H302.471Z" fill="white"/>
<path opacity="0.5" d="M7.87975 15.611C12.1011 15.611 15.5232 12.1697 15.5232 7.92465C15.5232 3.67958 12.1011 0.238281 7.87975 0.238281C3.65841 0.238281 0.236328 3.67958 0.236328 7.92465C0.236328 12.1697 3.65841 15.611 7.87975 15.611Z" fill="white"/>
<path d="M7.87986 15.8483C3.53369 15.8483 0 12.2947 0 7.92414C0 3.55355 3.53369 0 7.87986 0C12.226 0 15.7597 3.55355 15.7597 7.92414C15.7597 12.2947 12.226 15.8483 7.87986 15.8483ZM7.87986 0.479865C3.79592 0.479865 0.472878 3.82157 0.472878 7.92846C0.472878 12.0353 3.79592 15.3771 7.87986 15.3771C11.9638 15.3771 15.2868 12.0353 15.2868 7.92846C15.2868 3.82157 11.9638 0.479865 7.87986 0.479865Z" fill="white"/>
<path opacity="0.5" d="M8.40433 4.46134L8.8901 6.16481L10.6011 5.73246C11.1341 5.59843 11.5124 6.25128 11.1255 6.64904L9.90034 7.92449L11.1255 9.19992C11.5081 9.59768 11.1341 10.2505 10.6011 10.1165L8.8901 9.68415L8.40433 11.3876C8.25387 11.9194 7.50156 11.9194 7.3511 11.3876L6.86533 9.68415L5.15437 10.1165C4.62131 10.2505 4.24301 9.59768 4.62991 9.19992L5.85509 7.92449L4.62991 6.64904C4.2473 6.25128 4.62131 5.59843 5.15437 5.73246L6.86533 6.16481L7.3511 4.46134C7.50156 3.92955 8.25387 3.92955 8.40433 4.46134Z" fill="white"/>
<path opacity="0.5" d="M7.87975 43.1481C12.1011 43.1481 15.5232 39.7068 15.5232 35.4617C15.5232 31.2167 12.1011 27.7754 7.87975 27.7754C3.65841 27.7754 0.236328 31.2167 0.236328 35.4617C0.236328 39.7068 3.65841 43.1481 7.87975 43.1481Z" fill="white"/>
<mask id="mask0_288_94" style="mask-type:luminance" maskUnits="userSpaceOnUse" x="0" y="27" width="16" height="17">
<path d="M7.87975 43.1481C12.1011 43.1481 15.5232 39.7068 15.5232 35.4617C15.5232 31.2167 12.1011 27.7754 7.87975 27.7754C3.65841 27.7754 0.236328 31.2167 0.236328 35.4617C0.236328 39.7068 3.65841 43.1481 7.87975 43.1481Z" fill="white"/>
</mask>
<g mask="url(#mask0_288_94)">
<g opacity="0.5">
<path opacity="0.6" d="M4.54135 26.7402L-1.72559 43.9616L-1.28149 44.125L4.98544 26.9036L4.54135 26.7402Z" fill="white"/>
<path opacity="0.6" d="M7.66745 26.7383L1.40051 43.9598L1.8446 44.1232L8.11154 26.9018L7.66745 26.7383Z" fill="white"/>
<path opacity="0.6" d="M10.7979 26.7354L4.53101 43.9568L4.9751 44.1203L11.242 26.8988L10.7979 26.7354Z" fill="white"/>
<path opacity="0.6" d="M13.9225 26.7363L7.65552 43.9577L8.09961 44.1211L14.3665 26.8997L13.9225 26.7363Z" fill="white"/>
<path opacity="0.6" d="M17.0528 26.7373L10.7859 43.9588L11.23 44.1222L17.4969 26.9008L17.0528 26.7373Z" fill="white"/>
<path opacity="0.6" d="M11.2187 26.7559L10.7745 26.919L17.0295 44.1449L17.4737 43.9818L11.2187 26.7559Z" fill="white"/>
<path opacity="0.6" d="M8.08982 26.7607L7.64563 26.9238L13.9006 44.1496L14.3448 43.9865L8.08982 26.7607Z" fill="white"/>
<path opacity="0.6" d="M4.96067 26.7617L4.51648 26.9248L10.7715 44.1506L11.2156 43.9875L4.96067 26.7617Z" fill="white"/>
<path opacity="0.6" d="M1.83176 26.7607L1.38757 26.9238L7.64255 44.1496L8.08674 43.9865L1.83176 26.7607Z" fill="white"/>
<path opacity="0.6" d="M-1.29702 26.7598L-1.74121 26.923L4.51377 44.1488L4.95796 43.9857L-1.29702 26.7598Z" fill="white"/>
</g>
</g>
<path d="M7.87986 43.3864C3.53369 43.3864 0 39.8328 0 35.4622C0 31.0916 3.53369 27.5381 7.87986 27.5381C12.226 27.5381 15.7597 31.0916 15.7597 35.4622C15.7597 39.8328 12.226 43.3864 7.87986 43.3864ZM7.87986 28.0136C3.79592 28.0136 0.472878 31.3553 0.472878 35.4622C0.472878 39.5691 3.79592 42.9108 7.87986 42.9108C11.9638 42.9108 15.2868 39.5691 15.2868 35.4622C15.2868 31.3553 11.9638 28.0136 7.87986 28.0136Z" fill="white"/>
<path d="M25.2818 29.3622C25.2818 28.9861 25.458 28.7959 25.8063 28.7959H27.6032C27.9643 28.7959 28.1491 28.9775 28.1491 29.3449V33.923C28.1491 34.2516 28.3254 34.2256 28.6736 33.8495C29.9676 32.3408 31.3045 30.8277 32.6802 29.306C32.9811 28.9645 33.3164 28.7959 33.6775 28.7959H35.943C36.3041 28.7959 36.3256 28.9775 35.9989 29.3449C34.6319 30.8666 33.282 32.384 31.9537 33.9057C31.6871 34.2084 31.6656 34.498 31.8806 34.7617L36.7426 40.6713C37.0564 41.0474 37.0392 41.2376 36.6867 41.2376H33.9097C33.5486 41.2376 33.2261 41.0561 32.9467 40.6886L28.5403 35.0902C28.2738 34.7617 28.1406 34.7617 28.1406 35.0902V40.6886C28.1406 41.0517 27.96 41.2376 27.5946 41.2376H25.8192C25.458 41.2376 25.2732 41.0561 25.2732 40.6886V29.3622H25.2818Z" fill="white"/>
<path d="M40.9556 31.844C41.2565 31.7489 41.5617 31.6927 41.8626 31.6797H45.4006C46.4023 31.7272 47.2191 32.1682 47.851 32.9939C48.0101 33.4781 48.1003 34.0703 48.1218 34.762V40.6889C48.1218 41.0521 47.9413 41.2379 47.5759 41.2379H46.1228C45.7617 41.2379 45.5769 41.1126 45.5769 40.8532C45.5769 40.5592 45.3834 40.5852 44.9965 40.9267C44.73 41.0953 44.4635 41.199 44.1969 41.2379H41.0416C40.0743 41.1299 39.451 40.6803 39.1715 39.8891C39.0125 39.4136 38.9609 38.5577 39.0082 37.317C39.236 36.1238 40.0485 35.4926 41.4371 35.4191H45.1169C45.4178 35.4191 45.5683 35.2678 45.5683 34.9652C45.5554 34.2735 45.2072 33.8715 44.5151 33.7634H42.9718C42.4258 33.7288 42.0604 33.9579 41.8669 34.4551C41.8411 34.6237 41.6735 34.7101 41.3597 34.7101H39.8551C39.494 34.7101 39.3091 34.5286 39.3091 34.1611C39.322 33.0198 39.8637 32.246 40.9427 31.844H40.9556ZM42.1679 37.2607C41.6606 37.4077 41.4499 37.706 41.5316 38.1556C41.4327 38.6052 41.6563 38.9165 42.2023 39.0851H44.1797C44.8934 39.2061 45.3662 38.7522 45.5941 37.719C45.607 37.4164 45.4608 37.265 45.1599 37.265H42.1679V37.2607Z" fill="white"/>
<path d="M52.1069 31.7698L52.5411 31.6963H57.2397C58.3274 31.7568 59.157 32.3577 59.7245 33.5033C59.8449 33.8578 59.9222 34.208 59.9609 34.5624V38.6866C59.8535 39.9533 59.2129 40.7314 58.0393 41.0211C57.6137 41.1421 57.1495 41.2156 56.6422 41.2415H52.5969C51.389 41.207 50.5636 40.5931 50.1294 39.3999C50.009 39.0584 49.9316 38.7212 49.8929 38.3797V34.476C50.1939 32.9456 50.9333 32.0465 52.1069 31.7784V31.7698ZM53.7233 34.0134C52.7904 34.2339 52.3734 34.7267 52.4723 35.4919V37.8264C52.5067 38.41 52.885 38.7818 53.5986 38.9374H56.0833C56.7239 38.9028 57.1452 38.5483 57.3515 37.8782V35.1071C57.1581 34.3031 56.6723 33.9399 55.8985 34.0134H53.7233Z" fill="white"/>
<path d="M61.9384 29.3622C61.9384 28.9861 62.1147 28.7959 62.4629 28.7959H64.0234C64.3845 28.7959 64.5693 28.9775 64.5693 29.3449V32.3927C64.5693 32.7083 64.7628 32.7169 65.1497 32.41C65.6312 32.0814 66.0438 31.8825 66.3835 31.809C67.6903 31.4935 68.9542 31.7139 70.1751 32.4662C70.7425 33.0627 71.0477 33.8538 71.0821 34.8395V40.6929C71.0821 41.0561 70.9016 41.2419 70.5362 41.2419H69.0144C68.6533 41.2419 68.4684 41.0604 68.4684 40.6929V35.4577C68.4082 34.8871 68.0643 34.4893 67.4324 34.2732C66.2975 34.1132 65.4506 34.2991 64.8917 34.8222C64.7112 34.9822 64.5994 35.194 64.565 35.462V40.6972C64.565 41.0604 64.3845 41.2463 64.0191 41.2463H62.4758C62.1147 41.2463 61.9298 41.0647 61.9298 40.6972V29.3709L61.9384 29.3622Z" fill="white"/>
<path d="M73.5067 33.8886C73.6399 32.5009 74.4997 31.7747 76.0817 31.7012H80.0711C81.3306 31.7141 82.083 32.462 82.3366 33.9448C82.3366 34.3598 82.156 34.563 81.7906 34.563H80.4322C80.0711 34.563 79.8776 34.4982 79.8518 34.3642C79.6326 33.88 79.2715 33.6854 78.7642 33.7806H76.6964C76.1763 33.9146 75.9441 34.1956 76.0086 34.6192C75.9355 35.0083 76.1591 35.2504 76.6792 35.3498H80.2516C81.58 35.4493 82.3624 36.102 82.5902 37.3211V39.072C82.5171 39.6556 82.2807 40.1441 81.8809 40.5332C81.3349 40.9352 80.574 41.173 79.5939 41.2465H75.5873C73.9795 40.9309 73.1456 40.0836 73.0854 38.7132C73.0725 38.3371 73.2487 38.1468 73.6098 38.1468H75.2778C75.6389 38.1468 75.841 38.2376 75.8754 38.4192C76.0559 38.9163 76.4385 39.1498 77.0189 39.1109H78.7255C79.0651 39.1714 79.3832 39.0849 79.6885 38.8558C79.7959 38.7348 79.8518 38.5402 79.8518 38.2722C79.9722 37.7491 79.7057 37.4465 79.0522 37.36H75.4627C74.3965 37.373 73.7474 36.8542 73.5024 35.8081V33.893L73.5067 33.8886Z" fill="white"/>
<path d="M84.572 29.3622C84.572 28.9861 84.7483 28.7959 85.0965 28.7959H86.7645C87.1256 28.7959 87.3104 28.9775 87.3104 29.3449V29.9285C87.3104 30.2917 87.1299 30.4776 86.7645 30.4776H85.1137C84.7526 30.4776 84.5677 30.296 84.5677 29.9285V29.3622H84.572ZM84.572 32.2803C84.572 31.8912 84.7397 31.6967 85.0793 31.6967H86.7645C87.1256 31.6967 87.3104 31.8782 87.3104 32.2457V40.6886C87.3104 41.0517 87.1299 41.2376 86.7645 41.2376H85.1137C84.7526 41.2376 84.5677 41.0561 84.5677 40.6886V32.2803H84.572Z" fill="white"/>
<path d="M89.6489 32.2799C89.6489 31.8908 89.8166 31.6963 90.1562 31.6963H91.6608C92.0219 31.6963 92.2068 31.8778 92.2068 32.2453V37.4805C92.2197 38.1376 92.641 38.5742 93.4749 38.7947H94.8549C95.5427 38.6261 95.8995 38.1679 95.9253 37.4243V32.2453C95.9253 31.8822 96.1059 31.6963 96.4713 31.6963H97.9587C98.3198 31.6963 98.5046 31.8778 98.5046 32.2453V40.6882C98.5046 41.0513 98.3241 41.2372 97.9587 41.2372H96.4713C96.1102 41.2372 95.9253 41.047 95.9253 40.6709C95.9253 40.2213 95.792 40.2084 95.5255 40.6363C95.1988 40.9779 94.7259 41.1767 94.1112 41.2372H92.1337C91.6264 41.2113 91.1406 41.0903 90.6807 40.8741C90.0401 40.338 89.6962 39.5599 89.6489 38.5396V32.2842V32.2799Z" fill="white"/>
<path d="M100.71 32.2977C100.71 31.9346 100.891 31.7487 101.256 31.7487H102.872C103.233 31.7487 103.418 31.8827 103.418 32.1508C103.418 32.4404 103.612 32.4664 103.999 32.2243C104.738 31.8006 105.692 31.6147 106.866 31.6752C107.807 31.7617 108.534 32.0384 109.041 32.5139C109.501 32.9894 109.751 33.586 109.785 34.2993V40.6845C109.785 41.0476 109.604 41.2335 109.239 41.2335H107.734C107.373 41.2335 107.188 41.0519 107.188 40.6845V35.1596C107.163 34.6624 106.879 34.308 106.337 34.1005C105.722 34.0659 105.099 34.0529 104.467 34.0659C103.921 34.0918 103.573 34.4377 103.414 35.1077V40.6888C103.414 41.0519 103.233 41.2378 102.868 41.2378H101.252C100.891 41.2378 100.706 41.0562 100.706 40.6888V32.2977H100.71Z" fill="white"/>
<path d="M120.261 31.9338C120.481 31.4712 120.846 31.2853 121.366 31.3675C121.68 31.3675 121.839 31.549 121.839 31.9165V33.3042C121.839 33.6673 121.753 33.8532 121.585 33.8532C121.199 33.8186 120.932 34.0218 120.786 34.4714C120.678 34.9599 120.622 35.4744 120.622 36.0234C120.622 36.3865 120.386 36.7281 119.913 37.0436C119.586 37.2036 119.165 37.3116 118.645 37.3722H115.58C115.292 37.3722 115.116 37.3981 115.055 37.4457C114.789 37.6878 114.699 38.0552 114.785 38.5394C114.819 38.5999 114.982 38.6302 115.275 38.6302H119.5C119.982 38.6561 120.468 38.8074 120.953 39.0841C121.375 39.4256 121.607 39.8622 121.641 40.3983V43.1521C121.607 43.6363 121.379 44.0513 120.971 44.3928C120.584 44.6219 120.102 44.7646 119.518 44.8121H113.37C112.377 44.7992 111.78 44.3323 111.573 43.4071V40.6144C111.539 40.3248 111.694 40.0049 112.046 39.6677C112.214 39.5596 112.253 39.3565 112.154 39.0668C112.02 38.5308 112.179 37.9774 112.627 37.4068C112.927 37.1387 112.906 36.8837 112.553 36.6416C112.24 36.3476 112.119 35.9845 112.192 35.5479V33.5247C112.24 32.82 112.627 32.2926 113.353 31.9381C113.667 31.8041 114.037 31.7176 114.458 31.6831H118.649C119.002 31.696 119.359 31.7825 119.72 31.9381C120.034 32.0851 120.214 32.0851 120.266 31.9381L120.261 31.9338ZM118.959 41.384C119.032 40.7874 118.77 40.5064 118.181 40.5453H114.969C114.316 40.4977 114.049 40.7874 114.17 41.4229C114.062 42.1146 114.17 42.5944 114.497 42.8624C114.583 42.8884 114.767 42.897 115.06 42.897H118.069C118.722 43.0181 119.019 42.7328 118.959 42.0411V41.384ZM115.184 33.5376C115.038 33.5506 114.901 33.6889 114.767 33.957C114.72 34.3806 114.72 34.8259 114.767 35.2885C114.974 35.5781 115.257 35.6819 115.619 35.5997H117.179C117.94 35.6127 118.241 35.2582 118.086 34.5406C118.219 33.823 117.923 33.4771 117.196 33.5031C116.53 33.4901 115.859 33.503 115.184 33.5376Z" fill="white"/>
<path d="M133.012 29.3622C133.012 28.9861 133.188 28.7959 133.536 28.7959H143.368C143.729 28.7959 143.914 28.9775 143.914 29.3449V30.8753C143.914 31.2384 143.733 31.4243 143.368 31.4243H136.455C136.154 31.4243 136.004 31.5756 136.004 31.8826V33.2702C136.004 33.5728 136.154 33.7242 136.455 33.7242H142.749C143.11 33.7242 143.295 33.9057 143.295 34.2732V35.6782C143.295 36.0413 143.114 36.2272 142.749 36.2272H136.455C136.154 36.2272 136.004 36.3785 136.004 36.6811V38.0861C136.004 38.3887 136.154 38.54 136.455 38.54H143.69C144.051 38.54 144.236 38.7216 144.236 39.0891V40.6929C144.236 41.0561 144.056 41.2419 143.69 41.2419H133.554C133.192 41.2419 133.008 41.0604 133.008 40.6929V29.3665L133.012 29.3622Z" fill="white"/>
<path d="M146.669 32.2799C146.442 31.8908 146.493 31.6963 146.833 31.6963H148.81C149.171 31.6963 149.464 31.8778 149.683 32.2453L150.663 33.8664C150.869 34.195 151.054 34.2209 151.226 33.9399C151.527 33.3823 151.85 32.8159 152.189 32.2453C152.408 31.8822 152.696 31.6963 153.062 31.6963H154.859C155.22 31.6963 155.293 31.8778 155.078 32.2453L153.066 35.6389C152.899 35.9329 152.907 36.2571 153.101 36.6245L155.259 40.6536C155.478 41.0427 155.418 41.2372 155.078 41.2372H153.083C152.722 41.2372 152.46 41.0557 152.305 40.6882C152.004 40.0181 151.716 39.3524 151.454 38.6823C151.274 38.3062 151.067 38.2803 150.839 38.6088C150.414 39.2919 150.018 39.9706 149.644 40.6493C149.412 41.0384 149.128 41.2329 148.793 41.2329H146.76C146.399 41.2329 146.326 41.0513 146.54 40.6839L148.806 36.8537C148.999 36.4992 148.982 36.136 148.75 35.7599L146.682 32.2756L146.669 32.2799Z" fill="white"/>
<path d="M157.262 29.3622C157.262 28.9861 157.438 28.7959 157.786 28.7959H159.347C159.708 28.7959 159.893 28.9775 159.893 29.3449V32.3927C159.893 32.7083 160.086 32.7169 160.473 32.41C160.955 32.0814 161.367 31.8825 161.707 31.809C163.014 31.4935 164.278 31.7139 165.499 32.4662C166.066 33.0627 166.371 33.8538 166.406 34.8395V40.6929C166.406 41.0561 166.225 41.2419 165.86 41.2419H164.338C163.977 41.2419 163.792 41.0604 163.792 40.6929V35.4577C163.732 34.8871 163.388 34.4893 162.756 34.2732C161.621 34.1132 160.774 34.2991 160.215 34.8222C160.035 34.9822 159.923 35.194 159.889 35.462V40.6972C159.889 41.0604 159.708 41.2463 159.343 41.2463H157.799C157.438 41.2463 157.253 41.0647 157.253 40.6972V29.3709L157.262 29.3622Z" fill="white"/>
<path d="M168.615 29.3622C168.615 28.9861 168.792 28.7959 169.14 28.7959H170.808C171.169 28.7959 171.354 28.9775 171.354 29.3449V29.9285C171.354 30.2917 171.173 30.4776 170.808 30.4776H169.157C168.796 30.4776 168.611 30.296 168.611 29.9285V29.3622H168.615ZM168.615 32.2803C168.615 31.8912 168.783 31.6967 169.123 31.6967H170.808C171.169 31.6967 171.354 31.8782 171.354 32.2457V40.6886C171.354 41.0517 171.173 41.2376 170.808 41.2376H169.157C168.796 41.2376 168.611 41.0561 168.611 40.6886V32.2803H168.615Z" fill="white"/>
<path d="M173.675 29.3622C173.675 28.9861 173.851 28.7959 174.2 28.7959H175.687C176.048 28.7959 176.233 28.9775 176.233 29.3449V32.0252C176.233 32.3408 176.426 32.3711 176.813 32.116C177.166 31.9215 177.613 31.7831 178.155 31.6967H180.003C180.631 31.7831 181.116 31.9215 181.456 32.116C182.071 32.4791 182.449 32.9201 182.582 33.4302C182.703 33.8538 182.78 34.2861 182.819 34.7271V38.4319C182.793 38.9161 182.655 39.4046 182.402 39.8931C181.895 40.7794 181.125 41.229 180.098 41.2419H177.703C177.342 41.216 177.007 41.1036 176.706 40.8961C176.392 40.667 176.233 40.6713 176.233 40.9134C176.233 41.1338 176.052 41.2419 175.687 41.2419H174.217C173.856 41.2419 173.671 41.0604 173.671 40.6929V29.3665L173.675 29.3622ZM177.157 34.1608C176.551 34.3294 176.246 34.6709 176.233 35.181V37.7359C176.439 38.4795 176.912 38.8081 177.647 38.7216C178.649 38.7951 179.324 38.7216 179.659 38.5011C179.887 38.3196 180.02 38.1121 180.059 37.8829V35.1292C180.033 34.6536 179.745 34.3337 179.186 34.1608H177.153H177.157Z" fill="white"/>
<path d="M184.702 29.3622C184.702 28.9861 184.878 28.7959 185.226 28.7959H186.894C187.255 28.7959 187.44 28.9775 187.44 29.3449V29.9285C187.44 30.2917 187.26 30.4776 186.894 30.4776H185.243C184.882 30.4776 184.698 30.296 184.698 29.9285V29.3622H184.702ZM184.702 32.2803C184.702 31.8912 184.869 31.6967 185.209 31.6967H186.894C187.255 31.6967 187.44 31.8782 187.44 32.2457V40.6886C187.44 41.0517 187.26 41.2376 186.894 41.2376H185.243C184.882 41.2376 184.698 41.0561 184.698 40.6886V32.2803H184.702Z" fill="white"/>
<path d="M190.72 29.5653C190.72 29.1892 190.896 28.999 191.245 28.999H192.857C193.218 28.999 193.403 29.1806 193.403 29.5481V31.2427C193.403 31.5453 193.553 31.7009 193.854 31.7009H195.595C195.956 31.7009 196.141 31.8825 196.141 32.25V33.5469C196.141 33.91 195.961 34.0959 195.595 34.0959H193.927C193.626 34.0959 193.476 34.2472 193.476 34.5498V37.7964C193.536 38.3455 193.863 38.6783 194.456 38.7994H195.724C196.085 38.7994 196.27 38.9809 196.27 39.3484V40.6972C196.27 41.0603 196.09 41.2462 195.724 41.2462H193.183C191.49 40.9306 190.669 39.9579 190.716 38.3282V34.5541C190.716 34.2515 190.527 34.1002 190.153 34.1002C189.779 34.1002 189.59 33.9187 189.59 33.5512V32.2543C189.59 31.8912 189.77 31.7053 190.136 31.7053C190.522 31.7053 190.716 31.5539 190.716 31.247V29.5697L190.72 29.5653Z" fill="white"/>
<path d="M198.265 29.3622C198.265 28.9861 198.441 28.7959 198.789 28.7959H200.457C200.818 28.7959 201.003 28.9775 201.003 29.3449V29.9285C201.003 30.2917 200.823 30.4776 200.457 30.4776H198.806C198.445 30.4776 198.26 30.296 198.26 29.9285V29.3622H198.265ZM198.265 32.2803C198.265 31.8912 198.432 31.6967 198.772 31.6967H200.457C200.818 31.6967 201.003 31.8782 201.003 32.2457V40.6886C201.003 41.0517 200.823 41.2376 200.457 41.2376H198.806C198.445 41.2376 198.26 41.0561 198.26 40.6886V32.2803H198.265Z" fill="white"/>
<path d="M205.375 31.7698L205.809 31.6963H210.508C211.596 31.7568 212.425 32.3577 212.993 33.5033C213.113 33.8578 213.19 34.208 213.229 34.5624V38.6866C213.122 39.9533 212.481 40.7314 211.308 41.0211C210.882 41.1421 210.418 41.2156 209.91 41.2415H205.865C204.657 41.207 203.832 40.5931 203.398 39.3999C203.277 39.0584 203.2 38.7212 203.161 38.3797V34.476C203.462 32.9456 204.201 32.0465 205.375 31.7784V31.7698ZM206.991 34.0134C206.059 34.2339 205.642 34.7267 205.74 35.4919V37.8264C205.775 38.41 206.153 38.7818 206.867 38.9374H209.352C209.992 38.9028 210.413 38.5483 210.62 37.8782V35.1071C210.426 34.3031 209.94 33.9399 209.167 34.0134H206.991Z" fill="white"/>
<path d="M215.207 32.2977C215.207 31.9346 215.387 31.7487 215.753 31.7487H217.369C217.73 31.7487 217.915 31.8827 217.915 32.1508C217.915 32.4404 218.108 32.4664 218.495 32.2243C219.235 31.8006 220.189 31.6147 221.363 31.6752C222.304 31.7617 223.031 32.0384 223.538 32.5139C223.998 32.9894 224.247 33.586 224.282 34.2993V40.6845C224.282 41.0476 224.101 41.2335 223.736 41.2335H222.231C221.87 41.2335 221.685 41.0519 221.685 40.6845V35.1596C221.659 34.6624 221.376 34.308 220.834 34.1005C220.219 34.0659 219.596 34.0529 218.964 34.0659C218.418 34.0918 218.07 34.4377 217.911 35.1077V40.6888C217.911 41.0519 217.73 41.2378 217.365 41.2378H215.748C215.387 41.2378 215.202 41.0562 215.202 40.6888V32.2977H215.207Z" fill="white"/>
<path d="M237.93 29.0731C238.33 28.9521 238.85 28.8613 239.491 28.8008H244.968C245.935 28.9002 246.662 29.125 247.143 29.4752C248.244 30.5559 248.695 31.7664 248.501 33.1065C248.501 33.4696 248.321 33.6555 247.955 33.6555H246.034C245.673 33.6555 245.488 33.474 245.488 33.1065C245.574 32.1209 245.084 31.5329 244.018 31.3384H240.389C239.409 31.373 238.816 31.9306 238.614 32.9984V36.9194C238.614 37.7451 239.151 38.2855 240.226 38.5406H244.215C245.157 38.3331 245.643 37.7668 245.668 36.846C245.681 36.3834 245.866 36.1543 246.232 36.1543H247.99C248.351 36.1543 248.536 36.3358 248.536 36.7033C248.643 38.0045 248.295 39.1588 247.483 40.1704C247.169 40.4989 246.812 40.728 246.412 40.8621C245.866 41.0825 245.256 41.2079 244.581 41.2468H239.212C238.631 41.1993 238.145 41.1085 237.759 40.9745C236.49 40.5249 235.777 39.5652 235.618 38.091V32.8947C235.631 31.8485 235.931 30.8758 236.525 29.9766C236.839 29.553 237.303 29.2547 237.922 29.0818L237.93 29.0731Z" fill="white"/>
<path d="M251.949 31.9908C252.349 31.8222 252.723 31.7228 253.075 31.7012H257.082C258.449 31.7141 259.266 32.4058 259.532 33.7806V35.5141C259.485 36.1236 259.339 36.6078 259.098 36.9753C258.737 37.3168 258.178 37.4422 257.43 37.36H253.239C252.938 37.36 252.787 37.5503 252.787 37.9264C252.654 38.6094 252.964 39.0028 253.712 39.1109H255.599C256.3 39.2189 256.712 38.9207 256.833 38.216C256.833 38.082 257.013 38.0172 257.379 38.0172H258.939C259.3 38.0172 259.485 38.1987 259.485 38.5662C259.352 39.6729 258.905 40.4683 258.144 40.9568C257.718 41.1254 257.297 41.2248 256.876 41.2465H252.633C251.859 41.16 251.261 40.8574 250.836 40.3343C250.522 39.8501 250.333 39.193 250.273 38.363V34.6971C250.32 33.5298 250.883 32.6306 251.958 31.9995L251.949 31.9908ZM253.437 33.8325C252.929 33.9535 252.71 34.2475 252.783 34.71C252.697 35.1466 252.908 35.4406 253.419 35.5876H255.848C256.635 35.6135 256.962 35.2763 256.828 34.5847C256.781 34.014 256.441 33.7633 255.814 33.8368H253.437V33.8325Z" fill="white"/>
<path d="M261.488 32.2977C261.488 31.9346 261.669 31.7487 262.034 31.7487H263.651C264.012 31.7487 264.197 31.8827 264.197 32.1508C264.197 32.4404 264.39 32.4664 264.777 32.2243C265.516 31.8006 266.471 31.6147 267.644 31.6752C268.586 31.7617 269.312 32.0384 269.82 32.5139C270.28 32.9894 270.529 33.586 270.563 34.2993V40.6845C270.563 41.0476 270.383 41.2335 270.017 41.2335H268.513C268.152 41.2335 267.967 41.0519 267.967 40.6845V35.1596C267.941 34.6624 267.657 34.308 267.116 34.1005C266.501 34.0659 265.878 34.0529 265.246 34.0659C264.7 34.0918 264.351 34.4377 264.192 35.1077V40.6888C264.192 41.0519 264.012 41.2378 263.646 41.2378H262.03C261.669 41.2378 261.484 41.0562 261.484 40.6888V32.2977H261.488Z" fill="white"/>
<path d="M273.715 29.5653C273.715 29.1892 273.891 28.999 274.239 28.999H275.851C276.212 28.999 276.397 29.1806 276.397 29.5481V31.2427C276.397 31.5453 276.548 31.7009 276.849 31.7009H278.59C278.951 31.7009 279.136 31.8825 279.136 32.25V33.5469C279.136 33.91 278.955 34.0959 278.59 34.0959H276.922C276.621 34.0959 276.47 34.2472 276.47 34.5498V37.7964C276.53 38.3455 276.857 38.6783 277.45 38.7994H278.719C279.08 38.7994 279.264 38.9809 279.264 39.3484V40.6972C279.264 41.0603 279.084 41.2462 278.719 41.2462H276.178C274.484 40.9306 273.663 39.9579 273.71 38.3282V34.5541C273.71 34.2515 273.521 34.1002 273.147 34.1002C272.773 34.1002 272.584 33.9187 272.584 33.5512V32.2543C272.584 31.8912 272.765 31.7053 273.13 31.7053C273.517 31.7053 273.71 31.5539 273.71 31.247V29.5697L273.715 29.5653Z" fill="white"/>
<path d="M282.781 31.9908C283.181 31.8222 283.555 31.7228 283.907 31.7012H287.914C289.281 31.7141 290.098 32.4058 290.364 33.7806V35.5141C290.317 36.1236 290.171 36.6078 289.93 36.9753C289.569 37.3168 289.01 37.4422 288.262 37.36H284.07C283.77 37.36 283.619 37.5503 283.619 37.9264C283.486 38.6094 283.795 39.0028 284.543 39.1109H286.431C287.131 39.2189 287.544 38.9207 287.664 38.216C287.664 38.082 287.845 38.0172 288.21 38.0172H289.771C290.132 38.0172 290.317 38.1987 290.317 38.5662C290.183 39.6729 289.736 40.4683 288.976 40.9568C288.55 41.1254 288.129 41.2248 287.707 41.2465H283.464C282.691 41.16 282.093 40.8574 281.667 40.3343C281.354 39.8501 281.164 39.193 281.104 38.363V34.6971C281.152 33.5298 281.715 32.6306 282.789 31.9995L282.781 31.9908ZM284.268 33.8325C283.761 33.9535 283.542 34.2475 283.615 34.71C283.529 35.1466 283.739 35.4406 284.251 35.5876H286.68C287.467 35.6135 287.793 35.2763 287.66 34.5847C287.613 34.014 287.273 33.7633 286.646 33.8368H284.268V33.8325Z" fill="white"/>
<path d="M292.32 32.2799C292.32 31.8908 292.488 31.6963 292.827 31.6963H294.405C294.766 31.6963 294.951 31.8605 294.951 32.1891C294.951 32.5652 295.145 32.5782 295.531 32.2237C295.893 31.9427 296.383 31.7698 297.002 31.6963H299.104C299.465 31.6963 299.65 31.8778 299.65 32.2453V33.6114C299.65 33.9745 299.469 34.1604 299.104 34.1604H297.182C296.288 34.3204 295.635 34.7916 295.222 35.5827C295.076 35.9847 294.986 36.4084 294.951 36.858V40.6882C294.951 41.0513 294.771 41.2372 294.405 41.2372H292.862C292.501 41.2372 292.316 41.0557 292.316 40.6882V32.2799H292.32Z" fill="white"/>
<path d="M27.4614 53.7919C27.8612 53.6708 28.3813 53.5801 29.0219 53.5195H34.4986C35.4659 53.619 36.1924 53.8438 36.6739 54.1939C37.7744 55.2747 38.2258 56.4851 38.0323 57.8253C38.0323 58.1884 37.8518 58.3743 37.4864 58.3743H35.5648C35.2037 58.3743 35.0188 58.1927 35.0188 57.8253C35.1048 56.8396 34.6147 56.2517 33.5486 56.0572H29.9203C28.9402 56.0917 28.3469 56.6494 28.1449 57.7172V61.6382C28.1449 62.4639 28.6822 63.0043 29.757 63.2593H33.7463C34.6878 63.0518 35.1736 62.4855 35.1994 61.5647C35.2123 61.1021 35.3971 60.873 35.7625 60.873H37.5208C37.8819 60.873 38.0667 61.0546 38.0667 61.422C38.1742 62.7233 37.826 63.8775 37.0135 64.8891C36.6997 65.2177 36.3429 65.4468 35.9431 65.5808C35.3971 65.8013 34.7867 65.9267 34.1117 65.9656H28.7424C28.1621 65.918 27.6763 65.8272 27.2894 65.6932C26.0212 65.2436 25.3076 64.2839 25.1486 62.8097V57.6134C25.1615 56.5673 25.4624 55.5946 26.0556 54.6954C26.3694 54.2717 26.8337 53.9734 27.4528 53.8005L27.4614 53.7919Z" fill="white"/>
<path d="M42.0045 56.4895L42.4386 56.416H47.1373C48.2249 56.4765 49.0546 57.0774 49.6221 58.223C49.7425 58.5775 49.8198 58.9277 49.8585 59.2822V63.4064C49.751 64.673 49.1105 65.4512 47.9369 65.7408C47.5113 65.8619 47.047 65.9353 46.5398 65.9613H42.4945C41.2865 65.9267 40.4612 65.3128 40.027 64.1197C39.9066 63.7782 39.8292 63.4409 39.7905 63.0994V59.1957C40.0914 57.6654 40.8309 56.7662 42.0045 56.4982V56.4895ZM43.6208 58.7332C42.688 58.9536 42.271 59.4465 42.3699 60.2116V62.5461C42.4043 63.1297 42.7826 63.5015 43.4962 63.6571H45.9809C46.6215 63.6225 47.0428 63.268 47.2491 62.598V59.8269C47.0556 59.0228 46.5699 58.6597 45.7961 58.7332H43.6208Z" fill="white"/>
<path d="M51.836 57.0214C51.836 56.6582 52.0165 56.4724 52.3819 56.4724H53.9983C54.3594 56.4724 54.5443 56.6064 54.5443 56.8744C54.5443 57.1641 54.7377 57.19 55.1246 56.9479C55.864 56.5242 56.8184 56.3383 57.992 56.3989C58.9334 56.4853 59.6599 56.762 60.1672 57.2375C60.6272 57.7131 60.8765 58.3096 60.9109 59.0229V65.4081C60.9109 65.7712 60.7304 65.9571 60.365 65.9571H58.8603C58.4992 65.9571 58.3144 65.7755 58.3144 65.4081V59.8832C58.2886 59.3861 58.0049 59.0316 57.4632 58.8241C56.8485 58.7895 56.2251 58.7765 55.5932 58.7895C55.0472 58.8155 54.699 59.1613 54.54 59.8314V65.4124C54.54 65.7756 54.3594 65.9614 53.994 65.9614H52.3776C52.0165 65.9614 51.8317 65.7799 51.8317 65.4124V57.0214H51.836Z" fill="white"/>
<path d="M65.6741 53.5542C66.3275 53.5196 66.9982 53.5066 67.686 53.5196C68.0471 53.5196 68.232 53.7012 68.232 54.0686V55.037C68.232 55.4001 68.0514 55.586 67.686 55.586C67.4453 55.573 67.2045 55.586 66.9595 55.6206C66.7402 55.7416 66.6457 55.9448 66.6672 56.2215C66.7144 56.3555 66.8864 56.4204 67.1744 56.4204H67.9353C68.2964 56.4204 68.4813 56.6019 68.4813 56.9694V58.2663C68.4813 58.6294 68.3007 58.8153 67.9353 58.8153H67.2475C66.9466 58.8153 66.7961 58.9666 66.7961 59.2692V65.4166C66.7961 65.7797 66.6156 65.9656 66.2502 65.9656H64.5822C64.2211 65.9656 64.0362 65.7841 64.0362 65.4166V59.2692C64.0362 58.9666 63.8858 58.8153 63.5849 58.8153H63.314C62.9529 58.8153 62.7681 58.6337 62.7681 58.2663V56.9694C62.7681 56.6062 62.9486 56.4204 63.314 56.4204H63.5849C63.8858 56.4204 64.0362 56.269 64.0362 55.9621C64.0018 55.3785 64.1824 54.7992 64.5822 54.2286C64.896 53.8741 65.2614 53.6493 65.6698 53.5542H65.6741Z" fill="white"/>
<path d="M71.9462 56.7105C72.346 56.5419 72.72 56.4425 73.0725 56.4209H77.0791C78.4461 56.4339 79.2629 57.1256 79.5295 58.5003V60.2338C79.4822 60.8433 79.336 61.3275 79.0953 61.695C78.7342 62.0365 78.1753 62.1619 77.4273 62.0797H73.2359C72.935 62.0797 72.7845 62.27 72.7845 62.6461C72.6512 63.3291 72.9608 63.7225 73.7088 63.8306H75.596C76.2967 63.9386 76.7094 63.6404 76.8298 62.9357C76.8298 62.8017 77.0103 62.7369 77.3757 62.7369H78.9362C79.2973 62.7369 79.4822 62.9184 79.4822 63.2859C79.3489 64.3926 78.9018 65.188 78.1409 65.6765C77.7153 65.8451 77.294 65.9445 76.8727 65.9662H72.6297C71.8559 65.8797 71.2584 65.5771 70.8328 65.054C70.519 64.5698 70.3298 63.9127 70.2697 63.0827V59.4168C70.3169 58.2495 70.8801 57.3503 71.9548 56.7192L71.9462 56.7105ZM73.4336 58.5522C72.9264 58.6732 72.7071 58.9672 72.7802 59.4297C72.6942 59.8663 72.9049 60.1603 73.4164 60.3073H75.8453C76.632 60.3332 76.9587 59.996 76.8255 59.3044C76.7782 58.7337 76.4386 58.483 75.8109 58.5565H73.4336V58.5522Z" fill="white"/>
<path d="M81.4898 56.9996C81.4898 56.6105 81.6574 56.416 81.997 56.416H83.5747C83.9358 56.416 84.1207 56.5803 84.1207 56.9088C84.1207 57.2849 84.3141 57.2979 84.701 56.9434C85.0621 56.6624 85.5522 56.4895 86.1713 56.416H88.2734C88.6345 56.416 88.8194 56.5976 88.8194 56.965V58.3311C88.8194 58.6943 88.6388 58.8801 88.2734 58.8801H86.3518C85.4576 59.0401 84.8042 59.5113 84.3915 60.3024C84.2454 60.7045 84.1551 61.1281 84.1207 61.5777V65.4079C84.1207 65.7711 83.9401 65.957 83.5747 65.957H82.0314C81.6703 65.957 81.4855 65.7754 81.4855 65.4079V56.9996H81.4898Z" fill="white"/>
<path d="M92.095 56.7105C92.4948 56.5419 92.8688 56.4425 93.2213 56.4209H97.2279C98.5949 56.4339 99.4117 57.1256 99.6783 58.5003V60.2338C99.631 60.8433 99.4848 61.3275 99.2441 61.695C98.883 62.0365 98.3241 62.1619 97.5761 62.0797H93.3847C93.0838 62.0797 92.9333 62.27 92.9333 62.6461C92.8 63.3291 93.1096 63.7225 93.8576 63.8306H95.7448C96.4455 63.9386 96.8582 63.6404 96.9786 62.9357C96.9786 62.8017 97.1591 62.7369 97.5245 62.7369H99.085C99.4461 62.7369 99.631 62.9184 99.631 63.2859C99.4977 64.3926 99.0506 65.188 98.2897 65.6765C97.8641 65.8451 97.4428 65.9445 97.0216 65.9662H92.7785C92.0047 65.8797 91.4072 65.5771 90.9816 65.054C90.6678 64.5698 90.4786 63.9127 90.4185 63.0827V59.4168C90.4657 58.2495 91.0289 57.3503 92.1036 56.7192L92.095 56.7105ZM93.5824 58.5522C93.0752 58.6732 92.8559 58.9672 92.929 59.4297C92.843 59.8663 93.0537 60.1603 93.5652 60.3073H95.9941C96.7808 60.3332 97.1075 59.996 96.9743 59.3044C96.927 58.7337 96.5874 58.483 95.9597 58.5565H93.5824V58.5522Z" fill="white"/>
<path d="M101.639 57.0214C101.639 56.6582 101.819 56.4724 102.185 56.4724H103.801C104.162 56.4724 104.347 56.6064 104.347 56.8744C104.347 57.1641 104.54 57.19 104.927 56.9479C105.667 56.5242 106.621 56.3383 107.795 56.3989C108.736 56.4853 109.463 56.762 109.97 57.2375C110.43 57.7131 110.679 58.3096 110.714 59.0229V65.4081C110.714 65.7712 110.533 65.9571 110.168 65.9571H108.663C108.302 65.9571 108.117 65.7755 108.117 65.4081V59.8832C108.091 59.3861 107.807 59.0316 107.266 58.8241C106.651 58.7895 106.028 58.7765 105.396 58.7895C104.85 58.8155 104.502 59.1613 104.343 59.8314V65.4124C104.343 65.7756 104.162 65.9614 103.797 65.9614H102.18C101.819 65.9614 101.634 65.7799 101.634 65.4124V57.0214H101.639Z" fill="white"/>
<path d="M114.277 56.8007C114.785 56.5932 115.421 56.4679 116.182 56.416H118.667C120.88 56.576 121.981 57.6135 121.968 59.5329C121.968 59.896 121.788 60.0819 121.422 60.0819H119.879C119.518 60.0819 119.333 60.0171 119.333 59.8831C119.26 59.1784 118.881 58.8196 118.189 58.8066H116.251C115.657 58.9666 115.339 59.2995 115.288 59.8096V62.4726C115.434 63.0303 115.851 63.3545 116.539 63.441H118.426C119.066 63.294 119.35 62.9308 119.277 62.3472C119.277 61.9841 119.458 61.7982 119.823 61.7982H121.491C121.852 61.7982 122.037 61.9798 122.037 62.3472C122.097 63.2464 121.921 64.0721 121.512 64.8286C120.945 65.5463 120.188 65.9224 119.247 65.9613H115.563C114.002 65.8402 113.074 64.9627 112.768 63.3329V59.1395C112.854 58.1409 113.353 57.3627 114.273 56.8051L114.277 56.8007Z" fill="white"/>
<path d="M125.523 56.7105C125.923 56.5419 126.297 56.4425 126.65 56.4209H130.656C132.023 56.4339 132.84 57.1256 133.106 58.5003V60.2338C133.059 60.8433 132.913 61.3275 132.672 61.695C132.311 62.0365 131.752 62.1619 131.004 62.0797H126.813C126.512 62.0797 126.362 62.27 126.362 62.6461C126.228 63.3291 126.538 63.7225 127.286 63.8306H129.173C129.874 63.9386 130.286 63.6404 130.407 62.9357C130.407 62.8017 130.587 62.7369 130.953 62.7369H132.513C132.874 62.7369 133.059 62.9184 133.059 63.2859C132.926 64.3926 132.479 65.188 131.718 65.6765C131.292 65.8451 130.871 65.9445 130.45 65.9662H126.207C125.433 65.8797 124.835 65.5771 124.41 65.054C124.096 64.5698 123.907 63.9127 123.847 63.0827V59.4168C123.894 58.2495 124.457 57.3503 125.532 56.7192L125.523 56.7105ZM127.011 58.5522C126.503 58.6732 126.284 58.9672 126.357 59.4297C126.271 59.8663 126.482 60.1603 126.993 60.3073H129.422C130.209 60.3332 130.536 59.996 130.402 59.3044C130.355 58.7337 130.016 58.483 129.388 58.5565H127.011V58.5522Z" fill="white"/>
<path d="M144.348 54.0811C144.348 53.705 144.524 53.5146 144.873 53.5146H153.668C154.201 53.5622 154.683 53.6661 155.121 53.826C155.908 54.1892 156.329 54.7339 156.389 55.4472V58.2009C156.342 58.8105 156.131 59.2946 155.753 59.662C155.379 59.9301 155.362 60.1722 155.697 60.3927C156.157 60.8077 156.406 61.3221 156.441 61.9446V65.4117C156.441 65.7748 156.26 65.9608 155.895 65.9608H154.008C153.647 65.9608 153.462 65.7791 153.462 65.4117V62.7141C153.462 62.0829 153.079 61.6506 152.318 61.4172H147.783C147.482 61.4172 147.332 61.5686 147.332 61.8712V65.4117C147.332 65.7748 147.151 65.9608 146.786 65.9608H144.881C144.52 65.9608 144.335 65.7791 144.335 65.4117V54.0854L144.348 54.0811ZM152.366 55.8881H147.796C147.495 55.8881 147.344 56.0393 147.344 56.3419V58.404C147.344 58.7066 147.495 58.8579 147.796 58.8579H152.421C152.868 58.832 153.178 58.5726 153.346 58.0756C153.406 57.3579 153.35 56.8132 153.182 56.4328C153.002 56.1302 152.731 55.9486 152.366 55.8838V55.8881Z" fill="white"/>
<path d="M160.598 56.4895L161.032 56.416H165.731C166.818 56.4765 167.648 57.0774 168.215 58.223C168.336 58.5775 168.413 58.9277 168.452 59.2822V63.4064C168.344 64.673 167.704 65.4512 166.53 65.7408C166.105 65.8619 165.64 65.9353 165.133 65.9613H161.088C159.88 65.9267 159.054 65.3128 158.62 64.1197C158.5 63.7782 158.422 63.4409 158.384 63.0994V59.1957C158.685 57.6654 159.424 56.7662 160.598 56.4982V56.4895ZM162.214 58.7332C161.281 58.9536 160.864 59.4465 160.963 60.2116V62.5461C160.998 63.1297 161.376 63.5015 162.089 63.6571H164.574C165.215 63.6225 165.636 63.268 165.842 62.598V59.8269C165.649 59.0228 165.163 58.6597 164.389 58.7332H162.214Z" fill="white"/>
<path d="M172.48 56.4895L172.914 56.416H177.613C178.7 56.4765 179.53 57.0774 180.098 58.223C180.218 58.5775 180.295 58.9277 180.334 59.2822V63.4064C180.227 64.673 179.586 65.4512 178.412 65.7408C177.987 65.8619 177.523 65.9353 177.015 65.9613H172.97C171.762 65.9267 170.937 65.3128 170.502 64.1197C170.382 63.7782 170.305 63.4409 170.266 63.0994V59.1957C170.567 57.6654 171.306 56.7662 172.48 56.4982V56.4895ZM174.092 58.7332C173.159 58.9536 172.742 59.4465 172.841 60.2116V62.5461C172.875 63.1297 173.254 63.5015 173.967 63.6571H176.452C177.093 63.6225 177.514 63.268 177.72 62.598V59.8269C177.527 59.0228 177.041 58.6597 176.267 58.7332H174.092Z" fill="white"/>
<path d="M185.411 56.9262C186.026 56.4507 186.769 56.2994 187.642 56.4723C187.956 56.5588 188.321 56.762 188.73 57.0905C189.104 57.3931 189.448 57.3715 189.766 57.017C190.105 56.6539 190.587 56.4594 191.219 56.4334C192.839 56.1784 193.811 56.9262 194.138 58.6771V65.4081C194.138 65.7712 193.957 65.9571 193.592 65.9571H192.031C191.67 65.9571 191.485 65.7755 191.485 65.4081V60.0259C191.511 59.1742 191.154 58.7938 190.415 58.8759C189.714 58.9365 189.405 59.2693 189.491 59.8789V65.4037C189.491 65.7669 189.31 65.9528 188.945 65.9528H187.423C187.062 65.9528 186.877 65.7712 186.877 65.4037V59.4941C186.877 59.2737 186.739 59.0878 186.46 58.9278C185.72 58.7938 185.226 58.8543 184.972 59.1094C184.912 59.1958 184.865 59.3082 184.826 59.4552V65.3994C184.826 65.7625 184.646 65.9484 184.28 65.9484H182.849C182.488 65.9484 182.303 65.7669 182.303 65.3994V57.0257C182.303 56.6625 182.483 56.4766 182.849 56.4766H184.28C184.641 56.4766 184.826 56.628 184.826 56.9306C184.826 57.2851 185.02 57.2764 185.407 56.9133L185.411 56.9262Z" fill="white"/>
<path d="M207.172 53.9001C207.74 53.671 208.359 53.537 209.021 53.498H214.79C215.323 53.5456 215.804 53.645 216.243 53.7877C217.176 54.1292 217.653 54.7344 217.674 55.612V57.4925C217.627 58.1756 217.292 58.716 216.677 59.1137C216.35 59.2952 216.376 59.4984 216.75 59.7146C217.296 60.0431 217.623 60.4452 217.73 60.9207C218.104 62.624 217.786 64.0592 216.767 65.2265C216.152 65.6631 215.396 65.9095 214.502 65.9571H208.896C206.648 65.7885 205.59 64.699 205.723 62.6931C205.723 62.33 205.904 62.1441 206.269 62.1441H208.028C208.389 62.1441 208.574 62.2176 208.574 62.3646C208.647 63.1557 209.089 63.5145 209.898 63.441H213.543C213.943 63.4756 214.27 63.3935 214.523 63.186C214.897 62.8228 215.013 62.2133 214.867 61.3617C214.76 61.0677 214.51 60.8991 214.123 60.8515H209.554C209.193 60.8515 209.008 60.67 209.008 60.3025V58.971C209.008 58.6079 209.188 58.422 209.554 58.422H213.616C214.037 58.3874 214.347 58.275 214.54 58.0934C214.76 57.9119 214.837 57.6395 214.777 57.2721C214.79 56.9911 214.777 56.7144 214.742 56.4334C214.45 55.9492 214.063 55.759 213.582 55.8671H209.554C208.887 56.0486 208.612 56.4074 208.72 56.9435C208.72 57.1856 208.539 57.3066 208.174 57.3066H206.304C205.943 57.3066 205.758 57.1251 205.758 56.7576C205.732 56.2216 205.814 55.6898 205.994 55.1538C206.188 54.6307 206.579 54.2113 207.172 53.8958V53.9001Z" fill="white"/>
<path d="M219.725 57.2369C219.905 54.8765 221.178 53.6357 223.534 53.5146H227.979C228.391 53.5492 228.873 53.6659 229.432 53.8605C229.965 54.068 230.429 54.4269 230.829 54.937C231.31 55.6546 231.577 56.4932 231.628 57.4529V62.4332C231.628 63.5745 231.151 64.5298 230.197 65.2949C229.316 65.844 228.34 66.151 227.278 66.2245H223.177C222.063 66.1899 221.126 65.6971 220.365 64.746C220.004 64.1148 219.789 63.4101 219.729 62.632V57.2325L219.725 57.2369ZM223.951 56.3982C223.069 56.6057 222.622 57.0855 222.609 57.8377V61.7761C222.657 62.6753 223.164 63.1939 224.131 63.328H227.231C228.185 63.1205 228.688 62.4763 228.735 61.3955V58.0583C228.709 57.1807 228.254 56.6317 227.355 56.3982H223.946H223.951Z" fill="white"/>
<path d="M240.837 54.0469C241.211 53.6924 241.572 53.5195 241.924 53.5195H244.263C244.624 53.5195 244.809 53.7011 244.809 54.0686V61.0546C244.809 61.3572 245.007 61.5085 245.406 61.5085C245.806 61.5085 246.004 61.6901 246.004 62.0575V63.536C246.004 63.8991 245.81 64.085 245.424 64.085C245.011 64.085 244.809 64.2363 244.809 64.539V65.4165C244.809 65.7797 244.628 65.9656 244.263 65.9656H242.466C242.105 65.9656 241.92 65.784 241.92 65.4165V64.539C241.92 64.2363 241.769 64.085 241.469 64.085H234.302C233.941 64.085 233.756 63.9035 233.756 63.536V61.3269C233.756 60.9638 233.937 60.605 234.302 60.2505L240.832 54.0513L240.837 54.0469ZM241.924 57.1466C241.924 56.805 241.735 56.818 241.361 57.1811C239.981 58.4218 238.605 59.6842 237.226 60.9768C236.826 61.3313 236.804 61.5042 237.152 61.5042H241.469C241.769 61.5042 241.92 61.3529 241.92 61.0503V57.1466H241.924Z" fill="white"/>
</g>
<defs>
<clipPath id="clip0_288_94">
<rect width="317" height="67" fill="white"/>
</clipPath>
</defs>
</svg>
