<svg width="724" height="70" viewBox="0 0 724 70" fill="none" xmlns="http://www.w3.org/2000/svg">
<g clip-path="url(#clip0_287_62)">
<path d="M8.45454 24H1.27273V0.727272H8.77273C11.0303 0.727272 12.9621 1.19318 14.5682 2.125C16.1742 3.04924 17.4053 4.37879 18.2614 6.11364C19.1174 7.84091 19.5455 9.90909 19.5455 12.3182C19.5455 14.7424 19.1136 16.8295 18.25 18.5795C17.3864 20.322 16.1288 21.6629 14.4773 22.6023C12.8258 23.5341 10.8182 24 8.45454 24ZM4.09091 21.5H8.27273C10.197 21.5 11.7917 21.1288 13.0568 20.3864C14.322 19.6439 15.2652 18.5871 15.8864 17.2159C16.5076 15.8447 16.8182 14.2121 16.8182 12.3182C16.8182 10.4394 16.5114 8.82197 15.8977 7.46591C15.2841 6.10227 14.3674 5.05682 13.1477 4.32954C11.928 3.5947 10.4091 3.22727 8.59091 3.22727H4.09091V21.5ZM23.9091 24V6.54545H26.5V9.18182H26.6818C27 8.31818 27.5758 7.61742 28.4091 7.07954C29.2424 6.54167 30.1818 6.27273 31.2273 6.27273C31.4242 6.27273 31.6705 6.27651 31.9659 6.28409C32.2614 6.29167 32.4848 6.30303 32.6364 6.31818V9.04545C32.5455 9.02273 32.3371 8.98864 32.0114 8.94318C31.6932 8.89015 31.3561 8.86364 31 8.86364C30.1515 8.86364 29.3939 9.04167 28.7273 9.39773C28.0682 9.74621 27.5455 10.2311 27.1591 10.8523C26.7803 11.4659 26.5909 12.1667 26.5909 12.9545V24H23.9091ZM35.8153 24V6.54545H38.4972V24H35.8153ZM37.179 3.63636C36.6562 3.63636 36.2055 3.45833 35.8267 3.10227C35.4555 2.74621 35.2699 2.31818 35.2699 1.81818C35.2699 1.31818 35.4555 0.890151 35.8267 0.53409C36.2055 0.17803 36.6562 0 37.179 0C37.7017 0 38.1487 0.17803 38.5199 0.53409C38.8987 0.890151 39.0881 1.31818 39.0881 1.81818C39.0881 2.31818 38.8987 2.74621 38.5199 3.10227C38.1487 3.45833 37.7017 3.63636 37.179 3.63636ZM57.6818 6.54545L51.2273 24H48.5L42.0455 6.54545H44.9545L49.7727 20.4545H49.9545L54.7727 6.54545H57.6818ZM61.2216 24V6.54545H63.9034V24H61.2216ZM62.5852 3.63636C62.0625 3.63636 61.6117 3.45833 61.233 3.10227C60.8617 2.74621 60.6761 2.31818 60.6761 1.81818C60.6761 1.31818 60.8617 0.890151 61.233 0.53409C61.6117 0.17803 62.0625 0 62.5852 0C63.108 0 63.5549 0.17803 63.9261 0.53409C64.3049 0.890151 64.4943 1.31818 64.4943 1.81818C64.4943 2.31818 64.3049 2.74621 63.9261 3.10227C63.5549 3.45833 63.108 3.63636 62.5852 3.63636ZM71.4972 13.5V24H68.8153V6.54545H71.4062V9.27273H71.6335C72.0426 8.38636 72.6638 7.67424 73.4972 7.13636C74.3305 6.59091 75.4062 6.31818 76.7244 6.31818C77.9062 6.31818 78.9403 6.56061 79.8267 7.04545C80.7131 7.52273 81.4025 8.25 81.8949 9.22727C82.3873 10.197 82.6335 11.4242 82.6335 12.9091V24H79.9517V13.0909C79.9517 11.7197 79.5956 10.6515 78.8835 9.88636C78.1714 9.11364 77.1941 8.72727 75.9517 8.72727C75.0956 8.72727 74.3305 8.91288 73.6562 9.28409C72.9896 9.6553 72.4631 10.197 72.0767 10.9091C71.6903 11.6212 71.4972 12.4848 71.4972 13.5ZM94.5795 30.9091C93.2841 30.9091 92.1705 30.7424 91.2386 30.4091C90.3068 30.0833 89.5303 29.6515 88.9091 29.1136C88.2955 28.5833 87.8068 28.0152 87.4432 27.4091L89.5795 25.9091C89.822 26.2273 90.1288 26.5909 90.5 27C90.8712 27.4167 91.3788 27.7765 92.0227 28.0795C92.6742 28.3902 93.5265 28.5455 94.5795 28.5455C95.9886 28.5455 97.1515 28.2045 98.0682 27.5227C98.9848 26.8409 99.4432 25.7727 99.4432 24.3182V20.7727H99.2159C99.0189 21.0909 98.7386 21.4848 98.375 21.9545C98.0189 22.4167 97.5038 22.8295 96.8295 23.1932C96.1629 23.5492 95.2614 23.7273 94.125 23.7273C92.7159 23.7273 91.4508 23.3939 90.3295 22.7273C89.2159 22.0606 88.3333 21.0909 87.6818 19.8182C87.0379 18.5455 86.7159 17 86.7159 15.1818C86.7159 13.3939 87.0303 11.8371 87.6591 10.5114C88.2879 9.17803 89.1629 8.14773 90.2841 7.42045C91.4053 6.68561 92.7008 6.31818 94.1705 6.31818C95.3068 6.31818 96.2083 6.50758 96.875 6.88636C97.5492 7.25758 98.0644 7.68182 98.4205 8.15909C98.7841 8.62879 99.0644 9.01515 99.2614 9.31818H99.5341V6.54545H102.125V24.5C102.125 26 101.784 27.2197 101.102 28.1591C100.428 29.1061 99.5189 29.7992 98.375 30.2386C97.2386 30.6856 95.9735 30.9091 94.5795 30.9091ZM94.4886 21.3182C95.5644 21.3182 96.4735 21.072 97.2159 20.5795C97.9583 20.0871 98.5227 19.3788 98.9091 18.4545C99.2955 17.5303 99.4886 16.4242 99.4886 15.1364C99.4886 13.8788 99.2992 12.7689 98.9205 11.8068C98.5417 10.8447 97.9811 10.0909 97.2386 9.54545C96.4962 9 95.5795 8.72727 94.4886 8.72727C93.3523 8.72727 92.4053 9.01515 91.6477 9.59091C90.8977 10.1667 90.3333 10.9394 89.9545 11.9091C89.5833 12.8788 89.3977 13.9545 89.3977 15.1364C89.3977 16.3485 89.5871 17.4205 89.9659 18.3523C90.3523 19.2765 90.9205 20.0038 91.6705 20.5341C92.428 21.0568 93.3674 21.3182 94.4886 21.3182ZM123.625 6.54545V8.81818H114.58V6.54545H123.625ZM117.216 2.36364H119.898V19C119.898 19.7576 120.008 20.3258 120.227 20.7045C120.455 21.0758 120.742 21.3258 121.091 21.4545C121.447 21.5758 121.822 21.6364 122.216 21.6364C122.511 21.6364 122.754 21.6212 122.943 21.5909C123.133 21.553 123.284 21.5227 123.398 21.5L123.943 23.9091C123.761 23.9773 123.508 24.0455 123.182 24.1136C122.856 24.1894 122.443 24.2273 121.943 24.2273C121.186 24.2273 120.443 24.0644 119.716 23.7386C118.996 23.4129 118.398 22.9167 117.92 22.25C117.451 21.5833 117.216 20.7424 117.216 19.7273V2.36364ZM130.716 13.5V24H128.034V0.727272H130.716V9.27273H130.943C131.352 8.37121 131.966 7.6553 132.784 7.125C133.61 6.58712 134.708 6.31818 136.08 6.31818C137.269 6.31818 138.311 6.55682 139.205 7.03409C140.098 7.50379 140.792 8.22727 141.284 9.20455C141.784 10.1742 142.034 11.4091 142.034 12.9091V24H139.352V13.0909C139.352 11.7045 138.992 10.6326 138.273 9.875C137.561 9.10985 136.572 8.72727 135.307 8.72727C134.428 8.72727 133.64 8.91288 132.943 9.28409C132.254 9.6553 131.708 10.197 131.307 10.9091C130.913 11.6212 130.716 12.4848 130.716 13.5ZM154.259 24.3636C152.577 24.3636 151.126 23.9924 149.906 23.25C148.694 22.5 147.759 21.4545 147.099 20.1136C146.448 18.7652 146.122 17.197 146.122 15.4091C146.122 13.6212 146.448 12.0455 147.099 10.6818C147.759 9.31061 148.675 8.24242 149.849 7.47727C151.031 6.70455 152.41 6.31818 153.986 6.31818C154.895 6.31818 155.793 6.4697 156.679 6.77273C157.565 7.07576 158.372 7.56818 159.099 8.25C159.827 8.92424 160.406 9.81818 160.838 10.9318C161.27 12.0455 161.486 13.4167 161.486 15.0455V16.1818H148.031V13.8636H158.759C158.759 12.8788 158.562 12 158.168 11.2273C157.781 10.4545 157.228 9.8447 156.509 9.39773C155.796 8.95076 154.955 8.72727 153.986 8.72727C152.918 8.72727 151.993 8.99242 151.213 9.52273C150.44 10.0455 149.846 10.7273 149.429 11.5682C149.012 12.4091 148.804 13.3106 148.804 14.2727V15.8182C148.804 17.1364 149.031 18.2538 149.486 19.1705C149.948 20.0795 150.588 20.7727 151.406 21.25C152.224 21.7197 153.175 21.9545 154.259 21.9545C154.963 21.9545 155.599 21.8561 156.168 21.6591C156.743 21.4545 157.24 21.1515 157.656 20.75C158.073 20.3409 158.395 19.8333 158.622 19.2273L161.213 19.9545C160.94 20.8333 160.482 21.6061 159.838 22.2727C159.194 22.9318 158.399 23.447 157.452 23.8182C156.505 24.1818 155.44 24.3636 154.259 24.3636ZM174.929 24V0.727272H188.884V3.22727H177.747V11.0909H187.838V13.5909H177.747V24H174.929ZM203.253 16.8636V6.54545H205.935V24H203.253V21.0455H203.071C202.662 21.9318 202.026 22.6856 201.162 23.3068C200.298 23.9205 199.207 24.2273 197.889 24.2273C196.798 24.2273 195.829 23.9886 194.98 23.5114C194.132 23.0265 193.465 22.2992 192.98 21.3295C192.495 20.3523 192.253 19.1212 192.253 17.6364V6.54545H194.935V17.4545C194.935 18.7273 195.291 19.7424 196.003 20.5C196.723 21.2576 197.639 21.6364 198.753 21.6364C199.42 21.6364 200.098 21.4659 200.787 21.125C201.484 20.7841 202.067 20.2614 202.537 19.5568C203.014 18.8523 203.253 17.9545 203.253 16.8636ZM218.437 6.54545V8.81818H209.392V6.54545H218.437ZM212.028 2.36364H214.71V19C214.71 19.7576 214.82 20.3258 215.04 20.7045C215.267 21.0758 215.555 21.3258 215.903 21.4545C216.259 21.5758 216.634 21.6364 217.028 21.6364C217.324 21.6364 217.566 21.6212 217.756 21.5909C217.945 21.553 218.097 21.5227 218.21 21.5L218.756 23.9091C218.574 23.9773 218.32 24.0455 217.994 24.1136C217.669 24.1894 217.256 24.2273 216.756 24.2273C215.998 24.2273 215.256 24.0644 214.528 23.7386C213.809 23.4129 213.21 22.9167 212.733 22.25C212.263 21.5833 212.028 20.7424 212.028 19.7273V2.36364ZM233.472 16.8636V6.54545H236.153V24H233.472V21.0455H233.29C232.881 21.9318 232.244 22.6856 231.381 23.3068C230.517 23.9205 229.426 24.2273 228.108 24.2273C227.017 24.2273 226.047 23.9886 225.199 23.5114C224.35 23.0265 223.684 22.2992 223.199 21.3295C222.714 20.3523 222.472 19.1212 222.472 17.6364V6.54545H225.153V17.4545C225.153 18.7273 225.509 19.7424 226.222 20.5C226.941 21.2576 227.858 21.6364 228.972 21.6364C229.638 21.6364 230.316 21.4659 231.006 21.125C231.703 20.7841 232.286 20.2614 232.756 19.5568C233.233 18.8523 233.472 17.9545 233.472 16.8636ZM241.065 24V6.54545H243.656V9.18182H243.838C244.156 8.31818 244.732 7.61742 245.565 7.07954C246.399 6.54167 247.338 6.27273 248.384 6.27273C248.58 6.27273 248.827 6.27651 249.122 6.28409C249.418 6.29167 249.641 6.30303 249.793 6.31818V9.04545C249.702 9.02273 249.493 8.98864 249.168 8.94318C248.849 8.89015 248.512 8.86364 248.156 8.86364C247.308 8.86364 246.55 9.04167 245.884 9.39773C245.224 9.74621 244.702 10.2311 244.315 10.8523C243.937 11.4659 243.747 12.1667 243.747 12.9545V24H241.065ZM259.759 24.3636C258.077 24.3636 256.626 23.9924 255.406 23.25C254.194 22.5 253.259 21.4545 252.599 20.1136C251.948 18.7652 251.622 17.197 251.622 15.4091C251.622 13.6212 251.948 12.0455 252.599 10.6818C253.259 9.31061 254.175 8.24242 255.349 7.47727C256.531 6.70455 257.91 6.31818 259.486 6.31818C260.395 6.31818 261.293 6.4697 262.179 6.77273C263.065 7.07576 263.872 7.56818 264.599 8.25C265.327 8.92424 265.906 9.81818 266.338 10.9318C266.77 12.0455 266.986 13.4167 266.986 15.0455V16.1818H253.531V13.8636H264.259C264.259 12.8788 264.062 12 263.668 11.2273C263.281 10.4545 262.728 9.8447 262.009 9.39773C261.296 8.95076 260.455 8.72727 259.486 8.72727C258.418 8.72727 257.493 8.99242 256.713 9.52273C255.94 10.0455 255.346 10.7273 254.929 11.5682C254.512 12.4091 254.304 13.3106 254.304 14.2727V15.8182C254.304 17.1364 254.531 18.2538 254.986 19.1705C255.448 20.0795 256.088 20.7727 256.906 21.25C257.724 21.7197 258.675 21.9545 259.759 21.9545C260.463 21.9545 261.099 21.8561 261.668 21.6591C262.243 21.4545 262.74 21.1515 263.156 20.75C263.573 20.3409 263.895 19.8333 264.122 19.2273L266.713 19.9545C266.44 20.8333 265.982 21.6061 265.338 22.2727C264.694 22.9318 263.899 23.447 262.952 23.8182C262.005 24.1818 260.94 24.3636 259.759 24.3636ZM273.02 24.1818C272.459 24.1818 271.978 23.9811 271.577 23.5795C271.175 23.178 270.974 22.697 270.974 22.1364C270.974 21.5758 271.175 21.0947 271.577 20.6932C271.978 20.2917 272.459 20.0909 273.02 20.0909C273.58 20.0909 274.062 20.2917 274.463 20.6932C274.865 21.0947 275.065 21.5758 275.065 22.1364C275.065 22.5076 274.971 22.8485 274.781 23.1591C274.599 23.4697 274.353 23.7197 274.043 23.9091C273.74 24.0909 273.399 24.1818 273.02 24.1818ZM273.02 11.2273C272.459 11.2273 271.978 11.0265 271.577 10.625C271.175 10.2235 270.974 9.74242 270.974 9.18182C270.974 8.62121 271.175 8.14015 271.577 7.73864C271.978 7.33712 272.459 7.13636 273.02 7.13636C273.58 7.13636 274.062 7.33712 274.463 7.73864C274.865 8.14015 275.065 8.62121 275.065 9.18182C275.065 9.55303 274.971 9.89394 274.781 10.2045C274.599 10.5152 274.353 10.7652 274.043 10.9545C273.74 11.1364 273.399 11.2273 273.02 11.2273ZM0 42.2273V39.7273H17.4545V42.2273H10.1364V63H7.31818V42.2273H0ZM24.1222 52.5V63H21.4403V39.7273H24.1222V48.2727H24.3494C24.7585 47.3712 25.3722 46.6553 26.1903 46.125C27.0161 45.5871 28.1146 45.3182 29.4858 45.3182C30.6752 45.3182 31.7169 45.5568 32.6108 46.0341C33.5047 46.5038 34.1979 47.2273 34.6903 48.2045C35.1903 49.1742 35.4403 50.4091 35.4403 51.9091V63H32.7585V52.0909C32.7585 50.7045 32.3987 49.6326 31.679 48.875C30.9669 48.1098 29.9782 47.7273 28.7131 47.7273C27.8343 47.7273 27.0464 47.9129 26.3494 48.2841C25.66 48.6553 25.1146 49.197 24.7131 49.9091C24.3191 50.6212 24.1222 51.4848 24.1222 52.5ZM47.6648 63.3636C45.983 63.3636 44.5322 62.9924 43.3125 62.25C42.1004 61.5 41.1648 60.4545 40.5057 59.1136C39.8542 57.7652 39.5284 56.197 39.5284 54.4091C39.5284 52.6212 39.8542 51.0455 40.5057 49.6818C41.1648 48.3106 42.0814 47.2424 43.2557 46.4773C44.4375 45.7045 45.8163 45.3182 47.392 45.3182C48.3011 45.3182 49.1989 45.4697 50.0852 45.7727C50.9716 46.0758 51.7784 46.5682 52.5057 47.25C53.233 47.9242 53.8125 48.8182 54.2443 49.9318C54.6761 51.0455 54.892 52.4167 54.892 54.0455V55.1818H41.4375V52.8636H52.1648C52.1648 51.8788 51.9678 51 51.5739 50.2273C51.1875 49.4545 50.6345 48.8447 49.9148 48.3977C49.2027 47.9508 48.3617 47.7273 47.392 47.7273C46.3239 47.7273 45.3996 47.9924 44.6193 48.5227C43.8466 49.0455 43.2519 49.7273 42.8352 50.5682C42.4186 51.4091 42.2102 52.3106 42.2102 53.2727V54.8182C42.2102 56.1364 42.4375 57.2538 42.892 58.1705C43.3542 59.0795 43.9943 59.7727 44.8125 60.25C45.6307 60.7197 46.5814 60.9545 47.6648 60.9545C48.3693 60.9545 49.0057 60.8561 49.5739 60.6591C50.1496 60.4545 50.6458 60.1515 51.0625 59.75C51.4792 59.3409 51.8011 58.8333 52.0284 58.2273L54.6193 58.9545C54.3466 59.8333 53.8883 60.6061 53.2443 61.2727C52.6004 61.9318 51.8049 62.447 50.858 62.8182C49.911 63.1818 48.8466 63.3636 47.6648 63.3636ZM86.7898 39.7273V63H84.0625L71.3807 44.7273H71.1534V63H68.3352V39.7273H71.0625L83.7898 58.0455H84.017V39.7273H86.7898ZM99.3835 63.3636C97.7017 63.3636 96.2509 62.9924 95.0312 62.25C93.8191 61.5 92.8835 60.4545 92.2244 59.1136C91.5729 57.7652 91.2472 56.197 91.2472 54.4091C91.2472 52.6212 91.5729 51.0455 92.2244 49.6818C92.8835 48.3106 93.8002 47.2424 94.9744 46.4773C96.1562 45.7045 97.535 45.3182 99.1108 45.3182C100.02 45.3182 100.918 45.4697 101.804 45.7727C102.69 46.0758 103.497 46.5682 104.224 47.25C104.952 47.9242 105.531 48.8182 105.963 49.9318C106.395 51.0455 106.611 52.4167 106.611 54.0455V55.1818H93.1562V52.8636H103.884C103.884 51.8788 103.687 51 103.293 50.2273C102.906 49.4545 102.353 48.8447 101.634 48.3977C100.921 47.9508 100.08 47.7273 99.1108 47.7273C98.0426 47.7273 97.1184 47.9924 96.3381 48.5227C95.5653 49.0455 94.9706 49.7273 94.554 50.5682C94.1373 51.4091 93.929 52.3106 93.929 53.2727V54.8182C93.929 56.1364 94.1562 57.2538 94.6108 58.1705C95.0729 59.0795 95.7131 59.7727 96.5312 60.25C97.3494 60.7197 98.3002 60.9545 99.3835 60.9545C100.088 60.9545 100.724 60.8561 101.293 60.6591C101.868 60.4545 102.365 60.1515 102.781 59.75C103.198 59.3409 103.52 58.8333 103.747 58.2273L106.338 58.9545C106.065 59.8333 105.607 60.6061 104.963 61.2727C104.319 61.9318 103.524 62.447 102.577 62.8182C101.63 63.1818 100.565 63.3636 99.3835 63.3636ZM112.222 45.5455L116.403 52.6818L120.585 45.5455H123.676L118.04 54.2727L123.676 63H120.585L116.403 56.2273L112.222 63H109.131L114.676 54.2727L109.131 45.5455H112.222ZM135.094 45.5455V47.8182H126.048V45.5455H135.094ZM128.685 41.3636H131.366V58C131.366 58.7576 131.476 59.3258 131.696 59.7045C131.923 60.0758 132.211 60.3258 132.56 60.4545C132.916 60.5758 133.291 60.6364 133.685 60.6364C133.98 60.6364 134.223 60.6212 134.412 60.5909C134.601 60.553 134.753 60.5227 134.866 60.5L135.412 62.9091C135.23 62.9773 134.976 63.0455 134.651 63.1136C134.325 63.1894 133.912 63.2273 133.412 63.2273C132.654 63.2273 131.912 63.0644 131.185 62.7386C130.465 62.4129 129.866 61.9167 129.389 61.25C128.92 60.5833 128.685 59.7424 128.685 58.7273V41.3636ZM155.673 63H148.491V39.7273H155.991C158.249 39.7273 160.181 40.1932 161.787 41.125C163.393 42.0492 164.624 43.3788 165.48 45.1136C166.336 46.8409 166.764 48.9091 166.764 51.3182C166.764 53.7424 166.332 55.8295 165.469 57.5795C164.605 59.322 163.348 60.6629 161.696 61.6023C160.045 62.5341 158.037 63 155.673 63ZM151.31 60.5H155.491C157.416 60.5 159.01 60.1288 160.276 59.3864C161.541 58.6439 162.484 57.5871 163.105 56.2159C163.726 54.8447 164.037 53.2121 164.037 51.3182C164.037 49.4394 163.73 47.822 163.116 46.4659C162.503 45.1023 161.586 44.0568 160.366 43.3295C159.147 42.5947 157.628 42.2273 155.81 42.2273H151.31V60.5ZM178.446 63.3636C176.764 63.3636 175.313 62.9924 174.094 62.25C172.882 61.5 171.946 60.4545 171.287 59.1136C170.635 57.7652 170.31 56.197 170.31 54.4091C170.31 52.6212 170.635 51.0455 171.287 49.6818C171.946 48.3106 172.863 47.2424 174.037 46.4773C175.219 45.7045 176.598 45.3182 178.173 45.3182C179.082 45.3182 179.98 45.4697 180.866 45.7727C181.753 46.0758 182.56 46.5682 183.287 47.25C184.014 47.9242 184.594 48.8182 185.026 49.9318C185.457 51.0455 185.673 52.4167 185.673 54.0455V55.1818H172.219V52.8636H182.946C182.946 51.8788 182.749 51 182.355 50.2273C181.969 49.4545 181.416 48.8447 180.696 48.3977C179.984 47.9508 179.143 47.7273 178.173 47.7273C177.105 47.7273 176.181 47.9924 175.401 48.5227C174.628 49.0455 174.033 49.7273 173.616 50.5682C173.2 51.4091 172.991 52.3106 172.991 53.2727V54.8182C172.991 56.1364 173.219 57.2538 173.673 58.1705C174.135 59.0795 174.776 59.7727 175.594 60.25C176.412 60.7197 177.363 60.9545 178.446 60.9545C179.151 60.9545 179.787 60.8561 180.355 60.6591C180.931 60.4545 181.427 60.1515 181.844 59.75C182.26 59.3409 182.582 58.8333 182.81 58.2273L185.401 58.9545C185.128 59.8333 184.67 60.6061 184.026 61.2727C183.382 61.9318 182.586 62.447 181.639 62.8182C180.692 63.1818 179.628 63.3636 178.446 63.3636ZM196.844 63.3636C195.207 63.3636 193.798 62.9773 192.616 62.2045C191.435 61.4318 190.526 60.3674 189.889 59.0114C189.253 57.6553 188.935 56.1061 188.935 54.3636C188.935 52.5909 189.26 51.0265 189.912 49.6705C190.571 48.3068 191.488 47.2424 192.662 46.4773C193.844 45.7045 195.223 45.3182 196.798 45.3182C198.026 45.3182 199.132 45.5455 200.116 46C201.101 46.4545 201.908 47.0909 202.537 47.9091C203.166 48.7273 203.556 49.6818 203.707 50.7727H201.026C200.821 49.9773 200.366 49.2727 199.662 48.6591C198.965 48.0379 198.026 47.7273 196.844 47.7273C195.798 47.7273 194.882 48 194.094 48.5455C193.313 49.0833 192.704 49.8447 192.264 50.8295C191.832 51.8068 191.616 52.9545 191.616 54.2727C191.616 55.6212 191.829 56.7955 192.253 57.7955C192.685 58.7955 193.291 59.572 194.071 60.125C194.859 60.678 195.783 60.9545 196.844 60.9545C197.541 60.9545 198.173 60.8333 198.741 60.5909C199.31 60.3485 199.791 60 200.185 59.5455C200.579 59.0909 200.859 58.5455 201.026 57.9091H203.707C203.556 58.9394 203.181 59.8674 202.582 60.6932C201.991 61.5114 201.207 62.1629 200.23 62.6477C199.26 63.125 198.132 63.3636 196.844 63.3636ZM212.764 63.4091C211.658 63.4091 210.654 63.2008 209.753 62.7841C208.851 62.3598 208.135 61.75 207.605 60.9545C207.075 60.1515 206.81 59.1818 206.81 58.0455C206.81 57.0455 207.007 56.2348 207.401 55.6136C207.795 54.9848 208.321 54.4924 208.98 54.1364C209.639 53.7803 210.366 53.5152 211.162 53.3409C211.965 53.1591 212.772 53.0152 213.582 52.9091C214.643 52.7727 215.503 52.6705 216.162 52.6023C216.829 52.5265 217.313 52.4015 217.616 52.2273C217.927 52.053 218.082 51.75 218.082 51.3182V51.2273C218.082 50.1061 217.776 49.2348 217.162 48.6136C216.556 47.9924 215.635 47.6818 214.401 47.6818C213.12 47.6818 212.116 47.9621 211.389 48.5227C210.662 49.0833 210.151 49.6818 209.855 50.3182L207.31 49.4091C207.764 48.3485 208.37 47.5227 209.128 46.9318C209.893 46.3333 210.726 45.9167 211.628 45.6818C212.537 45.4394 213.431 45.3182 214.31 45.3182C214.87 45.3182 215.514 45.3864 216.241 45.5227C216.976 45.6515 217.685 45.9205 218.366 46.3295C219.056 46.7386 219.628 47.3561 220.082 48.1818C220.537 49.0076 220.764 50.1136 220.764 51.5V63H218.082V60.6364H217.946C217.764 61.0152 217.461 61.4205 217.037 61.8523C216.613 62.2841 216.048 62.6515 215.344 62.9545C214.639 63.2576 213.779 63.4091 212.764 63.4091ZM213.173 61C214.234 61 215.128 60.7917 215.855 60.375C216.59 59.9583 217.143 59.4205 217.514 58.7614C217.893 58.1023 218.082 57.4091 218.082 56.6818V54.2273C217.969 54.3636 217.719 54.4886 217.332 54.6023C216.954 54.7083 216.514 54.803 216.014 54.8864C215.522 54.9621 215.041 55.0303 214.571 55.0909C214.109 55.1439 213.734 55.1894 213.446 55.2273C212.749 55.3182 212.098 55.4659 211.491 55.6705C210.893 55.8674 210.408 56.1667 210.037 56.5682C209.673 56.9621 209.491 57.5 209.491 58.1818C209.491 59.1136 209.836 59.8182 210.526 60.2955C211.223 60.7652 212.105 61 213.173 61ZM232.25 63.3636C230.795 63.3636 229.511 62.9962 228.398 62.2614C227.284 61.5189 226.413 60.4735 225.784 59.125C225.155 57.7689 224.841 56.1667 224.841 54.3182C224.841 52.4848 225.155 50.8939 225.784 49.5455C226.413 48.197 227.288 47.1553 228.409 46.4205C229.53 45.6856 230.826 45.3182 232.295 45.3182C233.432 45.3182 234.33 45.5076 234.989 45.8864C235.655 46.2576 236.163 46.6818 236.511 47.1591C236.867 47.6288 237.144 48.0152 237.341 48.3182H237.568V39.7273H240.25V63H237.659V60.3182H237.341C237.144 60.6364 236.864 61.0379 236.5 61.5227C236.136 62 235.617 62.428 234.943 62.8068C234.269 63.178 233.371 63.3636 232.25 63.3636ZM232.614 60.9545C233.689 60.9545 234.598 60.6742 235.341 60.1136C236.083 59.5455 236.648 58.7614 237.034 57.7614C237.42 56.7538 237.614 55.5909 237.614 54.2727C237.614 52.9697 237.424 51.8295 237.045 50.8523C236.667 49.8674 236.106 49.1023 235.364 48.5568C234.621 48.0038 233.705 47.7273 232.614 47.7273C231.477 47.7273 230.53 48.0189 229.773 48.6023C229.023 49.178 228.458 49.9621 228.08 50.9545C227.708 51.9394 227.523 53.0455 227.523 54.2727C227.523 55.5152 227.712 56.6439 228.091 57.6591C228.477 58.6667 229.045 59.4697 229.795 60.0682C230.553 60.6591 231.492 60.9545 232.614 60.9545ZM252.852 63.3636C251.17 63.3636 249.72 62.9924 248.5 62.25C247.288 61.5 246.352 60.4545 245.693 59.1136C245.042 57.7652 244.716 56.197 244.716 54.4091C244.716 52.6212 245.042 51.0455 245.693 49.6818C246.352 48.3106 247.269 47.2424 248.443 46.4773C249.625 45.7045 251.004 45.3182 252.58 45.3182C253.489 45.3182 254.386 45.4697 255.273 45.7727C256.159 46.0758 256.966 46.5682 257.693 47.25C258.42 47.9242 259 48.8182 259.432 49.9318C259.864 51.0455 260.08 52.4167 260.08 54.0455V55.1818H246.625V52.8636H257.352C257.352 51.8788 257.155 51 256.761 50.2273C256.375 49.4545 255.822 48.8447 255.102 48.3977C254.39 47.9508 253.549 47.7273 252.58 47.7273C251.511 47.7273 250.587 47.9924 249.807 48.5227C249.034 49.0455 248.439 49.7273 248.023 50.5682C247.606 51.4091 247.398 52.3106 247.398 53.2727V54.8182C247.398 56.1364 247.625 57.2538 248.08 58.1705C248.542 59.0795 249.182 59.7727 250 60.25C250.818 60.7197 251.769 60.9545 252.852 60.9545C253.557 60.9545 254.193 60.8561 254.761 60.6591C255.337 60.4545 255.833 60.1515 256.25 59.75C256.667 59.3409 256.989 58.8333 257.216 58.2273L259.807 58.9545C259.534 59.8333 259.076 60.6061 258.432 61.2727C257.788 61.9318 256.992 62.447 256.045 62.8182C255.098 63.1818 254.034 63.3636 252.852 63.3636ZM280.25 63.3636C278.674 63.3636 277.292 62.9886 276.102 62.2386C274.92 61.4886 273.996 60.4394 273.33 59.0909C272.67 57.7424 272.341 56.1667 272.341 54.3636C272.341 52.5455 272.67 50.9583 273.33 49.6023C273.996 48.2462 274.92 47.1932 276.102 46.4432C277.292 45.6932 278.674 45.3182 280.25 45.3182C281.826 45.3182 283.205 45.6932 284.386 46.4432C285.576 47.1932 286.5 48.2462 287.159 49.6023C287.826 50.9583 288.159 52.5455 288.159 54.3636C288.159 56.1667 287.826 57.7424 287.159 59.0909C286.5 60.4394 285.576 61.4886 284.386 62.2386C283.205 62.9886 281.826 63.3636 280.25 63.3636ZM280.25 60.9545C281.447 60.9545 282.432 60.6477 283.205 60.0341C283.977 59.4205 284.549 58.6136 284.92 57.6136C285.292 56.6136 285.477 55.5303 285.477 54.3636C285.477 53.197 285.292 52.1098 284.92 51.1023C284.549 50.0947 283.977 49.2803 283.205 48.6591C282.432 48.0379 281.447 47.7273 280.25 47.7273C279.053 47.7273 278.068 48.0379 277.295 48.6591C276.523 49.2803 275.951 50.0947 275.58 51.1023C275.208 52.1098 275.023 53.197 275.023 54.3636C275.023 55.5303 275.208 56.6136 275.58 57.6136C275.951 58.6136 276.523 59.4205 277.295 60.0341C278.068 60.6477 279.053 60.9545 280.25 60.9545ZM300.026 45.5455V47.8182H290.616V45.5455H300.026ZM293.435 63V43.1364C293.435 42.1364 293.67 41.303 294.139 40.6364C294.609 39.9697 295.219 39.4697 295.969 39.1364C296.719 38.803 297.51 38.6364 298.344 38.6364C299.003 38.6364 299.541 38.6894 299.957 38.7955C300.374 38.9015 300.685 39 300.889 39.0909L300.116 41.4091C299.98 41.3636 299.791 41.3068 299.548 41.2386C299.313 41.1705 299.003 41.1364 298.616 41.1364C297.73 41.1364 297.09 41.3598 296.696 41.8068C296.31 42.2538 296.116 42.9091 296.116 43.7727V63H293.435ZM311.875 42.2273V39.7273H329.33V42.2273H322.011V63H319.193V42.2273H311.875ZM336.077 63.4091C334.971 63.4091 333.967 63.2008 333.065 62.7841C332.164 62.3598 331.448 61.75 330.918 60.9545C330.387 60.1515 330.122 59.1818 330.122 58.0455C330.122 57.0455 330.319 56.2348 330.713 55.6136C331.107 54.9848 331.634 54.4924 332.293 54.1364C332.952 53.7803 333.679 53.5152 334.474 53.3409C335.277 53.1591 336.084 53.0152 336.895 52.9091C337.955 52.7727 338.815 52.6705 339.474 52.6023C340.141 52.5265 340.626 52.4015 340.929 52.2273C341.24 52.053 341.395 51.75 341.395 51.3182V51.2273C341.395 50.1061 341.088 49.2348 340.474 48.6136C339.868 47.9924 338.948 47.6818 337.713 47.6818C336.433 47.6818 335.429 47.9621 334.702 48.5227C333.974 49.0833 333.463 49.6818 333.168 50.3182L330.622 49.4091C331.077 48.3485 331.683 47.5227 332.44 46.9318C333.205 46.3333 334.039 45.9167 334.94 45.6818C335.849 45.4394 336.743 45.3182 337.622 45.3182C338.183 45.3182 338.827 45.3864 339.554 45.5227C340.289 45.6515 340.997 45.9205 341.679 46.3295C342.368 46.7386 342.94 47.3561 343.395 48.1818C343.849 49.0076 344.077 50.1136 344.077 51.5V63H341.395V60.6364H341.259C341.077 61.0152 340.774 61.4205 340.349 61.8523C339.925 62.2841 339.361 62.6515 338.656 62.9545C337.952 63.2576 337.092 63.4091 336.077 63.4091ZM336.486 61C337.546 61 338.44 60.7917 339.168 60.375C339.902 59.9583 340.455 59.4205 340.827 58.7614C341.205 58.1023 341.395 57.4091 341.395 56.6818V54.2273C341.281 54.3636 341.031 54.4886 340.645 54.6023C340.266 54.7083 339.827 54.803 339.327 54.8864C338.834 54.9621 338.353 55.0303 337.884 55.0909C337.421 55.1439 337.046 55.1894 336.759 55.2273C336.062 55.3182 335.41 55.4659 334.804 55.6705C334.205 55.8674 333.721 56.1667 333.349 56.5682C332.986 56.9621 332.804 57.5 332.804 58.1818C332.804 59.1136 333.149 59.8182 333.838 60.2955C334.535 60.7652 335.418 61 336.486 61ZM348.972 63V45.5455H351.653V63H348.972ZM350.335 42.6364C349.812 42.6364 349.362 42.4583 348.983 42.1023C348.612 41.7462 348.426 41.3182 348.426 40.8182C348.426 40.3182 348.612 39.8902 348.983 39.5341C349.362 39.178 349.812 39 350.335 39C350.858 39 351.305 39.178 351.676 39.5341C352.055 39.8902 352.244 40.3182 352.244 40.8182C352.244 41.3182 352.055 41.7462 351.676 42.1023C351.305 42.4583 350.858 42.6364 350.335 42.6364ZM360.52 63L355.202 45.5455H358.02L361.793 58.9091H361.974L365.702 45.5455H368.565L372.247 58.8636H372.429L376.202 45.5455H379.02L373.702 63H371.065L367.247 49.5909H366.974L363.156 63H360.52ZM387.702 63.4091C386.596 63.4091 385.592 63.2008 384.69 62.7841C383.789 62.3598 383.073 61.75 382.543 60.9545C382.012 60.1515 381.747 59.1818 381.747 58.0455C381.747 57.0455 381.944 56.2348 382.338 55.6136C382.732 54.9848 383.259 54.4924 383.918 54.1364C384.577 53.7803 385.304 53.5152 386.099 53.3409C386.902 53.1591 387.709 53.0152 388.52 52.9091C389.58 52.7727 390.44 52.6705 391.099 52.6023C391.766 52.5265 392.251 52.4015 392.554 52.2273C392.865 52.053 393.02 51.75 393.02 51.3182V51.2273C393.02 50.1061 392.713 49.2348 392.099 48.6136C391.493 47.9924 390.573 47.6818 389.338 47.6818C388.058 47.6818 387.054 47.9621 386.327 48.5227C385.599 49.0833 385.088 49.6818 384.793 50.3182L382.247 49.4091C382.702 48.3485 383.308 47.5227 384.065 46.9318C384.83 46.3333 385.664 45.9167 386.565 45.6818C387.474 45.4394 388.368 45.3182 389.247 45.3182C389.808 45.3182 390.452 45.3864 391.179 45.5227C391.914 45.6515 392.622 45.9205 393.304 46.3295C393.993 46.7386 394.565 47.3561 395.02 48.1818C395.474 49.0076 395.702 50.1136 395.702 51.5V63H393.02V60.6364H392.884C392.702 61.0152 392.399 61.4205 391.974 61.8523C391.55 62.2841 390.986 62.6515 390.281 62.9545C389.577 63.2576 388.717 63.4091 387.702 63.4091ZM388.111 61C389.171 61 390.065 60.7917 390.793 60.375C391.527 59.9583 392.08 59.4205 392.452 58.7614C392.83 58.1023 393.02 57.4091 393.02 56.6818V54.2273C392.906 54.3636 392.656 54.4886 392.27 54.6023C391.891 54.7083 391.452 54.803 390.952 54.8864C390.459 54.9621 389.978 55.0303 389.509 55.0909C389.046 55.1439 388.671 55.1894 388.384 55.2273C387.687 55.3182 387.035 55.4659 386.429 55.6705C385.83 55.8674 385.346 56.1667 384.974 56.5682C384.611 56.9621 384.429 57.5 384.429 58.1818C384.429 59.1136 384.774 59.8182 385.463 60.2955C386.16 60.7652 387.043 61 388.111 61ZM403.278 52.5V63H400.597V45.5455H403.187V48.2727H403.415C403.824 47.3864 404.445 46.6742 405.278 46.1364C406.112 45.5909 407.187 45.3182 408.506 45.3182C409.687 45.3182 410.722 45.5606 411.608 46.0455C412.494 46.5227 413.184 47.25 413.676 48.2273C414.169 49.197 414.415 50.4242 414.415 51.9091V63H411.733V52.0909C411.733 50.7197 411.377 49.6515 410.665 48.8864C409.953 48.1136 408.975 47.7273 407.733 47.7273C406.877 47.7273 406.112 47.9129 405.437 48.2841C404.771 48.6553 404.244 49.197 403.858 49.9091C403.472 50.6212 403.278 51.4848 403.278 52.5ZM421.634 39.7273V47.7273H419.134V39.7273H421.634ZM447.773 49.4545L445.364 50.1364C445.212 49.7348 444.989 49.3447 444.693 48.9659C444.405 48.5795 444.011 48.2614 443.511 48.0114C443.011 47.7614 442.371 47.6364 441.591 47.6364C440.523 47.6364 439.633 47.8826 438.92 48.375C438.216 48.8598 437.864 49.4773 437.864 50.2273C437.864 50.8939 438.106 51.4205 438.591 51.8068C439.076 52.1932 439.833 52.5152 440.864 52.7727L443.455 53.4091C445.015 53.7879 446.178 54.3674 446.943 55.1477C447.708 55.9205 448.091 56.9167 448.091 58.1364C448.091 59.1364 447.803 60.0303 447.227 60.8182C446.659 61.6061 445.864 62.2273 444.841 62.6818C443.818 63.1364 442.629 63.3636 441.273 63.3636C439.492 63.3636 438.019 62.9773 436.852 62.2045C435.686 61.4318 434.947 60.303 434.636 58.8182L437.182 58.1818C437.424 59.1212 437.883 59.8258 438.557 60.2955C439.239 60.7652 440.129 61 441.227 61C442.477 61 443.47 60.7348 444.205 60.2045C444.947 59.6667 445.318 59.0227 445.318 58.2727C445.318 57.6667 445.106 57.1591 444.682 56.75C444.258 56.3333 443.606 56.0227 442.727 55.8182L439.818 55.1364C438.22 54.7576 437.045 54.1705 436.295 53.375C435.553 52.572 435.182 51.5682 435.182 50.3636C435.182 49.3788 435.458 48.5076 436.011 47.75C436.572 46.9924 437.333 46.3977 438.295 45.9659C439.265 45.5341 440.364 45.3182 441.591 45.3182C443.318 45.3182 444.674 45.697 445.659 46.4545C446.652 47.2121 447.356 48.2121 447.773 49.4545ZM461.491 63V39.7273H475.446V42.2273H464.31V50.0909H474.401V52.5909H464.31V63H461.491ZM485.045 63.4091C483.939 63.4091 482.936 63.2008 482.034 62.7841C481.133 62.3598 480.417 61.75 479.886 60.9545C479.356 60.1515 479.091 59.1818 479.091 58.0455C479.091 57.0455 479.288 56.2348 479.682 55.6136C480.076 54.9848 480.602 54.4924 481.261 54.1364C481.92 53.7803 482.648 53.5152 483.443 53.3409C484.246 53.1591 485.053 53.0152 485.864 52.9091C486.924 52.7727 487.784 52.6705 488.443 52.6023C489.11 52.5265 489.595 52.4015 489.898 52.2273C490.208 52.053 490.364 51.75 490.364 51.3182V51.2273C490.364 50.1061 490.057 49.2348 489.443 48.6136C488.837 47.9924 487.917 47.6818 486.682 47.6818C485.402 47.6818 484.398 47.9621 483.67 48.5227C482.943 49.0833 482.432 49.6818 482.136 50.3182L479.591 49.4091C480.045 48.3485 480.652 47.5227 481.409 46.9318C482.174 46.3333 483.008 45.9167 483.909 45.6818C484.818 45.4394 485.712 45.3182 486.591 45.3182C487.152 45.3182 487.795 45.3864 488.523 45.5227C489.258 45.6515 489.966 45.9205 490.648 46.3295C491.337 46.7386 491.909 47.3561 492.364 48.1818C492.818 49.0076 493.045 50.1136 493.045 51.5V63H490.364V60.6364H490.227C490.045 61.0152 489.742 61.4205 489.318 61.8523C488.894 62.2841 488.33 62.6515 487.625 62.9545C486.92 63.2576 486.061 63.4091 485.045 63.4091ZM485.455 61C486.515 61 487.409 60.7917 488.136 60.375C488.871 59.9583 489.424 59.4205 489.795 58.7614C490.174 58.1023 490.364 57.4091 490.364 56.6818V54.2273C490.25 54.3636 490 54.4886 489.614 54.6023C489.235 54.7083 488.795 54.803 488.295 54.8864C487.803 54.9621 487.322 55.0303 486.852 55.0909C486.39 55.1439 486.015 55.1894 485.727 55.2273C485.03 55.3182 484.379 55.4659 483.773 55.6705C483.174 55.8674 482.689 56.1667 482.318 56.5682C481.955 56.9621 481.773 57.5 481.773 58.1818C481.773 59.1136 482.117 59.8182 482.807 60.2955C483.504 60.7652 484.386 61 485.455 61ZM510.304 49.4545L507.895 50.1364C507.743 49.7348 507.52 49.3447 507.224 48.9659C506.937 48.5795 506.543 48.2614 506.043 48.0114C505.543 47.7614 504.902 47.6364 504.122 47.6364C503.054 47.6364 502.164 47.8826 501.452 48.375C500.747 48.8598 500.395 49.4773 500.395 50.2273C500.395 50.8939 500.637 51.4205 501.122 51.8068C501.607 52.1932 502.365 52.5152 503.395 52.7727L505.986 53.4091C507.546 53.7879 508.709 54.3674 509.474 55.1477C510.24 55.9205 510.622 56.9167 510.622 58.1364C510.622 59.1364 510.334 60.0303 509.759 60.8182C509.19 61.6061 508.395 62.2273 507.372 62.6818C506.349 63.1364 505.16 63.3636 503.804 63.3636C502.024 63.3636 500.55 62.9773 499.384 62.2045C498.217 61.4318 497.478 60.303 497.168 58.8182L499.713 58.1818C499.955 59.1212 500.414 59.8258 501.088 60.2955C501.77 60.7652 502.66 61 503.759 61C505.009 61 506.001 60.7348 506.736 60.2045C507.478 59.6667 507.849 59.0227 507.849 58.2727C507.849 57.6667 507.637 57.1591 507.213 56.75C506.789 56.3333 506.137 56.0227 505.259 55.8182L502.349 55.1364C500.751 54.7576 499.577 54.1705 498.827 53.375C498.084 52.572 497.713 51.5682 497.713 50.3636C497.713 49.3788 497.99 48.5076 498.543 47.75C499.103 46.9924 499.865 46.3977 500.827 45.9659C501.796 45.5341 502.895 45.3182 504.122 45.3182C505.849 45.3182 507.205 45.697 508.19 46.4545C509.183 47.2121 509.887 48.2121 510.304 49.4545ZM522.25 45.5455V47.8182H513.205V45.5455H522.25ZM515.841 41.3636H518.523V58C518.523 58.7576 518.633 59.3258 518.852 59.7045C519.08 60.0758 519.367 60.3258 519.716 60.4545C520.072 60.5758 520.447 60.6364 520.841 60.6364C521.136 60.6364 521.379 60.6212 521.568 60.5909C521.758 60.553 521.909 60.5227 522.023 60.5L522.568 62.9091C522.386 62.9773 522.133 63.0455 521.807 63.1136C521.481 63.1894 521.068 63.2273 520.568 63.2273C519.811 63.2273 519.068 63.0644 518.341 62.7386C517.621 62.4129 517.023 61.9167 516.545 61.25C516.076 60.5833 515.841 59.7424 515.841 58.7273V41.3636ZM533.415 63.3636C531.733 63.3636 530.282 62.9924 529.062 62.25C527.85 61.5 526.915 60.4545 526.256 59.1136C525.604 57.7652 525.278 56.197 525.278 54.4091C525.278 52.6212 525.604 51.0455 526.256 49.6818C526.915 48.3106 527.831 47.2424 529.006 46.4773C530.187 45.7045 531.566 45.3182 533.142 45.3182C534.051 45.3182 534.949 45.4697 535.835 45.7727C536.722 46.0758 537.528 46.5682 538.256 47.25C538.983 47.9242 539.562 48.8182 539.994 49.9318C540.426 51.0455 540.642 52.4167 540.642 54.0455V55.1818H527.187V52.8636H537.915C537.915 51.8788 537.718 51 537.324 50.2273C536.937 49.4545 536.384 48.8447 535.665 48.3977C534.953 47.9508 534.112 47.7273 533.142 47.7273C532.074 47.7273 531.15 47.9924 530.369 48.5227C529.597 49.0455 529.002 49.7273 528.585 50.5682C528.169 51.4091 527.96 52.3106 527.96 53.2727V54.8182C527.96 56.1364 528.187 57.2538 528.642 58.1705C529.104 59.0795 529.744 59.7727 530.562 60.25C531.381 60.7197 532.331 60.9545 533.415 60.9545C534.119 60.9545 534.756 60.8561 535.324 60.6591C535.9 60.4545 536.396 60.1515 536.812 59.75C537.229 59.3409 537.551 58.8333 537.778 58.2273L540.369 58.9545C540.097 59.8333 539.638 60.6061 538.994 61.2727C538.35 61.9318 537.555 62.447 536.608 62.8182C535.661 63.1818 534.597 63.3636 533.415 63.3636ZM547.403 52.5V63H544.722V45.5455H547.312V48.2727H547.54C547.949 47.3864 548.57 46.6742 549.403 46.1364C550.237 45.5909 551.312 45.3182 552.631 45.3182C553.812 45.3182 554.847 45.5606 555.733 46.0455C556.619 46.5227 557.309 47.25 557.801 48.2273C558.294 49.197 558.54 50.4242 558.54 51.9091V63H555.858V52.0909C555.858 50.7197 555.502 49.6515 554.79 48.8864C554.078 48.1136 553.1 47.7273 551.858 47.7273C551.002 47.7273 550.237 47.9129 549.562 48.2841C548.896 48.6553 548.369 49.197 547.983 49.9091C547.597 50.6212 547.403 51.4848 547.403 52.5ZM570.759 63.3636C569.077 63.3636 567.626 62.9924 566.406 62.25C565.194 61.5 564.259 60.4545 563.599 59.1136C562.948 57.7652 562.622 56.197 562.622 54.4091C562.622 52.6212 562.948 51.0455 563.599 49.6818C564.259 48.3106 565.175 47.2424 566.349 46.4773C567.531 45.7045 568.91 45.3182 570.486 45.3182C571.395 45.3182 572.293 45.4697 573.179 45.7727C574.065 46.0758 574.872 46.5682 575.599 47.25C576.327 47.9242 576.906 48.8182 577.338 49.9318C577.77 51.0455 577.986 52.4167 577.986 54.0455V55.1818H564.531V52.8636H575.259C575.259 51.8788 575.062 51 574.668 50.2273C574.281 49.4545 573.728 48.8447 573.009 48.3977C572.296 47.9508 571.455 47.7273 570.486 47.7273C569.418 47.7273 568.493 47.9924 567.713 48.5227C566.94 49.0455 566.346 49.7273 565.929 50.5682C565.512 51.4091 565.304 52.3106 565.304 53.2727V54.8182C565.304 56.1364 565.531 57.2538 565.986 58.1705C566.448 59.0795 567.088 59.7727 567.906 60.25C568.724 60.7197 569.675 60.9545 570.759 60.9545C571.463 60.9545 572.099 60.8561 572.668 60.6591C573.243 60.4545 573.74 60.1515 574.156 59.75C574.573 59.3409 574.895 58.8333 575.122 58.2273L577.713 58.9545C577.44 59.8333 576.982 60.6061 576.338 61.2727C575.694 61.9318 574.899 62.447 573.952 62.8182C573.005 63.1818 571.94 63.3636 570.759 63.3636ZM582.065 63V45.5455H584.656V48.1818H584.838C585.156 47.3182 585.732 46.6174 586.565 46.0795C587.399 45.5417 588.338 45.2727 589.384 45.2727C589.58 45.2727 589.827 45.2765 590.122 45.2841C590.418 45.2917 590.641 45.303 590.793 45.3182V48.0455C590.702 48.0227 590.493 47.9886 590.168 47.9432C589.849 47.8902 589.512 47.8636 589.156 47.8636C588.308 47.8636 587.55 48.0417 586.884 48.3977C586.224 48.7462 585.702 49.2311 585.315 49.8523C584.937 50.4659 584.747 51.1667 584.747 51.9545V63H582.065ZM606.153 39.7273V63H603.335V39.7273H606.153ZM614.122 52.5V63H611.44V45.5455H614.031V48.2727H614.259C614.668 47.3864 615.289 46.6742 616.122 46.1364C616.955 45.5909 618.031 45.3182 619.349 45.3182C620.531 45.3182 621.565 45.5606 622.452 46.0455C623.338 46.5227 624.027 47.25 624.52 48.2273C625.012 49.197 625.259 50.4242 625.259 51.9091V63H622.577V52.0909C622.577 50.7197 622.221 49.6515 621.509 48.8864C620.796 48.1136 619.819 47.7273 618.577 47.7273C617.721 47.7273 616.955 47.9129 616.281 48.2841C615.615 48.6553 615.088 49.197 614.702 49.9091C614.315 50.6212 614.122 51.4848 614.122 52.5ZM636.75 63.3636C635.295 63.3636 634.011 62.9962 632.898 62.2614C631.784 61.5189 630.913 60.4735 630.284 59.125C629.655 57.7689 629.341 56.1667 629.341 54.3182C629.341 52.4848 629.655 50.8939 630.284 49.5455C630.913 48.197 631.788 47.1553 632.909 46.4205C634.03 45.6856 635.326 45.3182 636.795 45.3182C637.932 45.3182 638.83 45.5076 639.489 45.8864C640.155 46.2576 640.663 46.6818 641.011 47.1591C641.367 47.6288 641.644 48.0152 641.841 48.3182H642.068V39.7273H644.75V63H642.159V60.3182H641.841C641.644 60.6364 641.364 61.0379 641 61.5227C640.636 62 640.117 62.428 639.443 62.8068C638.769 63.178 637.871 63.3636 636.75 63.3636ZM637.114 60.9545C638.189 60.9545 639.098 60.6742 639.841 60.1136C640.583 59.5455 641.148 58.7614 641.534 57.7614C641.92 56.7538 642.114 55.5909 642.114 54.2727C642.114 52.9697 641.924 51.8295 641.545 50.8523C641.167 49.8674 640.606 49.1023 639.864 48.5568C639.121 48.0038 638.205 47.7273 637.114 47.7273C635.977 47.7273 635.03 48.0189 634.273 48.6023C633.523 49.178 632.958 49.9621 632.58 50.9545C632.208 51.9394 632.023 53.0455 632.023 54.2727C632.023 55.5152 632.212 56.6439 632.591 57.6591C632.977 58.6667 633.545 59.4697 634.295 60.0682C635.053 60.6591 635.992 60.9545 637.114 60.9545ZM661.034 55.8636V45.5455H663.716V63H661.034V60.0455H660.852C660.443 60.9318 659.807 61.6856 658.943 62.3068C658.08 62.9205 656.989 63.2273 655.67 63.2273C654.58 63.2273 653.61 62.9886 652.761 62.5114C651.913 62.0265 651.246 61.2992 650.761 60.3295C650.277 59.3523 650.034 58.1212 650.034 56.6364V45.5455H652.716V56.4545C652.716 57.7273 653.072 58.7424 653.784 59.5C654.504 60.2576 655.42 60.6364 656.534 60.6364C657.201 60.6364 657.879 60.4659 658.568 60.125C659.265 59.7841 659.848 59.2614 660.318 58.5568C660.795 57.8523 661.034 56.9545 661.034 55.8636ZM680.991 49.4545L678.582 50.1364C678.431 49.7348 678.207 49.3447 677.912 48.9659C677.624 48.5795 677.23 48.2614 676.73 48.0114C676.23 47.7614 675.59 47.6364 674.81 47.6364C673.741 47.6364 672.851 47.8826 672.139 48.375C671.435 48.8598 671.082 49.4773 671.082 50.2273C671.082 50.8939 671.325 51.4205 671.81 51.8068C672.295 52.1932 673.052 52.5152 674.082 52.7727L676.673 53.4091C678.234 53.7879 679.397 54.3674 680.162 55.1477C680.927 55.9205 681.31 56.9167 681.31 58.1364C681.31 59.1364 681.022 60.0303 680.446 60.8182C679.878 61.6061 679.082 62.2273 678.06 62.6818C677.037 63.1364 675.848 63.3636 674.491 63.3636C672.711 63.3636 671.238 62.9773 670.071 62.2045C668.904 61.4318 668.166 60.303 667.855 58.8182L670.401 58.1818C670.643 59.1212 671.101 59.8258 671.776 60.2955C672.457 60.7652 673.348 61 674.446 61C675.696 61 676.688 60.7348 677.423 60.2045C678.166 59.6667 678.537 59.0227 678.537 58.2727C678.537 57.6667 678.325 57.1591 677.901 56.75C677.476 56.3333 676.825 56.0227 675.946 55.8182L673.037 55.1364C671.438 54.7576 670.264 54.1705 669.514 53.375C668.772 52.572 668.401 51.5682 668.401 50.3636C668.401 49.3788 668.677 48.5076 669.23 47.75C669.791 46.9924 670.552 46.3977 671.514 45.9659C672.484 45.5341 673.582 45.3182 674.81 45.3182C676.537 45.3182 677.893 45.697 678.878 46.4545C679.87 47.2121 680.575 48.2121 680.991 49.4545ZM692.937 45.5455V47.8182H683.892V45.5455H692.937ZM686.528 41.3636H689.21V58C689.21 58.7576 689.32 59.3258 689.54 59.7045C689.767 60.0758 690.055 60.3258 690.403 60.4545C690.759 60.5758 691.134 60.6364 691.528 60.6364C691.824 60.6364 692.066 60.6212 692.256 60.5909C692.445 60.553 692.597 60.5227 692.71 60.5L693.256 62.9091C693.074 62.9773 692.82 63.0455 692.494 63.1136C692.169 63.1894 691.756 63.2273 691.256 63.2273C690.498 63.2273 689.756 63.0644 689.028 62.7386C688.309 62.4129 687.71 61.9167 687.233 61.25C686.763 60.5833 686.528 59.7424 686.528 58.7273V41.3636ZM696.972 63V45.5455H699.562V48.1818H699.744C700.062 47.3182 700.638 46.6174 701.472 46.0795C702.305 45.5417 703.244 45.2727 704.29 45.2727C704.487 45.2727 704.733 45.2765 705.028 45.2841C705.324 45.2917 705.547 45.303 705.699 45.3182V48.0455C705.608 48.0227 705.4 47.9886 705.074 47.9432C704.756 47.8902 704.419 47.8636 704.062 47.8636C703.214 47.8636 702.456 48.0417 701.79 48.3977C701.131 48.7462 700.608 49.2311 700.222 49.8523C699.843 50.4659 699.653 51.1667 699.653 51.9545V63H696.972ZM711.136 69.5455C710.682 69.5455 710.277 69.5076 709.92 69.4318C709.564 69.3636 709.318 69.2955 709.182 69.2273L709.864 66.8636C710.515 67.0303 711.091 67.0909 711.591 67.0455C712.091 67 712.534 66.7765 712.92 66.375C713.314 65.9811 713.674 65.3409 714 64.4545L714.5 63.0909L708.045 45.5455H710.955L715.773 59.4545H715.955L720.773 45.5455H723.682L716.273 65.5455C715.939 66.447 715.527 67.1932 715.034 67.7841C714.542 68.3826 713.97 68.8258 713.318 69.1136C712.674 69.4015 711.947 69.5455 711.136 69.5455Z" fill="url(#paint0_linear_287_62)"/>
</g>
<defs>
<linearGradient id="paint0_linear_287_62" x1="725.455" y1="31.9998" x2="-1.54546" y2="31.9998" gradientUnits="userSpaceOnUse">
<stop stop-color="#A36F37"/>
<stop offset="0.4375" stop-color="#E7D380"/>
<stop offset="0.663462" stop-color="#F6EBAB"/>
<stop offset="1" stop-color="#A36F37"/>
</linearGradient>
<clipPath id="clip0_287_62">
<rect width="724" height="70" fill="white"/>
</clipPath>
</defs>
</svg>
