<svg width="755" height="142" viewBox="0 0 755 142" fill="none" xmlns="http://www.w3.org/2000/svg">
<g clip-path="url(#clip0_287_36)">
<g filter="url(#filter0_d_287_36)">
<path d="M28.84 89.5868C28.84 74.399 39.0663 65.7051 51.25 65.7051C57.9259 65.7051 62.6977 68.5196 65.8233 71.6452L60.0046 78.6246C57.7969 76.6066 55.4148 75.0742 51.6141 75.0742C44.8775 75.0742 40.045 80.3391 40.045 89.2151C40.045 98.091 44.0885 103.546 52.532 103.546C54.1859 103.546 55.9004 103.121 56.879 102.385V95.0338H49.6568V86.0971H66.6198V107.407C63.4336 110.472 57.8045 112.975 51.432 112.975C38.7553 112.975 28.84 105.017 28.84 89.5868Z" fill="white"/>
<path d="M74.9344 100.791V63.2012H85.7753V101.224C85.7753 103.492 86.8753 104.16 87.7325 104.16C88.0967 104.16 88.347 104.16 88.9539 104.038L90.2436 112.057C89.0829 112.55 87.247 112.975 84.8573 112.975C77.3848 112.975 74.942 108.074 74.942 100.791H74.9344Z" fill="white"/>
<path d="M143.871 108.385H143.628L142.771 112.118H134.259V63.2012H145.1V74.96L144.857 80.1642C147.429 77.8352 150.676 76.4317 153.855 76.4317C162.185 76.4317 167.51 83.4111 167.51 94.0623C167.51 106.125 160.349 112.983 152.876 112.983C149.811 112.983 146.633 111.45 143.879 108.393L143.871 108.385ZM156.305 94.2975C156.305 88.1753 154.53 85.3001 150.669 85.3001C148.651 85.3001 146.997 86.218 145.1 88.236V102.013C146.815 103.545 148.651 104.031 150.304 104.031C153.612 104.031 156.305 101.277 156.305 94.2975Z" fill="white"/>
<path d="M172.221 102.385C172.221 95.0342 177.979 91.059 191.566 89.5873C191.324 86.7728 189.852 85.1189 186.302 85.1189C183.548 85.1189 180.665 86.219 177.175 88.1838L173.382 81.0223C177.972 78.2685 182.933 76.4326 188.38 76.4326C197.378 76.4326 202.46 81.4548 202.46 92.3487V112.126H193.584L192.788 108.637H192.545C189.67 111.208 186.423 112.983 182.561 112.983C176.136 112.983 172.214 108.212 172.214 102.393L172.221 102.385ZM191.566 101.771V96.2025C184.769 97.1205 182.569 99.0778 182.569 101.528C182.569 103.546 184.041 104.532 186.302 104.532C188.562 104.532 189.973 103.493 191.566 101.778V101.771Z" fill="white"/>
<path d="M210.851 100.791V63.2012H221.692V101.224C221.692 103.492 222.792 104.16 223.649 104.16C224.013 104.16 224.263 104.16 224.87 104.038L226.16 112.057C224.999 112.55 223.163 112.975 220.774 112.975C213.301 112.975 210.858 108.074 210.858 100.791H210.851Z" fill="white"/>
<path d="M246.051 66.5625H275.137V75.6281H257.013V85.6041H272.565V94.7305H257.013V112.118H246.051V66.5625Z" fill="white"/>
<path d="M277.952 102.385C277.952 95.0342 283.71 91.059 297.297 89.5873C297.054 86.7728 295.582 85.1189 292.032 85.1189C289.278 85.1189 286.395 86.219 282.906 88.1838L279.112 81.0223C283.702 78.2685 288.664 76.4326 294.111 76.4326C303.108 76.4326 308.191 81.4548 308.191 92.3487V112.126H299.315L298.518 108.637H298.275C295.4 111.208 292.153 112.983 288.292 112.983C281.866 112.983 277.944 108.212 277.944 102.393L277.952 102.385ZM297.297 101.771V96.2025C290.499 97.1205 288.299 99.0778 288.299 101.528C288.299 103.546 289.771 104.532 292.032 104.532C294.293 104.532 295.704 103.493 297.297 101.778V101.771Z" fill="white"/>
<path d="M313.577 108.074L318.417 101.276C321.603 103.727 324.479 104.948 327.232 104.948C329.986 104.948 331.337 103.909 331.337 102.194C331.337 100.116 327.968 99.137 324.418 97.726C320.253 96.0721 315.36 93.2576 315.36 87.4996C315.36 80.8844 320.746 76.416 328.826 76.416C334.333 76.416 338.255 78.616 341.313 80.8844L336.412 87.3782C333.961 85.6637 331.511 84.4423 329.19 84.4423C326.739 84.4423 325.518 85.2996 325.518 86.9534C325.518 89.0321 328.704 89.8286 332.315 91.1183C336.662 92.7721 341.502 95.2832 341.502 101.587C341.502 107.892 336.48 112.974 326.99 112.974C322.461 112.974 317.067 111.017 313.577 108.074Z" fill="white"/>
<path d="M347.806 99.1986V85.786H343.095V77.7066L348.421 77.2818L349.642 68.0947H358.708V77.2818H366.909V85.7936H358.708V99.0772C358.708 102.931 360.544 104.464 363.116 104.464C364.216 104.464 365.445 104.099 366.302 103.849L368.016 111.686C366.18 112.239 363.669 112.968 360.119 112.968C351.364 112.968 347.814 107.46 347.814 99.191L347.806 99.1986Z" fill="white"/>
<path d="M370.33 94.7306C370.33 83.4042 378.41 76.4248 386.861 76.4248C396.905 76.4248 401.798 83.7077 401.798 93.2588C401.798 95.1554 401.556 97.1127 401.305 97.9092H380.852C381.831 102.689 385.139 104.646 389.546 104.646C392.057 104.646 394.386 103.91 396.898 102.446L400.509 108.993C396.898 111.565 392.118 112.976 388.022 112.976C378.038 112.976 370.33 106.239 370.33 94.7306ZM392.558 90.816C392.558 87.3263 391.026 84.7546 387.05 84.7546C384.046 84.7546 381.414 86.6512 380.686 90.816H392.566H392.558Z" fill="white"/>
<path d="M408.778 77.2821H417.654L418.39 81.629H418.632C421.507 78.8145 425.058 76.4248 429.777 76.4248C437.37 76.4248 440.61 81.8718 440.61 90.5657V112.118H429.708V91.9161C429.708 87.1443 428.419 85.7332 425.665 85.7332C423.214 85.7332 421.743 86.8332 419.603 88.8588V112.126H408.762V77.2896L408.778 77.2821Z" fill="white"/>
<path d="M447.104 94.7306C447.104 83.4042 455.183 76.4248 463.634 76.4248C473.679 76.4248 478.572 83.7077 478.572 93.2588C478.572 95.1554 478.329 97.1127 478.079 97.9092H457.626C458.605 102.689 461.912 104.646 466.32 104.646C468.831 104.646 471.16 103.91 473.671 102.446L477.282 108.993C473.671 111.565 468.892 112.976 464.795 112.976C454.811 112.976 447.104 106.239 447.104 94.7306ZM469.332 90.816C469.332 87.3263 467.799 84.7546 463.824 84.7546C460.82 84.7546 458.187 86.6512 457.459 90.816H469.339H469.332Z" fill="white"/>
<path d="M485.551 77.2821H494.427L495.163 83.3435H495.406C497.978 78.6855 501.831 76.4248 505.321 76.4248C507.4 76.4248 508.568 76.7283 509.547 77.1607L507.711 86.5298C506.489 86.2263 505.442 85.976 503.918 85.976C501.346 85.976 498.22 87.6298 496.384 92.2195V112.118H485.544V77.2821H485.551Z" fill="white"/>
<path d="M528.839 66.5625H557.925V75.6281H539.801V85.6041H555.353V94.7305H539.801V112.118H528.839V66.5625Z" fill="white"/>
<path d="M605.597 77.2821H614.473L615.209 83.3435H615.452C618.023 78.6855 621.877 76.4248 625.367 76.4248C627.445 76.4248 628.614 76.7283 629.592 77.1607L627.757 86.5298C626.535 86.2263 625.488 85.976 623.963 85.976C621.392 85.976 618.266 87.6298 616.43 92.2195V112.118H605.589V77.2821H605.597Z" fill="white"/>
<path d="M633.636 98.8341V77.2812H644.537V97.4837C644.537 102.324 645.82 103.666 648.581 103.666C651.031 103.666 652.564 102.688 654.4 100.116V77.2812H665.301V112.118H656.425L655.629 107.346H655.386C652.511 110.775 649.264 112.975 644.484 112.975C636.89 112.975 633.644 107.528 633.644 98.8341H633.636Z" fill="white"/>
<path d="M674.041 77.2821H682.917L683.652 81.6897H683.895C686.77 78.8145 689.775 76.4248 694.486 76.4248C699.197 76.4248 702.262 78.4428 704.037 82.1828C707.033 79.1255 710.28 76.4248 714.938 76.4248C722.532 76.4248 725.84 81.8718 725.84 90.5657V112.118H714.938V91.9161C714.938 87.1443 713.717 85.7332 710.956 85.7332C709.362 85.7332 707.466 86.7118 705.387 88.8588V112.126H694.425V91.9236C694.425 87.1519 693.204 85.7408 690.442 85.7408C688.849 85.7408 686.953 86.7194 684.874 88.8664V112.134H674.033V77.2972L674.041 77.2821Z" fill="white"/>
<path d="M121.53 79.0121L129.48 92.7888C130.087 93.8357 130.087 95.1254 129.48 96.1723L121.53 109.949C120.923 110.996 119.807 111.641 118.594 111.641H102.685C101.479 111.641 100.356 110.996 99.7493 109.949L91.7988 96.1723C91.1919 95.1254 91.1919 93.8357 91.7988 92.7888L99.7493 79.0121C100.356 77.9651 101.471 77.3203 102.685 77.3203H118.594C119.8 77.3203 120.923 77.9651 121.53 79.0121ZM110.643 87.8501C106.979 87.8501 104.013 90.8164 104.013 94.4805C104.013 98.1447 106.979 101.111 110.643 101.111C114.307 101.111 117.274 98.1447 117.274 94.4805C117.274 90.8164 114.307 87.8501 110.643 87.8501Z" fill="white"/>
<path d="M590.993 79.0121L598.944 92.7888C599.551 93.8357 599.551 95.1254 598.944 96.1723L590.993 109.949C590.386 110.996 589.271 111.641 588.057 111.641H572.149C570.943 111.641 569.82 110.996 569.213 109.949L561.263 96.1723C560.656 95.1254 560.656 93.8357 561.263 92.7888L569.213 79.0121C569.82 77.9651 570.935 77.3203 572.149 77.3203H588.057C589.264 77.3203 590.386 77.9651 590.993 79.0121ZM580.114 87.8501C576.45 87.8501 573.484 90.8164 573.484 94.4805C573.484 98.1447 576.45 101.111 580.114 101.111C583.779 101.111 586.745 98.1447 586.745 94.4805C586.745 90.8164 583.779 87.8501 580.114 87.8501Z" fill="white"/>
</g>
<g filter="url(#filter1_d_287_36)">
<path d="M34.4766 13.1475C35.4173 12.8441 36.6236 12.6241 38.1029 12.4951H52.2589C55.4148 12.5937 58.1004 13.451 60.3156 15.0669C61.628 16.5083 62.3487 18.238 62.4853 20.2559V25.9988C62.417 28.3126 61.2942 30.2471 59.1094 31.7947C55.8852 33.2057 51.6065 33.8961 46.2658 33.8582L42.2374 34.1085C40.4926 34.2071 39.1498 34.5258 38.2091 35.0644C37.3367 35.9065 36.9498 37.0975 37.0484 38.6375C37.0484 39.4796 37.4656 39.8969 38.3077 39.8969H61.1804C62.1894 39.8969 62.6901 40.3976 62.6901 41.4066V45.3363C62.6901 46.3452 62.1894 46.8459 61.1804 46.8459H30.3497C29.3407 46.8459 28.84 46.3452 28.84 45.3363V38.941C28.8703 35.7168 29.7807 33.0313 31.5635 30.8843C32.5042 29.845 33.847 29.0864 35.5918 28.616C39.9539 27.8802 43.9899 27.4098 47.6844 27.205C49.0272 27.1367 50.3699 26.985 51.7127 26.7498C53.8597 26.3781 54.8004 25.0201 54.5348 22.6684C54.8686 20.6504 54.1328 19.3759 52.3196 18.8373H39.5746C37.2911 19.338 36.3656 20.7339 36.8056 23.0173C36.8056 24.0263 36.3049 24.527 35.2959 24.527H30.3573C29.3483 24.527 28.8476 24.0263 28.8476 23.0173V19.5883C28.9159 16.6372 30.7973 14.4827 34.4918 13.14L34.4766 13.1475Z" fill="white"/>
<path d="M119.914 13.1475C120.854 12.8441 122.061 12.6241 123.54 12.4951H137.696C140.852 12.5937 143.537 13.451 145.753 15.0669C147.065 16.5083 147.786 18.238 147.922 20.2559V25.9988C147.854 28.3126 146.731 30.2471 144.546 31.7947C141.322 33.2057 137.044 33.8961 131.703 33.8582L127.674 34.1085C125.93 34.2071 124.587 34.5258 123.646 35.0644C122.774 35.9065 122.387 37.0975 122.485 38.6375C122.485 39.4796 122.903 39.8969 123.745 39.8969H146.617C147.626 39.8969 148.127 40.3976 148.127 41.4066V45.3363C148.127 46.3452 147.626 46.8459 146.617 46.8459H115.787C114.778 46.8459 114.277 46.3452 114.277 45.3363V38.941C114.307 35.7168 115.218 33.0313 117.001 30.8843C117.941 29.845 119.284 29.0864 121.029 28.616C125.391 27.8802 129.427 27.4098 133.121 27.205C134.464 27.1367 135.807 26.985 137.15 26.7498C139.297 26.3781 140.237 25.0201 139.972 22.6684C140.306 20.6504 139.57 19.3759 137.757 18.8373H125.012C122.728 19.338 121.803 20.7339 122.243 23.0173C122.243 24.0263 121.742 24.527 120.733 24.527H115.794C114.785 24.527 114.285 24.0263 114.285 23.0173V19.5883C114.353 16.6372 116.234 14.4827 119.929 13.14L119.914 13.1475Z" fill="white"/>
<path d="M190.686 33.9177L187.766 28.8348C186.726 27.0293 184.807 25.9217 182.728 25.9217H180.164L168.906 25.8913C167.358 25.9217 166.289 26.2251 165.682 26.8017C165.416 27.0672 165.158 27.052 164.923 26.7486C164.825 25.2693 164.787 23.843 164.825 22.4699C164.62 20.6568 165.515 19.5188 167.495 19.0409H179.079C181.431 18.8361 182.592 19.9133 182.554 22.2651C182.554 22.9023 183.055 23.221 184.064 23.221H189.199C190.208 23.221 190.709 22.7203 190.709 21.7113C190.808 18.6919 189.973 16.3402 188.19 14.656C186.643 13.4498 184.632 12.7215 182.144 12.4863H166.532C164.582 12.6532 162.852 13.0401 161.343 13.647C160.03 14.087 158.877 15.1946 157.868 16.9698C157.261 18.3126 156.927 19.6554 156.859 20.9982V38.3784C156.958 40.1612 157.398 41.7543 158.171 43.1654C159.082 44.5764 160.318 45.5171 161.896 45.9875C162.974 46.3896 164.316 46.6778 165.925 46.8447H180.157V46.8599H182.721C184.799 46.8599 186.719 45.7447 187.758 43.9468L190.679 38.8639C191.559 37.3315 191.559 35.4425 190.679 33.9101L190.686 33.9177ZM182.516 37.6956L181.264 39.8653C180.809 40.6543 179.974 41.1322 179.064 41.1322H168.322C167.412 41.1322 166.577 40.6467 166.122 39.8653L164.87 37.6956C164.415 36.9067 164.415 35.9432 164.87 35.1542L166.122 32.9845C166.577 32.1956 167.412 31.7176 168.322 31.7176H179.064C179.974 31.7176 180.809 32.2032 181.264 32.9845L182.516 35.1542C182.971 35.9432 182.971 36.9067 182.516 37.6956Z" fill="white"/>
<path d="M107.138 27.9397L99.0817 13.9809C98.4292 12.8581 97.2306 12.1602 95.9333 12.1602H79.82C78.5228 12.1602 77.3165 12.8505 76.6717 13.9809L68.615 27.9397C67.9626 29.0625 67.9626 30.4508 68.615 31.5811L76.6717 45.5399C77.3241 46.6627 78.5228 47.3606 79.82 47.3606H95.9333C97.2306 47.3606 98.4368 46.6703 99.0817 45.5399L107.138 31.5811C107.791 30.4583 107.791 29.07 107.138 27.9397ZM95.7058 29.7604C95.7058 34.0846 92.2009 37.5895 87.8767 37.5895C83.5525 37.5895 80.0476 34.0846 80.0476 29.7604C80.0476 25.4362 83.5525 21.9313 87.8767 21.9313C92.2009 21.9313 95.7058 25.4362 95.7058 29.7604Z" fill="white"/>
</g>
</g>
<defs>
<filter id="filter0_d_287_36" x="2.67029e-05" y="34.3612" width="754.68" height="107.462" filterUnits="userSpaceOnUse" color-interpolation-filters="sRGB">
<feFlood flood-opacity="0" result="BackgroundImageFix"/>
<feColorMatrix in="SourceAlpha" type="matrix" values="0 0 0 0 0 0 0 0 0 0 0 0 0 0 0 0 0 0 127 0" result="hardAlpha"/>
<feOffset/>
<feGaussianBlur stdDeviation="14.42"/>
<feColorMatrix type="matrix" values="0 0 0 0 0.356863 0 0 0 0 0.956863 0 0 0 0 0.941176 0 0 0 0.5 0"/>
<feBlend mode="normal" in2="BackgroundImageFix" result="effect1_dropShadow_287_36"/>
<feBlend mode="normal" in="SourceGraphic" in2="effect1_dropShadow_287_36" result="shape"/>
</filter>
<filter id="filter1_d_287_36" x="16.68" y="0.000156403" width="186.819" height="59.5202" filterUnits="userSpaceOnUse" color-interpolation-filters="sRGB">
<feFlood flood-opacity="0" result="BackgroundImageFix"/>
<feColorMatrix in="SourceAlpha" type="matrix" values="0 0 0 0 0 0 0 0 0 0 0 0 0 0 0 0 0 0 127 0" result="hardAlpha"/>
<feOffset/>
<feGaussianBlur stdDeviation="6.08"/>
<feColorMatrix type="matrix" values="0 0 0 0 0.270588 0 0 0 0 1 0 0 0 0 1 0 0 0 0.5 0"/>
<feBlend mode="normal" in2="BackgroundImageFix" result="effect1_dropShadow_287_36"/>
<feBlend mode="normal" in="SourceGraphic" in2="effect1_dropShadow_287_36" result="shape"/>
</filter>
<clipPath id="clip0_287_36">
<rect width="755" height="142" fill="white"/>
</clipPath>
</defs>
</svg>
