<svg width="372" height="105" viewBox="0 0 372 105" fill="none" xmlns="http://www.w3.org/2000/svg">
<g clip-path="url(#clip0_287_64)">
<g filter="url(#filter0_d_287_64)">
<path d="M28.84 65.2743C28.84 58.3937 33.447 54.4551 38.9357 54.4551C41.9432 54.4551 44.0929 55.7301 45.501 57.1461L42.8797 60.308C41.8851 59.3938 40.812 58.6996 39.0998 58.6996C36.0649 58.6996 33.8878 61.0848 33.8878 65.1059C33.8878 69.127 35.7094 71.5981 39.5133 71.5981C40.2583 71.5981 41.0307 71.4056 41.4716 71.0723V67.7419H38.218V63.6933H45.8599V73.3475C44.4244 74.7359 41.8886 75.8701 39.0177 75.8701C33.3068 75.8701 28.84 72.2648 28.84 65.2743Z" fill="white"/>
<path d="M49.6056 70.3509V53.3213H54.4894V70.5468C54.4894 71.5744 54.985 71.8769 55.3712 71.8769C55.5352 71.8769 55.648 71.8769 55.9214 71.8219L56.5024 75.4546C55.9795 75.678 55.1524 75.8705 54.0759 75.8705C50.7095 75.8705 49.609 73.6503 49.609 70.3509H49.6056Z" fill="white"/>
<path d="M80.6618 73.7912H80.5525L80.1663 75.4821H76.3317V53.3213H81.2155V58.6484L81.1061 61.0061C82.2647 59.951 83.7275 59.3152 85.1595 59.3152C88.912 59.3152 91.3112 62.4771 91.3112 67.3024C91.3112 72.767 88.085 75.8739 84.7186 75.8739C83.3378 75.8739 81.9059 75.1797 80.6652 73.7946L80.6618 73.7912ZM86.2634 67.4089C86.2634 64.6354 85.4636 63.3328 83.724 63.3328C82.8149 63.3328 82.0699 63.7487 81.2155 64.6629V70.9042C81.9879 71.5985 82.8149 71.8184 83.56 71.8184C85.0501 71.8184 86.2634 70.5708 86.2634 67.4089Z" fill="white"/>
<path d="M93.4336 71.0729C93.4336 67.7426 96.0276 65.9417 102.149 65.2749C102.039 63.9999 101.376 63.2506 99.7768 63.2506C98.5361 63.2506 97.2374 63.749 95.6653 64.6391L93.9565 61.3947C96.0242 60.1471 98.2593 59.3154 100.713 59.3154C104.767 59.3154 107.056 61.5906 107.056 66.5259V75.4858H103.058L102.699 73.9049H102.589C101.294 75.07 99.8314 75.8742 98.0918 75.8742C95.1971 75.8742 93.4302 73.7124 93.4302 71.0763L93.4336 71.0729ZM102.149 70.7945V68.2719C99.0864 68.6877 98.0953 69.5744 98.0953 70.6845C98.0953 71.5987 98.7583 72.0455 99.7768 72.0455C100.795 72.0455 101.431 71.5747 102.149 70.7979V70.7945Z" fill="white"/>
<path d="M110.836 70.3509V53.3213H115.72V70.5468C115.72 71.5744 116.216 71.8769 116.602 71.8769C116.766 71.8769 116.879 71.8769 117.152 71.8219L117.733 75.4546C117.21 75.678 116.383 75.8705 115.306 75.8705C111.94 75.8705 110.84 73.6503 110.84 70.3509H110.836Z" fill="white"/>
<path d="M126.694 54.8438H139.797V58.9508H131.633V63.4702H138.639V67.6047H131.633V75.482H126.694V54.8438Z" fill="white"/>
<path d="M141.065 71.0729C141.065 67.7426 143.659 65.9417 149.78 65.2749C149.671 63.9999 149.008 63.2506 147.408 63.2506C146.168 63.2506 144.869 63.749 143.297 64.6391L141.588 61.3947C143.656 60.1471 145.891 59.3154 148.345 59.3154C152.398 59.3154 154.688 61.5906 154.688 66.5259V75.4858H150.689L150.331 73.9049H150.221C148.926 75.07 147.463 75.8742 145.724 75.8742C142.829 75.8742 141.062 73.7124 141.062 71.0763L141.065 71.0729ZM149.78 70.7945V68.2719C146.718 68.6877 145.727 69.5744 145.727 70.6845C145.727 71.5987 146.39 72.0455 147.408 72.0455C148.427 72.0455 149.063 71.5747 149.78 70.7979V70.7945Z" fill="white"/>
<path d="M157.115 73.6496L159.295 70.5702C160.73 71.6803 162.026 72.2336 163.266 72.2336C164.507 72.2336 165.115 71.7628 165.115 70.986C165.115 70.0443 163.598 69.601 161.998 68.9617C160.122 68.2125 157.918 66.9374 157.918 64.3289C157.918 61.3319 160.344 59.3076 163.984 59.3076C166.465 59.3076 168.232 60.3043 169.61 61.3319L167.402 64.2739C166.298 63.4971 165.194 62.9438 164.148 62.9438C163.044 62.9438 162.494 63.3322 162.494 64.0814C162.494 65.0231 163.929 65.384 165.556 65.9682C167.515 66.7175 169.695 67.8551 169.695 70.7111C169.695 73.5671 167.433 75.8698 163.157 75.8698C161.117 75.8698 158.687 74.9831 157.115 73.6496Z" fill="white"/>
<path d="M172.535 69.6292V63.5528H170.413V59.8926L172.812 59.7001L173.362 55.5381H177.446V59.7001H181.141V63.5563H177.446V69.5742C177.446 71.3201 178.273 72.0144 179.432 72.0144C179.927 72.0144 180.481 71.8494 180.867 71.736L181.64 75.2862C180.813 75.5371 179.681 75.8671 178.082 75.8671C174.138 75.8671 172.538 73.3719 172.538 69.6257L172.535 69.6292Z" fill="white"/>
<path d="M182.682 67.6046C182.682 62.4734 186.322 59.3115 190.129 59.3115C194.654 59.3115 196.858 62.6109 196.858 66.9379C196.858 67.7971 196.749 68.6838 196.636 69.0447H187.422C187.863 71.2099 189.353 72.0966 191.339 72.0966C192.47 72.0966 193.519 71.7632 194.651 71.0999L196.277 74.0659C194.651 75.231 192.497 75.8703 190.652 75.8703C186.154 75.8703 182.682 72.8184 182.682 67.6046ZM192.696 65.8312C192.696 64.2503 192.005 63.0852 190.215 63.0852C188.861 63.0852 187.675 63.9444 187.347 65.8312H192.699H192.696Z" fill="white"/>
<path d="M200.003 59.6999H204.001L204.333 61.6692H204.442C205.738 60.3941 207.337 59.3115 209.463 59.3115C212.884 59.3115 214.343 61.7792 214.343 65.7178V75.4819H209.432V66.3296C209.432 64.1678 208.851 63.5285 207.61 63.5285C206.507 63.5285 205.844 64.0269 204.88 64.9445V75.4853H199.996V59.7033L200.003 59.6999Z" fill="white"/>
<path d="M217.269 67.6046C217.269 62.4734 220.908 59.3115 224.716 59.3115C229.241 59.3115 231.445 62.6109 231.445 66.9379C231.445 67.7971 231.336 68.6838 231.223 69.0447H222.009C222.45 71.2099 223.94 72.0966 225.926 72.0966C227.057 72.0966 228.106 71.7632 229.237 71.0999L230.864 74.0659C229.237 75.231 227.084 75.8703 225.239 75.8703C220.741 75.8703 217.269 72.8184 217.269 67.6046ZM227.282 65.8312C227.282 64.2503 226.592 63.0852 224.801 63.0852C223.448 63.0852 222.262 63.9444 221.934 65.8312H227.286H227.282Z" fill="white"/>
<path d="M234.589 59.6999H238.588L238.92 62.4459H239.029C240.187 60.3357 241.924 59.3115 243.496 59.3115C244.432 59.3115 244.958 59.449 245.399 59.6449L244.572 63.8894C244.022 63.7519 243.55 63.6385 242.863 63.6385C241.705 63.6385 240.297 64.3878 239.47 66.4671V75.4819H234.586V59.6999H234.589Z" fill="white"/>
<path d="M254.09 54.8438H267.194V58.9508H259.029V63.4702H266.035V67.6047H259.029V75.482H254.09V54.8438Z" fill="white"/>
<path d="M288.67 59.6999H292.669L293 62.4459H293.11C294.268 60.3357 296.004 59.3115 297.576 59.3115C298.513 59.3115 299.039 59.449 299.48 59.6449L298.653 63.8894C298.103 63.7519 297.631 63.6385 296.944 63.6385C295.786 63.6385 294.378 64.3878 293.55 66.4671V75.4819H288.667V59.6999H288.67Z" fill="white"/>
<path d="M301.302 69.4643V59.7002H306.213V68.8525C306.213 71.0452 306.791 71.6536 308.035 71.6536C309.139 71.6536 309.829 71.2102 310.656 70.0451V59.7002H315.567V75.4822H311.569L311.21 73.3204H311.1C309.805 74.8739 308.342 75.8706 306.189 75.8706C302.768 75.8706 301.305 73.4029 301.305 69.4643H301.302Z" fill="white"/>
<path d="M319.504 59.6999H323.503L323.834 61.6967H323.944C325.239 60.3941 326.592 59.3115 328.715 59.3115C330.837 59.3115 332.218 60.2257 333.018 61.9201C334.368 60.535 335.83 59.3115 337.929 59.3115C341.35 59.3115 342.84 61.7792 342.84 65.7178V75.4819H337.929V66.3296C337.929 64.1678 337.379 63.5285 336.135 63.5285C335.417 63.5285 334.562 63.9719 333.626 64.9445V75.4853H328.687V66.333C328.687 64.1712 328.137 63.532 326.893 63.532C326.176 63.532 325.321 63.9753 324.385 64.948V75.4888H319.501V59.7068L319.504 59.6999Z" fill="white"/>
<path d="M70.5969 60.4842L74.1786 66.7255C74.452 67.1998 74.452 67.7841 74.1786 68.2583L70.5969 74.4997C70.3235 74.974 69.8211 75.2661 69.2742 75.2661H62.1074C61.564 75.2661 61.0582 74.974 60.7848 74.4997L57.2031 68.2583C56.9297 67.7841 56.9297 67.1998 57.2031 66.7255L60.7848 60.4842C61.0582 60.0099 61.5606 59.7178 62.1074 59.7178H69.2742C69.8176 59.7178 70.3235 60.0099 70.5969 60.4842ZM65.6925 64.4881C64.0418 64.4881 62.7055 65.8319 62.7055 67.4919C62.7055 69.1519 64.0418 70.4957 65.6925 70.4957C67.3433 70.4957 68.6796 69.1519 68.6796 67.4919C68.6796 65.8319 67.3433 64.4881 65.6925 64.4881Z" fill="white"/>
<path d="M282.091 60.4842L285.673 66.7255C285.946 67.1998 285.946 67.7841 285.673 68.2583L282.091 74.4997C281.818 74.974 281.315 75.2661 280.768 75.2661H273.602C273.058 75.2661 272.552 74.974 272.279 74.4997L268.697 68.2583C268.424 67.7841 268.424 67.1998 268.697 66.7255L272.279 60.4842C272.552 60.0099 273.055 59.7178 273.602 59.7178H280.768C281.312 59.7178 281.818 60.0099 282.091 60.4842ZM277.19 64.4881C275.539 64.4881 274.203 65.8319 274.203 67.4919C274.203 69.1519 275.539 70.4957 277.19 70.4957C278.841 70.4957 280.177 69.1519 280.177 67.4919C280.177 65.8319 278.841 64.4881 277.19 64.4881Z" fill="white"/>
</g>
<g filter="url(#filter1_d_287_64)">
<path d="M136.343 12.804C136.954 12.6058 137.737 12.4621 138.698 12.3779H147.89C149.939 12.4423 151.683 13.0021 153.122 14.0573C153.974 14.9986 154.442 16.1281 154.531 17.4458V21.196C154.486 22.7069 153.757 23.9702 152.338 24.9808C150.245 25.9022 147.466 26.353 143.998 26.3283L141.382 26.4917C140.249 26.5561 139.377 26.7642 138.767 27.1159C138.2 27.6658 137.949 28.4436 138.013 29.4492C138.013 29.9991 138.284 30.2716 138.831 30.2716H153.683C154.339 30.2716 154.664 30.5986 154.664 31.2574V33.8236C154.664 34.4824 154.339 34.8094 153.683 34.8094H133.663C133.008 34.8094 132.683 34.4824 132.683 33.8236V29.6474C132.702 27.542 133.293 25.7883 134.451 24.3863C135.062 23.7076 135.934 23.2122 137.067 22.9051C139.9 22.4245 142.52 22.1174 144.919 21.9836C145.791 21.939 146.663 21.84 147.535 21.6864C148.929 21.4437 149.54 20.5569 149.368 19.0212C149.585 17.7034 149.107 16.8712 147.929 16.5194H139.653C138.17 16.8464 137.569 17.7579 137.855 19.2491C137.855 19.9079 137.53 20.2349 136.875 20.2349H133.668C133.013 20.2349 132.688 19.9079 132.688 19.2491V17.0099C132.732 15.0828 133.954 13.6759 136.353 12.799L136.343 12.804Z" fill="white"/>
<path d="M191.822 12.804C192.433 12.6058 193.217 12.4621 194.177 12.3779H203.37C205.419 12.4423 207.163 13.0021 208.601 14.0573C209.454 14.9986 209.922 16.1281 210.01 17.4458V21.196C209.966 22.7069 209.237 23.9702 207.818 24.9808C205.724 25.9022 202.946 26.353 199.478 26.3283L196.862 26.4917C195.729 26.5561 194.857 26.7642 194.246 27.1159C193.68 27.6658 193.428 28.4436 193.492 29.4492C193.492 29.9991 193.763 30.2716 194.31 30.2716H209.163C209.818 30.2716 210.143 30.5986 210.143 31.2574V33.8236C210.143 34.4824 209.818 34.8094 209.163 34.8094H189.143C188.487 34.8094 188.162 34.4824 188.162 33.8236V29.6474C188.182 27.542 188.773 25.7883 189.931 24.3863C190.542 23.7076 191.414 23.2122 192.547 22.9051C195.379 22.4245 198 22.1174 200.399 21.9836C201.271 21.939 202.143 21.84 203.015 21.6864C204.409 21.4437 205.02 20.5569 204.848 19.0212C205.064 17.7034 204.586 16.8712 203.409 16.5194H195.133C193.65 16.8464 193.049 17.7579 193.335 19.2491C193.335 19.9079 193.01 20.2349 192.354 20.2349H189.147C188.492 20.2349 188.167 19.9079 188.167 19.2491V17.0099C188.211 15.0828 189.433 13.6759 191.832 12.799L191.822 12.804Z" fill="white"/>
<path d="M237.78 26.367L235.883 23.0478C235.208 21.8688 233.962 21.1455 232.612 21.1455H230.947L223.636 21.1257C222.631 21.1455 221.937 21.3437 221.543 21.7202C221.37 21.8936 221.203 21.8837 221.05 21.6855C220.986 20.7195 220.961 19.7881 220.986 18.8915C220.853 17.7075 221.434 16.9644 222.72 16.6523H230.243C231.77 16.5185 232.523 17.222 232.499 18.7577C232.499 19.1738 232.824 19.3819 233.479 19.3819H236.814C237.469 19.3819 237.794 19.0549 237.794 18.3961C237.859 16.4244 237.317 14.8887 236.159 13.7889C235.154 13.0012 233.849 12.5256 232.233 12.3721H222.094C220.828 12.4811 219.705 12.7337 218.725 13.13C217.873 13.4174 217.124 14.1406 216.469 15.2999C216.075 16.1767 215.858 17.0536 215.813 17.9304V29.2799C215.878 30.4441 216.163 31.4844 216.666 32.4058C217.257 33.3273 218.06 33.9416 219.085 34.2487C219.784 34.5113 220.656 34.6995 221.7 34.8085H230.942V34.8184H232.607C233.957 34.8184 235.203 34.0902 235.878 32.9161L237.775 29.597C238.346 28.5963 238.346 27.3627 237.775 26.362L237.78 26.367ZM232.474 28.834L231.661 30.2509C231.366 30.7661 230.824 31.0782 230.233 31.0782H223.257C222.666 31.0782 222.124 30.7611 221.828 30.2509L221.016 28.834C220.72 28.3188 220.72 27.6897 221.016 27.1745L221.828 25.7576C222.124 25.2424 222.666 24.9303 223.257 24.9303H230.233C230.824 24.9303 231.366 25.2474 231.661 25.7576L232.474 27.1745C232.77 27.6897 232.77 28.3188 232.474 28.834Z" fill="white"/>
<path d="M183.527 22.4644L178.295 13.3491C177.871 12.6159 177.093 12.1602 176.251 12.1602H165.787C164.945 12.1602 164.162 12.611 163.743 13.3491L158.511 22.4644C158.088 23.1976 158.088 24.1041 158.511 24.8423L163.743 33.9575C164.167 34.6907 164.945 35.1465 165.787 35.1465H176.251C177.093 35.1465 177.876 34.6957 178.295 33.9575L183.527 24.8423C183.95 24.1091 183.95 23.2025 183.527 22.4644ZM176.103 23.6533C176.103 26.4771 173.827 28.7658 171.019 28.7658C168.211 28.7658 165.935 26.4771 165.935 23.6533C165.935 20.8296 168.211 18.5408 171.019 18.5408C173.827 18.5408 176.103 20.8296 176.103 23.6533Z" fill="white"/>
</g>
</g>
<defs>
<filter id="filter0_d_287_64" x="-3.43323e-05" y="24.4813" width="371.68" height="80.2327" filterUnits="userSpaceOnUse" color-interpolation-filters="sRGB">
<feFlood flood-opacity="0" result="BackgroundImageFix"/>
<feColorMatrix in="SourceAlpha" type="matrix" values="0 0 0 0 0 0 0 0 0 0 0 0 0 0 0 0 0 0 127 0" result="hardAlpha"/>
<feOffset/>
<feGaussianBlur stdDeviation="14.42"/>
<feColorMatrix type="matrix" values="0 0 0 0 0.356863 0 0 0 0 0.956863 0 0 0 0 0.941176 0 0 0 0.5 0"/>
<feBlend mode="normal" in2="BackgroundImageFix" result="effect1_dropShadow_287_64"/>
<feBlend mode="normal" in="SourceGraphic" in2="effect1_dropShadow_287_64" result="shape"/>
</filter>
<filter id="filter1_d_287_64" x="120.523" y="0.000156403" width="129.84" height="47.3063" filterUnits="userSpaceOnUse" color-interpolation-filters="sRGB">
<feFlood flood-opacity="0" result="BackgroundImageFix"/>
<feColorMatrix in="SourceAlpha" type="matrix" values="0 0 0 0 0 0 0 0 0 0 0 0 0 0 0 0 0 0 127 0" result="hardAlpha"/>
<feOffset/>
<feGaussianBlur stdDeviation="6.08"/>
<feColorMatrix type="matrix" values="0 0 0 0 0.270588 0 0 0 0 1 0 0 0 0 1 0 0 0 0.5 0"/>
<feBlend mode="normal" in2="BackgroundImageFix" result="effect1_dropShadow_287_64"/>
<feBlend mode="normal" in="SourceGraphic" in2="effect1_dropShadow_287_64" result="shape"/>
</filter>
<clipPath id="clip0_287_64">
<rect width="372" height="105" fill="white"/>
</clipPath>
</defs>
</svg>
