<svg width="343" height="82" viewBox="0 0 343 82" fill="none" xmlns="http://www.w3.org/2000/svg">
<g clip-path="url(#clip0_288_186)">
<path d="M69.9343 18.4517H63.7468V0.997159H69.9854C71.7411 0.997159 73.2525 1.34659 74.5195 2.04546C75.7866 2.73864 76.761 3.7358 77.4428 5.03694C78.1303 6.33807 78.4741 7.89489 78.4741 9.70739C78.4741 11.5256 78.1303 13.0881 77.4428 14.3949C76.761 15.7017 75.7809 16.7046 74.5025 17.4035C73.2297 18.1023 71.707 18.4517 69.9343 18.4517ZM67.4371 15.2898H69.7809C70.8718 15.2898 71.7894 15.0966 72.5337 14.7103C73.2837 14.3182 73.8462 13.7131 74.2212 12.8949C74.6019 12.0711 74.7922 11.0086 74.7922 9.70739C74.7922 8.41762 74.6019 7.36364 74.2212 6.54546C73.8462 5.72728 73.2866 5.125 72.5422 4.73864C71.7979 4.35228 70.8803 4.15909 69.7894 4.15909H67.4371V15.2898ZM81.1395 18.4517V5.3608H84.6594V7.64489H84.7958C85.0344 6.83239 85.435 6.21875 85.9975 5.80398C86.56 5.38353 87.2077 5.1733 87.9407 5.1733C88.1225 5.1733 88.3185 5.18466 88.5287 5.20739C88.739 5.23012 88.9236 5.26137 89.0827 5.30114V8.52273C88.9123 8.47159 88.6765 8.42614 88.3753 8.38637C88.0742 8.34659 87.7986 8.32671 87.5486 8.32671C87.0145 8.32671 86.5373 8.44319 86.1168 8.67614C85.702 8.90341 85.3725 9.22159 85.1282 9.63069C84.8895 10.0398 84.7702 10.5114 84.7702 11.0455V18.4517H81.1395ZM90.9599 18.4517V5.3608H94.5905V18.4517H90.9599ZM92.7837 3.6733C92.2439 3.6733 91.7809 3.49432 91.3945 3.13637C91.0138 2.77273 90.8235 2.33807 90.8235 1.83239C90.8235 1.33239 91.0138 0.903409 91.3945 0.545455C91.7809 0.181818 92.2439 0 92.7837 0C93.3235 0 93.7837 0.181818 94.1644 0.545455C94.5508 0.903409 94.7439 1.33239 94.7439 1.83239C94.7439 2.33807 94.5508 2.77273 94.1644 3.13637C93.7837 3.49432 93.3235 3.6733 92.7837 3.6733ZM109.703 5.3608L105.127 18.4517H101.036L96.4591 5.3608H100.294L103.013 14.7273H103.149L105.86 5.3608H109.703ZM111.561 18.4517V5.3608H115.192V18.4517H111.561ZM113.385 3.6733C112.846 3.6733 112.382 3.49432 111.996 3.13637C111.615 2.77273 111.425 2.33807 111.425 1.83239C111.425 1.33239 111.615 0.903409 111.996 0.545455C112.382 0.181818 112.846 0 113.385 0C113.925 0 114.385 0.181818 114.766 0.545455C115.152 0.903409 115.346 1.33239 115.346 1.83239C115.346 2.33807 115.152 2.77273 114.766 3.13637C114.385 3.49432 113.925 3.6733 113.385 3.6733ZM121.731 10.8836V18.4517H118.1V5.3608H121.561V7.67046H121.714C122.004 6.90909 122.49 6.30682 123.171 5.86364C123.853 5.41478 124.68 5.19034 125.652 5.19034C126.561 5.19034 127.353 5.38921 128.029 5.78694C128.706 6.18466 129.231 6.75284 129.606 7.49148C129.981 8.22444 130.169 9.09944 130.169 10.1165V18.4517H126.538V10.7642C126.544 9.96307 126.339 9.33807 125.924 8.88921C125.51 8.43466 124.939 8.20739 124.211 8.20739C123.723 8.20739 123.291 8.3125 122.916 8.52273C122.546 8.73296 122.257 9.03978 122.046 9.44319C121.842 9.84091 121.737 10.3211 121.731 10.8836ZM138.928 23.6336C137.752 23.6336 136.743 23.4716 135.902 23.1478C135.067 22.8296 134.402 22.3949 133.908 21.8438C133.414 21.2927 133.093 20.6733 132.945 19.9858L136.303 19.5341C136.405 19.7955 136.567 20.0398 136.789 20.2671C137.01 20.4944 137.303 20.6762 137.667 20.8125C138.036 20.9546 138.485 21.0256 139.013 21.0256C139.803 21.0256 140.453 20.8324 140.965 20.4461C141.482 20.0654 141.74 19.4262 141.74 18.5285V16.1336H141.587C141.428 16.4972 141.189 16.841 140.871 17.1648C140.553 17.4887 140.144 17.7529 139.644 17.9574C139.144 18.162 138.547 18.2642 137.854 18.2642C136.871 18.2642 135.976 18.037 135.169 17.5824C134.368 17.1222 133.729 16.4205 133.252 15.4773C132.78 14.5285 132.544 13.3296 132.544 11.8807C132.544 10.3978 132.786 9.15909 133.269 8.16478C133.752 7.17046 134.394 6.42614 135.195 5.93182C136.002 5.4375 136.885 5.19034 137.846 5.19034C138.578 5.19034 139.192 5.31534 139.686 5.56534C140.181 5.80966 140.578 6.11648 140.88 6.4858C141.186 6.84944 141.422 7.20739 141.587 7.55966H141.723V5.3608H145.328V18.5796C145.328 19.6932 145.056 20.625 144.51 21.375C143.965 22.125 143.209 22.6875 142.243 23.0625C141.283 23.4432 140.178 23.6336 138.928 23.6336ZM139.005 15.537C139.59 15.537 140.084 15.3921 140.488 15.1023C140.897 14.8069 141.209 14.3864 141.425 13.841C141.647 13.2898 141.757 12.6307 141.757 11.8637C141.757 11.0966 141.649 10.4319 141.434 9.86932C141.218 9.30114 140.905 8.8608 140.496 8.5483C140.087 8.2358 139.59 8.07955 139.005 8.07955C138.408 8.07955 137.905 8.24148 137.496 8.56534C137.087 8.88353 136.777 9.32671 136.567 9.89489C136.357 10.4631 136.252 11.1194 136.252 11.8637C136.252 12.6194 136.357 13.2728 136.567 13.8239C136.783 14.3694 137.093 14.7927 137.496 15.0938C137.905 15.3892 138.408 15.537 139.005 15.537ZM160.735 5.3608V8.08807H152.852V5.3608H160.735ZM154.642 2.22444H158.272V14.429C158.272 14.7642 158.323 15.0256 158.426 15.2131C158.528 15.3949 158.67 15.5228 158.852 15.5966C159.039 15.6705 159.255 15.7074 159.5 15.7074C159.67 15.7074 159.841 15.6932 160.011 15.6648C160.181 15.6307 160.312 15.6052 160.403 15.5881L160.974 18.2898C160.792 18.3466 160.537 18.412 160.207 18.4858C159.877 18.5654 159.477 18.6137 159.005 18.6307C158.13 18.6648 157.363 18.5483 156.704 18.2813C156.051 18.0142 155.542 17.5995 155.179 17.037C154.815 16.4745 154.636 15.7642 154.642 14.9063V2.22444ZM167.012 10.8836V18.4517H163.382V0.997159H166.91V7.67046H167.064C167.359 6.89773 167.836 6.29262 168.495 5.85512C169.154 5.41194 169.981 5.19034 170.975 5.19034C171.885 5.19034 172.677 5.38921 173.353 5.78694C174.035 6.17898 174.564 6.74432 174.939 7.48296C175.319 8.21591 175.507 9.09375 175.501 10.1165V18.4517H171.87V10.7642C171.876 9.95739 171.671 9.32955 171.257 8.88069C170.848 8.43182 170.274 8.20739 169.535 8.20739C169.041 8.20739 168.603 8.3125 168.223 8.52273C167.848 8.73296 167.552 9.03978 167.336 9.44319C167.126 9.84091 167.018 10.3211 167.012 10.8836ZM184.324 18.7074C182.978 18.7074 181.819 18.4347 180.847 17.8892C179.881 17.3381 179.137 16.5597 178.614 15.554C178.091 14.5427 177.83 13.3466 177.83 11.966C177.83 10.6194 178.091 9.4375 178.614 8.42046C179.137 7.40341 179.872 6.6108 180.821 6.04262C181.776 5.47444 182.895 5.19034 184.179 5.19034C185.043 5.19034 185.847 5.32955 186.591 5.60796C187.341 5.88069 187.995 6.29262 188.551 6.84375C189.114 7.39489 189.551 8.08807 189.864 8.9233C190.176 9.75284 190.333 10.7245 190.333 11.8381V12.8353H179.279V10.5853H186.915C186.915 10.0625 186.801 9.59944 186.574 9.19603C186.347 8.79262 186.032 8.47728 185.628 8.25C185.23 8.01705 184.767 7.90057 184.239 7.90057C183.688 7.90057 183.199 8.02841 182.773 8.28409C182.353 8.53409 182.023 8.87216 181.784 9.2983C181.546 9.71875 181.424 10.1875 181.418 10.7046V12.8438C181.418 13.4915 181.537 14.0512 181.776 14.5228C182.02 14.9944 182.364 15.358 182.807 15.6137C183.25 15.8694 183.776 15.9972 184.384 15.9972C184.787 15.9972 185.157 15.9404 185.492 15.8267C185.827 15.7131 186.114 15.5427 186.353 15.3154C186.591 15.0881 186.773 14.8097 186.898 14.4802L190.256 14.7017C190.086 15.5086 189.736 16.2131 189.208 16.8154C188.685 17.412 188.009 17.8779 187.179 18.2131C186.355 18.5427 185.404 18.7074 184.324 18.7074ZM198.325 18.4517V0.997159H209.882V4.03978H202.015V8.19887H209.115V11.2415H202.015V18.4517H198.325ZM219.87 12.8779V5.3608H223.501V18.4517H220.015V16.0739H219.879C219.583 16.841 219.092 17.4574 218.404 17.9233C217.723 18.3892 216.89 18.6222 215.907 18.6222C215.032 18.6222 214.262 18.4233 213.598 18.0256C212.933 17.6279 212.413 17.0625 212.038 16.3296C211.669 15.5966 211.481 14.7188 211.475 13.6961V5.3608H215.106V13.0483C215.112 13.8211 215.319 14.4319 215.728 14.8807C216.137 15.3296 216.686 15.554 217.373 15.554C217.811 15.554 218.22 15.4546 218.6 15.2557C218.981 15.0512 219.288 14.75 219.521 14.3523C219.76 13.9546 219.876 13.4631 219.87 12.8779ZM233.368 5.3608V8.08807H225.485V5.3608H233.368ZM227.274 2.22444H230.905V14.429C230.905 14.7642 230.956 15.0256 231.059 15.2131C231.161 15.3949 231.303 15.5228 231.485 15.5966C231.672 15.6705 231.888 15.7074 232.132 15.7074C232.303 15.7074 232.473 15.6932 232.644 15.6648C232.814 15.6307 232.945 15.6052 233.036 15.5881L233.607 18.2898C233.425 18.3466 233.169 18.412 232.84 18.4858C232.51 18.5654 232.11 18.6137 231.638 18.6307C230.763 18.6648 229.996 18.5483 229.337 18.2813C228.684 18.0142 228.175 17.5995 227.811 17.037C227.448 16.4745 227.269 15.7642 227.274 14.9063V2.22444ZM244.128 12.8779V5.3608H247.759V18.4517H244.273V16.0739H244.137C243.841 16.841 243.35 17.4574 242.662 17.9233C241.98 18.3892 241.148 18.6222 240.165 18.6222C239.29 18.6222 238.52 18.4233 237.855 18.0256C237.191 17.6279 236.671 17.0625 236.296 16.3296C235.926 15.5966 235.739 14.7188 235.733 13.6961V5.3608H239.364V13.0483C239.37 13.8211 239.577 14.4319 239.986 14.8807C240.395 15.3296 240.944 15.554 241.631 15.554C242.069 15.554 242.478 15.4546 242.858 15.2557C243.239 15.0512 243.546 14.75 243.779 14.3523C244.017 13.9546 244.134 13.4631 244.128 12.8779ZM250.663 18.4517V5.3608H254.183V7.64489H254.319C254.558 6.83239 254.958 6.21875 255.521 5.80398C256.083 5.38353 256.731 5.1733 257.464 5.1733C257.646 5.1733 257.842 5.18466 258.052 5.20739C258.262 5.23012 258.447 5.26137 258.606 5.30114V8.52273C258.436 8.47159 258.2 8.42614 257.899 8.38637C257.598 8.34659 257.322 8.32671 257.072 8.32671C256.538 8.32671 256.061 8.44319 255.64 8.67614C255.225 8.90341 254.896 9.22159 254.652 9.63069C254.413 10.0398 254.294 10.5114 254.294 11.0455V18.4517H250.663ZM265.84 18.7074C264.493 18.7074 263.334 18.4347 262.363 17.8892C261.397 17.3381 260.652 16.5597 260.13 15.554C259.607 14.5427 259.346 13.3466 259.346 11.966C259.346 10.6194 259.607 9.4375 260.13 8.42046C260.652 7.40341 261.388 6.6108 262.337 6.04262C263.292 5.47444 264.411 5.19034 265.695 5.19034C266.559 5.19034 267.363 5.32955 268.107 5.60796C268.857 5.88069 269.51 6.29262 270.067 6.84375C270.63 7.39489 271.067 8.08807 271.38 8.9233C271.692 9.75284 271.848 10.7245 271.848 11.8381V12.8353H260.794V10.5853H268.431C268.431 10.0625 268.317 9.59944 268.09 9.19603C267.863 8.79262 267.547 8.47728 267.144 8.25C266.746 8.01705 266.283 7.90057 265.755 7.90057C265.203 7.90057 264.715 8.02841 264.289 8.28409C263.868 8.53409 263.539 8.87216 263.3 9.2983C263.061 9.71875 262.939 10.1875 262.934 10.7046V12.8438C262.934 13.4915 263.053 14.0512 263.292 14.5228C263.536 14.9944 263.88 15.358 264.323 15.6137C264.766 15.8694 265.292 15.9972 265.899 15.9972C266.303 15.9972 266.672 15.9404 267.007 15.8267C267.343 15.7131 267.63 15.5427 267.868 15.3154C268.107 15.0881 268.289 14.8097 268.414 14.4802L271.772 14.7017C271.601 15.5086 271.252 16.2131 270.723 16.8154C270.201 17.412 269.524 17.8779 268.695 18.2131C267.871 18.5427 266.919 18.7074 265.84 18.7074ZM276.34 18.6733C275.777 18.6733 275.294 18.4745 274.891 18.0767C274.493 17.6733 274.294 17.1904 274.294 16.6279C274.294 16.0711 274.493 15.5938 274.891 15.1961C275.294 14.7983 275.777 14.5995 276.34 14.5995C276.885 14.5995 277.363 14.7983 277.772 15.1961C278.181 15.5938 278.385 16.0711 278.385 16.6279C278.385 17.0029 278.289 17.3466 278.096 17.6591C277.908 17.966 277.661 18.2131 277.354 18.4006C277.047 18.5824 276.709 18.6733 276.34 18.6733ZM276.34 9.50284C275.777 9.50284 275.294 9.30398 274.891 8.90625C274.493 8.50853 274.294 8.02557 274.294 7.45739C274.294 6.90057 274.493 6.42614 274.891 6.03409C275.294 5.63637 275.777 5.4375 276.34 5.4375C276.885 5.4375 277.363 5.63637 277.772 6.03409C278.181 6.42614 278.385 6.90057 278.385 7.45739C278.385 7.83807 278.289 8.18466 278.096 8.49716C277.908 8.80398 277.661 9.0483 277.354 9.23012C277.047 9.41194 276.709 9.50284 276.34 9.50284ZM0 33.0398V29.9972H14.3352V33.0398H8.99148V47.4517H5.34375V33.0398H0ZM20.2585 39.8836V47.4517H16.6278V29.9972H20.1562V36.6705H20.3096C20.6051 35.8978 21.0824 35.2927 21.7415 34.8552C22.4005 34.412 23.2273 34.1904 24.2216 34.1904C25.1307 34.1904 25.9233 34.3892 26.5994 34.787C27.2812 35.179 27.8096 35.7444 28.1846 36.483C28.5653 37.216 28.7528 38.0938 28.7471 39.1165V47.4517H25.1165V39.7642C25.1221 38.9574 24.9176 38.3296 24.5028 37.8807C24.0937 37.4319 23.5199 37.2074 22.7812 37.2074C22.2869 37.2074 21.8494 37.3125 21.4687 37.5228C21.0937 37.733 20.7983 38.0398 20.5824 38.4432C20.3721 38.841 20.2642 39.3211 20.2585 39.8836ZM37.5703 47.7074C36.2237 47.7074 35.0646 47.4347 34.093 46.8892C33.1271 46.3381 32.3828 45.5597 31.8601 44.554C31.3373 43.5427 31.076 42.3466 31.076 40.966C31.076 39.6194 31.3373 38.4375 31.8601 37.4205C32.3828 36.4035 33.1186 35.6108 34.0674 35.0427C35.022 34.4745 36.1413 34.1904 37.4254 34.1904C38.289 34.1904 39.093 34.3296 39.8373 34.608C40.5873 34.8807 41.2407 35.2927 41.7976 35.8438C42.3601 36.3949 42.7976 37.0881 43.1101 37.9233C43.4226 38.7529 43.5788 39.7245 43.5788 40.8381V41.8353H32.5248V39.5853H40.1612C40.1612 39.0625 40.0476 38.5995 39.8203 38.1961C39.593 37.7927 39.2777 37.4773 38.8743 37.25C38.4765 37.0171 38.0135 36.9006 37.4851 36.9006C36.9339 36.9006 36.4453 37.0285 36.0192 37.2841C35.5987 37.5341 35.2692 37.8722 35.0305 38.2983C34.7919 38.7188 34.6697 39.1875 34.664 39.7046V41.8438C34.664 42.4915 34.7834 43.0512 35.022 43.5228C35.2663 43.9944 35.6101 44.358 36.0532 44.6137C36.4964 44.8694 37.022 44.9972 37.6299 44.9972C38.0334 44.9972 38.4027 44.9404 38.7379 44.8267C39.0731 44.7131 39.3601 44.5427 39.5987 44.3154C39.8373 44.0881 40.0192 43.8097 40.1442 43.4802L43.5021 43.7017C43.3317 44.5086 42.9822 45.2131 42.4538 45.8154C41.9311 46.412 41.2549 46.8779 40.4254 47.2131C39.6015 47.5427 38.6498 47.7074 37.5703 47.7074ZM66.1704 29.9972V47.4517H62.9829L55.3892 36.466H55.2613V47.4517H51.571V29.9972H54.8096L62.3437 40.9745H62.4971V29.9972H66.1704ZM75.1172 47.7074C73.7706 47.7074 72.6115 47.4347 71.6399 46.8892C70.674 46.3381 69.9297 45.5597 69.4069 44.554C68.8842 43.5427 68.6228 42.3466 68.6228 40.966C68.6228 39.6194 68.8842 38.4375 69.4069 37.4205C69.9297 36.4035 70.6655 35.6108 71.6143 35.0427C72.5689 34.4745 73.6882 34.1904 74.9723 34.1904C75.8359 34.1904 76.6399 34.3296 77.3842 34.608C78.1342 34.8807 78.7876 35.2927 79.3444 35.8438C79.9069 36.3949 80.3444 37.0881 80.6569 37.9233C80.9694 38.7529 81.1257 39.7245 81.1257 40.8381V41.8353H70.0717V39.5853H77.7081C77.7081 39.0625 77.5944 38.5995 77.3672 38.1961C77.1399 37.7927 76.8246 37.4773 76.4211 37.25C76.0234 37.0171 75.5603 36.9006 75.0319 36.9006C74.4808 36.9006 73.9922 37.0285 73.566 37.2841C73.1456 37.5341 72.816 37.8722 72.5774 38.2983C72.3388 38.7188 72.2166 39.1875 72.2109 39.7046V41.8438C72.2109 42.4915 72.3302 43.0512 72.5689 43.5228C72.8132 43.9944 73.1569 44.358 73.6001 44.6137C74.0433 44.8694 74.5689 44.9972 75.1768 44.9972C75.5802 44.9972 75.9496 44.9404 76.2848 44.8267C76.62 44.7131 76.9069 44.5427 77.1456 44.3154C77.3842 44.0881 77.566 43.8097 77.691 43.4802L81.049 43.7017C80.8785 44.5086 80.5291 45.2131 80.0007 45.8154C79.478 46.412 78.8018 46.8779 77.9723 47.2131C77.1484 47.5427 76.1967 47.7074 75.1172 47.7074ZM86.2947 34.3608L88.6981 38.9375L91.1612 34.3608H94.8856L91.093 40.9063L94.9879 47.4517H91.2805L88.6981 42.9262L86.1584 47.4517H82.4084L86.2947 40.9063L82.5447 34.3608H86.2947ZM104.005 34.3608V37.0881H96.1214V34.3608H104.005ZM97.9112 31.2245H101.542V43.429C101.542 43.7642 101.593 44.0256 101.695 44.2131C101.798 44.3949 101.94 44.5228 102.121 44.5966C102.309 44.6705 102.525 44.7074 102.769 44.7074C102.94 44.7074 103.11 44.6932 103.281 44.6648C103.451 44.6307 103.582 44.6052 103.673 44.5881L104.244 47.2898C104.062 47.3466 103.806 47.412 103.477 47.4858C103.147 47.5654 102.746 47.6137 102.275 47.6307C101.4 47.6648 100.633 47.5483 99.9737 47.2813C99.3203 47.0142 98.8118 46.5995 98.4481 46.037C98.0845 45.4745 97.9055 44.7642 97.9112 43.9063V31.2245ZM118.18 47.4517H111.993V29.9972H118.232C119.987 29.9972 121.499 30.3466 122.766 31.0455C124.033 31.7387 125.007 32.7358 125.689 34.037C126.376 35.3381 126.72 36.8949 126.72 38.7074C126.72 40.5256 126.376 42.0881 125.689 43.3949C125.007 44.7017 124.027 45.7046 122.749 46.4035C121.476 47.1023 119.953 47.4517 118.18 47.4517ZM115.683 44.2898H118.027C119.118 44.2898 120.035 44.0966 120.78 43.7103C121.53 43.3182 122.092 42.7131 122.467 41.8949C122.848 41.0711 123.038 40.0086 123.038 38.7074C123.038 37.4177 122.848 36.3637 122.467 35.5455C122.092 34.7273 121.533 34.125 120.788 33.7387C120.044 33.3523 119.126 33.1591 118.035 33.1591H115.683V44.2898ZM135.352 47.7074C134.005 47.7074 132.846 47.4347 131.874 46.8892C130.908 46.3381 130.164 45.5597 129.641 44.554C129.119 43.5427 128.857 42.3466 128.857 40.966C128.857 39.6194 129.119 38.4375 129.641 37.4205C130.164 36.4035 130.9 35.6108 131.849 35.0427C132.803 34.4745 133.923 34.1904 135.207 34.1904C136.07 34.1904 136.874 34.3296 137.619 34.608C138.369 34.8807 139.022 35.2927 139.579 35.8438C140.141 36.3949 140.579 37.0881 140.891 37.9233C141.204 38.7529 141.36 39.7245 141.36 40.8381V41.8353H130.306V39.5853H137.942C137.942 39.0625 137.829 38.5995 137.602 38.1961C137.374 37.7927 137.059 37.4773 136.656 37.25C136.258 37.0171 135.795 36.9006 135.266 36.9006C134.715 36.9006 134.227 37.0285 133.8 37.2841C133.38 37.5341 133.05 37.8722 132.812 38.2983C132.573 38.7188 132.451 39.1875 132.445 39.7046V41.8438C132.445 42.4915 132.565 43.0512 132.803 43.5228C133.048 43.9944 133.391 44.358 133.834 44.6137C134.278 44.8694 134.803 44.9972 135.411 44.9972C135.815 44.9972 136.184 44.9404 136.519 44.8267C136.854 44.7131 137.141 44.5427 137.38 44.3154C137.619 44.0881 137.8 43.8097 137.925 43.4802L141.283 43.7017C141.113 44.5086 140.763 45.2131 140.235 45.8154C139.712 46.412 139.036 46.8779 138.207 47.2131C137.383 47.5427 136.431 47.7074 135.352 47.7074ZM149.644 47.7074C148.303 47.7074 147.15 47.4233 146.184 46.8552C145.224 46.2813 144.485 45.4858 143.968 44.4688C143.457 43.4517 143.201 42.2813 143.201 40.9574C143.201 39.6165 143.459 38.4404 143.977 37.429C144.499 36.412 145.241 35.6194 146.201 35.0512C147.161 34.4773 148.303 34.1904 149.627 34.1904C150.769 34.1904 151.769 34.3978 152.627 34.8125C153.485 35.2273 154.164 35.8097 154.664 36.5597C155.164 37.3097 155.44 38.1904 155.491 39.2017H152.065C151.968 38.5483 151.712 38.0228 151.298 37.625C150.888 37.2216 150.352 37.0199 149.687 37.0199C149.124 37.0199 148.633 37.1733 148.212 37.4802C147.798 37.7813 147.474 38.2216 147.241 38.8012C147.008 39.3807 146.891 40.0824 146.891 40.9063C146.891 41.7415 147.005 42.4517 147.232 43.037C147.465 43.6222 147.792 44.0682 148.212 44.375C148.633 44.6819 149.124 44.8353 149.687 44.8353C150.102 44.8353 150.474 44.75 150.803 44.5796C151.138 44.4091 151.414 44.162 151.63 43.8381C151.852 43.5086 151.996 43.1137 152.065 42.6535H155.491C155.434 43.6535 155.161 44.5341 154.673 45.2955C154.19 46.0512 153.522 46.6421 152.67 47.0682C151.817 47.4944 150.809 47.7074 149.644 47.7074ZM161.548 47.6989C160.713 47.6989 159.969 47.554 159.315 47.2642C158.662 46.9688 158.145 46.5341 157.764 45.9603C157.389 45.3807 157.202 44.6591 157.202 43.7955C157.202 43.0682 157.335 42.4574 157.602 41.9631C157.869 41.4688 158.233 41.0711 158.693 40.7699C159.153 40.4688 159.676 40.2415 160.261 40.0881C160.852 39.9347 161.472 39.8267 162.119 39.7642C162.881 39.6847 163.494 39.6108 163.96 39.5427C164.426 39.4688 164.764 39.3608 164.974 39.2188C165.185 39.0767 165.29 38.8665 165.29 38.5881V38.537C165.29 37.9972 165.119 37.5796 164.778 37.2841C164.443 36.9887 163.966 36.841 163.347 36.841C162.693 36.841 162.173 36.9858 161.787 37.2756C161.401 37.5597 161.145 37.9177 161.02 38.3495L157.662 38.0767C157.832 37.2813 158.168 36.5938 158.668 36.0142C159.168 35.429 159.812 34.9802 160.602 34.6677C161.398 34.3495 162.318 34.1904 163.364 34.1904C164.091 34.1904 164.787 34.2756 165.452 34.4461C166.122 34.6165 166.716 34.8807 167.233 35.2387C167.756 35.5966 168.168 36.0569 168.469 36.6194C168.77 37.1762 168.92 37.8438 168.92 38.6222V47.4517H165.477V45.6364H165.375C165.165 46.0455 164.884 46.4063 164.531 46.7188C164.179 47.0256 163.756 47.2671 163.261 47.4432C162.767 47.6137 162.196 47.6989 161.548 47.6989ZM162.588 45.1932C163.122 45.1932 163.594 45.0881 164.003 44.8779C164.412 44.662 164.733 44.3722 164.966 44.0086C165.199 43.6449 165.315 43.233 165.315 42.7728V41.3836C165.202 41.4574 165.045 41.5256 164.847 41.5881C164.653 41.6449 164.435 41.6989 164.19 41.75C163.946 41.7955 163.702 41.8381 163.457 41.8779C163.213 41.912 162.991 41.9432 162.793 41.9716C162.366 42.0341 161.994 42.1336 161.676 42.2699C161.358 42.4063 161.111 42.591 160.935 42.8239C160.759 43.0512 160.67 43.3353 160.67 43.6762C160.67 44.1705 160.849 44.5483 161.207 44.8097C161.571 45.0654 162.031 45.1932 162.588 45.1932ZM176.561 47.6648C175.567 47.6648 174.666 47.4091 173.859 46.8978C173.058 46.3807 172.422 45.6222 171.95 44.6222C171.484 43.6165 171.251 42.3836 171.251 40.9233C171.251 39.4233 171.493 38.1762 171.976 37.1819C172.459 36.1819 173.101 35.4347 173.902 34.9404C174.709 34.4404 175.592 34.1904 176.553 34.1904C177.285 34.1904 177.896 34.3154 178.385 34.5654C178.879 34.8097 179.277 35.1165 179.578 35.4858C179.885 35.8495 180.118 36.2074 180.277 36.5597H180.388V29.9972H184.01V47.4517H180.43V45.3552H180.277C180.107 45.7188 179.865 46.0796 179.553 46.4375C179.246 46.7898 178.845 47.0824 178.351 47.3154C177.862 47.5483 177.266 47.6648 176.561 47.6648ZM177.712 44.7756C178.297 44.7756 178.791 44.6165 179.195 44.2983C179.604 43.9745 179.916 43.5228 180.132 42.9432C180.354 42.3637 180.464 41.6847 180.464 40.9063C180.464 40.1279 180.357 39.4517 180.141 38.8779C179.925 38.304 179.612 37.8608 179.203 37.5483C178.794 37.2358 178.297 37.0796 177.712 37.0796C177.115 37.0796 176.612 37.2415 176.203 37.5654C175.794 37.8892 175.484 38.3381 175.274 38.912C175.064 39.4858 174.959 40.1506 174.959 40.9063C174.959 41.6677 175.064 42.341 175.274 42.9262C175.49 43.5057 175.8 43.9603 176.203 44.2898C176.612 44.6137 177.115 44.7756 177.712 44.7756ZM192.961 47.7074C191.614 47.7074 190.455 47.4347 189.484 46.8892C188.518 46.3381 187.773 45.5597 187.251 44.554C186.728 43.5427 186.467 42.3466 186.467 40.966C186.467 39.6194 186.728 38.4375 187.251 37.4205C187.773 36.4035 188.509 35.6108 189.458 35.0427C190.413 34.4745 191.532 34.1904 192.816 34.1904C193.68 34.1904 194.484 34.3296 195.228 34.608C195.978 34.8807 196.631 35.2927 197.188 35.8438C197.751 36.3949 198.188 37.0881 198.501 37.9233C198.813 38.7529 198.969 39.7245 198.969 40.8381V41.8353H187.915V39.5853H195.552C195.552 39.0625 195.438 38.5995 195.211 38.1961C194.984 37.7927 194.668 37.4773 194.265 37.25C193.867 37.0171 193.404 36.9006 192.876 36.9006C192.325 36.9006 191.836 37.0285 191.41 37.2841C190.989 37.5341 190.66 37.8722 190.421 38.2983C190.183 38.7188 190.06 39.1875 190.055 39.7046V41.8438C190.055 42.4915 190.174 43.0512 190.413 43.5228C190.657 43.9944 191.001 44.358 191.444 44.6137C191.887 44.8694 192.413 44.9972 193.021 44.9972C193.424 44.9972 193.793 44.9404 194.129 44.8267C194.464 44.7131 194.751 44.5427 194.989 44.3154C195.228 44.0881 195.41 43.8097 195.535 43.4802L198.893 43.7017C198.722 44.5086 198.373 45.2131 197.844 45.8154C197.322 46.412 196.646 46.8779 195.816 47.2131C194.992 47.5427 194.04 47.7074 192.961 47.7074ZM212.808 47.7074C211.484 47.7074 210.339 47.4262 209.374 46.8637C208.413 46.2955 207.672 45.5057 207.149 44.4944C206.626 43.4773 206.365 42.2983 206.365 40.9574C206.365 39.6052 206.626 38.4233 207.149 37.412C207.672 36.3949 208.413 35.6052 209.374 35.0427C210.339 34.4745 211.484 34.1904 212.808 34.1904C214.132 34.1904 215.274 34.4745 216.234 35.0427C217.2 35.6052 217.945 36.3949 218.467 37.412C218.99 38.4233 219.251 39.6052 219.251 40.9574C219.251 42.2983 218.99 43.4773 218.467 44.4944C217.945 45.5057 217.2 46.2955 216.234 46.8637C215.274 47.4262 214.132 47.7074 212.808 47.7074ZM212.825 44.8949C213.428 44.8949 213.93 44.7245 214.334 44.3836C214.737 44.037 215.041 43.5654 215.246 42.9688C215.456 42.3722 215.561 41.6932 215.561 40.9319C215.561 40.1705 215.456 39.4915 215.246 38.8949C215.041 38.2983 214.737 37.8267 214.334 37.4802C213.93 37.1336 213.428 36.9603 212.825 36.9603C212.217 36.9603 211.706 37.1336 211.291 37.4802C210.882 37.8267 210.572 38.2983 210.362 38.8949C210.158 39.4915 210.055 40.1705 210.055 40.9319C210.055 41.6932 210.158 42.3722 210.362 42.9688C210.572 43.5654 210.882 44.037 211.291 44.3836C211.706 44.7245 212.217 44.8949 212.825 44.8949ZM228.652 34.3608V37.0881H220.572V34.3608H228.652ZM222.422 47.4517V33.4148C222.422 32.466 222.607 31.679 222.976 31.054C223.351 30.429 223.862 29.9603 224.51 29.6478C225.158 29.3353 225.893 29.179 226.717 29.179C227.274 29.179 227.783 29.2216 228.243 29.3069C228.709 29.3921 229.055 29.4688 229.283 29.537L228.635 32.2642C228.493 32.2188 228.317 32.1762 228.107 32.1364C227.902 32.0966 227.692 32.0767 227.476 32.0767C226.942 32.0767 226.57 32.2017 226.359 32.4517C226.149 32.6961 226.044 33.0398 226.044 33.483V47.4517H222.422ZM235.828 33.0398V29.9972H250.163V33.0398H244.82V47.4517H241.172V33.0398H235.828ZM254.408 47.6989C253.572 47.6989 252.828 47.554 252.175 47.2642C251.521 46.9688 251.004 46.5341 250.624 45.9603C250.249 45.3807 250.061 44.6591 250.061 43.7955C250.061 43.0682 250.195 42.4574 250.462 41.9631C250.729 41.4688 251.092 41.0711 251.553 40.7699C252.013 40.4688 252.535 40.2415 253.121 40.0881C253.712 39.9347 254.331 39.8267 254.979 39.7642C255.74 39.6847 256.354 39.6108 256.82 39.5427C257.285 39.4688 257.624 39.3608 257.834 39.2188C258.044 39.0767 258.149 38.8665 258.149 38.5881V38.537C258.149 37.9972 257.979 37.5796 257.638 37.2841C257.303 36.9887 256.825 36.841 256.206 36.841C255.553 36.841 255.033 36.9858 254.646 37.2756C254.26 37.5597 254.004 37.9177 253.879 38.3495L250.521 38.0767C250.692 37.2813 251.027 36.5938 251.527 36.0142C252.027 35.429 252.672 34.9802 253.462 34.6677C254.257 34.3495 255.178 34.1904 256.223 34.1904C256.95 34.1904 257.646 34.2756 258.311 34.4461C258.982 34.6165 259.575 34.8807 260.092 35.2387C260.615 35.5966 261.027 36.0569 261.328 36.6194C261.629 37.1762 261.78 37.8438 261.78 38.6222V47.4517H258.337V45.6364H258.234C258.024 46.0455 257.743 46.4063 257.391 46.7188C257.038 47.0256 256.615 47.2671 256.121 47.4432C255.626 47.6137 255.055 47.6989 254.408 47.6989ZM255.447 45.1932C255.982 45.1932 256.453 45.0881 256.862 44.8779C257.271 44.662 257.592 44.3722 257.825 44.0086C258.058 43.6449 258.175 43.233 258.175 42.7728V41.3836C258.061 41.4574 257.905 41.5256 257.706 41.5881C257.513 41.6449 257.294 41.6989 257.05 41.75C256.805 41.7955 256.561 41.8381 256.317 41.8779C256.072 41.912 255.851 41.9432 255.652 41.9716C255.226 42.0341 254.854 42.1336 254.535 42.2699C254.217 42.4063 253.97 42.591 253.794 42.8239C253.618 43.0512 253.53 43.3353 253.53 43.6762C253.53 44.1705 253.709 44.5483 254.067 44.8097C254.43 45.0654 254.891 45.1932 255.447 45.1932ZM264.597 47.4517V34.3608H268.227V47.4517H264.597ZM266.42 32.6733C265.881 32.6733 265.418 32.4944 265.031 32.1364C264.651 31.7728 264.46 31.3381 264.46 30.8324C264.46 30.3324 264.651 29.9035 265.031 29.5455C265.418 29.1819 265.881 29 266.42 29C266.96 29 267.42 29.1819 267.801 29.5455C268.187 29.9035 268.381 30.3324 268.381 30.8324C268.381 31.3381 268.187 31.7728 267.801 32.1364C267.42 32.4944 266.96 32.6733 266.42 32.6733ZM273.718 47.4517L270.156 34.3608H273.829L275.857 43.1563H275.977L278.09 34.3608H281.695L283.843 43.1052H283.954L285.948 34.3608H289.613L286.059 47.4517H282.215L279.965 39.2188H279.803L277.553 47.4517H273.718ZM295.283 47.6989C294.447 47.6989 293.703 47.554 293.05 47.2642C292.396 46.9688 291.879 46.5341 291.499 45.9603C291.124 45.3807 290.936 44.6591 290.936 43.7955C290.936 43.0682 291.07 42.4574 291.337 41.9631C291.604 41.4688 291.967 41.0711 292.428 40.7699C292.888 40.4688 293.41 40.2415 293.996 40.0881C294.587 39.9347 295.206 39.8267 295.854 39.7642C296.615 39.6847 297.229 39.6108 297.695 39.5427C298.16 39.4688 298.499 39.3608 298.709 39.2188C298.919 39.0767 299.024 38.8665 299.024 38.5881V38.537C299.024 37.9972 298.854 37.5796 298.513 37.2841C298.178 36.9887 297.7 36.841 297.081 36.841C296.428 36.841 295.908 36.9858 295.521 37.2756C295.135 37.5597 294.879 37.9177 294.754 38.3495L291.396 38.0767C291.567 37.2813 291.902 36.5938 292.402 36.0142C292.902 35.429 293.547 34.9802 294.337 34.6677C295.132 34.3495 296.053 34.1904 297.098 34.1904C297.825 34.1904 298.521 34.2756 299.186 34.4461C299.857 34.6165 300.45 34.8807 300.967 35.2387C301.49 35.5966 301.902 36.0569 302.203 36.6194C302.504 37.1762 302.655 37.8438 302.655 38.6222V47.4517H299.212V45.6364H299.109C298.899 46.0455 298.618 46.4063 298.266 46.7188C297.913 47.0256 297.49 47.2671 296.996 47.4432C296.501 47.6137 295.93 47.6989 295.283 47.6989ZM296.322 45.1932C296.857 45.1932 297.328 45.0881 297.737 44.8779C298.146 44.662 298.467 44.3722 298.7 44.0086C298.933 43.6449 299.05 43.233 299.05 42.7728V41.3836C298.936 41.4574 298.78 41.5256 298.581 41.5881C298.388 41.6449 298.169 41.6989 297.925 41.75C297.68 41.7955 297.436 41.8381 297.192 41.8779C296.947 41.912 296.726 41.9432 296.527 41.9716C296.101 42.0341 295.729 42.1336 295.41 42.2699C295.092 42.4063 294.845 42.591 294.669 42.8239C294.493 43.0512 294.405 43.3353 294.405 43.6762C294.405 44.1705 294.584 44.5483 294.942 44.8097C295.305 45.0654 295.766 45.1932 296.322 45.1932ZM309.102 39.8836V47.4517H305.472V34.3608H308.932V36.6705H309.085C309.375 35.9091 309.861 35.3069 310.543 34.8637C311.224 34.4148 312.051 34.1904 313.023 34.1904C313.932 34.1904 314.724 34.3892 315.401 34.787C316.077 35.1847 316.602 35.7529 316.977 36.4915C317.352 37.2245 317.54 38.0995 317.54 39.1165V47.4517H313.909V39.7642C313.915 38.9631 313.71 38.3381 313.295 37.8892C312.881 37.4347 312.31 37.2074 311.582 37.2074C311.094 37.2074 310.662 37.3125 310.287 37.5228C309.918 37.733 309.628 38.0398 309.418 38.4432C309.213 38.841 309.108 39.3211 309.102 39.8836ZM322.736 29.9972V36.6279H320.146V29.9972H322.736ZM341.864 38.0938L338.54 38.2983C338.483 38.0142 338.361 37.7586 338.173 37.5313C337.986 37.2983 337.739 37.1137 337.432 36.9773C337.131 36.8353 336.77 36.7642 336.349 36.7642C335.787 36.7642 335.312 36.8836 334.926 37.1222C334.54 37.3552 334.347 37.6677 334.347 38.0597C334.347 38.3722 334.472 38.6364 334.722 38.8523C334.972 39.0682 335.401 39.2415 336.009 39.3722L338.378 39.8495C339.651 40.1108 340.599 40.5313 341.224 41.1108C341.849 41.6904 342.162 42.4517 342.162 43.3949C342.162 44.2529 341.909 45.0057 341.403 45.6535C340.903 46.3012 340.216 46.8069 339.341 47.1705C338.472 47.5285 337.469 47.7074 336.332 47.7074C334.599 47.7074 333.219 47.3466 332.19 46.625C331.168 45.8978 330.568 44.9091 330.392 43.6591L333.963 43.4716C334.071 44 334.332 44.4035 334.747 44.6819C335.162 44.9546 335.693 45.091 336.341 45.091C336.977 45.091 337.489 44.9688 337.875 44.7245C338.267 44.4745 338.466 44.1535 338.472 43.7614C338.466 43.4319 338.327 43.162 338.054 42.9517C337.781 42.7358 337.361 42.5711 336.793 42.4574L334.526 42.0057C333.247 41.75 332.295 41.3069 331.67 40.6762C331.051 40.0455 330.741 39.2415 330.741 38.2642C330.741 37.4233 330.969 36.6989 331.423 36.091C331.884 35.483 332.528 35.0142 333.358 34.6847C334.193 34.3552 335.17 34.1904 336.29 34.1904C337.943 34.1904 339.244 34.5398 340.193 35.2387C341.148 35.9375 341.705 36.8892 341.864 38.0938ZM68.3991 76.4517V58.9972H79.9559V62.0398H72.0895V66.1989H79.1889V69.2415H72.0895V76.4517H68.3991ZM85.9389 76.6989C85.1037 76.6989 84.3594 76.554 83.7059 76.2642C83.0525 75.9688 82.5355 75.5341 82.1548 74.9603C81.7798 74.3807 81.5923 73.6591 81.5923 72.7955C81.5923 72.0682 81.7258 71.4574 81.9929 70.9631C82.2599 70.4688 82.6236 70.0711 83.0838 69.7699C83.544 69.4688 84.0667 69.2415 84.652 69.0881C85.2429 68.9347 85.8622 68.8267 86.5099 68.7642C87.2713 68.6847 87.8849 68.6108 88.3508 68.5427C88.8167 68.4688 89.1548 68.3608 89.365 68.2188C89.5753 68.0767 89.6804 67.8665 89.6804 67.5881V67.537C89.6804 66.9972 89.5099 66.5796 89.169 66.2841C88.8338 65.9887 88.3565 65.841 87.7372 65.841C87.0838 65.841 86.5639 65.9858 86.1775 66.2756C85.7912 66.5597 85.5355 66.9177 85.4105 67.3495L82.0525 67.0767C82.223 66.2813 82.5582 65.5938 83.0582 65.0142C83.5582 64.429 84.2031 63.9802 84.9929 63.6677C85.7883 63.3495 86.7088 63.1904 87.7542 63.1904C88.4815 63.1904 89.1775 63.2756 89.8423 63.4461C90.5128 63.6165 91.1065 63.8807 91.6236 64.2387C92.1463 64.5966 92.5582 65.0569 92.8594 65.6194C93.1605 66.1762 93.3111 66.8438 93.3111 67.6222V76.4517H89.8679V74.6364H89.7656C89.5554 75.0455 89.2741 75.4063 88.9219 75.7188C88.5696 76.0256 88.1463 76.2671 87.652 76.4432C87.1576 76.6137 86.5866 76.6989 85.9389 76.6989ZM86.9787 74.1932C87.5128 74.1932 87.9844 74.0881 88.3934 73.8779C88.8025 73.662 89.1236 73.3722 89.3565 73.0086C89.5895 72.6449 89.7059 72.233 89.7059 71.7728V70.3836C89.5923 70.4574 89.4361 70.5256 89.2372 70.5881C89.044 70.6449 88.8253 70.6989 88.5809 70.75C88.3366 70.7955 88.0923 70.8381 87.848 70.8779C87.6037 70.912 87.3821 70.9432 87.1832 70.9716C86.7571 71.0341 86.3849 71.1336 86.0667 71.2699C85.7486 71.4063 85.5014 71.591 85.3253 71.8239C85.1491 72.0512 85.0611 72.3353 85.0611 72.6762C85.0611 73.1705 85.24 73.5483 85.598 73.8097C85.9616 74.0654 86.4219 74.1932 86.9787 74.1932ZM107.02 67.0938L103.696 67.2983C103.639 67.0142 103.517 66.7586 103.33 66.5313C103.142 66.2983 102.895 66.1137 102.588 65.9773C102.287 65.8353 101.926 65.7642 101.506 65.7642C100.943 65.7642 100.469 65.8836 100.082 66.1222C99.696 66.3552 99.5028 66.6677 99.5028 67.0597C99.5028 67.3722 99.6278 67.6364 99.8778 67.8523C100.128 68.0682 100.557 68.2415 101.165 68.3722L103.534 68.8495C104.807 69.1108 105.756 69.5313 106.381 70.1108C107.006 70.6904 107.318 71.4517 107.318 72.3949C107.318 73.2529 107.065 74.0057 106.56 74.6535C106.06 75.3012 105.372 75.8069 104.497 76.1705C103.628 76.5285 102.625 76.7074 101.489 76.7074C99.7557 76.7074 98.375 76.3466 97.3466 75.625C96.3238 74.8978 95.7244 73.9091 95.5483 72.6591L99.1193 72.4716C99.2273 73 99.4886 73.4035 99.9034 73.6819C100.318 73.9546 100.849 74.091 101.497 74.091C102.134 74.091 102.645 73.9688 103.031 73.7245C103.423 73.4745 103.622 73.1535 103.628 72.7614C103.622 72.4319 103.483 72.162 103.21 71.9517C102.937 71.7358 102.517 71.5711 101.949 71.4574L99.6818 71.0057C98.4034 70.75 97.4517 70.3069 96.8267 69.6762C96.2074 69.0455 95.8977 68.2415 95.8977 67.2642C95.8977 66.4233 96.125 65.6989 96.5795 65.091C97.0398 64.483 97.6846 64.0142 98.5142 63.6847C99.3494 63.3552 100.327 63.1904 101.446 63.1904C103.099 63.1904 104.401 63.5398 105.349 64.2387C106.304 64.9375 106.861 65.8892 107.02 67.0938ZM116.567 63.3608V66.0881H108.684V63.3608H116.567ZM110.474 60.2245H114.104V72.429C114.104 72.7642 114.156 73.0256 114.258 73.2131C114.36 73.3949 114.502 73.5228 114.684 73.5966C114.871 73.6705 115.087 73.7074 115.332 73.7074C115.502 73.7074 115.673 73.6932 115.843 73.6648C116.013 73.6307 116.144 73.6052 116.235 73.5881L116.806 76.2898C116.624 76.3466 116.369 76.412 116.039 76.4858C115.709 76.5654 115.309 76.6137 114.837 76.6307C113.962 76.6648 113.195 76.5483 112.536 76.2813C111.883 76.0142 111.374 75.5995 111.011 75.037C110.647 74.4745 110.468 73.7642 110.474 72.9063V60.2245ZM124.758 76.7074C123.411 76.7074 122.252 76.4347 121.281 75.8892C120.315 75.3381 119.57 74.5597 119.048 73.554C118.525 72.5427 118.263 71.3466 118.263 69.966C118.263 68.6194 118.525 67.4375 119.048 66.4205C119.57 65.4035 120.306 64.6108 121.255 64.0427C122.209 63.4745 123.329 63.1904 124.613 63.1904C125.477 63.1904 126.281 63.3296 127.025 63.608C127.775 63.8807 128.428 64.2927 128.985 64.8438C129.548 65.3949 129.985 66.0881 130.298 66.9233C130.61 67.7529 130.766 68.7245 130.766 69.8381V70.8353H119.712V68.5853H127.349C127.349 68.0625 127.235 67.5995 127.008 67.1961C126.781 66.7927 126.465 66.4773 126.062 66.25C125.664 66.0171 125.201 65.9006 124.673 65.9006C124.121 65.9006 123.633 66.0285 123.207 66.2841C122.786 66.5341 122.457 66.8722 122.218 67.2983C121.979 67.7188 121.857 68.1875 121.852 68.7046V70.8438C121.852 71.4915 121.971 72.0512 122.209 72.5228C122.454 72.9944 122.798 73.358 123.241 73.6137C123.684 73.8694 124.209 73.9972 124.817 73.9972C125.221 73.9972 125.59 73.9404 125.925 73.8267C126.261 73.7131 126.548 73.5427 126.786 73.3154C127.025 73.0881 127.207 72.8097 127.332 72.4802L130.69 72.7017C130.519 73.5086 130.17 74.2131 129.641 74.8154C129.119 75.412 128.442 75.8779 127.613 76.2131C126.789 76.5427 125.837 76.7074 124.758 76.7074ZM136.766 68.8836V76.4517H133.136V63.3608H136.596V65.6705H136.749C137.039 64.9091 137.525 64.3069 138.207 63.8637C138.888 63.4148 139.715 63.1904 140.687 63.1904C141.596 63.1904 142.388 63.3892 143.065 63.787C143.741 64.1847 144.266 64.7529 144.641 65.4915C145.016 66.2245 145.204 67.0995 145.204 68.1165V76.4517H141.573V68.7642C141.579 67.9631 141.374 67.3381 140.959 66.8892C140.545 66.4347 139.974 66.2074 139.246 66.2074C138.758 66.2074 138.326 66.3125 137.951 66.5228C137.582 66.733 137.292 67.0398 137.082 67.4432C136.877 67.841 136.772 68.3211 136.766 68.8836ZM154.031 76.7074C152.685 76.7074 151.526 76.4347 150.554 75.8892C149.588 75.3381 148.844 74.5597 148.321 73.554C147.798 72.5427 147.537 71.3466 147.537 69.966C147.537 68.6194 147.798 67.4375 148.321 66.4205C148.844 65.4035 149.58 64.6108 150.528 64.0427C151.483 63.4745 152.602 63.1904 153.886 63.1904C154.75 63.1904 155.554 63.3296 156.298 63.608C157.048 63.8807 157.702 64.2927 158.259 64.8438C158.821 65.3949 159.259 66.0881 159.571 66.9233C159.884 67.7529 160.04 68.7245 160.04 69.8381V70.8353H148.986V68.5853H156.622C156.622 68.0625 156.509 67.5995 156.281 67.1961C156.054 66.7927 155.739 66.4773 155.335 66.25C154.937 66.0171 154.474 65.9006 153.946 65.9006C153.395 65.9006 152.906 66.0285 152.48 66.2841C152.06 66.5341 151.73 66.8722 151.491 67.2983C151.253 67.7188 151.131 68.1875 151.125 68.7046V70.8438C151.125 71.4915 151.244 72.0512 151.483 72.5228C151.727 72.9944 152.071 73.358 152.514 73.6137C152.957 73.8694 153.483 73.9972 154.091 73.9972C154.494 73.9972 154.864 73.9404 155.199 73.8267C155.534 73.7131 155.821 73.5427 156.06 73.3154C156.298 73.0881 156.48 72.8097 156.605 72.4802L159.963 72.7017C159.793 73.5086 159.443 74.2131 158.915 74.8154C158.392 75.412 157.716 75.8779 156.886 76.2131C156.062 76.5427 155.111 76.7074 154.031 76.7074ZM162.409 76.4517V63.3608H165.929V65.6449H166.065C166.304 64.8324 166.705 64.2188 167.267 63.804C167.83 63.3836 168.477 63.1733 169.21 63.1733C169.392 63.1733 169.588 63.1847 169.798 63.2074C170.009 63.2302 170.193 63.2614 170.352 63.3012V66.5228C170.182 66.4716 169.946 66.4262 169.645 66.3864C169.344 66.3466 169.068 66.3267 168.818 66.3267C168.284 66.3267 167.807 66.4432 167.386 66.6762C166.972 66.9035 166.642 67.2216 166.398 67.6307C166.159 68.0398 166.04 68.5114 166.04 69.0455V76.4517H162.409ZM181.543 58.9972V76.4517H177.852V58.9972H181.543ZM188.141 68.8836V76.4517H184.511V63.3608H187.971V65.6705H188.124C188.414 64.9091 188.9 64.3069 189.582 63.8637C190.263 63.4148 191.09 63.1904 192.062 63.1904C192.971 63.1904 193.763 63.3892 194.44 63.787C195.116 64.1847 195.641 64.7529 196.016 65.4915C196.391 66.2245 196.579 67.0995 196.579 68.1165V76.4517H192.948V68.7642C192.954 67.9631 192.749 67.3381 192.334 66.8892C191.92 66.4347 191.349 66.2074 190.621 66.2074C190.133 66.2074 189.701 66.3125 189.326 66.5228C188.957 66.733 188.667 67.0398 188.457 67.4432C188.252 67.841 188.147 68.3211 188.141 68.8836ZM204.264 76.6648C203.27 76.6648 202.369 76.4091 201.562 75.8978C200.761 75.3807 200.125 74.6222 199.653 73.6222C199.187 72.6165 198.955 71.3836 198.955 69.9233C198.955 68.4233 199.196 67.1762 199.679 66.1819C200.162 65.1819 200.804 64.4347 201.605 63.9404C202.412 63.4404 203.295 63.1904 204.256 63.1904C204.989 63.1904 205.599 63.3154 206.088 63.5654C206.582 63.8097 206.98 64.1165 207.281 64.4858C207.588 64.8495 207.821 65.2074 207.98 65.5597H208.091V58.9972H211.713V76.4517H208.134V74.3552H207.98C207.81 74.7188 207.568 75.0796 207.256 75.4375C206.949 75.7898 206.548 76.0824 206.054 76.3154C205.565 76.5483 204.969 76.6648 204.264 76.6648ZM205.415 73.7756C206 73.7756 206.494 73.6165 206.898 73.2983C207.307 72.9745 207.619 72.5228 207.835 71.9432C208.057 71.3637 208.168 70.6847 208.168 69.9063C208.168 69.1279 208.06 68.4517 207.844 67.8779C207.628 67.304 207.315 66.8608 206.906 66.5483C206.497 66.2358 206 66.0796 205.415 66.0796C204.818 66.0796 204.315 66.2415 203.906 66.5654C203.497 66.8892 203.187 67.3381 202.977 67.912C202.767 68.4858 202.662 69.1506 202.662 69.9063C202.662 70.6677 202.767 71.341 202.977 71.9262C203.193 72.5057 203.503 72.9603 203.906 73.2898C204.315 73.6137 204.818 73.7756 205.415 73.7756ZM223.093 70.8779V63.3608H226.724V76.4517H223.238V74.0739H223.102C222.806 74.841 222.315 75.4574 221.627 75.9233C220.945 76.3892 220.113 76.6222 219.13 76.6222C218.255 76.6222 217.485 76.4233 216.82 76.0256C216.156 75.6279 215.636 75.0625 215.261 74.3296C214.891 73.5966 214.704 72.7188 214.698 71.6961V63.3608H218.329V71.0483C218.334 71.8211 218.542 72.4319 218.951 72.8807C219.36 73.3296 219.908 73.554 220.596 73.554C221.033 73.554 221.442 73.4546 221.823 73.2557C222.204 73.0512 222.511 72.75 222.744 72.3523C222.982 71.9546 223.099 71.4631 223.093 70.8779ZM240.52 67.0938L237.196 67.2983C237.139 67.0142 237.017 66.7586 236.83 66.5313C236.642 66.2983 236.395 66.1137 236.088 65.9773C235.787 65.8353 235.426 65.7642 235.006 65.7642C234.443 65.7642 233.969 65.8836 233.582 66.1222C233.196 66.3552 233.003 66.6677 233.003 67.0597C233.003 67.3722 233.128 67.6364 233.378 67.8523C233.628 68.0682 234.057 68.2415 234.665 68.3722L237.034 68.8495C238.307 69.1108 239.256 69.5313 239.881 70.1108C240.506 70.6904 240.818 71.4517 240.818 72.3949C240.818 73.2529 240.565 74.0057 240.06 74.6535C239.56 75.3012 238.872 75.8069 237.997 76.1705C237.128 76.5285 236.125 76.7074 234.989 76.7074C233.256 76.7074 231.875 76.3466 230.847 75.625C229.824 74.8978 229.224 73.9091 229.048 72.6591L232.619 72.4716C232.727 73 232.989 73.4035 233.403 73.6819C233.818 73.9546 234.349 74.091 234.997 74.091C235.634 74.091 236.145 73.9688 236.531 73.7245C236.923 73.4745 237.122 73.1535 237.128 72.7614C237.122 72.4319 236.983 72.162 236.71 71.9517C236.437 71.7358 236.017 71.5711 235.449 71.4574L233.182 71.0057C231.903 70.75 230.952 70.3069 230.327 69.6762C229.707 69.0455 229.398 68.2415 229.398 67.2642C229.398 66.4233 229.625 65.6989 230.08 65.091C230.54 64.483 231.185 64.0142 232.014 63.6847C232.849 63.3552 233.827 63.1904 234.946 63.1904C236.599 63.1904 237.901 63.5398 238.849 64.2387C239.804 64.9375 240.361 65.8892 240.52 67.0938ZM250.067 63.3608V66.0881H242.184V63.3608H250.067ZM243.974 60.2245H247.604V72.429C247.604 72.7642 247.656 73.0256 247.758 73.2131C247.86 73.3949 248.002 73.5228 248.184 73.5966C248.371 73.6705 248.587 73.7074 248.832 73.7074C249.002 73.7074 249.173 73.6932 249.343 73.6648C249.513 73.6307 249.644 73.6052 249.735 73.5881L250.306 76.2898C250.124 76.3466 249.869 76.412 249.539 76.4858C249.209 76.5654 248.809 76.6137 248.337 76.6307C247.462 76.6648 246.695 76.5483 246.036 76.2813C245.383 76.0142 244.874 75.5995 244.511 75.037C244.147 74.4745 243.968 73.7642 243.974 72.9063V60.2245ZM252.433 76.4517V63.3608H255.952V65.6449H256.089C256.327 64.8324 256.728 64.2188 257.29 63.804C257.853 63.3836 258.501 63.1733 259.234 63.1733C259.415 63.1733 259.611 63.1847 259.822 63.2074C260.032 63.2302 260.217 63.2614 260.376 63.3012V66.5228C260.205 66.4716 259.969 66.4262 259.668 66.3864C259.367 66.3466 259.092 66.3267 258.842 66.3267C258.308 66.3267 257.83 66.4432 257.41 66.6762C256.995 66.9035 256.665 67.2216 256.421 67.6307C256.183 68.0398 256.063 68.5114 256.063 69.0455V76.4517H252.433ZM264.893 81.3608C264.433 81.3608 264.001 81.3239 263.597 81.25C263.2 81.1819 262.87 81.0938 262.609 80.9858L263.427 78.2756C263.853 78.4063 264.236 78.4773 264.577 78.4887C264.924 78.5 265.222 78.4205 265.472 78.25C265.728 78.0796 265.935 77.7898 266.094 77.3807L266.308 76.8267L261.611 63.3608H265.43L268.14 72.9745H268.276L271.012 63.3608H274.856L269.768 77.8665C269.523 78.5711 269.191 79.1847 268.771 79.7074C268.356 80.2358 267.83 80.6421 267.194 80.9262C266.558 81.216 265.79 81.3608 264.893 81.3608Z" fill="url(#paint0_linear_288_186)"/>
</g>
<defs>
<linearGradient id="paint0_linear_288_186" x1="358.573" y1="38.9515" x2="-16.4265" y2="38.9515" gradientUnits="userSpaceOnUse">
<stop stop-color="#A36F37"/>
<stop offset="0.4375" stop-color="#E7D380"/>
<stop offset="0.663462" stop-color="#F6EBAB"/>
<stop offset="1" stop-color="#A36F37"/>
</linearGradient>
<clipPath id="clip0_288_186">
<rect width="343" height="82" fill="white"/>
</clipPath>
</defs>
</svg>
