<svg width="589" height="123" viewBox="0 0 589 123" fill="none" xmlns="http://www.w3.org/2000/svg">
<g clip-path="url(#clip0_288_2)">
<path d="M53.5723 2.84422C53.8439 2.1493 54.2992 1.79785 54.9542 1.79785H59.6029C60.2739 1.79785 60.7451 2.13334 61.0167 2.81228L69.2039 23.7396C69.4755 24.4345 69.2838 24.7859 68.6288 24.7859H64.8907C64.2197 24.7859 63.7484 24.4505 63.4769 23.7716L62.6382 21.7507C62.3906 21.2075 61.9992 20.9439 61.456 20.9439H53.0691C52.5339 20.9439 52.1266 21.3034 51.855 22.0223C51.6314 22.5654 51.4397 23.1006 51.2799 23.6437C51.0083 24.4105 50.5371 24.7859 49.8661 24.7859H45.7925C45.1215 24.7859 44.9139 24.4505 45.1854 23.7716C47.9491 16.8064 50.7447 9.8333 53.5803 2.84422H53.5723ZM57.614 8.13198C57.3185 7.36517 57.0549 7.30924 56.8073 7.96422L54.1794 15.145C53.9318 15.8639 54.0915 16.2233 54.6506 16.2233H59.8106C60.3537 16.2233 60.5055 15.9198 60.2818 15.3128L57.622 8.13198H57.614Z" fill="white"/>
<path d="M79.4119 7.99688C79.7234 7.47769 80.4982 7.19814 81.7363 7.1582H86.6886C89.4043 7.76525 90.7862 9.64231 90.8341 12.7894V19.1235C90.7702 20.0661 90.5785 20.9686 90.259 21.8233C89.8995 22.8138 89.3644 23.5726 88.6455 24.1157C87.679 24.5231 86.7684 24.7467 85.9138 24.7867H81.5366C80.7299 24.7867 80.0669 24.6189 79.5477 24.2834C79.0764 23.8761 78.8368 23.9799 78.8368 24.587V30.3859C78.8368 31.0569 78.5013 31.4003 77.8224 31.4003H74.859C74.1881 31.4003 73.8446 31.0649 73.8446 30.3859V8.30841C73.8446 7.63746 74.1801 7.29398 74.859 7.29398H77.8224C78.4934 7.29398 78.8368 7.40581 78.8368 7.62946L78.9007 8.13268C79.0605 8.4442 79.2282 8.40425 79.4039 7.99688H79.4119ZM80.4263 11.4315C79.2602 11.8149 78.733 12.6456 78.8448 13.9236V18.7082C79.1164 19.6107 79.6995 20.114 80.5941 20.2258H83.7971C85.3227 20.0022 86.0016 19.2353 85.8179 17.9333V13.4843C85.6582 12.382 85.0511 11.6951 83.9968 11.4315H80.4263Z" fill="white"/>
<path d="M95.8902 8.2365C95.8902 7.51762 96.2017 7.1582 96.8327 7.1582H99.7641C100.435 7.1582 100.779 7.46172 100.779 8.06877C100.779 8.76368 101.138 8.78766 101.857 8.13268C102.528 7.61349 103.438 7.29399 104.589 7.1582H108.495C109.165 7.1582 109.509 7.49367 109.509 8.17261V10.6967C109.509 11.3676 109.173 11.7111 108.495 11.7111H104.924C103.263 12.0066 102.049 12.8773 101.282 14.339C101.01 15.0818 100.842 15.8646 100.779 16.6953V23.7723C100.779 24.4432 100.443 24.7866 99.7641 24.7866H96.8966C96.2257 24.7866 95.8822 24.4512 95.8822 23.7723V8.2365H95.8902Z" fill="white"/>
<path d="M114.158 2.84422C114.158 2.1493 114.485 1.79785 115.132 1.79785H118.231C118.902 1.79785 119.246 2.13334 119.246 2.81228V3.8906C119.246 4.56156 118.91 4.90501 118.231 4.90501H115.164C114.493 4.90501 114.15 4.56954 114.15 3.8906V2.84422H114.158ZM114.158 8.23579C114.158 7.51692 114.469 7.1575 115.1 7.1575H118.231C118.902 7.1575 119.246 7.49296 119.246 8.1719V23.7716C119.246 24.4425 118.91 24.7859 118.231 24.7859H115.164C114.493 24.7859 114.15 24.4505 114.15 23.7716V8.23579H114.158Z" fill="white"/>
<path d="M125.58 2.84422C125.58 2.1493 125.907 1.79785 126.554 1.79785H129.55C130.221 1.79785 130.564 2.13334 130.564 2.81228V23.7716C130.564 24.4425 130.229 24.7859 129.55 24.7859H126.586C125.915 24.7859 125.572 24.4505 125.572 23.7716V2.84422H125.58Z" fill="white"/>
<path d="M149.031 2.23718C149.662 2.03749 150.469 1.88571 151.459 1.79785H160.933C163.041 1.86175 164.838 2.43687 166.324 3.51519C167.203 4.48168 167.682 5.63985 167.77 6.98974V10.8317C167.722 12.3813 166.971 13.6753 165.509 14.7057C163.353 15.6482 160.485 16.1115 156.915 16.0875L154.215 16.2553C153.049 16.3192 152.146 16.5348 151.515 16.8943C150.932 17.4534 150.677 18.2521 150.741 19.2905C150.741 19.8496 151.02 20.1292 151.579 20.1292H166.875C167.546 20.1292 167.89 20.4647 167.89 21.1436V23.7716C167.89 24.4425 167.554 24.7859 166.875 24.7859H146.252C145.581 24.7859 145.237 24.4505 145.237 23.7716V19.4902C145.261 17.3336 145.868 15.5364 147.058 14.0987C147.689 13.4037 148.584 12.9005 149.758 12.581C152.681 12.0858 155.373 11.7743 157.841 11.6385C158.736 11.5906 159.639 11.4947 160.541 11.335C161.979 11.0873 162.61 10.1768 162.426 8.60324C162.65 7.25335 162.155 6.39866 160.941 6.03922H152.418C150.892 6.3747 150.269 7.30924 150.565 8.83486C150.565 9.50581 150.229 9.84929 149.55 9.84929H146.252C145.581 9.84929 145.237 9.5138 145.237 8.83486V6.54244C145.285 4.56952 146.539 3.12379 149.015 2.22918L149.031 2.23718Z" fill="white"/>
<path d="M176.085 2.50065C177.139 2.07731 178.29 1.8297 179.52 1.75781H190.239C191.229 1.84568 192.124 2.0294 192.939 2.29299C194.672 2.924 195.559 4.04223 195.598 5.6637V9.13828C195.511 10.4003 194.888 11.3987 193.745 12.1336C193.138 12.4691 193.186 12.8445 193.881 13.2439C194.896 13.8509 195.503 14.5938 195.702 15.4724C196.397 18.6195 195.806 21.2713 193.913 23.4279C192.771 24.2347 191.365 24.69 189.704 24.7778H179.288C175.11 24.4663 173.146 22.4535 173.393 18.7473C173.393 18.0763 173.729 17.7328 174.408 17.7328H177.674C178.345 17.7328 178.689 17.8686 178.689 18.1402C178.825 19.6019 179.647 20.2649 181.149 20.1291H187.922C188.665 20.193 189.272 20.0413 189.744 19.6579C190.439 18.9869 190.654 17.8607 190.383 16.2871C190.183 15.744 189.72 15.4325 189.001 15.3446H180.51C179.839 15.3446 179.496 15.0091 179.496 14.3302V11.87C179.496 11.1991 179.831 10.8556 180.51 10.8556H188.058C188.841 10.7917 189.416 10.584 189.776 10.2486C190.183 9.91308 190.327 9.40987 190.215 8.73093C190.239 8.21174 190.215 7.70054 190.151 7.18135C189.608 6.28675 188.889 5.9353 187.994 6.13498H180.51C179.272 6.47046 178.761 7.13342 178.96 8.12387C178.96 8.57117 178.625 8.79482 177.946 8.79482H174.471C173.801 8.79482 173.457 8.45935 173.457 7.78041C173.409 6.78996 173.561 5.80748 173.896 4.81702C174.256 3.85053 174.983 3.07576 176.085 2.49268V2.50065Z" fill="white"/>
<path d="M204.025 19.155C204.696 18.6358 205.735 18.6198 207.124 19.091C208.043 19.5623 208.562 20.1374 208.674 20.8084C209.121 23.0129 208.594 25.2974 207.093 27.6856C206.509 28.3805 205.902 28.732 205.271 28.732H203.921C203.251 28.732 203.171 28.3965 203.682 27.7176C204.153 26.9747 204.576 26.2239 204.96 25.4571C205.183 24.898 204.936 24.5785 204.217 24.5146C202.979 24.1312 202.428 23.2206 202.564 21.7828C202.54 20.9042 203.027 20.0336 204.009 19.155H204.025Z" fill="white"/>
<path d="M228.012 2.23718C228.643 2.03749 229.45 1.88571 230.44 1.79785H239.913C242.022 1.86175 243.819 2.43687 245.305 3.51519C246.183 4.48168 246.663 5.63985 246.751 6.98974V10.8317C246.703 12.3813 245.952 13.6753 244.49 14.7057C242.333 15.6482 239.466 16.1115 235.896 16.0875L233.196 16.2553C232.03 16.3192 231.127 16.5348 230.496 16.8943C229.913 17.4534 229.657 18.2521 229.721 19.2905C229.721 19.8496 230.001 20.1292 230.56 20.1292H245.856C246.527 20.1292 246.87 20.4647 246.87 21.1436V23.7716C246.87 24.4425 246.535 24.7859 245.856 24.7859H225.232C224.561 24.7859 224.218 24.4505 224.218 23.7716V19.4902C224.242 17.3336 224.849 15.5364 226.039 14.0987C226.67 13.4037 227.565 12.9005 228.739 12.581C231.662 12.0858 234.354 11.7743 236.822 11.6385C237.717 11.5906 238.619 11.4947 239.522 11.335C240.96 11.0873 241.591 10.1768 241.407 8.60324C241.631 7.25335 241.135 6.39866 239.921 6.03922H231.399C229.873 6.3747 229.25 7.30924 229.545 8.83486C229.545 9.50581 229.21 9.84929 228.531 9.84929H225.232C224.561 9.84929 224.218 9.5138 224.218 8.83486V6.54244C224.266 4.56952 225.52 3.12379 227.996 2.22918L228.012 2.23718Z" fill="white"/>
<path d="M252.11 8.67512C252.446 4.31393 254.81 2.0215 259.187 1.79785H267.446C268.213 1.86175 269.108 2.07743 270.146 2.43687C271.137 2.82027 271.999 3.48323 272.742 4.42575C273.637 5.75168 274.132 7.30127 274.228 9.0745V18.2761C274.228 20.3848 273.341 22.1501 271.568 23.5639C269.93 24.5783 268.117 25.1454 266.144 25.2812H258.524C256.455 25.2173 254.714 24.3067 253.3 22.5494C252.629 21.3833 252.23 20.0813 252.118 18.6435V8.66713L252.11 8.67512ZM259.962 7.11755C258.325 7.50095 257.494 8.38758 257.47 9.7774V17.054C257.558 18.7154 258.5 19.674 260.297 19.9216H266.056C267.83 19.5382 268.764 18.348 268.852 16.3511V10.1848C268.804 8.56328 267.957 7.54887 266.288 7.11755H259.954H259.962Z" fill="white"/>
<path d="M283.341 2.23718C283.972 2.03749 284.779 1.88571 285.77 1.79785H295.243C297.352 1.86175 299.149 2.43687 300.634 3.51519C301.513 4.48168 301.992 5.63985 302.08 6.98974V10.8317C302.032 12.3813 301.281 13.6753 299.82 14.7057C297.663 15.6482 294.796 16.1115 291.225 16.0875L288.525 16.2553C287.359 16.3192 286.457 16.5348 285.826 16.8943C285.242 17.4534 284.987 18.2521 285.051 19.2905C285.051 19.8496 285.33 20.1292 285.889 20.1292H301.186C301.857 20.1292 302.2 20.4647 302.2 21.1436V23.7716C302.2 24.4425 301.865 24.7859 301.186 24.7859H280.562C279.891 24.7859 279.547 24.4505 279.547 23.7716V19.4902C279.571 17.3336 280.178 15.5364 281.369 14.0987C282 13.4037 282.894 12.9005 284.068 12.581C286.992 12.0858 289.684 11.7743 292.152 11.6385C293.046 11.5906 293.949 11.4947 294.851 11.335C296.289 11.0873 296.92 10.1768 296.737 8.60324C296.96 7.25335 296.465 6.39866 295.251 6.03922H286.728C285.203 6.3747 284.58 7.30924 284.875 8.83486C284.875 9.50581 284.54 9.84929 283.861 9.84929H280.562C279.891 9.84929 279.547 9.5138 279.547 8.83486V6.54244C279.595 4.56952 280.849 3.12379 283.325 2.22918L283.341 2.23718Z" fill="white"/>
<path d="M310.371 2.57264C311.386 2.16528 312.536 1.90968 313.846 1.79785H324.294C325.955 1.9576 327.305 2.43685 328.335 3.24359C329.525 4.36983 330.084 5.94338 330.021 7.96422C330.021 8.63517 329.685 8.97865 329.006 8.97865H325.572C324.901 8.97865 324.557 8.76297 324.557 8.33964C324.581 6.76609 323.806 6.04723 322.233 6.18302H314.485C313.159 6.49453 312.568 7.26133 312.696 8.47543C312.672 9.394 312.696 10.3525 312.76 11.343C312.919 11.5426 313.087 11.5586 313.263 11.3749C313.67 10.9915 314.389 10.7918 315.419 10.7678H324.549C327.76 10.9675 329.533 12.613 329.877 15.6882V19.634C329.741 21.8545 328.615 23.4121 326.506 24.2827C325.851 24.5303 325.02 24.6981 324.014 24.7859H313.431C312.352 24.6741 311.45 24.4824 310.731 24.2109C309.676 23.8994 308.846 23.2683 308.239 22.3258C307.719 21.3832 307.432 20.313 307.36 19.1228V7.49296C307.408 6.59836 307.632 5.69576 308.031 4.79317C308.702 3.60303 309.477 2.86019 310.355 2.57264H310.371ZM314.884 15.0092C313.894 14.7856 313.191 15.2409 312.76 16.3911C312.696 17.1339 312.672 17.9087 312.696 18.7154C312.967 19.7698 313.55 20.3369 314.445 20.4008H322.4C324.062 20.0893 324.781 19.2746 324.557 17.9726V16.6946C324.222 15.4166 323.447 14.8495 322.233 15.0092H314.884Z" fill="white"/>
<path d="M530.258 5.54365C531.02 5.25781 531.882 5.07847 532.865 5H540.701C541.947 5.11209 542.959 5.44837 543.732 6.01443C544.624 6.80468 545.044 7.90879 544.996 9.32675C544.996 9.79753 544.744 10.0385 544.235 10.0385H541.66C541.156 10.0385 540.898 9.88721 540.898 9.59017C540.916 8.48606 540.335 7.98166 539.155 8.07694H533.344C532.349 8.29551 531.906 8.83355 532.002 9.68545C531.984 10.33 532.002 11.0025 532.05 11.6975C532.169 11.8376 532.295 11.8488 532.427 11.7199C532.733 11.4509 533.272 11.3108 534.044 11.2939H540.892C543.301 11.4341 544.63 12.5887 544.888 14.7464V17.5151C544.786 19.0731 543.942 20.166 542.36 20.7769C541.869 20.9507 541.246 21.0684 540.491 21.13H532.553C531.744 21.0516 531.068 20.917 530.528 20.7265C529.737 20.508 529.115 20.0651 528.659 19.4038C528.269 18.7424 528.054 17.9915 528 17.1564V8.99608C528.036 8.36837 528.204 7.73504 528.503 7.10172C529.007 6.26664 529.588 5.74541 530.246 5.54365H530.258ZM533.643 14.27C532.901 14.1131 532.373 14.4326 532.05 15.2396C532.002 15.7608 531.984 16.3045 532.002 16.8705C532.205 17.6104 532.643 18.0083 533.314 18.0531H539.28C540.527 17.8345 541.066 17.2629 540.898 16.3493V15.4526C540.647 14.5559 540.066 14.1579 539.155 14.27H533.643Z" fill="white"/>
<path d="M341.219 14.6256C341.219 9.57747 343.136 5.95114 345.836 3.32324L348.032 5.00862C345.548 7.94004 344.494 10.3123 344.494 14.6336C344.494 18.9548 345.548 21.3191 348.032 24.2985L345.836 25.9838C343.136 23.308 341.219 19.7296 341.219 14.6336V14.6256Z" fill="white"/>
<path d="M354.726 8.6745H350.389V5.47949H362.945V8.6745H358.584V21.5344H354.726V8.6745Z" fill="white"/>
<path d="M365.429 5.47949H369.287V11.5819H374.575V5.47949H378.393V21.5264H374.575V14.9287H369.287V21.5264H365.429V5.47949Z" fill="white"/>
<path d="M382.043 13.9782V5.47949H385.885V14.3856C385.885 17.4288 386.788 18.5071 388.561 18.5071C390.334 18.5071 391.277 17.4288 391.277 14.3856V5.47949H394.991V13.9782C394.991 19.3937 392.834 21.8299 388.561 21.8299C384.288 21.8299 382.043 19.3937 382.043 13.9782Z" fill="white"/>
<path d="M397.563 19.4338C397.563 18.1159 398.513 17.0615 399.847 17.0615C401.181 17.0615 402.132 18.1159 402.132 19.4338C402.132 20.7517 401.165 21.8301 399.847 21.8301C398.529 21.8301 397.563 20.7757 397.563 19.4338Z" fill="white"/>
<path d="M405.351 24.2897C407.835 21.3103 408.889 18.986 408.889 14.6248C408.889 10.2636 407.835 7.93922 405.351 4.99981L407.547 3.31445C410.247 5.94235 412.164 9.56868 412.164 14.6168C412.164 19.6649 410.247 23.2913 407.547 25.9671L405.351 24.2817V24.2897Z" fill="white"/>
<path d="M425.999 9.99341C426.238 6.93418 427.892 5.3287 430.967 5.16895H436.758C437.293 5.21687 437.924 5.36863 438.651 5.61624C439.346 5.87983 439.953 6.3511 440.472 7.01406C441.103 7.9486 441.447 9.03491 441.51 10.273V16.7269C441.51 18.2046 440.887 19.4426 439.641 20.4411C438.491 21.152 437.221 21.5514 435.831 21.6472H430.488C429.034 21.5993 427.82 20.9603 426.821 19.7302C426.35 18.9075 426.071 17.9969 425.991 16.9905V9.99341H425.999ZM431.51 8.90711C430.36 9.1787 429.777 9.80172 429.761 10.7762V15.8802C429.825 17.0464 430.488 17.7173 431.75 17.8931H435.791C437.037 17.6295 437.692 16.7908 437.756 15.385V11.0557C437.724 9.92152 437.125 9.20265 435.959 8.90711H431.51Z" fill="white"/>
<path d="M445.384 5.66417C445.951 5.42454 446.686 5.2648 447.581 5.16895H454.985C455.992 5.23285 456.942 5.57631 457.821 6.20733C458.66 6.95018 459.091 8.10837 459.123 9.68192V16.8467C459.059 18.1726 458.66 19.2749 457.917 20.1535C456.99 20.8165 455.848 21.1919 454.49 21.2878H447.493C446.119 21.2718 444.977 20.6328 444.066 19.3708C443.563 18.7238 443.347 17.917 443.427 16.9585C443.427 16.4873 443.667 16.2476 444.138 16.2476H446.574C447.046 16.2476 447.285 16.5432 447.285 17.1183C447.477 17.957 447.98 18.3164 448.795 18.2046H453.643C454.953 18.0768 455.568 17.4218 455.489 16.2397V14.9856C455.489 14.5942 455.233 14.4664 454.73 14.6102L453.332 14.8259H447.022C445.951 14.762 445.073 14.4904 444.394 13.9952C443.827 13.3162 443.491 12.5734 443.379 11.7746V8.65152C443.475 7.35753 444.146 6.35909 445.392 5.6482L445.384 5.66417ZM448.084 8.33998C447.245 8.53168 446.894 8.979 447.022 9.68989C446.974 10.3688 447.022 10.864 447.165 11.1835C447.405 11.6229 447.765 11.8785 448.252 11.9424H453.595C454.506 12.0382 455.113 11.6548 455.417 10.8081C455.465 9.98541 455.417 9.41832 455.273 9.1068C455.017 8.66749 454.642 8.41189 454.139 8.34799H448.084V8.33998Z" fill="white"/>
<path d="M463.452 7.20424C465.217 6.74895 466.36 7.34003 466.879 8.97747C467.086 10.3673 466.591 11.3178 465.417 11.837C464.946 12.0447 464.379 12.0686 463.716 11.9089C463.164 11.813 462.717 11.5095 462.366 10.9903C461.879 10.2155 461.831 9.32093 462.222 8.29853C462.502 7.71544 462.917 7.35599 463.452 7.21221V7.20424ZM463.851 16.4458C464.842 16.2541 465.713 16.5097 466.455 17.2046C467.006 18.0114 467.126 18.874 466.807 19.8086C466.503 20.6792 465.832 21.1744 464.77 21.3022C463.572 21.43 462.717 20.9667 462.214 19.9044C461.839 18.9619 461.99 18.0114 462.685 17.0688C462.941 16.7733 463.324 16.5656 463.843 16.4538L463.851 16.4458Z" fill="white"/>
<path d="M471.823 5.66372C472.566 5.36818 473.365 5.19246 474.235 5.14453H481.751C482.446 5.20843 483.077 5.33623 483.645 5.51995C484.859 5.95926 485.482 6.75004 485.514 7.88427V10.3205C485.45 11.1991 485.018 11.902 484.212 12.4212C483.788 12.6608 483.82 12.9164 484.307 13.2039C485.018 13.6273 485.442 14.1465 485.585 14.7615C486.073 16.9661 485.657 18.8272 484.331 20.3448C483.525 20.9119 482.542 21.2314 481.376 21.2873H474.067C471.136 21.0637 469.754 19.6579 469.93 17.0539C469.93 16.5827 470.17 16.3431 470.641 16.3431H472.933C473.404 16.3431 473.644 16.4389 473.644 16.6306C473.74 17.653 474.315 18.1163 475.369 18.0284H480.122C480.641 18.0764 481.065 17.9645 481.4 17.7009C481.887 17.2297 482.039 16.4389 481.847 15.3366C481.704 14.9612 481.384 14.7376 480.881 14.6737H474.922C474.451 14.6737 474.211 14.434 474.211 13.9628V12.2375C474.211 11.7662 474.451 11.5266 474.922 11.5266H480.218C480.769 11.4787 481.168 11.3349 481.424 11.1032C481.704 10.8636 481.807 10.5122 481.727 10.0409C481.743 9.68145 481.727 9.31403 481.68 8.9546C481.304 8.32358 480.793 8.08395 480.17 8.21973H474.922C474.059 8.45936 473.692 8.92264 473.836 9.61755C473.836 9.93705 473.596 10.0888 473.125 10.0888H470.689C470.217 10.0888 469.978 9.8492 469.978 9.37793C469.946 8.68302 470.05 7.9881 470.281 7.30117C470.537 6.62223 471.048 6.07907 471.815 5.67171L471.823 5.66372Z" fill="white"/>
<path d="M487.215 9.99341C487.455 6.93418 489.108 5.3287 492.183 5.16895H497.974C498.509 5.21687 499.14 5.36863 499.867 5.61624C500.562 5.87983 501.169 6.3511 501.688 7.01406C502.319 7.9486 502.663 9.03491 502.727 10.273V16.7269C502.727 18.2046 502.104 19.4426 500.858 20.4411C499.708 21.152 498.437 21.5514 497.048 21.6472H491.704C490.25 21.5993 489.036 20.9603 488.038 19.7302C487.567 18.9075 487.287 17.9969 487.207 16.9905V9.99341H487.215ZM492.718 8.90711C491.568 9.1787 490.985 9.80172 490.969 10.7762V15.8802C491.033 17.0464 491.696 17.7173 492.958 17.8931H497C498.246 17.6295 498.901 16.7908 498.965 15.385V11.0557C498.933 9.92152 498.334 9.20265 497.168 8.90711H492.718Z" fill="white"/>
<path d="M505.419 13.2031C505.419 12.6999 505.642 12.4443 506.082 12.4443H515.067C515.539 12.4443 515.778 12.6839 515.778 13.1552V15.4716C515.778 15.9429 515.539 16.1825 515.067 16.1825H506.129C505.658 16.1825 505.419 15.9429 505.419 15.4716V13.2031Z" fill="white"/>
<path d="M519.508 5.73486C519.508 5.24762 519.74 5 520.195 5H525.779C526.25 5 526.49 5.23963 526.49 5.7109V20.4159C526.49 20.8871 526.25 21.1269 525.779 21.1269H523.438C522.967 21.1269 522.727 20.8871 522.727 20.4159V9.32924C522.727 8.93786 522.528 8.73818 522.136 8.73818H520.219C519.748 8.73818 519.508 8.49854 519.508 8.02727V5.73486Z" fill="white"/>
<path d="M549.725 7.20424C551.491 6.74895 552.633 7.34003 553.152 8.97747C553.36 10.3673 552.864 11.3178 551.69 11.837C551.219 12.0447 550.652 12.0686 549.989 11.9089C549.438 11.813 548.99 11.5095 548.639 10.9903C548.152 10.2155 548.104 9.32093 548.495 8.29853C548.775 7.71544 549.19 7.35599 549.725 7.21221V7.20424ZM550.125 16.4458C551.115 16.2541 551.986 16.5097 552.729 17.2046C553.28 18.0114 553.4 18.874 553.08 19.8086C552.777 20.6792 552.106 21.1744 551.043 21.3022C549.845 21.43 548.99 20.9667 548.487 19.9044C548.112 18.9619 548.264 18.0114 548.958 17.0688C549.214 16.7733 549.597 16.5656 550.117 16.4538L550.125 16.4458Z" fill="white"/>
<path d="M573.488 9.99341C573.728 6.93418 575.381 5.3287 578.456 5.16895H584.247C584.783 5.21687 585.414 5.36863 586.14 5.61624C586.835 5.87983 587.442 6.3511 587.962 7.01406C588.593 7.9486 588.936 9.03491 589 10.273V16.7269C589 18.2046 588.377 19.4426 587.131 20.4411C585.981 21.152 584.711 21.5514 583.321 21.6472H577.977C576.523 21.5993 575.309 20.9603 574.311 19.7302C573.84 18.9075 573.56 17.9969 573.48 16.9905V9.99341H573.488ZM579 8.90711C577.849 9.1787 577.266 9.80172 577.25 10.7762V15.8802C577.314 17.0464 577.977 17.7173 579.239 17.8931H583.281C584.527 17.6295 585.182 16.7908 585.246 15.385V11.0557C585.214 9.92152 584.615 9.20265 583.449 8.90711H579Z" fill="white"/>
<path d="M556.508 9.82447C556.748 6.76524 558.401 5.15975 561.476 5H567.267C567.803 5.04792 568.434 5.19968 569.16 5.44729C569.855 5.71088 570.462 6.18215 570.982 6.84511C571.613 7.77965 571.956 8.86597 572.02 10.104V16.558C572.02 18.0357 571.397 19.2736 570.151 20.2721C569.001 20.983 567.731 21.3824 566.341 21.4782H560.997C559.543 21.4303 558.329 20.7913 557.331 19.5612C556.86 18.7386 556.58 17.8279 556.5 16.8215V9.82447H556.508ZM562.02 8.73817C560.869 9.00975 560.286 9.63277 560.27 10.6073V15.7113C560.334 16.8774 560.997 17.5484 562.259 17.7242H566.301C567.547 17.4606 568.202 16.6219 568.266 15.2161V10.8868C568.234 9.75257 567.635 9.03371 566.469 8.73817H562.02Z" fill="white"/>
<path opacity="0.5" d="M14.6411 28.8431C22.4845 28.8431 28.8429 22.4847 28.8429 14.6413C28.8429 6.79782 22.4845 0.439453 14.6411 0.439453C6.79758 0.439453 0.439209 6.79782 0.439209 14.6413C0.439209 22.4847 6.79758 28.8431 14.6411 28.8431Z" fill="white"/>
<path d="M14.6411 29.2823C6.56575 29.2823 0 22.7165 0 14.6411C0 6.56576 6.56575 0 14.6411 0C22.7165 0 29.2823 6.56576 29.2823 14.6411C29.2823 22.7165 22.7165 29.2823 14.6411 29.2823ZM14.6411 0.886628C7.05298 0.886628 0.878628 7.06097 0.878628 14.6491C0.878628 22.2373 7.05298 28.4117 14.6411 28.4117C22.2293 28.4117 28.4036 22.2373 28.4036 14.6491C28.4036 7.06097 22.2293 0.886628 14.6411 0.886628Z" fill="white"/>
<path opacity="0.5" d="M15.6156 8.24369L16.5182 11.3908L19.6972 10.592C20.6877 10.3444 21.3906 11.5505 20.6717 12.2854L18.3953 14.6417L20.6717 16.998C21.3826 17.7329 20.6877 18.939 19.6972 18.6914L16.5182 17.8926L15.6156 21.0397C15.336 22.0222 13.9382 22.0222 13.6587 21.0397L12.7561 17.8926L9.57702 18.6914C8.58657 18.939 7.88367 17.7329 8.60255 16.998L10.879 14.6417L8.60255 12.2854C7.89166 11.5505 8.58657 10.3444 9.57702 10.592L12.7561 11.3908L13.6587 8.24369C13.9382 7.26122 15.336 7.26122 15.6156 8.24369Z" fill="white"/>
<path opacity="0.5" d="M14.6411 79.723C22.4845 79.723 28.8429 73.3646 28.8429 65.5211C28.8429 57.6777 22.4845 51.3193 14.6411 51.3193C6.79758 51.3193 0.439209 57.6777 0.439209 65.5211C0.439209 73.3646 6.79758 79.723 14.6411 79.723Z" fill="white"/>
<mask id="mask0_288_2" style="mask-type:luminance" maskUnits="userSpaceOnUse" x="0" y="51" width="29" height="29">
<path d="M14.6411 79.723C22.4845 79.723 28.8429 73.3646 28.8429 65.5211C28.8429 57.6777 22.4845 51.3193 14.6411 51.3193C6.79758 51.3193 0.439209 57.6777 0.439209 65.5211C0.439209 73.3646 6.79758 79.723 14.6411 79.723Z" fill="white"/>
</mask>
<g mask="url(#mask0_288_2)">
<g opacity="0.5">
<path opacity="0.6" d="M8.43807 49.4082L-3.20618 81.2276L-2.38104 81.5296L9.26321 49.7102L8.43807 49.4082Z" fill="white"/>
<path opacity="0.6" d="M14.2465 49.4043L2.60229 81.2237L3.42743 81.5257L15.0716 49.7063L14.2465 49.4043Z" fill="white"/>
<path opacity="0.6" d="M20.0629 49.3984L8.4187 81.2178L9.24384 81.5197L20.888 49.7003L20.0629 49.3984Z" fill="white"/>
<path opacity="0.6" d="M25.8685 49.4004L14.2242 81.2198L15.0493 81.5218L26.6936 49.7024L25.8685 49.4004Z" fill="white"/>
<path opacity="0.6" d="M31.6848 49.4033L20.0406 81.2227L20.8657 81.5246L32.51 49.7052L31.6848 49.4033Z" fill="white"/>
<path opacity="0.6" d="M20.8449 49.4365L20.0195 49.7379L31.6416 81.5654L32.4669 81.264L20.8449 49.4365Z" fill="white"/>
<path opacity="0.6" d="M15.0313 49.4434L14.2059 49.7448L25.828 81.5723L26.6533 81.271L15.0313 49.4434Z" fill="white"/>
<path opacity="0.6" d="M9.21718 49.4463L8.39185 49.7476L20.0139 81.5752L20.8392 81.2738L9.21718 49.4463Z" fill="white"/>
<path opacity="0.6" d="M3.40358 49.4434L2.57825 49.7448L14.2003 81.5723L15.0256 81.271L3.40358 49.4434Z" fill="white"/>
<path opacity="0.6" d="M-2.41003 49.4414L-3.23535 49.7428L8.38667 81.5703L9.212 81.2689L-2.41003 49.4414Z" fill="white"/>
</g>
</g>
<path d="M14.6411 80.1632C6.56575 80.1632 0 73.5974 0 65.522C0 57.4466 6.56575 50.8809 14.6411 50.8809C22.7165 50.8809 29.2823 57.4466 29.2823 65.522C29.2823 73.5974 22.7165 80.1632 14.6411 80.1632ZM14.6411 51.7595C7.05298 51.7595 0.878628 57.9339 0.878628 65.522C0.878628 73.1102 7.05298 79.2845 14.6411 79.2845C22.2293 79.2845 28.4036 73.1102 28.4036 65.522C28.4036 57.9339 22.2293 51.7595 14.6411 51.7595Z" fill="white"/>
<path d="M46.9746 54.2514C46.9746 53.5565 47.3021 53.2051 47.9491 53.2051H51.2879C51.9588 53.2051 52.3023 53.5406 52.3023 54.2195V62.6783C52.3023 63.2853 52.6298 63.2374 53.2768 62.5425C55.681 59.7548 58.1651 56.9592 60.7211 54.1476C61.2803 53.5166 61.9033 53.2051 62.5742 53.2051H66.7837C67.4546 53.2051 67.4946 53.5406 66.8875 54.2195C64.3475 57.0311 61.8394 59.8347 59.3712 62.6463C58.876 63.2055 58.8361 63.7406 59.2355 64.2279L68.2693 75.1468C68.8524 75.8417 68.8205 76.1931 68.1655 76.1931H63.0056C62.3346 76.1931 61.7356 75.8577 61.2164 75.1788L53.0292 64.8349C52.5339 64.2279 52.2863 64.2279 52.2863 64.8349V75.1788C52.2863 75.8497 51.9508 76.1931 51.2719 76.1931H47.973C47.3021 76.1931 46.9586 75.8577 46.9586 75.1788V54.2514H46.9746Z" fill="white"/>
<path d="M76.0971 58.8367C76.6563 58.661 77.2234 58.5572 77.7825 58.5332H84.3562C86.2173 58.6211 87.735 59.4358 88.9091 60.9614C89.2047 61.856 89.3724 62.9503 89.4123 64.2283V75.1792C89.4123 75.8502 89.0769 76.1936 88.3979 76.1936H85.6981C85.0272 76.1936 84.6837 75.962 84.6837 75.4828C84.6837 74.9396 84.3243 74.9875 83.6054 75.6185C83.1102 75.93 82.615 76.1217 82.1197 76.1936H76.2569C74.4597 75.9939 73.3015 75.1632 72.7823 73.7015C72.4868 72.8229 72.3909 71.2414 72.4788 68.949C72.9021 66.7444 74.4118 65.5782 76.9917 65.4424H83.8291C84.3882 65.4424 84.6678 65.1629 84.6678 64.6038C84.6438 63.3257 83.9968 62.5829 82.7108 62.3832H79.8433C78.8289 62.3193 78.1499 62.7426 77.7905 63.6612C77.7426 63.9727 77.4311 64.1325 76.848 64.1325H74.0523C73.3814 64.1325 73.0379 63.797 73.0379 63.118C73.0619 61.0093 74.0683 59.5796 76.0732 58.8367H76.0971ZM78.3496 68.8451C77.4071 69.1167 77.0157 69.6678 77.1675 70.4985C76.9838 71.3293 77.3991 71.9043 78.4135 72.2158H82.0878C83.4137 72.4395 84.2923 71.6008 84.7157 69.6918C84.7396 69.1327 84.4681 68.8531 83.9089 68.8531H78.3496V68.8451Z" fill="white"/>
<path d="M96.8168 58.7002L97.6235 58.5645H106.354C108.375 58.6763 109.916 59.7865 110.971 61.9032C111.194 62.5582 111.338 63.2052 111.41 63.8601V71.4803C111.21 73.8206 110.02 75.2583 107.84 75.7935C107.049 76.0171 106.186 76.1529 105.244 76.2009H97.7274C95.4829 76.137 93.9493 75.0027 93.1425 72.7982C92.9189 72.1672 92.7751 71.5441 92.7032 70.9131V63.7004C93.2623 60.8728 94.6362 59.2114 96.8168 58.7162V58.7002ZM99.8201 62.8458C98.0868 63.2531 97.312 64.1637 97.4957 65.5775V69.8908C97.5596 70.9691 98.2625 71.656 99.5885 71.9436H104.205C105.395 71.8797 106.178 71.2247 106.562 69.9866V64.8666C106.202 63.3809 105.3 62.71 103.862 62.8458H99.8201Z" fill="white"/>
<path d="M115.084 54.2514C115.084 53.5565 115.412 53.2051 116.059 53.2051H118.958C119.629 53.2051 119.973 53.5406 119.973 54.2195V59.8507C119.973 60.4338 120.332 60.4498 121.051 59.8826C121.946 59.2756 122.712 58.9081 123.343 58.7724C125.772 58.1893 128.12 58.5966 130.388 59.9865C131.443 61.0888 132.01 62.5505 132.074 64.3716V75.1868C132.074 75.8577 131.738 76.2011 131.059 76.2011H128.232C127.561 76.2011 127.217 75.8657 127.217 75.1868V65.5138C127.105 64.4595 126.466 63.7246 125.292 63.3253C123.184 63.0297 121.61 63.3732 120.572 64.3397C120.236 64.6352 120.029 65.0266 119.965 65.5218V75.1947C119.965 75.8657 119.629 76.2091 118.95 76.2091H116.083C115.412 76.2091 115.068 75.8736 115.068 75.1947V54.2674L115.084 54.2514Z" fill="white"/>
<path d="M136.579 62.614C136.826 60.05 138.424 58.7081 141.363 58.5723H148.776C151.116 58.5962 152.514 59.9781 152.985 62.7178C152.985 63.4846 152.65 63.86 151.971 63.86H149.447C148.776 63.86 148.416 63.7402 148.368 63.4926C147.961 62.598 147.29 62.2385 146.347 62.4143H142.505C141.539 62.6619 141.108 63.1811 141.227 63.9638C141.092 64.6827 141.507 65.13 142.473 65.3137H149.111C151.579 65.4975 153.033 66.7036 153.456 68.956V72.191C153.321 73.2693 152.881 74.1719 152.138 74.8908C151.124 75.6337 149.71 76.0729 147.889 76.2087H140.445C137.457 75.6256 135.908 74.0601 135.796 71.5281C135.772 70.8331 136.099 70.4817 136.77 70.4817H139.87C140.54 70.4817 140.916 70.6494 140.98 70.9849C141.315 71.9035 142.026 72.3348 143.104 72.2629H146.276C146.907 72.3747 147.498 72.215 148.065 71.7917C148.264 71.568 148.368 71.2085 148.368 70.7133C148.592 69.7468 148.097 69.1877 146.883 69.028H140.213C138.232 69.0519 137.026 68.0934 136.571 66.1604V62.6219L136.579 62.614Z" fill="white"/>
<path d="M157.139 54.2514C157.139 53.5565 157.466 53.2051 158.113 53.2051H161.212C161.883 53.2051 162.227 53.5406 162.227 54.2195V55.2978C162.227 55.9688 161.891 56.3122 161.212 56.3122H158.145C157.474 56.3122 157.131 55.9767 157.131 55.2978V54.2514H157.139ZM157.139 59.643C157.139 58.9241 157.45 58.5647 158.081 58.5647H161.212C161.883 58.5647 162.227 58.9002 162.227 59.5791V75.1788C162.227 75.8497 161.891 76.1931 161.212 76.1931H158.145C157.474 76.1931 157.131 75.8577 157.131 75.1788V59.643H157.139Z" fill="white"/>
<path d="M166.572 59.6427C166.572 58.9239 166.883 58.5645 167.514 58.5645H170.31C170.981 58.5645 171.324 58.8999 171.324 59.5788V69.2517C171.348 70.4658 172.131 71.2726 173.681 71.68H176.245C177.523 71.3684 178.186 70.5218 178.234 69.1479V59.5788C178.234 58.9079 178.569 58.5645 179.248 58.5645H182.012C182.683 58.5645 183.026 58.8999 183.026 59.5788V75.1785C183.026 75.8494 182.691 76.1929 182.012 76.1929H179.248C178.577 76.1929 178.234 75.8414 178.234 75.1465C178.234 74.3158 177.986 74.2919 177.491 75.0826C176.884 75.7137 176.005 76.081 174.863 76.1929H171.189C170.246 76.1449 169.343 75.9213 168.489 75.5219C167.299 74.5315 166.66 73.0937 166.572 71.2087V59.6507V59.6427Z" fill="white"/>
<path d="M187.124 59.6747C187.124 59.0038 187.459 58.6604 188.138 58.6604H191.141C191.812 58.6604 192.156 58.908 192.156 59.4032C192.156 59.9384 192.515 59.9863 193.234 59.539C194.608 58.7562 196.381 58.4127 198.562 58.5245C200.311 58.6843 201.661 59.1955 202.604 60.0741C203.458 60.9527 203.921 62.055 203.985 63.373V75.1706C203.985 75.8415 203.65 76.185 202.971 76.185H200.175C199.504 76.185 199.161 75.8495 199.161 75.1706V64.9625C199.113 64.0439 198.586 63.389 197.579 63.0056C196.437 62.9417 195.279 62.9177 194.105 62.9417C193.09 62.9896 192.443 63.6286 192.148 64.8666V75.1786C192.148 75.8495 191.812 76.1929 191.133 76.1929H188.13C187.459 76.1929 187.116 75.8575 187.116 75.1786V59.6747H187.124Z" fill="white"/>
<path d="M223.451 59.004C223.858 58.1494 224.537 57.8059 225.504 57.9577C226.087 57.9577 226.382 58.2931 226.382 58.9721V61.5361C226.382 62.207 226.223 62.5505 225.911 62.5505C225.192 62.4866 224.697 62.862 224.425 63.6927C224.226 64.5953 224.122 65.5458 224.122 66.5602C224.122 67.2312 223.683 67.8622 222.804 68.4453C222.197 68.7408 221.414 68.9405 220.448 69.0523H214.753C214.217 69.0523 213.89 69.1003 213.778 69.1881C213.283 69.6354 213.115 70.3143 213.275 71.209C213.339 71.3208 213.642 71.3767 214.185 71.3767H222.037C222.932 71.4246 223.834 71.7042 224.737 72.2154C225.52 72.8464 225.951 73.6531 226.015 74.6436V79.7317C225.951 80.6263 225.528 81.3931 224.769 82.0241C224.05 82.4474 223.155 82.711 222.069 82.7989H210.647C208.802 82.7749 207.692 81.9122 207.308 80.2029V75.043C207.244 74.5078 207.532 73.9168 208.187 73.2937C208.498 73.094 208.57 72.7186 208.386 72.1835C208.139 71.193 208.434 70.1706 209.265 69.1162C209.824 68.621 209.784 68.1498 209.129 67.7025C208.546 67.1593 208.323 66.4883 208.458 65.6816V61.9434C208.546 60.6415 209.265 59.667 210.615 59.012C211.198 58.7644 211.885 58.6046 212.668 58.5407H220.456C221.111 58.5647 221.774 58.7245 222.445 59.012C223.028 59.2836 223.363 59.2836 223.459 59.012L223.451 59.004ZM221.031 76.4648C221.167 75.3625 220.679 74.8433 219.585 74.9152H213.618C212.404 74.8273 211.909 75.3625 212.133 76.5367C211.933 77.8147 212.133 78.7012 212.74 79.1965C212.899 79.2444 213.243 79.2604 213.786 79.2604H219.377C220.591 79.484 221.143 78.9569 221.031 77.6789V76.4648ZM214.018 61.9674C213.746 61.9913 213.491 62.247 213.243 62.7422C213.155 63.525 213.155 64.3477 213.243 65.2024C213.626 65.7375 214.153 65.9292 214.824 65.7774H217.724C219.138 65.8014 219.697 65.1464 219.409 63.8205C219.657 62.4946 219.106 61.8556 217.756 61.9035C216.518 61.8796 215.272 61.9035 214.018 61.9674Z" fill="white"/>
<path d="M247.142 54.2514C247.142 53.5565 247.469 53.2051 248.116 53.2051H266.384C267.055 53.2051 267.398 53.5406 267.398 54.2195V57.0471C267.398 57.718 267.063 58.0615 266.384 58.0615H253.54C252.981 58.0615 252.701 58.3411 252.701 58.9082V61.4721C252.701 62.0313 252.981 62.3109 253.54 62.3109H265.234C265.905 62.3109 266.248 62.6463 266.248 63.3253V65.9212C266.248 66.5922 265.913 66.9356 265.234 66.9356H253.54C252.981 66.9356 252.701 67.2152 252.701 67.7743V70.3703C252.701 70.9294 252.981 71.2089 253.54 71.2089H266.983C267.654 71.2089 267.997 71.5444 267.997 72.2234V75.1868C267.997 75.8577 267.662 76.2011 266.983 76.2011H248.148C247.477 76.2011 247.134 75.8657 247.134 75.1868V54.2594L247.142 54.2514Z" fill="white"/>
<path d="M272.518 59.6427C272.095 58.9239 272.191 58.5645 272.822 58.5645H276.496C277.167 58.5645 277.71 58.8999 278.118 59.5788L279.939 62.5742C280.322 63.1812 280.666 63.2292 280.985 62.71C281.544 61.6796 282.143 60.6332 282.774 59.5788C283.182 58.9079 283.717 58.5645 284.396 58.5645H287.735C288.405 58.5645 288.541 58.8999 288.142 59.5788L284.404 65.8491C284.092 66.3922 284.108 66.9913 284.468 67.6702L288.477 75.1146C288.885 75.8335 288.773 76.1929 288.142 76.1929H284.436C283.765 76.1929 283.277 75.8574 282.99 75.1785C282.431 73.9404 281.896 72.7103 281.408 71.4723C281.073 70.7774 280.69 70.7294 280.266 71.3365C279.475 72.5985 278.741 73.8525 278.046 75.1066C277.614 75.8255 277.087 76.1849 276.464 76.1849H272.686C272.015 76.1849 271.879 75.8494 272.279 75.1705L276.488 68.0936C276.848 67.4386 276.816 66.7676 276.384 66.0727L272.542 59.6348L272.518 59.6427Z" fill="white"/>
<path d="M292.2 54.2514C292.2 53.5565 292.527 53.2051 293.174 53.2051H296.074C296.745 53.2051 297.088 53.5406 297.088 54.2195V59.8507C297.088 60.4338 297.447 60.4498 298.166 59.8826C299.061 59.2756 299.828 58.9081 300.459 58.7724C302.887 58.1893 305.235 58.5966 307.504 59.9865C308.558 61.0888 309.125 62.5505 309.189 64.3716V75.1868C309.189 75.8577 308.854 76.2011 308.175 76.2011H305.347C304.676 76.2011 304.333 75.8657 304.333 75.1868V65.5138C304.221 64.4595 303.582 63.7246 302.408 63.3253C300.299 63.0297 298.725 63.3732 297.687 64.3397C297.352 64.6352 297.144 65.0266 297.08 65.5218V75.1947C297.08 75.8657 296.745 76.2091 296.066 76.2091H293.198C292.527 76.2091 292.184 75.8736 292.184 75.1947V54.2674L292.2 54.2514Z" fill="white"/>
<path d="M313.295 54.2514C313.295 53.5565 313.622 53.2051 314.269 53.2051H317.368C318.039 53.2051 318.383 53.5406 318.383 54.2195V55.2978C318.383 55.9688 318.047 56.3122 317.368 56.3122H314.301C313.63 56.3122 313.287 55.9767 313.287 55.2978V54.2514H313.295ZM313.295 59.643C313.295 58.9241 313.606 58.5647 314.237 58.5647H317.368C318.039 58.5647 318.383 58.9002 318.383 59.5791V75.1788C318.383 75.8497 318.047 76.1931 317.368 76.1931H314.301C313.63 76.1931 313.287 75.8577 313.287 75.1788V59.643H313.295Z" fill="white"/>
<path d="M322.696 54.2514C322.696 53.5565 323.023 53.2051 323.67 53.2051H326.434C327.105 53.2051 327.449 53.5406 327.449 54.2195V59.1717C327.449 59.7548 327.808 59.8108 328.527 59.3395C329.182 58.9801 330.013 58.7245 331.019 58.5647H334.454C335.62 58.7245 336.522 58.9801 337.153 59.3395C338.296 60.0104 338.998 60.8252 339.246 61.7677C339.47 62.5505 339.614 63.3492 339.685 64.1639V71.0093C339.638 71.9039 339.382 72.8064 338.911 73.709C337.968 75.3465 336.538 76.1772 334.629 76.2011H330.18C329.509 76.1532 328.886 75.9456 328.327 75.5621C327.744 75.1388 327.449 75.1468 327.449 75.5941C327.449 76.0014 327.113 76.2011 326.434 76.2011H323.702C323.031 76.2011 322.688 75.8657 322.688 75.1868V54.2594L322.696 54.2514ZM329.166 63.1176C328.04 63.4291 327.473 64.0601 327.449 65.0027V69.7233C327.832 71.0971 328.711 71.7042 330.076 71.5445C331.938 71.6802 333.192 71.5444 333.815 71.1371C334.238 70.8016 334.486 70.4182 334.557 69.9949V64.9068C334.51 64.0282 333.974 63.4371 332.936 63.1176H329.158H329.166Z" fill="white"/>
<path d="M343.184 54.2514C343.184 53.5565 343.511 53.2051 344.158 53.2051H347.258C347.929 53.2051 348.272 53.5406 348.272 54.2195V55.2978C348.272 55.9688 347.937 56.3122 347.258 56.3122H344.19C343.519 56.3122 343.176 55.9767 343.176 55.2978V54.2514H343.184ZM343.184 59.643C343.184 58.9241 343.495 58.5647 344.127 58.5647H347.258C347.929 58.5647 348.272 58.9002 348.272 59.5791V75.1788C348.272 75.8497 347.937 76.1931 347.258 76.1931H344.19C343.519 76.1931 343.176 75.8577 343.176 75.1788V59.643H343.184Z" fill="white"/>
<path d="M354.367 54.6264C354.367 53.9315 354.694 53.5801 355.341 53.5801H358.336C359.007 53.5801 359.351 53.9156 359.351 54.5945V57.7256C359.351 58.2847 359.63 58.5723 360.189 58.5723H363.424C364.095 58.5723 364.439 58.9078 364.439 59.5867V61.983C364.439 62.6539 364.103 62.9974 363.424 62.9974H360.325C359.766 62.9974 359.486 63.277 359.486 63.8361V69.8347C359.598 70.8491 360.205 71.4642 361.308 71.6878H363.664C364.335 71.6878 364.678 72.0233 364.678 72.7022V75.1943C364.678 75.8653 364.343 76.2087 363.664 76.2087H358.943C355.796 75.6257 354.271 73.8285 354.359 70.8172V63.8441C354.359 63.2849 354.007 63.0054 353.312 63.0054C352.617 63.0054 352.266 62.6699 352.266 61.991V59.5947C352.266 58.9238 352.601 58.5803 353.28 58.5803C353.999 58.5803 354.359 58.3007 354.359 57.7336V54.6344L354.367 54.6264Z" fill="white"/>
<path d="M368.385 54.2514C368.385 53.5565 368.712 53.2051 369.359 53.2051H372.458C373.129 53.2051 373.473 53.5406 373.473 54.2195V55.2978C373.473 55.9688 373.137 56.3122 372.458 56.3122H369.391C368.72 56.3122 368.377 55.9767 368.377 55.2978V54.2514H368.385ZM368.385 59.643C368.385 58.9241 368.696 58.5647 369.327 58.5647H372.458C373.129 58.5647 373.473 58.9002 373.473 59.5791V75.1788C373.473 75.8497 373.137 76.1931 372.458 76.1931H369.391C368.72 76.1931 368.377 75.8577 368.377 75.1788V59.643H368.385Z" fill="white"/>
<path d="M381.596 58.7002L382.403 58.5645H391.133C393.154 58.6763 394.695 59.7865 395.75 61.9032C395.973 62.5582 396.117 63.2052 396.189 63.8601V71.4803C395.989 73.8206 394.799 75.2583 392.619 75.7935C391.828 76.0171 390.965 76.1529 390.023 76.2009H382.507C380.262 76.137 378.728 75.0027 377.922 72.7982C377.698 72.1672 377.554 71.5441 377.482 70.9131V63.7004C378.041 60.8728 379.415 59.2114 381.596 58.7162V58.7002ZM384.599 62.8458C382.866 63.2531 382.091 64.1637 382.275 65.5775V69.8908C382.339 70.9691 383.042 71.656 384.368 71.9436H388.984C390.175 71.8797 390.957 71.2247 391.341 69.9866V64.8666C390.981 63.3809 390.079 62.71 388.641 62.8458H384.599Z" fill="white"/>
<path d="M399.863 59.6747C399.863 59.0038 400.199 58.6604 400.878 58.6604H403.881C404.552 58.6604 404.896 58.908 404.896 59.4032C404.896 59.9384 405.255 59.9863 405.974 59.539C407.348 58.7562 409.121 58.4127 411.302 58.5245C413.051 58.6843 414.401 59.1955 415.343 60.0741C416.198 60.9527 416.661 62.055 416.725 63.373V75.1706C416.725 75.8415 416.39 76.185 415.711 76.185H412.915C412.244 76.185 411.901 75.8495 411.901 75.1706V64.9625C411.853 64.0439 411.326 63.389 410.319 63.0056C409.177 62.9417 408.019 62.9177 406.845 62.9417C405.83 62.9896 405.183 63.6286 404.888 64.8666V75.1786C404.888 75.8495 404.552 76.1929 403.873 76.1929H400.87C400.199 76.1929 399.855 75.8575 399.855 75.1786V59.6747H399.863Z" fill="white"/>
<path d="M442.085 53.7161C442.828 53.4925 443.795 53.3247 444.985 53.2129H455.161C456.958 53.3966 458.308 53.812 459.203 54.4589C461.248 56.4558 462.086 58.6923 461.727 61.1684C461.727 61.8394 461.391 62.1829 460.712 62.1829H457.142C456.471 62.1829 456.128 61.8474 456.128 61.1684C456.287 59.3473 455.377 58.261 453.396 57.9016H446.654C444.833 57.9655 443.731 58.9958 443.355 60.9687V68.2134C443.355 69.7391 444.354 70.7375 446.351 71.2088H453.763C455.512 70.8254 456.415 69.779 456.463 68.0777C456.487 67.223 456.83 66.7997 457.509 66.7997H460.776C461.447 66.7997 461.791 67.1351 461.791 67.8141C461.99 70.2183 461.343 72.351 459.834 74.2201C459.251 74.8271 458.588 75.2504 457.845 75.4981C456.83 75.9054 455.696 76.1371 454.442 76.209H444.466C443.387 76.1211 442.485 75.9533 441.766 75.7057C439.41 74.875 438.084 73.1018 437.788 70.3781V60.7771C437.812 58.8441 438.371 57.0469 439.474 55.3855C440.057 54.6027 440.919 54.0516 442.069 53.7321L442.085 53.7161Z" fill="white"/>
<path d="M468.133 59.1075C468.876 58.796 469.57 58.6122 470.225 58.5723H477.67C480.21 58.5962 481.728 59.8742 482.223 62.4143V65.6173C482.135 66.7435 481.863 67.6381 481.416 68.3171C480.745 68.9481 479.707 69.1797 478.317 69.028H470.529C469.97 69.028 469.69 69.3794 469.69 70.0743C469.443 71.3363 470.018 72.0632 471.408 72.2629H474.914C476.216 72.4626 476.983 71.9114 477.207 70.6095C477.207 70.3619 477.542 70.2421 478.221 70.2421H481.12C481.791 70.2421 482.135 70.5775 482.135 71.2565C481.887 73.3013 481.057 74.771 479.643 75.6736C478.852 75.9851 478.069 76.1688 477.286 76.2087H469.403C467.965 76.049 466.855 75.4899 466.064 74.5234C465.481 73.6288 465.129 72.4147 465.018 70.8811V64.1077C465.106 61.951 466.152 60.2896 468.149 59.1234L468.133 59.1075ZM470.896 62.5102C469.954 62.7338 469.547 63.2769 469.682 64.1316C469.523 64.9383 469.914 65.4815 470.865 65.7531H475.377C476.839 65.801 477.446 65.178 477.199 63.9C477.111 62.8456 476.48 62.3823 475.314 62.5181H470.896V62.5102Z" fill="white"/>
<path d="M485.857 59.6747C485.857 59.0038 486.193 58.6604 486.871 58.6604H489.875C490.546 58.6604 490.889 58.908 490.889 59.4032C490.889 59.9384 491.249 59.9863 491.968 59.539C493.341 58.7562 495.115 58.4127 497.295 58.5245C499.044 58.6843 500.394 59.1955 501.337 60.0741C502.192 60.9527 502.655 62.055 502.719 63.373V75.1706C502.719 75.8415 502.383 76.185 501.704 76.185H498.909C498.238 76.185 497.894 75.8495 497.894 75.1706V64.9625C497.846 64.0439 497.319 63.389 496.313 63.0056C495.171 62.9417 494.012 62.9177 492.838 62.9417C491.824 62.9896 491.177 63.6286 490.881 64.8666V75.1786C490.881 75.8495 490.546 76.1929 489.867 76.1929H486.864C486.193 76.1929 485.849 75.8575 485.849 75.1786V59.6747H485.857Z" fill="white"/>
<path d="M508.574 54.6264C508.574 53.9315 508.901 53.5801 509.548 53.5801H512.543C513.214 53.5801 513.558 53.9156 513.558 54.5945V57.7256C513.558 58.2847 513.837 58.5723 514.397 58.5723H517.631C518.302 58.5723 518.646 58.9078 518.646 59.5867V61.983C518.646 62.6539 518.31 62.9974 517.631 62.9974H514.532C513.973 62.9974 513.694 63.277 513.694 63.8361V69.8347C513.805 70.8491 514.413 71.4642 515.515 71.6878H517.871C518.542 71.6878 518.886 72.0233 518.886 72.7022V75.1943C518.886 75.8653 518.55 76.2087 517.871 76.2087H513.151C510.003 75.6257 508.478 73.8285 508.566 70.8172V63.8441C508.566 63.2849 508.214 63.0054 507.519 63.0054C506.824 63.0054 506.473 62.6699 506.473 61.991V59.5947C506.473 58.9238 506.808 58.5803 507.487 58.5803C508.206 58.5803 508.566 58.3007 508.566 57.7336V54.6344L508.574 54.6264Z" fill="white"/>
<path d="M525.419 59.1075C526.162 58.796 526.857 58.6122 527.512 58.5723H534.956C537.496 58.5962 539.014 59.8742 539.509 62.4143V65.6173C539.421 66.7435 539.15 67.6381 538.703 68.3171C538.032 68.9481 536.993 69.1797 535.603 69.028H527.816C527.256 69.028 526.977 69.3794 526.977 70.0743C526.729 71.3363 527.304 72.0632 528.694 72.2629H532.201C533.503 72.4626 534.269 71.9114 534.493 70.6095C534.493 70.3619 534.829 70.2421 535.508 70.2421H538.407C539.078 70.2421 539.421 70.5775 539.421 71.2565C539.174 73.3013 538.343 74.771 536.929 75.6736C536.139 75.9851 535.356 76.1688 534.573 76.2087H526.689C525.252 76.049 524.141 75.4899 523.351 74.5234C522.767 73.6288 522.416 72.4147 522.304 70.8811V64.1077C522.392 61.951 523.438 60.2896 525.435 59.1234L525.419 59.1075ZM528.183 62.5102C527.24 62.7338 526.833 63.2769 526.969 64.1316C526.809 64.9383 527.2 65.4815 528.151 65.7531H532.664C534.126 65.801 534.733 65.178 534.485 63.9C534.397 62.8456 533.766 62.3823 532.6 62.5181H528.183V62.5102Z" fill="white"/>
<path d="M543.144 59.6427C543.144 58.9239 543.455 58.5645 544.086 58.5645H547.018C547.689 58.5645 548.032 58.8679 548.032 59.475C548.032 60.1699 548.391 60.1939 549.11 59.5389C549.781 59.0197 550.692 58.7002 551.842 58.5645H555.748C556.419 58.5645 556.762 58.8999 556.762 59.5788V62.1029C556.762 62.7739 556.427 63.1173 555.748 63.1173H552.178C550.516 63.4128 549.302 64.2835 548.535 65.7452C548.264 66.4881 548.096 67.2709 548.032 68.1016V75.1785C548.032 75.8494 547.697 76.1929 547.018 76.1929H544.15C543.479 76.1929 543.136 75.8574 543.136 75.1785V59.6427H543.144Z" fill="white"/>
<path d="M51.0243 99.3899C51.7671 99.1663 52.7336 98.9985 53.9238 98.8867H64.0999C65.8971 99.0704 67.247 99.4858 68.1416 100.133C70.1864 102.13 71.0251 104.366 70.6656 106.842C70.6656 107.513 70.3301 107.857 69.6512 107.857H66.0808C65.4098 107.857 65.0664 107.521 65.0664 106.842C65.2261 105.021 64.3155 103.935 62.3346 103.575H55.5932C53.772 103.639 52.6697 104.67 52.2943 106.643V113.887C52.2943 115.413 53.2927 116.411 55.2896 116.883H62.7021C64.4513 116.499 65.3539 115.453 65.4018 113.751C65.4258 112.897 65.7693 112.474 66.4482 112.474H69.7151C70.3861 112.474 70.7295 112.809 70.7295 113.488C70.9292 115.892 70.2822 118.025 68.7726 119.894C68.1895 120.501 67.5265 120.924 66.7837 121.172C65.7693 121.579 64.635 121.811 63.381 121.883H53.4046C52.3263 121.795 51.4237 121.627 50.7048 121.38C48.3485 120.549 47.0225 118.776 46.727 116.052V106.451C46.751 104.518 47.3101 102.721 48.4124 101.059C48.9955 100.277 49.8581 99.7254 51.0083 99.4059L51.0243 99.3899Z" fill="white"/>
<path d="M78.0461 104.373L78.8528 104.237H87.5832C89.604 104.349 91.1456 105.459 92.2 107.576C92.4236 108.231 92.5674 108.878 92.6393 109.533V117.153C92.4396 119.493 91.2495 120.931 89.0689 121.466C88.2781 121.69 87.4155 121.826 86.4729 121.874H78.9567C76.7122 121.81 75.1786 120.676 74.3718 118.471C74.1482 117.84 74.0044 117.217 73.9325 116.586V109.373C74.4917 106.546 75.8655 104.884 78.0461 104.389V104.373ZM81.0494 108.519C79.3161 108.926 78.5413 109.837 78.725 111.25V115.564C78.7889 116.642 79.4918 117.329 80.8178 117.616H85.4346C86.6247 117.553 87.4075 116.898 87.7909 115.659V110.539C87.4314 109.054 86.5289 108.383 85.0911 108.519H81.0494Z" fill="white"/>
<path d="M96.3135 105.355C96.3135 104.684 96.649 104.341 97.328 104.341H100.331C101.002 104.341 101.346 104.589 101.346 105.084C101.346 105.619 101.705 105.667 102.424 105.22C103.798 104.437 105.571 104.093 107.752 104.205C109.501 104.365 110.851 104.876 111.793 105.755C112.648 106.633 113.111 107.736 113.175 109.054V120.851C113.175 121.522 112.84 121.866 112.161 121.866H109.365C108.694 121.866 108.351 121.53 108.351 120.851V110.643C108.303 109.725 107.776 109.07 106.769 108.686C105.627 108.622 104.469 108.598 103.295 108.622C102.28 108.67 101.633 109.309 101.338 110.547V120.859C101.338 121.53 101.002 121.874 100.323 121.874H97.32C96.649 121.874 96.3055 121.538 96.3055 120.859V105.355H96.3135Z" fill="white"/>
<path d="M122.025 98.95C123.24 98.8861 124.486 98.8621 125.764 98.8861C126.435 98.8861 126.778 99.2216 126.778 99.9005V101.69C126.778 102.361 126.443 102.704 125.764 102.704C125.316 102.68 124.869 102.704 124.414 102.768C124.006 102.992 123.831 103.367 123.871 103.878C123.958 104.126 124.278 104.246 124.813 104.246H126.227C126.898 104.246 127.241 104.581 127.241 105.26V107.656C127.241 108.327 126.906 108.671 126.227 108.671H124.949C124.39 108.671 124.11 108.95 124.11 109.509V120.868C124.11 121.539 123.775 121.882 123.096 121.882H119.997C119.326 121.882 118.982 121.547 118.982 120.868V109.509C118.982 108.95 118.703 108.671 118.143 108.671H117.64C116.969 108.671 116.626 108.335 116.626 107.656V105.26C116.626 104.589 116.961 104.246 117.64 104.246H118.143C118.703 104.246 118.982 103.966 118.982 103.399C118.918 102.321 119.254 101.25 119.997 100.196C120.58 99.5411 121.259 99.1257 122.017 98.95H122.025Z" fill="white"/>
<path d="M133.679 104.781C134.422 104.47 135.117 104.286 135.772 104.246H143.216C145.756 104.27 147.274 105.548 147.769 108.088V111.291C147.681 112.417 147.41 113.312 146.962 113.991C146.291 114.622 145.253 114.853 143.863 114.702H136.075C135.516 114.702 135.237 115.053 135.237 115.748C134.989 117.01 135.564 117.737 136.954 117.937H140.461C141.763 118.136 142.529 117.585 142.753 116.283C142.753 116.036 143.088 115.916 143.767 115.916H146.667C147.338 115.916 147.681 116.251 147.681 116.93C147.434 118.975 146.603 120.445 145.189 121.347C144.398 121.659 143.616 121.843 142.833 121.883H134.949C133.511 121.723 132.401 121.164 131.61 120.197C131.027 119.303 130.676 118.088 130.564 116.555V109.781C130.652 107.625 131.698 105.963 133.695 104.797L133.679 104.781ZM136.443 108.184C135.5 108.408 135.093 108.951 135.229 109.805C135.069 110.612 135.46 111.155 136.411 111.427H140.924C142.386 111.475 142.993 110.852 142.745 109.574C142.657 108.519 142.026 108.056 140.86 108.192H136.443V108.184Z" fill="white"/>
<path d="M151.411 105.316C151.411 104.597 151.723 104.237 152.354 104.237H155.285C155.956 104.237 156.3 104.541 156.3 105.148C156.3 105.843 156.659 105.867 157.378 105.212C158.049 104.693 158.96 104.373 160.11 104.237H164.016C164.687 104.237 165.03 104.573 165.03 105.252V107.776C165.03 108.447 164.695 108.79 164.016 108.79H160.445C158.784 109.086 157.57 109.956 156.803 111.418C156.531 112.161 156.364 112.944 156.3 113.774V120.851C156.3 121.522 155.964 121.866 155.285 121.866H152.418C151.747 121.866 151.404 121.53 151.404 120.851V105.316H151.411Z" fill="white"/>
<path d="M171.117 104.781C171.86 104.47 172.554 104.286 173.209 104.246H180.654C183.194 104.27 184.711 105.548 185.207 108.088V111.291C185.119 112.417 184.847 113.312 184.4 113.991C183.729 114.622 182.691 114.853 181.301 114.702H173.513C172.954 114.702 172.674 115.053 172.674 115.748C172.427 117.01 173.002 117.737 174.392 117.937H177.898C179.2 118.136 179.967 117.585 180.191 116.283C180.191 116.036 180.526 115.916 181.205 115.916H184.104C184.775 115.916 185.119 116.251 185.119 116.93C184.871 118.975 184.041 120.445 182.627 121.347C181.836 121.659 181.053 121.843 180.27 121.883H172.387C170.949 121.723 169.839 121.164 169.048 120.197C168.465 119.303 168.113 118.088 168.002 116.555V109.781C168.089 107.625 169.136 105.963 171.133 104.797L171.117 104.781ZM173.88 108.184C172.938 108.408 172.53 108.951 172.666 109.805C172.507 110.612 172.898 111.155 173.848 111.427H178.361C179.823 111.475 180.43 110.852 180.183 109.574C180.095 108.519 179.464 108.056 178.297 108.192H173.88V108.184Z" fill="white"/>
<path d="M188.849 105.355C188.849 104.684 189.184 104.341 189.863 104.341H192.867C193.538 104.341 193.881 104.589 193.881 105.084C193.881 105.619 194.241 105.667 194.959 105.22C196.333 104.437 198.107 104.093 200.287 104.205C202.036 104.365 203.386 104.876 204.329 105.755C205.183 106.633 205.647 107.736 205.711 109.054V120.851C205.711 121.522 205.375 121.866 204.696 121.866H201.901C201.23 121.866 200.886 121.53 200.886 120.851V110.643C200.838 109.725 200.311 109.07 199.305 108.686C198.162 108.622 197.004 108.598 195.83 108.622C194.816 108.67 194.169 109.309 193.873 110.547V120.859C193.873 121.53 193.538 121.874 192.859 121.874H189.855C189.185 121.874 188.841 121.538 188.841 120.859V105.355H188.849Z" fill="white"/>
<path d="M212.332 104.948C213.275 104.565 214.457 104.333 215.871 104.237H220.488C224.601 104.533 226.646 106.45 226.622 109.996C226.622 110.667 226.287 111.011 225.608 111.011H222.74C222.069 111.011 221.726 110.891 221.726 110.643C221.59 109.341 220.887 108.678 219.601 108.654H215.999C214.896 108.95 214.305 109.565 214.209 110.507V115.428C214.481 116.458 215.256 117.057 216.534 117.217H220.04C221.23 116.945 221.758 116.274 221.622 115.196C221.622 114.525 221.957 114.182 222.636 114.182H225.735C226.406 114.182 226.75 114.517 226.75 115.196C226.862 116.858 226.534 118.383 225.775 119.781C224.721 121.107 223.315 121.802 221.566 121.874H214.721C211.821 121.65 210.096 120.029 209.529 117.017V109.269C209.688 107.424 210.615 105.987 212.324 104.956L212.332 104.948Z" fill="white"/>
<path d="M233.228 104.781C233.971 104.47 234.665 104.286 235.32 104.246H242.765C245.305 104.27 246.822 105.548 247.318 108.088V111.291C247.23 112.417 246.958 113.312 246.511 113.991C245.84 114.622 244.802 114.853 243.412 114.702H235.624C235.065 114.702 234.785 115.053 234.785 115.748C234.538 117.01 235.113 117.737 236.503 117.937H240.009C241.311 118.136 242.078 117.585 242.302 116.283C242.302 116.036 242.637 115.916 243.316 115.916H246.215C246.886 115.916 247.23 116.251 247.23 116.93C246.982 118.975 246.152 120.445 244.738 121.347C243.947 121.659 243.164 121.843 242.381 121.883H234.498C233.06 121.723 231.95 121.164 231.159 120.197C230.576 119.303 230.224 118.088 230.113 116.555V109.781C230.2 107.625 231.247 105.963 233.244 104.797L233.228 104.781ZM235.991 108.184C235.049 108.408 234.641 108.951 234.777 109.805C234.618 110.612 235.009 111.155 235.959 111.427H240.472C241.934 111.475 242.541 110.852 242.294 109.574C242.206 108.519 241.575 108.056 240.408 108.192H235.991V108.184Z" fill="white"/>
<path d="M268.205 99.9233C268.205 99.2284 268.533 98.877 269.18 98.877H285.522C286.513 98.9648 287.407 99.1565 288.222 99.4521C289.684 100.123 290.466 101.129 290.578 102.447V107.535C290.49 108.662 290.099 109.556 289.396 110.235C288.701 110.73 288.669 111.178 289.292 111.585C290.147 112.352 290.61 113.302 290.674 114.453V120.859C290.674 121.53 290.339 121.873 289.66 121.873H286.153C285.482 121.873 285.139 121.538 285.139 120.859V115.874C285.139 114.708 284.428 113.909 283.014 113.478H274.587C274.028 113.478 273.748 113.758 273.748 114.317V120.859C273.748 121.53 273.413 121.873 272.734 121.873H269.196C268.525 121.873 268.181 121.538 268.181 120.859V99.9313L268.205 99.9233ZM283.102 103.262H274.611C274.052 103.262 273.772 103.542 273.772 104.101V107.911C273.772 108.47 274.052 108.75 274.611 108.75H283.206C284.036 108.702 284.611 108.222 284.923 107.304C285.035 105.978 284.931 104.971 284.619 104.269C284.284 103.709 283.781 103.374 283.102 103.254V103.262Z" fill="white"/>
<path d="M298.398 104.373L299.205 104.237H307.935C309.956 104.349 311.497 105.459 312.552 107.576C312.775 108.231 312.919 108.878 312.991 109.533V117.153C312.791 119.493 311.601 120.931 309.421 121.466C308.63 121.69 307.767 121.826 306.825 121.874H299.308C297.064 121.81 295.53 120.676 294.724 118.471C294.5 117.84 294.356 117.217 294.284 116.586V109.373C294.843 106.546 296.217 104.884 298.398 104.389V104.373ZM301.401 108.519C299.668 108.926 298.893 109.837 299.077 111.25V115.564C299.141 116.642 299.844 117.329 301.17 117.616H305.786C306.976 117.553 307.759 116.898 308.143 115.659V110.539C307.783 109.054 306.881 108.383 305.443 108.519H301.401Z" fill="white"/>
<path d="M320.475 104.373L321.282 104.237H330.012C332.033 104.349 333.575 105.459 334.629 107.576C334.853 108.231 334.997 108.878 335.069 109.533V117.153C334.869 119.493 333.679 120.931 331.498 121.466C330.707 121.69 329.845 121.826 328.902 121.874H321.386C319.141 121.81 317.608 120.676 316.801 118.471C316.577 117.84 316.434 117.217 316.362 116.586V109.373C316.921 106.546 318.295 104.884 320.475 104.389V104.373ZM323.471 108.519C321.737 108.926 320.963 109.837 321.146 111.25V115.564C321.21 116.642 321.913 117.329 323.239 117.616H327.856C329.046 117.553 329.829 116.898 330.212 115.659V110.539C329.853 109.054 328.95 108.383 327.512 108.519H323.471Z" fill="white"/>
<path d="M344.502 105.18C345.644 104.302 347.026 104.022 348.647 104.341C349.231 104.501 349.909 104.877 350.668 105.484C351.363 106.043 352.002 106.003 352.593 105.348C353.224 104.677 354.119 104.317 355.293 104.27C358.304 103.798 360.109 105.18 360.717 108.415V120.852C360.717 121.523 360.381 121.866 359.702 121.866H356.803C356.132 121.866 355.788 121.531 355.788 120.852V110.907C355.836 109.334 355.173 108.631 353.799 108.783C352.497 108.894 351.922 109.509 352.082 110.636V120.844C352.082 121.515 351.747 121.858 351.068 121.858H348.24C347.569 121.858 347.226 121.523 347.226 120.844V109.925C347.226 109.517 346.97 109.174 346.451 108.878C345.077 108.631 344.158 108.743 343.687 109.214C343.575 109.374 343.487 109.581 343.416 109.853V120.836C343.416 121.507 343.08 121.85 342.401 121.85H339.741C339.07 121.85 338.727 121.515 338.727 120.836V105.364C338.727 104.693 339.062 104.349 339.741 104.349H342.401C343.072 104.349 343.416 104.629 343.416 105.188C343.416 105.843 343.775 105.827 344.494 105.156L344.502 105.18Z" fill="white"/>
<path d="M384.935 99.5885C385.989 99.1652 387.139 98.9176 388.369 98.8457H399.089C400.079 98.9336 400.974 99.1173 401.788 99.3809C403.522 100.012 404.408 101.13 404.448 102.752V106.226C404.36 107.488 403.737 108.487 402.595 109.221C401.988 109.557 402.036 109.932 402.731 110.332C403.745 110.939 404.352 111.682 404.552 112.56C405.247 115.707 404.656 118.359 402.763 120.516C401.621 121.323 400.215 121.778 398.553 121.866H388.138C383.96 121.554 381.995 119.541 382.243 115.835C382.243 115.164 382.578 114.821 383.257 114.821H386.524C387.195 114.821 387.539 114.957 387.539 115.228C387.674 116.69 388.497 117.353 389.999 117.217H396.772C397.515 117.281 398.122 117.129 398.593 116.746C399.288 116.075 399.504 114.949 399.232 113.375C399.033 112.832 398.569 112.52 397.851 112.432H389.36C388.689 112.432 388.345 112.097 388.345 111.418V108.958C388.345 108.287 388.681 107.943 389.36 107.943H396.908C397.691 107.88 398.266 107.672 398.625 107.336C399.033 107.001 399.177 106.498 399.065 105.819C399.089 105.3 399.065 104.788 399.001 104.269C398.458 103.375 397.739 103.023 396.844 103.223H389.36C388.122 103.558 387.611 104.221 387.81 105.212C387.81 105.659 387.475 105.883 386.796 105.883H383.321C382.65 105.883 382.307 105.547 382.307 104.868C382.259 103.878 382.411 102.895 382.746 101.905C383.106 100.938 383.832 100.164 384.935 99.5805V99.5885Z" fill="white"/>
<path d="M408.258 105.754C408.594 101.393 410.958 99.1006 415.335 98.877H423.594C424.361 98.9409 425.256 99.1565 426.294 99.5159C427.285 99.8993 428.147 100.562 428.89 101.505C429.785 102.831 430.28 104.38 430.376 106.154V115.355C430.376 117.464 429.489 119.229 427.716 120.643C426.078 121.657 424.265 122.225 422.292 122.36H414.672C412.603 122.296 410.862 121.386 409.448 119.629C408.777 118.462 408.378 117.16 408.266 115.723V105.746L408.258 105.754ZM416.11 104.205C414.473 104.588 413.642 105.475 413.618 106.864V114.141C413.706 115.803 414.648 116.761 416.446 117.009H422.204C423.978 116.625 424.912 115.435 425 113.438V107.272C424.952 105.65 424.106 104.636 422.436 104.205H416.102H416.11Z" fill="white"/>
<path d="M447.485 99.8612C448.18 99.2062 448.851 98.8867 449.506 98.8867H453.851C454.522 98.8867 454.865 99.2222 454.865 99.9011V112.809C454.865 113.368 455.233 113.648 455.976 113.648C456.719 113.648 457.086 113.983 457.086 114.662V117.394C457.086 118.065 456.727 118.408 456.008 118.408C455.241 118.408 454.865 118.688 454.865 119.247V120.868C454.865 121.539 454.53 121.883 453.851 121.883H450.512C449.841 121.883 449.498 121.547 449.498 120.868V119.247C449.498 118.688 449.218 118.408 448.659 118.408H435.344C434.673 118.408 434.33 118.073 434.33 117.394V113.312C434.33 112.641 434.665 111.978 435.344 111.323L447.477 99.8692L447.485 99.8612ZM449.506 105.588C449.506 104.957 449.154 104.981 448.459 105.652C445.895 107.945 443.339 110.277 440.775 112.665C440.033 113.32 439.993 113.64 440.64 113.64H448.659C449.218 113.64 449.498 113.36 449.498 112.801V105.588H449.506Z" fill="white"/>
</g>
<defs>
<clipPath id="clip0_288_2">
<rect width="589" height="123" fill="white"/>
</clipPath>
</defs>
</svg>
