<svg width="215" height="37" viewBox="0 0 215 37" fill="none" xmlns="http://www.w3.org/2000/svg">
<mask id="mask0_225_10552" style="mask-type:luminance" maskUnits="userSpaceOnUse" x="0" y="0" width="215" height="37">
<path d="M214.484 -1.90735e-06H0V36.9335H214.484V-1.90735e-06Z" fill="white"/>
</mask>
<g mask="url(#mask0_225_10552)">
<path d="M26.9849 23.9666C26.5958 24.3439 26.1048 24.5667 25.554 24.6533L25.3324 24.678L18.6266 25.4266L18.4051 25.4513C18.2794 25.4637 18.1477 25.4575 18.0159 25.4513C17.98 25.4513 17.9381 25.4451 17.9022 25.4451C17.7944 25.439 17.6806 25.4266 17.5669 25.408C17.5429 25.408 17.525 25.408 17.501 25.3957C17.3633 25.3709 17.2316 25.34 17.0939 25.3029C17.064 25.2905 17.034 25.2843 17.0041 25.2719C16.8604 25.2286 16.7227 25.1791 16.579 25.1234C15.9383 24.8636 15.3516 24.4677 14.8546 23.9913L14.657 23.7995L8.83738 17.9347L8.63979 17.7367C8.17278 17.2356 7.7896 16.6541 7.53215 16.0169C7.28068 15.3797 7.19087 14.761 7.23877 14.1981L7.2687 13.9815L7.71177 10.6717L8.15482 7.36815L8.18476 7.13925C8.26858 6.68145 8.45419 6.26076 8.74757 5.91432L4.02358 11.4698C3.7302 11.8163 3.54459 12.2369 3.46077 12.6947L3.43083 12.9236L2.98777 16.2272L2.54471 19.537L2.51477 19.7536C2.46688 20.3165 2.5507 20.929 2.80816 21.5724C3.05962 22.2096 3.4488 22.7973 3.91581 23.2922L4.11339 23.4902L9.93306 29.355L10.1247 29.5468C10.6276 30.0232 11.2084 30.4129 11.849 30.6789C11.9927 30.7346 12.1364 30.7841 12.2741 30.8274C12.304 30.8336 12.34 30.846 12.3699 30.8522C12.5076 30.8893 12.6393 30.9202 12.777 30.945C12.801 30.945 12.8189 30.945 12.8429 30.9573C12.9088 30.9697 12.9686 30.9759 13.0285 30.9883C13.0764 30.9883 13.1243 30.9944 13.1722 31.0006C13.2081 31.0006 13.25 31.0006 13.2919 31.0068C13.4237 31.0068 13.5554 31.013 13.6811 31.0068L13.9086 30.9821L20.6144 30.2335L20.836 30.2088C21.3868 30.1221 21.8778 29.8932 22.2669 29.5221C22.3208 29.4664 22.3687 29.4169 22.4226 29.355C22.4944 29.2746 22.5902 29.1632 22.6561 29.0766C24.1529 27.3197 25.6498 25.5565 27.1406 23.7995C27.0927 23.8552 27.0448 23.9109 26.9909 23.9666" fill="white"/>
<path d="M18.9439 14.9343L18.914 14.891C18.2554 13.9506 17.4171 13.1216 16.4352 12.4968C15.4533 11.8781 14.4594 11.544 13.5314 11.476H13.4895C13.1542 11.4512 12.8308 11.4636 12.5195 11.5131C12.4776 11.6492 12.4477 11.7915 12.4177 11.94C12.4417 11.94 12.4596 11.94 12.4836 11.94H12.5315C13.5014 12.0142 14.5432 12.3607 15.567 13.0102C16.5909 13.6598 17.471 14.5321 18.1536 15.5096L18.1895 15.5529C19.2433 17.081 19.83 18.8751 19.7821 20.5269C19.9857 20.5331 20.1833 20.533 20.3749 20.5207C20.6982 18.708 20.1294 16.6479 18.9439 14.9281" fill="white"/>
<path d="M14.8365 10.0964H14.8784C15.8483 10.1707 16.8901 10.5171 17.9139 11.1667C18.9378 11.8163 19.8119 12.6886 20.5005 13.666L20.5304 13.7093C21.8716 15.6519 22.4404 18.1451 21.9195 20.1062C22.0632 20.0629 22.1949 19.9639 22.3386 19.902C22.4164 19.735 22.5122 19.4814 22.5721 19.3019C23.1708 17.3532 22.614 15.0023 21.2908 13.0845L21.2609 13.0412C20.6022 12.1009 19.764 11.2657 18.7881 10.647C17.8062 10.0284 16.8123 9.69429 15.8842 9.62624H15.8423C15.0041 9.57056 13.9204 9.80565 13.2618 10.1707C13.2319 10.2016 13.2079 10.2387 13.178 10.2696C13.6091 10.1645 14.3635 10.0593 14.8425 10.0902" fill="white"/>
<path d="M20.1593 13.9754L20.1293 13.9321C19.4767 12.9917 18.6325 12.1627 17.6566 11.5379C16.6747 10.913 15.6808 10.579 14.7527 10.5171H14.7108C14.1121 10.4738 13.3637 10.5913 12.8428 10.7707C12.8009 10.8574 12.7649 10.9007 12.729 10.9935C12.9924 10.9625 13.4355 10.9625 13.7109 10.9811H13.7528C14.7228 11.0553 15.7646 11.4018 16.7824 12.0514C17.8062 12.7009 18.6864 13.5732 19.3689 14.5507L19.3989 14.594C21.4405 17.5512 20.8179 20.8671 20.8837 20.4155C21.0574 20.397 21.225 20.3598 21.3926 20.3227V20.3103C21.9914 18.3616 21.4705 15.8808 20.1533 13.963" fill="white"/>
<path d="M15.9261 9.17461H15.968C16.938 9.24885 17.9798 9.59529 19.0036 10.2449C20.0274 10.8945 20.9076 11.7668 21.5901 12.7442L21.6201 12.7875C23.0031 14.792 23.5899 17.248 22.9732 19.2463C22.9552 19.3143 22.9253 19.3762 22.9014 19.4442C23.3983 18.8813 23.7336 18.1574 23.8533 17.2913C24.1168 15.2621 23.1708 13.0536 21.5482 11.4018L21.5123 11.3646C20.704 10.5542 19.7401 9.88606 18.6743 9.453C17.6086 9.01994 16.5728 8.86528 15.6447 8.97045H15.6028C15.046 9.03851 14.5311 9.19935 14.076 9.43444C14.6389 9.2241 15.2675 9.1313 15.9261 9.17461Z" fill="white"/>
<path d="M153.856 9.83657V12.9855H147.833V27.0227H143.69V12.9855H137.66V9.83657H153.856Z" fill="white"/>
<path d="M163.364 24.1583V26.1875C162.19 26.8928 161.083 27.2454 160.053 27.2454C158.939 27.2454 158.281 26.8124 158.077 25.9401C156.844 26.8124 155.61 27.2454 154.371 27.2454C153.497 27.2454 152.754 26.9608 152.144 26.3917C151.533 25.8225 151.228 25.1544 151.228 24.3996C151.228 23.3912 151.545 22.5746 152.174 21.9559C152.802 21.3373 154.718 20.5392 157.91 19.5618C157.987 18.2688 157.341 17.6192 155.958 17.6192C154.455 17.6192 153.078 18.2688 151.814 19.5618V16.586C153.293 15.6457 154.916 15.1693 156.682 15.1693C159.855 15.1693 161.442 16.351 161.442 18.7018V23.9975C161.442 24.5419 161.634 24.8079 162.023 24.8079C162.316 24.8079 162.759 24.5914 163.358 24.1583M157.91 24.2017V21.3868C156.724 21.8137 155.916 22.1972 155.473 22.5437C155.036 22.8839 154.814 23.317 154.814 23.849C154.814 24.1831 154.928 24.4739 155.149 24.7213C155.371 24.9626 155.64 25.0863 155.958 25.0863C156.622 25.0863 157.275 24.7956 157.91 24.2078" fill="white"/>
<path d="M164.028 11.6369C164.028 11.0801 164.22 10.6037 164.597 10.2078C164.974 9.81184 165.435 9.62006 165.968 9.62006C166.501 9.62006 166.968 9.81802 167.351 10.2078C167.735 10.6037 167.92 11.0801 167.92 11.6369C167.92 12.1936 167.729 12.6576 167.351 13.0598C166.968 13.4557 166.507 13.6537 165.968 13.6537C165.429 13.6537 164.98 13.4557 164.597 13.0598C164.214 12.6638 164.028 12.1875 164.028 11.6369ZM167.753 27.0227H164.214V15.4106H167.753V27.0227Z" fill="white"/>
<path d="M178.152 20.9228L175.308 27.2454H173.668L168.585 15.4106H172.189L174.566 21.8075L177.081 15.4106H179.218L181.709 21.8075L184.074 15.4106H187.696L182.631 27.2454H180.948L178.152 20.9228Z" fill="white"/>
<path d="M199.904 24.1583V26.1875C198.731 26.8928 197.623 27.2454 196.593 27.2454C195.48 27.2454 194.821 26.8124 194.618 25.9401C193.384 26.8124 192.151 27.2454 190.911 27.2454C190.037 27.2454 189.295 26.9608 188.684 26.3917C188.073 25.8225 187.768 25.1544 187.768 24.3996C187.768 23.3912 188.085 22.5746 188.714 21.9559C189.343 21.3373 191.259 20.5392 194.45 19.5618C194.528 18.2688 193.881 17.6192 192.498 17.6192C190.995 17.6192 189.618 18.2688 188.355 19.5618V16.586C189.834 15.6457 191.456 15.1693 193.223 15.1693C196.396 15.1693 197.988 16.351 197.988 18.7018V23.9975C197.988 24.5419 198.18 24.8079 198.569 24.8079C198.863 24.8079 199.306 24.5914 199.904 24.1583ZM194.456 24.2017V21.3868C193.27 21.8137 192.462 22.1972 192.019 22.5437C191.582 22.8839 191.36 23.317 191.36 23.849C191.36 24.1831 191.474 24.4739 191.696 24.7213C191.917 24.9626 192.187 25.0863 192.504 25.0863C193.169 25.0863 193.821 24.7956 194.456 24.2078" fill="white"/>
<path d="M204.228 15.4106V17.0562C205.269 15.7942 206.485 15.1632 207.886 15.1632C209.053 15.1632 210.029 15.5467 210.808 16.32C211.592 17.0934 211.981 18.1946 211.981 19.636V27.0289H208.443V19.9453C208.443 18.3925 207.862 17.6192 206.694 17.6192C205.862 17.6192 205.042 18.2564 204.228 19.537V27.0289H200.689V15.4168H204.228V15.4106Z" fill="white"/>
<path d="M49.503 9.83657V12.9855H42.1925V16.8273H49.503V19.9763H42.1925V27.0227H38.0493V9.83657H49.503Z" fill="white"/>
<path d="M62.6932 24.1583V26.1875C61.5197 26.8928 60.412 27.2454 59.3822 27.2454C58.2685 27.2454 57.6099 26.8124 57.4064 25.9401C56.173 26.8124 54.9396 27.2454 53.7002 27.2454C52.8261 27.2454 52.0836 26.9608 51.4729 26.3917C50.8622 25.8225 50.5569 25.1544 50.5569 24.3996C50.5569 23.3912 50.8742 22.5746 51.5029 21.9559C52.1315 21.3373 54.0415 20.5392 57.2327 19.5618C57.3106 18.2688 56.6639 17.6192 55.2809 17.6192C53.784 17.6192 52.401 18.2688 51.1377 19.5618V16.586C52.6165 15.6457 54.2391 15.1693 56.0053 15.1693C59.1786 15.1693 60.7653 16.351 60.7653 18.7018V23.9975C60.7653 24.5419 60.9568 24.8079 61.352 24.8079C61.6454 24.8079 62.0884 24.5914 62.6872 24.1583M57.2387 24.2017V21.3868C56.0592 21.8137 55.2449 22.1972 54.8019 22.5437C54.3648 22.8839 54.1433 23.317 54.1433 23.849C54.1433 24.1831 54.257 24.4739 54.4786 24.7213C54.7001 24.9626 54.9695 25.0863 55.2869 25.0863C55.9515 25.0863 56.6041 24.7956 57.2387 24.2078" fill="white"/>
<path d="M71.2011 16.0231V18.6214C69.854 17.7677 68.6026 17.3408 67.4471 17.3408C66.5969 17.3408 66.1718 17.6378 66.1718 18.2379C66.1718 18.3925 66.2616 18.5472 66.4412 18.7018C66.6208 18.8565 67.3034 19.172 68.4949 19.6669C69.6863 20.1557 70.5246 20.7248 71.0155 21.362C71.5065 21.9993 71.752 22.7045 71.752 23.4655C71.752 24.6718 71.3568 25.606 70.5605 26.2618C69.7642 26.9175 68.6326 27.2454 67.1657 27.2454C65.6988 27.2454 64.3157 26.9608 63.1422 26.3979V23.8243C64.5851 24.4801 65.8006 24.8079 66.7705 24.8079C67.9141 24.8079 68.4829 24.5234 68.4829 23.948C68.4829 23.7253 68.3751 23.5211 68.1656 23.3232C67.956 23.1252 67.2435 22.7849 66.0401 22.2962C64.8366 21.8075 64.0104 21.2754 63.5673 20.6877C63.1242 20.1062 62.9027 19.4566 62.9027 18.739C62.9027 17.6811 63.3278 16.8211 64.184 16.153C65.0342 15.491 66.1598 15.157 67.5608 15.157C68.9619 15.157 70.1114 15.4416 71.1892 16.0169" fill="white"/>
<path d="M81.2716 15.4106V17.91H77.1763V22.6983C77.1763 23.2737 77.332 23.7253 77.6373 24.0594C77.9427 24.3934 78.3678 24.5605 78.9066 24.5605C79.6371 24.5605 80.4274 24.3378 81.2776 23.8861V26.534C80.152 27.0165 79.0563 27.2578 78.0026 27.2578C76.6195 27.2578 75.5478 26.8866 74.7874 26.1504C74.027 25.4142 73.6438 24.3316 73.6438 22.9025V17.9223H72.0332V17.2109L76.7392 11.7729H77.1763V15.4292H81.2716V15.4106Z" fill="white"/>
<path d="M93.3781 23.4222V25.7235C92.031 26.7381 90.3605 27.2516 88.3667 27.2516C86.373 27.2516 84.8103 26.701 83.6248 25.606C82.4453 24.511 81.8525 23.0572 81.8525 21.2507C81.8525 19.4442 82.4094 18.0213 83.517 16.8768C84.6307 15.7385 86.0437 15.1632 87.768 15.1632C89.4924 15.1632 90.9173 15.7632 92.025 16.9634C93.1327 18.1636 93.6535 19.7721 93.5817 21.7951H85.5108C85.5826 22.8468 85.9419 23.6572 86.5945 24.2264C87.2471 24.7956 88.1213 25.0801 89.2169 25.0801C90.5401 25.0801 91.9292 24.5295 93.3841 23.4222M85.5766 19.8773H90.4623C90.2707 18.1884 89.4564 17.3408 88.0195 17.3408C86.5825 17.3408 85.7563 18.1884 85.5766 19.8773Z" fill="white"/>
<path d="M98.7188 15.4106V17.0562C99.7606 15.7942 100.976 15.1632 102.377 15.1632C103.545 15.1632 104.515 15.5467 105.299 16.32C106.083 17.0934 106.472 18.1946 106.472 19.636V27.0289H102.934V19.9453C102.934 18.3925 102.347 17.6192 101.186 17.6192C100.353 17.6192 99.5271 18.2564 98.7188 19.537V27.0289H95.1803V15.4168H98.7188V15.4106Z" fill="white"/>
<path d="M119.686 23.4222V25.7235C118.339 26.7381 116.663 27.2516 114.675 27.2516C112.687 27.2516 111.119 26.701 109.933 25.606C108.754 24.511 108.161 23.0572 108.161 21.2507C108.161 19.4442 108.718 18.0213 109.825 16.8768C110.939 15.7385 112.352 15.1632 114.076 15.1632C115.801 15.1632 117.226 15.7632 118.333 16.9634C119.441 18.1636 119.962 19.7721 119.89 21.7951H111.819C111.891 22.8468 112.25 23.6572 112.903 24.2264C113.555 24.7956 114.43 25.0801 115.525 25.0801C116.848 25.0801 118.238 24.5295 119.692 23.4222M111.885 19.8773H116.771C116.579 18.1884 115.765 17.3408 114.328 17.3408C112.891 17.3408 112.065 18.1884 111.885 19.8773Z" fill="white"/>
<path d="M125.123 15.4106V18.7328H125.171C126.195 16.3572 127.392 15.1632 128.757 15.1632C129.41 15.1632 130.188 15.5158 131.104 16.2211L130.128 19.4566C129.254 18.8812 128.554 18.5967 128.033 18.5967C127.213 18.5967 126.524 19.1225 125.967 20.168C125.41 21.2136 125.129 21.826 125.129 21.9993V27.0289H121.59V15.4168H125.129L125.123 15.4106Z" fill="white"/>
</g>
</svg>
